<?xml version="1.0" encoding="UTF-8" standalone="no"?>
<!-- Created with Inkscape (http://www.inkscape.org/) -->
<svg
   xmlns:dc="http://purl.org/dc/elements/1.1/"
   xmlns:cc="http://creativecommons.org/ns#"
   xmlns:rdf="http://www.w3.org/1999/02/22-rdf-syntax-ns#"
   xmlns:svg="http://www.w3.org/2000/svg"
   xmlns="http://www.w3.org/2000/svg"
   xmlns:sodipodi="http://sodipodi.sourceforge.net/DTD/sodipodi-0.dtd"
   xmlns:inkscape="http://www.inkscape.org/namespaces/inkscape"
   width="80"
   height="40"
   id="svg2"
   sodipodi:version="0.32"
   inkscape:version="0.46"
   version="1.0"
   sodipodi:docname="box_reihen.svg"
   inkscape:output_extension="org.inkscape.output.svg.inkscape"
   inkscape:export-filename="/home/stefan/workspace/FallingBlocks/res_original/box_reihen.png"
   inkscape:export-xdpi="136.00989"
   inkscape:export-ydpi="136.00989">
  <defs
     id="defs4">
    <inkscape:perspective
       sodipodi:type="inkscape:persp3d"
       inkscape:vp_x="0 : 526.18109 : 1"
       inkscape:vp_y="0 : 1000 : 0"
       inkscape:vp_z="744.09448 : 526.18109 : 1"
       inkscape:persp3d-origin="372.04724 : 350.78739 : 1"
       id="perspective10" />
  </defs>
  <sodipodi:namedview
     id="base"
     pagecolor="#ffffff"
     bordercolor="#666666"
     borderopacity="1.0"
     inkscape:pageopacity="0.0"
     inkscape:pageshadow="2"
     inkscape:zoom="5.6"
     inkscape:cx="14.489348"
     inkscape:cy="17.028887"
     inkscape:document-units="px"
     inkscape:current-layer="layer1"
     showgrid="false"
     showguides="true"
     inkscape:guide-bbox="true"
     inkscape:window-width="1440"
     inkscape:window-height="839"
     inkscape:window-x="0"
     inkscape:window-y="34" />
  <metadata
     id="metadata7">
    <rdf:RDF>
      <cc:Work
         rdf:about="">
        <dc:format>image/svg+xml</dc:format>
        <dc:type
           rdf:resource="http://purl.org/dc/dcmitype/StillImage" />
      </cc:Work>
    </rdf:RDF>
  </metadata>
  <g
     inkscape:label="Ebene 1"
     inkscape:groupmode="layer"
     id="layer1">
    <g
       id="g3194" />
    <g
       id="g3271"
       transform="matrix(1.020528,0,0,0.7950051,-0.7332591,6.8258881e-2)">
      <g
         transform="matrix(0.9755931,0,0,0.9875723,0.9779704,0.5331125)"
         id="g3216">
        <path
           sodipodi:nodetypes="cc"
           id="path2389"
           d="M 10.440681,0.91055465 C 65.231419,1.1534886 69.910421,0.89279355 69.910421,0.89279355"
           style="fill:none;fill-opacity:1;fill-rule:evenodd;stroke:#000000;stroke-width:2.20430207;stroke-linecap:round;stroke-linejoin:round;marker:none;marker-start:none;marker-mid:none;marker-end:none;stroke-miterlimit:4;stroke-dasharray:none;stroke-dashoffset:0;stroke-opacity:1;visibility:visible;display:inline;overflow:visible;enable-background:accumulate" />
        <path
           sodipodi:nodetypes="cc"
           id="path2391"
           d="M 9.9770044,48.881697 C 65.605599,48.786418 70.494231,48.979539 70.494231,48.979539"
           style="fill:none;fill-opacity:1;fill-rule:evenodd;stroke:#000000;stroke-width:2.20430207;stroke-linecap:round;stroke-linejoin:round;marker:none;marker-start:none;marker-mid:none;marker-end:none;stroke-miterlimit:4;stroke-dasharray:none;stroke-dashoffset:0;stroke-opacity:1;visibility:visible;display:inline;overflow:visible;enable-background:accumulate" />
        <path
           sodipodi:nodetypes="ccc"
           id="path2393"
           d="M 0.93119346,8.2040264 L 1.0977638,42.681169 L 1.0914026,42.579334"
           style="fill:none;fill-opacity:1;fill-rule:evenodd;stroke:#000000;stroke-width:2.20430207;stroke-linecap:round;stroke-linejoin:round;marker:none;marker-start:none;marker-mid:none;marker-end:none;stroke-miterlimit:4;stroke-dasharray:none;stroke-dashoffset:0;stroke-opacity:1;visibility:visible;display:inline;overflow:visible;enable-background:accumulate" />
        <path
           sodipodi:nodetypes="ccc"
           id="path2395"
           d="M 79.019149,7.9828873 L 79.207671,42.769372 L 79.207671,42.370568"
           style="fill:none;fill-opacity:1;fill-rule:evenodd;stroke:#000000;stroke-width:2.20430207;stroke-linecap:round;stroke-linejoin:round;marker:none;marker-start:none;marker-mid:none;marker-end:none;stroke-miterlimit:4;stroke-dasharray:none;stroke-dashoffset:0;stroke-opacity:1;visibility:visible;display:inline;overflow:visible;enable-background:accumulate" />
        <path
           sodipodi:open="true"
           transform="matrix(1.0690964,0,0,1.0814779,83.514716,34.374119)"
           sodipodi:end="7.8591085"
           sodipodi:start="6.2556061"
           d="M -4.1101818,6.8304248 A 7.9910712,6.4732141 0 0 1 -12.139183,13.482057"
           sodipodi:ry="6.4732141"
           sodipodi:rx="7.9910712"
           sodipodi:cy="7.0089283"
           sodipodi:cx="-12.098214"
           id="path2397"
           style="fill:none;fill-opacity:1;fill-rule:evenodd;stroke:#000000;stroke-width:2.04999995;stroke-linecap:round;stroke-linejoin:round;marker:none;marker-start:none;marker-mid:none;marker-end:none;stroke-miterlimit:4;stroke-dasharray:none;stroke-dashoffset:0;stroke-opacity:1;visibility:visible;display:inline;overflow:visible;enable-background:accumulate"
           sodipodi:type="arc" />
        <path
           transform="matrix(-1.0690964,0,0,1.0814779,-3.3298468,34.366844)"
           sodipodi:open="true"
           sodipodi:end="1.5759232"
           sodipodi:start="0"
           d="M -4.1071429,7.0089283 A 7.9910712,6.4732141 0 0 1 -12.139183,13.482057"
           sodipodi:ry="6.4732141"
           sodipodi:rx="7.9910712"
           sodipodi:cy="7.0089283"
           sodipodi:cx="-12.098214"
           id="path3170"
           style="fill:none;fill-opacity:1;fill-rule:evenodd;stroke:#000000;stroke-width:2.04999995;stroke-linecap:round;stroke-linejoin:round;marker:none;marker-start:none;marker-mid:none;marker-end:none;stroke-miterlimit:4;stroke-dasharray:none;stroke-dashoffset:0;stroke-opacity:1;visibility:visible;display:inline;overflow:visible;enable-background:accumulate"
           sodipodi:type="arc" />
        <path
           transform="matrix(-1.0690964,0,0,-1.0814779,-3.4253012,15.562008)"
           sodipodi:open="true"
           sodipodi:end="1.5759232"
           sodipodi:start="0"
           d="M -4.1071429,7.0089283 A 7.9910712,6.4732141 0 0 1 -12.139183,13.482057"
           sodipodi:ry="6.4732141"
           sodipodi:rx="7.9910712"
           sodipodi:cy="7.0089283"
           sodipodi:cx="-12.098214"
           id="path3172"
           style="fill:none;fill-opacity:1;fill-rule:evenodd;stroke:#000000;stroke-width:2.04999995;stroke-linecap:round;stroke-linejoin:round;marker:none;marker-start:none;marker-mid:none;marker-end:none;stroke-miterlimit:4;stroke-dasharray:none;stroke-dashoffset:0;stroke-opacity:1;visibility:visible;display:inline;overflow:visible;enable-background:accumulate"
           sodipodi:type="arc" />
        <path
           transform="matrix(1.0690964,0,0,-1.0814779,83.585494,15.540185)"
           sodipodi:open="true"
           sodipodi:end="1.5759232"
           sodipodi:start="0"
           d="M -4.1071429,7.0089283 A 7.9910712,6.4732141 0 0 1 -12.139183,13.482057"
           sodipodi:ry="6.4732141"
           sodipodi:rx="7.9910712"
           sodipodi:cy="7.0089283"
           sodipodi:cx="-12.098214"
           id="path3174"
           style="fill:none;fill-opacity:1;fill-rule:evenodd;stroke:#000000;stroke-width:2.04999995;stroke-linecap:round;stroke-linejoin:round;marker:none;marker-start:none;marker-mid:none;marker-end:none;stroke-miterlimit:4;stroke-dasharray:none;stroke-dashoffset:0;stroke-opacity:1;visibility:visible;display:inline;overflow:visible;enable-background:accumulate"
           sodipodi:type="arc" />
        <path
           style="opacity:1;fill:none;fill-opacity:1;fill-rule:evenodd;stroke:#000000;stroke-width:1.89999998;stroke-linecap:butt;stroke-linejoin:miter;marker:none;marker-start:none;marker-mid:none;marker-end:none;stroke-miterlimit:4;stroke-dasharray:none;stroke-dashoffset:0;stroke-opacity:1;visibility:visible;display:inline;overflow:visible;enable-background:accumulate"
           d="M 1.1607143,24.732143 C 78.928572,24.285714 78.928572,24.285714 78.928572,24.285714 L 78.928572,24.285714"
           id="path3206" />
      </g>
      <path
         id="path3267"
         d="M 3.047413,17.502771 C 3.015538,8.2301107 3.0190826,7.9811688 3.1922433,7.3136205 C 3.717404,5.2890804 5.6288505,3.5559045 8.0250915,2.9314991 C 8.597529,2.7823357 10.073975,2.584233 10.837592,2.554133 C 10.911252,2.5512295 22.201431,2.5758589 35.926877,2.6088643 C 49.652324,2.6418714 62.790717,2.6368982 65.123306,2.5978143 C 69.224127,2.5291045 69.961735,2.5477187 71.353913,2.7550473 C 72.938565,2.9910402 74.657985,3.8618116 75.637395,4.9243527 C 76.412681,5.7654375 77.010288,6.9761661 77.00777,7.7006848 C 77.007083,7.8996652 77.008806,11.54796 77.01161,15.808004 L 77.01669,23.55354 L 75.913752,23.553437 C 73.310993,23.553203 13.250931,23.904588 8.4045558,23.948406 L 3.0697344,23.996639 L 3.047413,17.502771 z"
         style="opacity:1;fill:#5e8082;fill-opacity:1;fill-rule:nonzero;stroke:none;stroke-width:0.40799999;stroke-linecap:round;stroke-linejoin:round;marker:none;marker-start:none;marker-mid:none;marker-end:none;stroke-miterlimit:4;stroke-dasharray:none;stroke-dashoffset:0;stroke-opacity:0.98983047;visibility:visible;display:inline;overflow:visible;enable-background:accumulate" />
      <path
         id="path3269"
         d="M 8.866029,47.603076 C 6.0921987,47.13638 3.849779,45.303685 3.3024308,43.056019 C 3.1964933,42.62102 3.166154,41.053555 3.132038,34.255033 L 3.090538,25.983312 L 4.9774576,25.932031 C 8.0168862,25.849429 76.91569,25.494739 76.982324,25.561352 C 77.015672,25.594683 77.042949,29.445623 77.042949,34.118997 C 77.042949,42.114296 77.033261,42.647448 76.878824,43.147941 C 76.539244,44.248495 75.916788,45.182872 75.013824,45.947575 C 74.331565,46.525372 72.919243,47.239439 71.953663,47.494797 L 71.239377,47.683697 L 40.356583,47.694509 C 17.525913,47.702506 9.3153237,47.678665 8.866029,47.603073 L 8.866029,47.603076 z"
         style="opacity:1;fill:#a3e7e7;fill-opacity:1;fill-rule:nonzero;stroke:none;stroke-width:0.40799999;stroke-linecap:round;stroke-linejoin:round;marker:none;marker-start:none;marker-mid:none;marker-end:none;stroke-miterlimit:4;stroke-dasharray:none;stroke-dashoffset:0;stroke-opacity:0.98983047;visibility:visible;display:inline;overflow:visible;enable-background:accumulate" />
    </g>
    <g
       id="g3182"
       transform="matrix(1.009123,0,0,0.7950051,110.17807,-9.0175141)">
      <path
         id="path3491"
         d="M -92.671366,28.705683 L -92.671366,26.219591 L -93.417793,25.580683 C -93.82833,25.229278 -94.230116,24.941766 -94.310652,24.941766 C -94.391189,24.941766 -94.45708,25.986408 -94.45708,27.263194 L -94.45708,29.584623 L -96.33208,29.584623 L -98.20708,29.584623 L -98.20708,23.870337 L -98.20708,18.156051 L -95.080325,18.156051 L -91.953571,18.156051 L -90.437468,19.164996 L -88.921366,20.173949 L -88.921366,22.022139 L -88.921366,23.870337 L -89.992795,23.870337 C -90.58208,23.870337 -91.063923,23.930605 -91.063557,24.004266 C -91.063188,24.077926 -90.581046,24.527617 -89.992129,25.00358 L -88.921366,25.868966 L -88.921366,28.53036 L -88.921366,31.191766 L -90.796366,31.191766 L -92.671366,31.191766 L -92.671366,28.705683 z M -92.671366,21.906051 L -92.671366,20.834623 L -93.564223,20.834623 L -94.45708,20.834623 L -94.45708,21.906051 L -94.45708,22.97748 L -93.564223,22.97748 L -92.671366,22.97748 L -92.671366,21.906051 z"
         style="fill:#ffffff;fill-opacity:1;fill-rule:nonzero;stroke:none;stroke-width:0.40799999;stroke-linecap:round;stroke-linejoin:round;marker:none;marker-start:none;marker-mid:none;marker-end:none;stroke-miterlimit:4;stroke-dasharray:none;stroke-dashoffset:0;stroke-opacity:0.98983047;visibility:visible;display:inline;overflow:visible;enable-background:accumulate" />
      <path
         id="path3493"
         d="M -87.314223,23.870337 L -87.314223,18.156051 L -82.671366,18.156051 L -78.028509,18.156051 L -78.028509,19.495337 L -78.028509,20.834623 L -80.796366,20.834623 L -83.564223,20.834623 L -83.564223,21.906051 L -83.564223,22.97748 L -82.492795,22.97748 L -81.421366,22.97748 L -81.421366,23.870337 L -81.421366,24.763194 L -82.492795,24.763194 L -83.564223,24.763194 L -83.564223,25.834623 L -83.564223,26.906051 L -80.796366,26.906051 L -78.028509,26.906051 L -78.028509,28.245337 L -78.028509,29.584623 L -82.671366,29.584623 L -87.314223,29.584623 L -87.314223,23.870337 z"
         style="fill:#ffffff;fill-opacity:1;fill-rule:nonzero;stroke:none;stroke-width:0.40799999;stroke-linecap:round;stroke-linejoin:round;marker:none;marker-start:none;marker-mid:none;marker-end:none;stroke-miterlimit:4;stroke-dasharray:none;stroke-dashoffset:0;stroke-opacity:0.98983047;visibility:visible;display:inline;overflow:visible;enable-background:accumulate" />
      <path
         id="path3495"
         d="M -76.421366,25.745337 L -76.421366,21.906051 L -74.546366,21.906051 L -72.671366,21.906051 L -72.671366,25.745337 L -72.671366,29.584623 L -74.546366,29.584623 L -76.421366,29.584623 L -76.421366,25.745337 z"
         style="fill:#ffffff;fill-opacity:1;fill-rule:nonzero;stroke:none;stroke-width:0.40799999;stroke-linecap:round;stroke-linejoin:round;marker:none;marker-start:none;marker-mid:none;marker-end:none;stroke-miterlimit:4;stroke-dasharray:none;stroke-dashoffset:0;stroke-opacity:0.98983047;visibility:visible;display:inline;overflow:visible;enable-background:accumulate" />
      <path
         id="path3497"
         d="M -76.421366,19.316766 L -76.421366,18.156051 L -74.546366,18.156051 L -72.671366,18.156051 L -72.671366,19.316766 L -72.671366,20.47748 L -74.546366,20.47748 L -76.421366,20.47748 L -76.421366,19.316766 z"
         style="fill:#ffffff;fill-opacity:1;fill-rule:nonzero;stroke:none;stroke-width:0.40799999;stroke-linecap:round;stroke-linejoin:round;marker:none;marker-start:none;marker-mid:none;marker-end:none;stroke-miterlimit:4;stroke-dasharray:none;stroke-dashoffset:0;stroke-opacity:0.98983047;visibility:visible;display:inline;overflow:visible;enable-background:accumulate" />
      <path
         id="path3499"
         d="M -71.064223,24.673908 L -71.064223,18.156051 L -69.189223,18.156051 L -67.314223,18.156051 L -67.314223,20.566766 L -67.314223,22.97748 L -66.421366,22.97748 L -65.528509,22.97748 L -65.528509,20.566766 L -65.528509,18.156051 L -63.653509,18.156051 L -61.778509,18.156051 L -61.778509,23.870337 L -61.778509,29.584623 L -63.653509,29.584623 L -65.528509,29.584623 L -65.528509,27.173908 L -65.528509,24.763194 L -66.421366,24.763194 L -67.314223,24.763194 L -67.314223,27.97748 L -67.314223,31.191766 L -69.189223,31.191766 L -71.064223,31.191766 L -71.064223,24.673908 z"
         style="fill:#ffffff;fill-opacity:1;fill-rule:nonzero;stroke:none;stroke-width:0.40799999;stroke-linecap:round;stroke-linejoin:round;marker:none;marker-start:none;marker-mid:none;marker-end:none;stroke-miterlimit:4;stroke-dasharray:none;stroke-dashoffset:0;stroke-opacity:0.98983047;visibility:visible;display:inline;overflow:visible;enable-background:accumulate" />
      <path
         id="path3501"
         d="M -60.171366,23.870337 L -60.171366,18.156051 L -55.528509,18.156051 L -50.885652,18.156051 L -50.885652,19.495337 L -50.885652,20.834623 L -53.653509,20.834623 L -56.421366,20.834623 L -56.421366,21.906051 L -56.421366,22.97748 L -55.349937,22.97748 L -54.278509,22.97748 L -54.278509,23.870337 L -54.278509,24.763194 L -55.349937,24.763194 L -56.421366,24.763194 L -56.421366,25.834623 L -56.421366,26.906051 L -53.653509,26.906051 L -50.885652,26.906051 L -50.885652,28.245337 L -50.885652,29.584623 L -55.528509,29.584623 L -60.171366,29.584623 L -60.171366,23.870337 z"
         style="fill:#ffffff;fill-opacity:1;fill-rule:nonzero;stroke:none;stroke-width:0.40799999;stroke-linecap:round;stroke-linejoin:round;marker:none;marker-start:none;marker-mid:none;marker-end:none;stroke-miterlimit:4;stroke-dasharray:none;stroke-dashoffset:0;stroke-opacity:0.98983047;visibility:visible;display:inline;overflow:visible;enable-background:accumulate" />
      <path
         id="path3503"
         d="M -49.278509,23.870337 L -49.278509,18.156051 L -46.196241,18.156051 L -43.113955,18.156051 L -41.553384,19.411958 L -39.992795,20.667855 L -39.992795,25.126244 L -39.992795,29.584623 L -41.95708,29.584623 L -43.921366,29.584623 L -43.921366,25.209623 L -43.921366,20.834623 L -44.724937,20.834623 L -45.528509,20.834623 L -45.528509,25.209623 L -45.528509,29.584623 L -47.403509,29.584623 L -49.278509,29.584623 L -49.278509,23.870337 z"
         style="fill:#ffffff;fill-opacity:1;fill-rule:nonzero;stroke:none;stroke-width:0.40799999;stroke-linecap:round;stroke-linejoin:round;marker:none;marker-start:none;marker-mid:none;marker-end:none;stroke-miterlimit:4;stroke-dasharray:none;stroke-dashoffset:0;stroke-opacity:0.98983047;visibility:visible;display:inline;overflow:visible;enable-background:accumulate" />
      <text
         transform="scale(1.1053469,0.9046934)"
         id="text3487"
         y="32.824085"
         x="-89.712044"
         style="font-size:18.23984146px;font-style:normal;font-variant:normal;font-weight:normal;font-stretch:normal;fill:#000000;fill-opacity:1;stroke:#000000;stroke-width:0.79999995;stroke-linecap:butt;stroke-linejoin:miter;stroke-miterlimit:4;stroke-dasharray:none;stroke-opacity:1;font-family:Dimitri Swank;-inkscape-font-specification:Dimitri Swank"
         xml:space="preserve"><tspan
           y="32.824085"
           x="-89.712044"
           id="tspan3489"
           sodipodi:role="line">Reihen</tspan></text>
    </g>
  </g>
</svg>
