<?xml version="1.0" encoding="UTF-8" standalone="no"?>
<!-- Created with Inkscape (http://www.inkscape.org/) -->
<svg
   xmlns:dc="http://purl.org/dc/elements/1.1/"
   xmlns:cc="http://creativecommons.org/ns#"
   xmlns:rdf="http://www.w3.org/1999/02/22-rdf-syntax-ns#"
   xmlns:svg="http://www.w3.org/2000/svg"
   xmlns="http://www.w3.org/2000/svg"
   xmlns:sodipodi="http://sodipodi.sourceforge.net/DTD/sodipodi-0.dtd"
   xmlns:inkscape="http://www.inkscape.org/namespaces/inkscape"
   width="80"
   height="40"
   id="svg2"
   sodipodi:version="0.32"
   inkscape:version="0.46"
   version="1.0"
   sodipodi:docname="box_punkte.svg"
   inkscape:output_extension="org.inkscape.output.svg.inkscape"
   inkscape:export-filename="/home/stefan/workspace/FallingBlocks/res_original/box_punkte.png"
   inkscape:export-xdpi="135.41934"
   inkscape:export-ydpi="135.41934">
  <defs
     id="defs4">
    <inkscape:perspective
       sodipodi:type="inkscape:persp3d"
       inkscape:vp_x="0 : 526.18109 : 1"
       inkscape:vp_y="0 : 1000 : 0"
       inkscape:vp_z="744.09448 : 526.18109 : 1"
       inkscape:persp3d-origin="372.04724 : 350.78739 : 1"
       id="perspective10" />
  </defs>
  <sodipodi:namedview
     id="base"
     pagecolor="#ffffff"
     bordercolor="#666666"
     borderopacity="1.0"
     inkscape:pageopacity="0.0"
     inkscape:pageshadow="2"
     inkscape:zoom="5.6"
     inkscape:cx="14.489348"
     inkscape:cy="18.915378"
     inkscape:document-units="px"
     inkscape:current-layer="layer1"
     showgrid="false"
     showguides="true"
     inkscape:guide-bbox="true"
     inkscape:window-width="1440"
     inkscape:window-height="839"
     inkscape:window-x="0"
     inkscape:window-y="34" />
  <metadata
     id="metadata7">
    <rdf:RDF>
      <cc:Work
         rdf:about="">
        <dc:format>image/svg+xml</dc:format>
        <dc:type
           rdf:resource="http://purl.org/dc/dcmitype/StillImage" />
      </cc:Work>
    </rdf:RDF>
  </metadata>
  <g
     inkscape:label="Ebene 1"
     inkscape:groupmode="layer"
     id="layer1">
    <g
       id="g3194" />
    <g
       id="g3271"
       transform="matrix(1.0205291,0,0,0.7985593,-0.7333049,6.812412e-2)">
      <g
         transform="matrix(0.9755931,0,0,0.9875723,0.9779704,0.5331125)"
         id="g3216">
        <path
           sodipodi:nodetypes="cc"
           id="path2389"
           d="M 10.440681,0.91055465 C 65.231419,1.1534886 69.910421,0.89279355 69.910421,0.89279355"
           style="fill:none;fill-opacity:1;fill-rule:evenodd;stroke:#000000;stroke-width:2.20430207;stroke-linecap:round;stroke-linejoin:round;marker:none;marker-start:none;marker-mid:none;marker-end:none;stroke-miterlimit:4;stroke-dasharray:none;stroke-dashoffset:0;stroke-opacity:1;visibility:visible;display:inline;overflow:visible;enable-background:accumulate" />
        <path
           sodipodi:nodetypes="cc"
           id="path2391"
           d="M 9.9770044,48.881697 C 65.605599,48.786418 70.494231,48.979539 70.494231,48.979539"
           style="fill:none;fill-opacity:1;fill-rule:evenodd;stroke:#000000;stroke-width:2.20430207;stroke-linecap:round;stroke-linejoin:round;marker:none;marker-start:none;marker-mid:none;marker-end:none;stroke-miterlimit:4;stroke-dasharray:none;stroke-dashoffset:0;stroke-opacity:1;visibility:visible;display:inline;overflow:visible;enable-background:accumulate" />
        <path
           sodipodi:nodetypes="ccc"
           id="path2393"
           d="M 0.93119346,8.2040264 L 1.0977638,42.681169 L 1.0914026,42.579334"
           style="fill:none;fill-opacity:1;fill-rule:evenodd;stroke:#000000;stroke-width:2.20430207;stroke-linecap:round;stroke-linejoin:round;marker:none;marker-start:none;marker-mid:none;marker-end:none;stroke-miterlimit:4;stroke-dasharray:none;stroke-dashoffset:0;stroke-opacity:1;visibility:visible;display:inline;overflow:visible;enable-background:accumulate" />
        <path
           sodipodi:nodetypes="ccc"
           id="path2395"
           d="M 79.019149,7.9828873 L 79.207671,42.769372 L 79.207671,42.370568"
           style="fill:none;fill-opacity:1;fill-rule:evenodd;stroke:#000000;stroke-width:2.20430207;stroke-linecap:round;stroke-linejoin:round;marker:none;marker-start:none;marker-mid:none;marker-end:none;stroke-miterlimit:4;stroke-dasharray:none;stroke-dashoffset:0;stroke-opacity:1;visibility:visible;display:inline;overflow:visible;enable-background:accumulate" />
        <path
           sodipodi:open="true"
           transform="matrix(1.0690964,0,0,1.0814779,83.514716,34.374119)"
           sodipodi:end="7.8591085"
           sodipodi:start="6.2556061"
           d="M -4.1101818,6.8304248 A 7.9910712,6.4732141 0 0 1 -12.139183,13.482057"
           sodipodi:ry="6.4732141"
           sodipodi:rx="7.9910712"
           sodipodi:cy="7.0089283"
           sodipodi:cx="-12.098214"
           id="path2397"
           style="fill:none;fill-opacity:1;fill-rule:evenodd;stroke:#000000;stroke-width:2.04999995;stroke-linecap:round;stroke-linejoin:round;marker:none;marker-start:none;marker-mid:none;marker-end:none;stroke-miterlimit:4;stroke-dasharray:none;stroke-dashoffset:0;stroke-opacity:1;visibility:visible;display:inline;overflow:visible;enable-background:accumulate"
           sodipodi:type="arc" />
        <path
           transform="matrix(-1.0690964,0,0,1.0814779,-3.3298468,34.366844)"
           sodipodi:open="true"
           sodipodi:end="1.5759232"
           sodipodi:start="0"
           d="M -4.1071429,7.0089283 A 7.9910712,6.4732141 0 0 1 -12.139183,13.482057"
           sodipodi:ry="6.4732141"
           sodipodi:rx="7.9910712"
           sodipodi:cy="7.0089283"
           sodipodi:cx="-12.098214"
           id="path3170"
           style="fill:none;fill-opacity:1;fill-rule:evenodd;stroke:#000000;stroke-width:2.04999995;stroke-linecap:round;stroke-linejoin:round;marker:none;marker-start:none;marker-mid:none;marker-end:none;stroke-miterlimit:4;stroke-dasharray:none;stroke-dashoffset:0;stroke-opacity:1;visibility:visible;display:inline;overflow:visible;enable-background:accumulate"
           sodipodi:type="arc" />
        <path
           transform="matrix(-1.0690964,0,0,-1.0814779,-3.4253012,15.562008)"
           sodipodi:open="true"
           sodipodi:end="1.5759232"
           sodipodi:start="0"
           d="M -4.1071429,7.0089283 A 7.9910712,6.4732141 0 0 1 -12.139183,13.482057"
           sodipodi:ry="6.4732141"
           sodipodi:rx="7.9910712"
           sodipodi:cy="7.0089283"
           sodipodi:cx="-12.098214"
           id="path3172"
           style="fill:none;fill-opacity:1;fill-rule:evenodd;stroke:#000000;stroke-width:2.04999995;stroke-linecap:round;stroke-linejoin:round;marker:none;marker-start:none;marker-mid:none;marker-end:none;stroke-miterlimit:4;stroke-dasharray:none;stroke-dashoffset:0;stroke-opacity:1;visibility:visible;display:inline;overflow:visible;enable-background:accumulate"
           sodipodi:type="arc" />
        <path
           transform="matrix(1.0690964,0,0,-1.0814779,83.585494,15.540185)"
           sodipodi:open="true"
           sodipodi:end="1.5759232"
           sodipodi:start="0"
           d="M -4.1071429,7.0089283 A 7.9910712,6.4732141 0 0 1 -12.139183,13.482057"
           sodipodi:ry="6.4732141"
           sodipodi:rx="7.9910712"
           sodipodi:cy="7.0089283"
           sodipodi:cx="-12.098214"
           id="path3174"
           style="fill:none;fill-opacity:1;fill-rule:evenodd;stroke:#000000;stroke-width:2.04999995;stroke-linecap:round;stroke-linejoin:round;marker:none;marker-start:none;marker-mid:none;marker-end:none;stroke-miterlimit:4;stroke-dasharray:none;stroke-dashoffset:0;stroke-opacity:1;visibility:visible;display:inline;overflow:visible;enable-background:accumulate"
           sodipodi:type="arc" />
        <path
           style="opacity:1;fill:none;fill-opacity:1;fill-rule:evenodd;stroke:#000000;stroke-width:1.89999998;stroke-linecap:butt;stroke-linejoin:miter;marker:none;marker-start:none;marker-mid:none;marker-end:none;stroke-miterlimit:4;stroke-dasharray:none;stroke-dashoffset:0;stroke-opacity:1;visibility:visible;display:inline;overflow:visible;enable-background:accumulate"
           d="M 1.1607143,24.732143 C 78.928572,24.285714 78.928572,24.285714 78.928572,24.285714 L 78.928572,24.285714"
           id="path3206" />
      </g>
      <path
         id="path3267"
         d="M 3.047413,17.502771 C 3.015538,8.2301107 3.0190826,7.9811688 3.1922433,7.3136205 C 3.717404,5.2890804 5.6288505,3.5559045 8.0250915,2.9314991 C 8.597529,2.7823357 10.073975,2.584233 10.837592,2.554133 C 10.911252,2.5512295 22.201431,2.5758589 35.926877,2.6088643 C 49.652324,2.6418714 62.790717,2.6368982 65.123306,2.5978143 C 69.224127,2.5291045 69.961735,2.5477187 71.353913,2.7550473 C 72.938565,2.9910402 74.657985,3.8618116 75.637395,4.9243527 C 76.412681,5.7654375 77.010288,6.9761661 77.00777,7.7006848 C 77.007083,7.8996652 77.008806,11.54796 77.01161,15.808004 L 77.01669,23.55354 L 75.913752,23.553437 C 73.310993,23.553203 13.250931,23.904588 8.4045558,23.948406 L 3.0697344,23.996639 L 3.047413,17.502771 z"
         style="opacity:1;fill:#5e8082;fill-opacity:1;fill-rule:nonzero;stroke:none;stroke-width:0.40799999;stroke-linecap:round;stroke-linejoin:round;marker:none;marker-start:none;marker-mid:none;marker-end:none;stroke-miterlimit:4;stroke-dasharray:none;stroke-dashoffset:0;stroke-opacity:0.98983047;visibility:visible;display:inline;overflow:visible;enable-background:accumulate" />
      <path
         id="path3269"
         d="M 8.866029,47.603076 C 6.0921987,47.13638 3.849779,45.303685 3.3024308,43.056019 C 3.1964933,42.62102 3.166154,41.053555 3.132038,34.255033 L 3.090538,25.983312 L 4.9774576,25.932031 C 8.0168862,25.849429 76.91569,25.494739 76.982324,25.561352 C 77.015672,25.594683 77.042949,29.445623 77.042949,34.118997 C 77.042949,42.114296 77.033261,42.647448 76.878824,43.147941 C 76.539244,44.248495 75.916788,45.182872 75.013824,45.947575 C 74.331565,46.525372 72.919243,47.239439 71.953663,47.494797 L 71.239377,47.683697 L 40.356583,47.694509 C 17.525913,47.702506 9.3153237,47.678665 8.866029,47.603073 L 8.866029,47.603076 z"
         style="opacity:1;fill:#a3e7e7;fill-opacity:1;fill-rule:nonzero;stroke:none;stroke-width:0.40799999;stroke-linecap:round;stroke-linejoin:round;marker:none;marker-start:none;marker-mid:none;marker-end:none;stroke-miterlimit:4;stroke-dasharray:none;stroke-dashoffset:0;stroke-opacity:0.98983047;visibility:visible;display:inline;overflow:visible;enable-background:accumulate" />
    </g>
    <g
       id="g3180"
       transform="matrix(1,0,0,0.7817241,112.16716,-0.8733132)">
      <path
         id="path2406"
         d="M -101.95708,14.048908 L -101.95708,7.9774791 L -98.94374,7.9774791 L -95.930401,7.9774791 L -94.56874,8.9718898 L -93.207078,9.9662987 L -93.207078,12.007609 L -93.207078,14.048908 L -95.796363,14.048908 L -98.385649,14.048908 L -98.385649,17.084622 L -98.385649,20.120337 L -100.17136,20.120337 L -101.95708,20.120337 L -101.95708,14.048908 z M -96.778506,11.727479 L -96.778506,10.656051 L -97.582078,10.656051 L -98.385649,10.656051 L -98.385649,11.727479 L -98.385649,12.798908 L -97.582078,12.798908 L -96.778506,12.798908 L -96.778506,11.727479 z"
         style="fill:#ffffff;fill-opacity:1;fill-rule:nonzero;stroke:none;stroke-width:0.40799999;stroke-linecap:round;stroke-linejoin:round;marker:none;marker-start:none;marker-mid:none;marker-end:none;stroke-miterlimit:4;stroke-dasharray:none;stroke-dashoffset:0;stroke-opacity:0.98983047;visibility:visible;display:inline;overflow:visible;enable-background:accumulate" />
      <path
         id="path2408"
         d="M -90.219669,18.818609 L -91.60726,17.531051 L -91.603597,12.754265 L -91.599935,7.9774791 L -89.814221,7.9774791 L -88.028506,7.9774791 L -88.028506,12.620336 L -88.028506,17.263193 L -87.224935,17.263193 L -86.421363,17.263193 L -86.421363,12.620336 L -86.421363,7.9774791 L -84.635649,7.9774791 L -82.849935,7.9774791 L -82.849935,14.048908 L -82.849935,20.120337 L -85.841006,20.113253 L -88.832078,20.106167 L -90.219669,18.818609 z"
         style="fill:#ffffff;fill-opacity:1;fill-rule:nonzero;stroke:none;stroke-width:0.40799999;stroke-linecap:round;stroke-linejoin:round;marker:none;marker-start:none;marker-mid:none;marker-end:none;stroke-miterlimit:4;stroke-dasharray:none;stroke-dashoffset:0;stroke-opacity:0.98983047;visibility:visible;display:inline;overflow:visible;enable-background:accumulate" />
      <path
         id="path2410"
         d="M -81.421363,14.048908 L -81.421363,7.9774791 L -78.341006,7.9780898 L -75.260649,7.9787059 L -73.876721,9.2425416 L -72.492792,10.506377 L -72.492792,15.313359 L -72.492792,20.120337 L -74.278506,20.120337 L -76.064221,20.120337 L -76.064221,15.388193 L -76.064221,10.656051 L -76.867792,10.656051 L -77.671363,10.656051 L -77.671363,15.388193 L -77.671363,20.120337 L -79.546363,20.120337 L -81.421363,20.120337 L -81.421363,14.048908 z"
         style="fill:#ffffff;fill-opacity:1;fill-rule:nonzero;stroke:none;stroke-width:0.40799999;stroke-linecap:round;stroke-linejoin:round;marker:none;marker-start:none;marker-mid:none;marker-end:none;stroke-miterlimit:4;stroke-dasharray:none;stroke-dashoffset:0;stroke-opacity:0.98983047;visibility:visible;display:inline;overflow:visible;enable-background:accumulate" />
      <path
         id="path2412"
         d="M -65.707078,18.423908 L -65.707078,15.120336 L -66.510649,15.120336 L -67.314221,15.120336 L -67.314221,17.620336 L -67.314221,20.120337 L -69.189221,20.120337 L -71.064221,20.120337 L -71.064221,14.048908 L -71.064221,7.9774791 L -69.189221,7.9774791 L -67.314221,7.9774791 L -67.314221,10.500683 L -67.314221,13.023888 L -66.527467,12.33104 C -65.775296,11.668643 -65.73998,11.593067 -65.723897,10.611408 L -65.707078,9.5846219 L -63.921363,9.5846219 L -62.135649,9.5846219 L -62.135649,10.695886 L -62.135649,11.807152 L -63.246565,12.928029 L -64.357471,14.048908 L -63.246565,14.048908 L -62.135649,14.048908 L -62.135649,17.888193 L -62.135649,21.72748 L -63.921363,21.72748 L -65.707078,21.72748 L -65.707078,18.423908 z"
         style="fill:#ffffff;fill-opacity:1;fill-rule:nonzero;stroke:none;stroke-width:0.40799999;stroke-linecap:round;stroke-linejoin:round;marker:none;marker-start:none;marker-mid:none;marker-end:none;stroke-miterlimit:4;stroke-dasharray:none;stroke-dashoffset:0;stroke-opacity:0.98983047;visibility:visible;display:inline;overflow:visible;enable-background:accumulate" />
      <path
         id="path2414"
         d="M -59.23781,18.027331 L -60.707078,15.934317 L -60.707078,11.955902 L -60.707078,7.9774791 L -58.832078,7.9774791 L -56.957078,7.9774791 L -56.957078,8.6917648 L -56.957078,9.4060505 L -54.367792,9.4060505 L -51.778506,9.4060505 L -51.778506,10.388193 L -51.778506,11.370336 L -54.367792,11.370336 L -56.957078,11.370336 L -56.957078,14.316764 L -56.957078,17.263193 L -56.153506,17.263193 L -55.349935,17.263193 L -55.349935,15.031051 L -55.349935,12.798908 L -53.564221,12.798908 L -51.778506,12.798908 L -51.778506,16.459622 L -51.778506,20.120337 L -54.773524,20.120337 L -57.768542,20.120337 L -59.23781,18.027331 z"
         style="fill:#ffffff;fill-opacity:1;fill-rule:nonzero;stroke:none;stroke-width:0.40799999;stroke-linecap:round;stroke-linejoin:round;marker:none;marker-start:none;marker-mid:none;marker-end:none;stroke-miterlimit:4;stroke-dasharray:none;stroke-dashoffset:0;stroke-opacity:0.98983047;visibility:visible;display:inline;overflow:visible;enable-background:accumulate" />
      <path
         id="path2416"
         d="M -50.349935,14.048908 L -50.349935,7.9774791 L -45.885649,7.9774791 L -41.421363,7.9774791 L -41.421363,9.3119916 L -41.421363,10.646502 L -44.055292,10.69592 L -46.689221,10.745336 L -46.742774,11.772122 L -46.796346,12.798908 L -45.715988,12.798908 L -44.635649,12.798908 L -44.635649,13.772134 L -44.635649,14.745373 L -45.662435,14.79892 L -46.689221,14.852479 L -46.689221,16.013193 L -46.689221,17.173908 L -44.055292,17.223323 L -41.421363,17.272741 L -41.421363,18.696538 L -41.421363,20.120337 L -45.885649,20.120337 L -50.349935,20.120337 L -50.349935,14.048908 z"
         style="fill:#ffffff;fill-opacity:1;fill-rule:nonzero;stroke:none;stroke-width:0.40799999;stroke-linecap:round;stroke-linejoin:round;marker:none;marker-start:none;marker-mid:none;marker-end:none;stroke-miterlimit:4;stroke-dasharray:none;stroke-dashoffset:0;stroke-opacity:0.98983047;visibility:visible;display:inline;overflow:visible;enable-background:accumulate" />
      <text
         transform="scale(1.0441073,0.9577559)"
         id="text2402"
         y="21.045481"
         x="-98.590691"
         style="font-size:18.37549591px;font-style:normal;font-variant:normal;font-weight:normal;font-stretch:normal;fill:#000000;fill-opacity:1;stroke:#000000;stroke-width:0.80000001;stroke-linecap:butt;stroke-linejoin:miter;stroke-miterlimit:4;stroke-dasharray:none;stroke-opacity:1;font-family:Dimitri Swank;-inkscape-font-specification:Dimitri Swank"
         xml:space="preserve"><tspan
           y="21.045481"
           x="-98.590691"
           id="tspan2404"
           sodipodi:role="line">Punkte</tspan></text>
    </g>
  </g>
</svg>
