<?xml version="1.0" encoding="UTF-8" standalone="no"?>
<!-- Created with Inkscape (http://www.inkscape.org/) -->
<svg
   xmlns:dc="http://purl.org/dc/elements/1.1/"
   xmlns:cc="http://creativecommons.org/ns#"
   xmlns:rdf="http://www.w3.org/1999/02/22-rdf-syntax-ns#"
   xmlns:svg="http://www.w3.org/2000/svg"
   xmlns="http://www.w3.org/2000/svg"
   xmlns:sodipodi="http://sodipodi.sourceforge.net/DTD/sodipodi-0.dtd"
   xmlns:inkscape="http://www.inkscape.org/namespaces/inkscape"
   width="80"
   height="40"
   id="svg2"
   sodipodi:version="0.32"
   inkscape:version="0.46"
   version="1.0"
   sodipodi:docname="box_score.svg"
   inkscape:output_extension="org.inkscape.output.svg.inkscape"
   inkscape:export-filename="/home/stefan/workspace/FallingBlocks/res_original/box_score.png"
   inkscape:export-xdpi="136.62025"
   inkscape:export-ydpi="136.62025">
  <defs
     id="defs4">
    <inkscape:perspective
       sodipodi:type="inkscape:persp3d"
       inkscape:vp_x="0 : 526.18109 : 1"
       inkscape:vp_y="0 : 1000 : 0"
       inkscape:vp_z="744.09448 : 526.18109 : 1"
       inkscape:persp3d-origin="372.04724 : 350.78739 : 1"
       id="perspective10" />
  </defs>
  <sodipodi:namedview
     id="base"
     pagecolor="#ffffff"
     bordercolor="#666666"
     borderopacity="1.0"
     inkscape:pageopacity="0.0"
     inkscape:pageshadow="2"
     inkscape:zoom="5.6"
     inkscape:cx="14.489348"
     inkscape:cy="18.915378"
     inkscape:document-units="px"
     inkscape:current-layer="layer1"
     showgrid="false"
     showguides="true"
     inkscape:guide-bbox="true"
     inkscape:window-width="1440"
     inkscape:window-height="839"
     inkscape:window-x="0"
     inkscape:window-y="34" />
  <metadata
     id="metadata7">
    <rdf:RDF>
      <cc:Work
         rdf:about="">
        <dc:format>image/svg+xml</dc:format>
        <dc:type
           rdf:resource="http://purl.org/dc/dcmitype/StillImage" />
      </cc:Work>
    </rdf:RDF>
  </metadata>
  <g
     inkscape:label="Ebene 1"
     inkscape:groupmode="layer"
     id="layer1">
    <g
       id="g3194" />
    <g
       id="g3271"
       transform="matrix(1.018248,0,0,0.7914087,-0.7311872,6.9456406e-2)">
      <g
         transform="matrix(0.9755931,0,0,0.9875723,0.9779704,0.5331125)"
         id="g3216">
        <path
           sodipodi:nodetypes="cc"
           id="path2389"
           d="M 10.440681,0.91055465 C 65.231419,1.1534886 69.910421,0.89279355 69.910421,0.89279355"
           style="fill:none;fill-opacity:1;fill-rule:evenodd;stroke:#000000;stroke-width:2.20430207;stroke-linecap:round;stroke-linejoin:round;marker:none;marker-start:none;marker-mid:none;marker-end:none;stroke-miterlimit:4;stroke-dasharray:none;stroke-dashoffset:0;stroke-opacity:1;visibility:visible;display:inline;overflow:visible;enable-background:accumulate" />
        <path
           sodipodi:nodetypes="cc"
           id="path2391"
           d="M 9.9770044,48.881697 C 65.605599,48.786418 70.494231,48.979539 70.494231,48.979539"
           style="fill:none;fill-opacity:1;fill-rule:evenodd;stroke:#000000;stroke-width:2.20430207;stroke-linecap:round;stroke-linejoin:round;marker:none;marker-start:none;marker-mid:none;marker-end:none;stroke-miterlimit:4;stroke-dasharray:none;stroke-dashoffset:0;stroke-opacity:1;visibility:visible;display:inline;overflow:visible;enable-background:accumulate" />
        <path
           sodipodi:nodetypes="ccc"
           id="path2393"
           d="M 0.93119346,8.2040264 L 1.0977638,42.681169 L 1.0914026,42.579334"
           style="fill:none;fill-opacity:1;fill-rule:evenodd;stroke:#000000;stroke-width:2.20430207;stroke-linecap:round;stroke-linejoin:round;marker:none;marker-start:none;marker-mid:none;marker-end:none;stroke-miterlimit:4;stroke-dasharray:none;stroke-dashoffset:0;stroke-opacity:1;visibility:visible;display:inline;overflow:visible;enable-background:accumulate" />
        <path
           sodipodi:nodetypes="ccc"
           id="path2395"
           d="M 79.019149,7.9828873 L 79.207671,42.769372 L 79.207671,42.370568"
           style="fill:none;fill-opacity:1;fill-rule:evenodd;stroke:#000000;stroke-width:2.20430207;stroke-linecap:round;stroke-linejoin:round;marker:none;marker-start:none;marker-mid:none;marker-end:none;stroke-miterlimit:4;stroke-dasharray:none;stroke-dashoffset:0;stroke-opacity:1;visibility:visible;display:inline;overflow:visible;enable-background:accumulate" />
        <path
           sodipodi:open="true"
           transform="matrix(1.0690964,0,0,1.0814779,83.514716,34.374119)"
           sodipodi:end="7.8591085"
           sodipodi:start="6.2556061"
           d="M -4.1101818,6.8304248 A 7.9910712,6.4732141 0 0 1 -12.139183,13.482057"
           sodipodi:ry="6.4732141"
           sodipodi:rx="7.9910712"
           sodipodi:cy="7.0089283"
           sodipodi:cx="-12.098214"
           id="path2397"
           style="fill:none;fill-opacity:1;fill-rule:evenodd;stroke:#000000;stroke-width:2.04999995;stroke-linecap:round;stroke-linejoin:round;marker:none;marker-start:none;marker-mid:none;marker-end:none;stroke-miterlimit:4;stroke-dasharray:none;stroke-dashoffset:0;stroke-opacity:1;visibility:visible;display:inline;overflow:visible;enable-background:accumulate"
           sodipodi:type="arc" />
        <path
           transform="matrix(-1.0690964,0,0,1.0814779,-3.3298468,34.366844)"
           sodipodi:open="true"
           sodipodi:end="1.5759232"
           sodipodi:start="0"
           d="M -4.1071429,7.0089283 A 7.9910712,6.4732141 0 0 1 -12.139183,13.482057"
           sodipodi:ry="6.4732141"
           sodipodi:rx="7.9910712"
           sodipodi:cy="7.0089283"
           sodipodi:cx="-12.098214"
           id="path3170"
           style="fill:none;fill-opacity:1;fill-rule:evenodd;stroke:#000000;stroke-width:2.04999995;stroke-linecap:round;stroke-linejoin:round;marker:none;marker-start:none;marker-mid:none;marker-end:none;stroke-miterlimit:4;stroke-dasharray:none;stroke-dashoffset:0;stroke-opacity:1;visibility:visible;display:inline;overflow:visible;enable-background:accumulate"
           sodipodi:type="arc" />
        <path
           transform="matrix(-1.0690964,0,0,-1.0814779,-3.4253012,15.562008)"
           sodipodi:open="true"
           sodipodi:end="1.5759232"
           sodipodi:start="0"
           d="M -4.1071429,7.0089283 A 7.9910712,6.4732141 0 0 1 -12.139183,13.482057"
           sodipodi:ry="6.4732141"
           sodipodi:rx="7.9910712"
           sodipodi:cy="7.0089283"
           sodipodi:cx="-12.098214"
           id="path3172"
           style="fill:none;fill-opacity:1;fill-rule:evenodd;stroke:#000000;stroke-width:2.04999995;stroke-linecap:round;stroke-linejoin:round;marker:none;marker-start:none;marker-mid:none;marker-end:none;stroke-miterlimit:4;stroke-dasharray:none;stroke-dashoffset:0;stroke-opacity:1;visibility:visible;display:inline;overflow:visible;enable-background:accumulate"
           sodipodi:type="arc" />
        <path
           transform="matrix(1.0690964,0,0,-1.0814779,83.585494,15.540185)"
           sodipodi:open="true"
           sodipodi:end="1.5759232"
           sodipodi:start="0"
           d="M -4.1071429,7.0089283 A 7.9910712,6.4732141 0 0 1 -12.139183,13.482057"
           sodipodi:ry="6.4732141"
           sodipodi:rx="7.9910712"
           sodipodi:cy="7.0089283"
           sodipodi:cx="-12.098214"
           id="path3174"
           style="fill:none;fill-opacity:1;fill-rule:evenodd;stroke:#000000;stroke-width:2.04999995;stroke-linecap:round;stroke-linejoin:round;marker:none;marker-start:none;marker-mid:none;marker-end:none;stroke-miterlimit:4;stroke-dasharray:none;stroke-dashoffset:0;stroke-opacity:1;visibility:visible;display:inline;overflow:visible;enable-background:accumulate"
           sodipodi:type="arc" />
        <path
           style="opacity:1;fill:none;fill-opacity:1;fill-rule:evenodd;stroke:#000000;stroke-width:1.89999998;stroke-linecap:butt;stroke-linejoin:miter;marker:none;marker-start:none;marker-mid:none;marker-end:none;stroke-miterlimit:4;stroke-dasharray:none;stroke-dashoffset:0;stroke-opacity:1;visibility:visible;display:inline;overflow:visible;enable-background:accumulate"
           d="M 1.1607143,24.732143 C 78.928572,24.285714 78.928572,24.285714 78.928572,24.285714 L 78.928572,24.285714"
           id="path3206" />
      </g>
      <path
         id="path3267"
         d="M 3.047413,17.502771 C 3.015538,8.2301107 3.0190826,7.9811688 3.1922433,7.3136205 C 3.717404,5.2890804 5.6288505,3.5559045 8.0250915,2.9314991 C 8.597529,2.7823357 10.073975,2.584233 10.837592,2.554133 C 10.911252,2.5512295 22.201431,2.5758589 35.926877,2.6088643 C 49.652324,2.6418714 62.790717,2.6368982 65.123306,2.5978143 C 69.224127,2.5291045 69.961735,2.5477187 71.353913,2.7550473 C 72.938565,2.9910402 74.657985,3.8618116 75.637395,4.9243527 C 76.412681,5.7654375 77.010288,6.9761661 77.00777,7.7006848 C 77.007083,7.8996652 77.008806,11.54796 77.01161,15.808004 L 77.01669,23.55354 L 75.913752,23.553437 C 73.310993,23.553203 13.250931,23.904588 8.4045558,23.948406 L 3.0697344,23.996639 L 3.047413,17.502771 z"
         style="opacity:1;fill:#5e8082;fill-opacity:1;fill-rule:nonzero;stroke:none;stroke-width:0.40799999;stroke-linecap:round;stroke-linejoin:round;marker:none;marker-start:none;marker-mid:none;marker-end:none;stroke-miterlimit:4;stroke-dasharray:none;stroke-dashoffset:0;stroke-opacity:0.98983047;visibility:visible;display:inline;overflow:visible;enable-background:accumulate" />
      <path
         id="path3269"
         d="M 8.866029,47.603076 C 6.0921987,47.13638 3.849779,45.303685 3.3024308,43.056019 C 3.1964933,42.62102 3.166154,41.053555 3.132038,34.255033 L 3.090538,25.983312 L 4.9774576,25.932031 C 8.0168862,25.849429 76.91569,25.494739 76.982324,25.561352 C 77.015672,25.594683 77.042949,29.445623 77.042949,34.118997 C 77.042949,42.114296 77.033261,42.647448 76.878824,43.147941 C 76.539244,44.248495 75.916788,45.182872 75.013824,45.947575 C 74.331565,46.525372 72.919243,47.239439 71.953663,47.494797 L 71.239377,47.683697 L 40.356583,47.694509 C 17.525913,47.702506 9.3153237,47.678665 8.866029,47.603073 L 8.866029,47.603076 z"
         style="opacity:1;fill:#a3e7e7;fill-opacity:1;fill-rule:nonzero;stroke:none;stroke-width:0.40799999;stroke-linecap:round;stroke-linejoin:round;marker:none;marker-start:none;marker-mid:none;marker-end:none;stroke-miterlimit:4;stroke-dasharray:none;stroke-dashoffset:0;stroke-opacity:0.98983047;visibility:visible;display:inline;overflow:visible;enable-background:accumulate" />
    </g>
    <g
       id="g3178"
       transform="matrix(1,0,0,0.8662144,90.039378,-4.0744321)">
      <path
         id="path3309"
         d="M -78.624999,20.200694 L -78.624999,18.906051 L -75.36607,18.906051 L -72.107142,18.906051 L -72.107142,17.700694 L -72.107142,16.495337 L -75.36607,16.495337 L -78.624999,16.495337 L -78.624999,15.037749 L -78.624999,13.580159 L -76.995534,11.646859 L -75.36607,9.7135597 L -71.861606,9.7115917 L -68.357141,9.7096227 L -68.357141,11.093551 L -68.357141,12.47748 L -71.392856,12.47748 L -74.42857,12.47748 L -74.42857,13.504266 L -74.42857,14.531051 L -71.392856,14.531051 L -68.357141,14.531051 L -68.357141,17.068348 L -68.357141,19.605645 L -69.449371,20.550491 L -70.5416,21.495337 L -74.5833,21.495337 L -78.624999,21.495337 L -78.624999,20.200694 z"
         style="fill:#ffffff;fill-opacity:1;fill-rule:nonzero;stroke:none;stroke-width:0.40799999;stroke-linecap:round;stroke-linejoin:round;marker:none;marker-start:none;marker-mid:none;marker-end:none;stroke-miterlimit:4;stroke-dasharray:none;stroke-dashoffset:0;stroke-opacity:0.98983047;visibility:visible;display:inline;overflow:visible;enable-background:accumulate" />
      <path
         id="path3311"
         d="M -66.749999,17.560477 L -66.749999,13.625619 L -65.092894,11.66762 L -63.435784,9.7096227 L -59.901409,9.7096227 L -56.367034,9.7096227 L -56.423954,10.312301 C -56.455258,10.643774 -56.481159,11.708507 -56.481508,12.678373 L -56.482141,14.441766 L -58.624999,14.441766 L -60.767856,14.441766 L -60.767856,13.459623 L -60.767856,12.47748 L -61.61607,12.47748 L -62.464284,12.47748 L -62.464284,15.736408 L -62.464284,18.995337 L -61.61607,18.995337 L -60.767856,18.995337 L -60.767856,17.16498 L -60.767856,15.334623 L -58.624999,15.334623 L -56.482141,15.334623 L -56.482141,17.197765 L -56.482141,19.060912 L -58.083391,20.278122 L -59.684615,21.495337 L -63.217311,21.495337 L -66.749999,21.495337 L -66.749999,17.560477 z"
         style="fill:#ffffff;fill-opacity:1;fill-rule:nonzero;stroke:none;stroke-width:0.40799999;stroke-linecap:round;stroke-linejoin:round;marker:none;marker-start:none;marker-mid:none;marker-end:none;stroke-miterlimit:4;stroke-dasharray:none;stroke-dashoffset:0;stroke-opacity:0.98983047;visibility:visible;display:inline;overflow:visible;enable-background:accumulate" />
      <path
         id="path3313"
         d="M -53.166579,20.267658 L -54.785249,19.03998 L -54.785481,14.374801 L -54.785713,9.7096227 L -51.281249,9.7123327 L -47.776784,9.7150477 L -46.14732,10.977009 L -44.517856,12.238971 L -44.517856,16.867156 L -44.517856,21.495337 L -48.032883,21.495337 L -51.547918,21.495337 L -53.166579,20.267658 z M -48.80357,15.60248 L -48.80357,12.47748 L -49.651784,12.47748 L -50.499999,12.47748 L -50.499999,15.60248 L -50.499999,18.72748 L -49.651784,18.72748 L -48.80357,18.72748 L -48.80357,15.60248 z"
         style="fill:#ffffff;fill-opacity:1;fill-rule:nonzero;stroke:none;stroke-width:0.40799999;stroke-linecap:round;stroke-linejoin:round;marker:none;marker-start:none;marker-mid:none;marker-end:none;stroke-miterlimit:4;stroke-dasharray:none;stroke-dashoffset:0;stroke-opacity:0.98983047;visibility:visible;display:inline;overflow:visible;enable-background:accumulate" />
      <path
         id="path3315"
         d="M -36.931436,20.490873 L -36.934311,17.879266 L -37.69282,17.298908 C -38.110007,16.979712 -38.490409,16.705158 -38.538168,16.68879 C -38.593016,16.669989 -38.624999,17.549761 -38.624999,19.077182 L -38.624999,21.495337 L -40.767856,21.495337 L -42.910713,21.495337 L -42.910713,15.60248 L -42.910713,9.7096227 L -39.389686,9.7096227 L -35.86865,9.7096227 L -34.255757,10.712732 L -32.642856,11.715841 L -32.642856,13.659161 L -32.642856,15.60248 L -33.558034,15.613044 C -35.20157,15.632015 -35.193043,15.600224 -33.831025,16.630832 L -32.653115,17.522123 L -32.64799,20.312301 L -32.642856,23.10248 L -34.785713,23.10248 L -36.92857,23.10248 L -36.931436,20.490873 z M -36.92857,13.504266 L -36.92857,12.47748 L -37.776784,12.47748 L -38.624999,12.47748 L -38.624999,13.504266 L -38.624999,14.531051 L -37.776784,14.531051 L -36.92857,14.531051 L -36.92857,13.504266 z"
         style="fill:#ffffff;fill-opacity:1;fill-rule:nonzero;stroke:none;stroke-width:0.40799999;stroke-linecap:round;stroke-linejoin:round;marker:none;marker-start:none;marker-mid:none;marker-end:none;stroke-miterlimit:4;stroke-dasharray:none;stroke-dashoffset:0;stroke-opacity:0.98983047;visibility:visible;display:inline;overflow:visible;enable-background:accumulate" />
      <path
         id="path3317"
         d="M -30.946427,15.60248 L -30.946427,9.7096227 L -25.812499,9.7096227 L -20.67857,9.7096227 L -20.67857,11.093551 L -20.67857,12.47748 L -23.669641,12.47748 L -26.660713,12.47748 L -26.660713,13.504266 L -26.660713,14.531051 L -25.499999,14.531051 L -24.339284,14.531051 L -24.339284,15.513194 L -24.339284,16.495337 L -25.499999,16.495337 L -26.660713,16.495337 L -26.660713,17.611408 L -26.660713,18.72748 L -23.669641,18.72748 L -20.67857,18.72748 L -20.67857,20.111408 L -20.67857,21.495337 L -25.812499,21.495337 L -30.946427,21.495337 L -30.946427,15.60248 z"
         style="fill:#ffffff;fill-opacity:1;fill-rule:nonzero;stroke:none;stroke-width:0.40799999;stroke-linecap:round;stroke-linejoin:round;marker:none;marker-start:none;marker-mid:none;marker-end:none;stroke-miterlimit:4;stroke-dasharray:none;stroke-dashoffset:0;stroke-opacity:0.98983047;visibility:visible;display:inline;overflow:visible;enable-background:accumulate" />
      <text
         transform="scale(1.1416391,0.8759336)"
         id="text3305"
         y="24.6073"
         x="-69.764793"
         style="font-size:19.36090851px;font-style:normal;font-variant:normal;font-weight:normal;font-stretch:normal;fill:#000000;fill-opacity:1;stroke:#000000;stroke-width:0.79999995;stroke-linecap:butt;stroke-linejoin:miter;stroke-miterlimit:4;stroke-dasharray:none;stroke-opacity:1;font-family:Dimitri Swank;-inkscape-font-specification:Dimitri Swank"
         xml:space="preserve"><tspan
           y="24.6073"
           x="-69.764793"
           id="tspan3307"
           sodipodi:role="line">Score</tspan></text>
    </g>
  </g>
</svg>
