<?xml version="1.0" encoding="UTF-8" standalone="no"?>
<!-- Created with Inkscape (http://www.inkscape.org/) -->
<svg
   xmlns:dc="http://purl.org/dc/elements/1.1/"
   xmlns:cc="http://creativecommons.org/ns#"
   xmlns:rdf="http://www.w3.org/1999/02/22-rdf-syntax-ns#"
   xmlns:svg="http://www.w3.org/2000/svg"
   xmlns="http://www.w3.org/2000/svg"
   xmlns:sodipodi="http://sodipodi.sourceforge.net/DTD/sodipodi-0.dtd"
   xmlns:inkscape="http://www.inkscape.org/namespaces/inkscape"
   width="48px"
   height="48px"
   id="svg2383"
   sodipodi:version="0.32"
   inkscape:version="0.46"
   sodipodi:docname="quadrat_blitz.svg"
   inkscape:output_extension="org.inkscape.output.svg.inkscape"
   inkscape:export-filename="/home/stefan/workspace/FallingBlocks/res_original/quadrat_blitz.png"
   inkscape:export-xdpi="40.158451"
   inkscape:export-ydpi="40.158451">
  <defs
     id="defs2385">
    <inkscape:perspective
       sodipodi:type="inkscape:persp3d"
       inkscape:vp_x="0 : 24 : 1"
       inkscape:vp_y="0 : 1000 : 0"
       inkscape:vp_z="48 : 24 : 1"
       inkscape:persp3d-origin="24 : 16 : 1"
       id="perspective2391" />
    <filter
       inkscape:collect="always"
       id="filter3302">
      <feGaussianBlur
         inkscape:collect="always"
         stdDeviation="0.45120731"
         id="feGaussianBlur3304" />
    </filter>
    <filter
       inkscape:collect="always"
       id="filter3388"
       x="-0.14374865"
       width="1.2874973"
       y="-0.12860599"
       height="1.257212">
      <feGaussianBlur
         inkscape:collect="always"
         stdDeviation="1.5968312"
         id="feGaussianBlur3390" />
    </filter>
  </defs>
  <sodipodi:namedview
     id="base"
     pagecolor="#ffffff"
     bordercolor="#666666"
     borderopacity="1.0"
     inkscape:pageopacity="0.0"
     inkscape:pageshadow="2"
     inkscape:zoom="4.9497475"
     inkscape:cx="47.571429"
     inkscape:cy="24.592551"
     inkscape:current-layer="layer1"
     showgrid="true"
     inkscape:grid-bbox="true"
     inkscape:document-units="px"
     inkscape:window-width="1440"
     inkscape:window-height="839"
     inkscape:window-x="0"
     inkscape:window-y="34" />
  <metadata
     id="metadata2388">
    <rdf:RDF>
      <cc:Work
         rdf:about="">
        <dc:format>image/svg+xml</dc:format>
        <dc:type
           rdf:resource="http://purl.org/dc/dcmitype/StillImage" />
      </cc:Work>
    </rdf:RDF>
  </metadata>
  <g
     id="layer1"
     inkscape:label="Layer 1"
     inkscape:groupmode="layer">
    <g
       id="g3177"
       transform="translate(-0.8571425,-0.7142858)">
      <path
         sodipodi:nodetypes="csssssssssssssssssssssssssssssssssssssssssssssssssssccssssssssssssssssssssc"
         id="path2395"
         d="M 2.5714286,1.8571428 C 2.8196532,2.4777043 3.9138442,1.5947249 4.5714286,1.7142857 C 5.5555586,1.8932184 6.2530868,2.2883596 7.2142857,2 C 8.3025798,1.6735118 9.3352687,2.1583605 10.428571,2.3571428 C 11.239123,2.5045158 11.729679,2.302525 12.5,2.0714285 C 13.354464,1.8150894 14.685313,2.5350414 15.5,2.7857143 C 15.94858,2.9237388 17.399472,2.0658727 17.857143,1.9285714 C 18.986579,1.5897406 20.792649,2.2955097 21.857143,2.4285714 C 23.193756,2.595648 23.108419,2.3925091 24.285714,2.0714285 C 25.276174,1.8013031 26.341895,2.5 27.428571,2.5 C 28.022587,2.5 27.856119,2.3705952 28.357143,2.1428571 C 28.922368,1.8859366 29.603424,2.1746485 30.214286,2.2857143 C 30.371429,2.3142857 30.268852,1.8571428 30.428571,1.8571428 C 30.997875,1.8571428 31.334349,2.8715866 31.357143,2.9285714 C 31.597806,3.5302281 31.944449,1.8730603 31.928571,1.7142857 C 31.831177,0.74034306 33.89735,2.1205299 34.857143,1.9285714 C 35.948113,1.7103775 36.404426,1.7713278 37.642857,2.1428571 C 38.218176,2.3154526 39.004237,1.9044088 39.571429,1.8571428 C 40.354594,1.791879 40.806052,1.6897819 41.642857,1.8571428 C 42.722105,2.0729924 42.479472,2.4955317 43.5,1.9285714 C 44.541959,1.3497052 44.973796,2.5242617 45.357143,3.2142857 C 45.806531,4.0231847 45.714286,4.400805 45.714286,5.3571428 C 45.714286,6.3048177 46.130537,7.0073396 46.214286,7.9285714 C 46.270731,8.549467 45.591916,9.6341818 45.357143,10.142857 C 45.101197,10.697406 45.516226,11.876543 45.571429,12.428571 C 45.671015,13.424435 45.80279,13.849687 46.714286,14.214286 C 47.449881,14.508524 46.756169,15.546753 46.642857,16 C 46.45085,16.76803 46.432691,17.557698 46.214286,18.285714 C 45.981165,19.062782 46.028925,19.500883 46.285714,20.142857 C 46.540373,20.779505 46.424914,21.536579 46.357143,22.214286 C 46.273956,23.04615 45.938082,23.825442 45.714286,24.571429 C 45.674337,24.704591 46.723372,26.271412 46.785714,26.5 C 46.980286,27.213431 46.338914,28.060762 46.142857,28.714286 C 45.916709,29.468113 46.309006,30.415371 46.571429,31.071429 C 46.828157,31.713249 46.849875,32.429822 46.785714,33.071429 C 46.73851,33.543476 45.902973,33.5 45.428571,33.5 C 44.63282,33.5 46.642913,34.614432 46.928571,35.357143 C 47.2543,36.204037 46.357143,36.537008 46.357143,37.357143 C 46.357143,38.240405 47.17676,39.66063 47.428571,40.5 C 47.670738,41.307222 47.439967,41.629834 46.928571,42.214286 C 46.561842,42.633405 48.303248,45.512179 48.357143,45.714286 C 48.529027,46.358853 47.153569,46.355105 46.714286,46.857143 C 45.936819,47.745676 43.19617,45.922533 42.142857,45.571429 C 41.35255,45.307993 40.343982,45.357143 39.5,45.357143 C 38.510399,45.357143 37.463605,45.896228 36.5,46.071429 C 35.086406,46.328446 33.566814,45.923284 32.071429,45.571429 C 31.339344,45.399173 30.342513,45.642857 29.571429,45.642857 C 28.815562,45.642857 27.994448,46.092423 27.285714,46.285714 C 26.543285,46.488195 26.114316,46.780932 25.571429,47.142857 C 24.568654,47.811374 22.207467,47.123295 21.142857,46.857143 C 20.048763,46.583619 18.98227,46.001658 17.928571,45.714286 C 16.994698,45.459593 16.473264,45.975171 15.785714,46.357143 C 15.068922,46.755361 11.551335,47.714286 13.214286,46.571429 C 9.03856,46.089136 10.258932,46.356622 10.357143,46.357143 C 9.8310447,45.896807 7.0975268,46.090275 7.2857143,46.285714 C 8.2558954,47.29328 5.7107694,45.741538 5,46 C 3.9312719,46.388628 3.7531291,45.668537 3.4285714,44.857143 C 3.2033532,44.294097 3.2857143,43.627739 3.2857143,43 C 3.2857143,42.193268 3.2963578,41.41036 3.1428571,40.642857 C 2.9865072,39.861107 2.7142857,39.429955 2.7142857,38.5 C 2.7142857,37.34069 2.4891676,37.769126 3.4285714,37.142857 C 4.5826795,36.373452 4.078275,35.229941 3.2857143,35.071429 C 2.5406346,34.922413 2.6428571,33.637091 2.6428571,33.071429 C 2.6428571,32.2776 2.55379,31.604957 2.6428571,30.714286 C 2.7167433,29.975424 2.6513509,29.400259 2.8571429,28.714286 C 3.257939,27.378299 3.3097681,27.000733 2.8571429,25.642857 C 2.5529177,24.730182 2.1133898,24.676804 2.2857143,23.642857 C 2.3911187,23.010431 3.2048518,22.090296 3.5,21.5 C 3.940815,20.61837 3.2142857,19.356331 3.2142857,18.428571 C 3.2142857,17.446088 3.5297309,16.367177 3.7857143,15.428571 C 3.9815562,14.710484 3.0542082,12.953281 2.8571429,12.214286 C 2.4682408,10.755903 1.5911403,9.7914372 2,8.4285714 C 2.2701141,7.528191 2.4758014,6.456272 2.5714286,5.5 C 2.6045766,5.1685199 1.7857143,4.5328856 1.7857143,3.8571428 C 1.7857143,2.9527696 2.4041228,2.0722502 2.5714286,1.8571428 z"
         style="opacity:1;fill:none;fill-opacity:1;fill-rule:evenodd;stroke:#000000;stroke-width:1;stroke-linecap:round;stroke-linejoin:round;marker:none;marker-start:none;marker-mid:none;marker-end:none;stroke-miterlimit:4;stroke-dasharray:none;stroke-dashoffset:0;stroke-opacity:1;visibility:visible;display:inline;overflow:visible;enable-background:accumulate" />
      <path
         sodipodi:nodetypes="cssssssssssssssssssssssssssssssssssssssssssssssssssssssssssssssssc"
         id="path2397"
         d="M 5.9285714,5.1428571 C 6.4613284,5.2276874 7.396502,5.1310494 8.0714286,4.9285714 C 8.8584022,4.6924793 9.8737439,4.7289573 10.642857,4.8571428 C 11.248419,4.9580698 11.903086,4.9457351 12.5,5 C 13.440531,5.0855028 14.627454,5.4445786 15.571429,5.7142857 C 16.296736,5.9215163 17.040959,5.4285714 17.785714,5.4285714 C 18.904762,5.4285714 20.02381,5.4285714 21.142857,5.4285714 C 21.746903,5.4285714 22.367321,4.8408215 23,4.7142857 C 24.147777,4.4847303 25.977038,5.1716827 27.071429,5.5 C 28.031543,5.7880344 29.151864,5.674068 29.928571,5.2857143 C 30.745458,4.877271 31.520114,5.0325943 32.428571,5.2142857 C 33.268694,5.3823102 34.221543,5.2438248 35.071429,5.3571428 C 35.440083,5.4062967 34.666596,4.7063022 34.357143,4.5 C 33.297501,3.7935719 36.78949,5.2876023 37.928571,5.8571428 C 39.025435,6.4055746 38.801533,7.05561 39.642857,6.2142857 C 40.183094,5.6740486 40.113165,5.5922968 41.214286,6.1428571 C 42.521656,6.796542 43.092582,7.0079686 42.642857,8.3571428 C 42.416085,9.0374579 42.428571,10.006941 42.428571,10.714286 C 42.428571,11.421153 42.178006,11.990167 42,12.642857 C 41.824813,13.285211 42,14.205651 42,14.928571 C 42,15.761905 42,16.595238 42,17.428571 C 42,18.371738 42.60149,19.650305 42.785714,20.571429 C 43.006309,21.674402 42.865948,22.350787 42.5,23.357143 C 42.23605,24.083006 42.360197,24.962171 42.428571,25.714286 C 42.510211,26.612315 42.398206,27.491031 42.571429,28.357143 C 42.709633,29.048166 41.549868,29.169839 41.642857,30.285714 C 41.693169,30.889456 42,31.635563 42,32.428571 C 42,33.271269 42.563469,34.256531 42.785714,35.071429 C 42.930346,35.601745 41.724656,35.36728 41.214286,35.571429 C 40.692552,35.780122 42.571429,36.009504 42.571429,36.571429 C 42.571429,37.229394 42.785714,37.767123 42.785714,38.5 C 42.785714,39.380147 42.390577,39.460486 42.928571,40.357143 C 43.428314,41.190047 43.001885,41.569005 42.5,42.214286 C 42.199768,42.600298 42.142857,43.195057 42.142857,43.5 C 42.142857,44.261905 40.619048,43.5 39.857143,43.5 C 39.125681,43.5 38.511696,42.966815 37.928571,42.642857 C 37.292438,42.28945 36.894757,43.42224 36.785714,43.785714 C 36.577112,44.481057 34.103998,43.663657 33.642857,43.571429 C 32.799728,43.402803 31.850948,43.644547 31.071429,43.857143 C 30.230462,44.086498 29.425207,43.856531 28.642857,43.714286 C 27.493127,43.505244 26.416331,42.823675 25.428571,42.428571 C 24.690868,42.13349 22.642554,43.1477 21.857143,43.357143 C 21.195011,43.533711 20.21628,42.785714 19.428571,42.785714 C 18.650158,42.785714 18.084142,43.015557 17.214286,42.928571 C 16.49204,42.856347 15.79507,42.591625 15.142857,42.428571 C 14.084929,42.164089 13.218375,42.427695 12.214286,42.642857 C 11.0267,42.89734 9.4967428,41.974019 8.5714286,41.357143 C 7.4887994,40.63539 7.6591716,40.338498 8.1428571,39.785714 C 8.6862088,39.164741 6.6533472,38.84156 6.3571429,38.071429 C 6.2341054,37.751531 6.5,36.170632 6.5,35.714286 C 6.5,35.050249 6.7142857,34.474125 6.7142857,33.785714 C 6.7142857,33.013173 6.0390042,32.70494 5.5,32.285714 C 4.9317002,31.843703 5.9847333,31.169937 6.1428571,30.642857 C 6.2461356,30.298596 6.1066464,29.252482 6.2142857,28.714286 C 6.4592274,27.489578 5.3774904,28.153243 5.7857143,26.928571 C 6.2526373,25.527802 7.1496587,24.19048 7.5714286,22.714286 C 7.6650811,22.386502 6.9693806,22.383671 6.6428571,22.285714 C 6.3132962,22.186846 7.0880416,20.235875 7.1428571,20.071429 C 7.3049327,19.585202 6.5714286,18.640577 6.5714286,18.214286 C 6.5714286,16.905757 5.7586787,16.689985 6.2857143,15.214286 C 6.8791601,13.552637 8.5249928,13.214286 6.7142857,13.214286 C 6.0667294,13.214286 6.8571429,12.598672 6.8571429,11.071429 C 6.8571429,10.547041 7.3193095,9.6772105 7.5,9.2857143 C 7.8818949,8.4582753 5.2142857,8.6970314 5.2142857,7.7857143 C 5.2142857,7.0779106 5.6859964,6.5664786 6.2142857,6.2142857 C 6.5577007,5.9853424 6.045421,5.3960311 5.9285714,5.1428571 z"
         style="opacity:1;fill:none;fill-opacity:1;fill-rule:evenodd;stroke:#000000;stroke-width:1;stroke-linecap:round;stroke-linejoin:round;marker:none;marker-start:none;marker-mid:none;marker-end:none;stroke-miterlimit:4;stroke-dasharray:none;stroke-dashoffset:0;stroke-opacity:1;visibility:visible;display:inline;overflow:visible;enable-background:accumulate" />
      <path
         id="path2399"
         d="M 2.4285714,1.7857143 C 2.5095862,2.4609671 2.690191,2.4427716 3.3571429,2.6428571 C 3.6064626,2.717653 4.1514704,3.6950366 4.5,4 C 4.9628594,4.405002 5.1304145,4.6366358 5.7142857,4.9285714 C 6.3364843,5.2396707 6.1284951,4.8567614 6.2857143,5.6428571"
         style="opacity:1;fill:none;fill-opacity:1;fill-rule:evenodd;stroke:#000000;stroke-width:1;stroke-linecap:round;stroke-linejoin:round;marker:none;marker-start:none;marker-mid:none;marker-end:none;stroke-miterlimit:4;stroke-dasharray:none;stroke-dashoffset:0;stroke-opacity:1;visibility:visible;display:inline;overflow:visible;enable-background:accumulate" />
      <path
         id="path2401"
         d="M 44.285714,2 C 44.317416,2.015851 43.806979,2.9624562 43.5,3.3571428 C 43.01941,3.975044 43.083492,5.2555546 42.785714,6 C 42.650997,6.3367931 42.621286,6.6029049 42.571429,6.7857143"
         style="opacity:1;fill:none;fill-opacity:1;fill-rule:evenodd;stroke:#000000;stroke-width:1;stroke-linecap:round;stroke-linejoin:round;marker:none;marker-start:none;marker-mid:none;marker-end:none;stroke-miterlimit:4;stroke-dasharray:none;stroke-dashoffset:0;stroke-opacity:1;visibility:visible;display:inline;overflow:visible;enable-background:accumulate" />
      <path
         id="path2403"
         d="M 42.142857,43.928571 C 41.955277,44.397523 43.159082,43.569153 43.642857,43.714286 C 44.241943,43.894011 44.779438,44.251535 45.428571,44.428571 C 45.919863,44.56256 46.468812,44.998546 46.857143,45.214286 C 47.518687,45.58181 47.930114,45.542799 48.285714,46"
         style="opacity:1;fill:none;fill-opacity:1;fill-rule:evenodd;stroke:#000000;stroke-width:1;stroke-linecap:round;stroke-linejoin:round;marker:none;marker-start:none;marker-mid:none;marker-end:none;stroke-miterlimit:4;stroke-dasharray:none;stroke-dashoffset:0;stroke-opacity:1;visibility:visible;display:inline;overflow:visible;enable-background:accumulate" />
      <path
         id="path2405"
         d="M 8.3571429,41.357143 C 8.9358116,41.678625 7.3365093,42.204232 6.7857143,42.571429 C 6.3480852,42.863181 6.3267929,43.978543 6.2142857,44.428571 C 6.1672544,44.616697 5.0649839,45.266917 4.8571429,45.428571 C 4.6379679,45.599041 4.3809524,45.714286 4.1428571,45.857143"
         style="opacity:1;fill:none;fill-opacity:1;fill-rule:evenodd;stroke:#000000;stroke-width:1;stroke-linecap:round;stroke-linejoin:round;marker:none;marker-start:none;marker-mid:none;marker-end:none;stroke-miterlimit:4;stroke-dasharray:none;stroke-dashoffset:0;stroke-opacity:1;visibility:visible;display:inline;overflow:visible;enable-background:accumulate" />
    </g>
    <path
       style="opacity:1;fill:#ff5300;fill-opacity:1;fill-rule:nonzero;stroke:none;stroke-width:0.40799998999999998;stroke-linecap:round;stroke-linejoin:round;marker:none;marker-start:none;marker-mid:none;marker-end:none;stroke-miterlimit:4;stroke-dasharray:none;stroke-dashoffset:0;stroke-opacity:0.98983047000000002;visibility:visible;display:inline;overflow:visible;enable-background:accumulate"
       d="M 34.771429,42.770932 C 34.673214,42.753691 34.191071,42.641567 33.7,42.521768 C 32.5133,42.23227 31.698689,42.224025 30.604996,42.490441 C 29.673263,42.717405 29.232314,42.725067 28.230337,42.531706 C 27.423625,42.376027 26.977102,42.215861 25.592857,41.585655 C 25.121429,41.371027 24.605886,41.173949 24.447206,41.147703 C 24.030684,41.078808 23.201691,41.270429 21.970167,41.720271 C 21.387182,41.933217 20.83721,42.107449 20.748005,42.107449 C 20.658801,42.107449 20.203097,41.97476 19.735333,41.812585 C 18.915525,41.528356 18.862841,41.519428 18.274569,41.565061 C 16.361094,41.713494 16.397914,41.715462 15.180637,41.399682 C 13.83555,41.050747 13.156603,41.020733 11.936139,41.256258 C 11.512024,41.338106 11.02962,41.405068 10.864124,41.405068 C 10.465911,41.405067 9.8532886,41.221898 9.2713464,40.928836 C 8.7474671,40.665017 7.4849729,39.840561 7.4870143,39.763603 C 7.48773,39.736647 7.5841579,39.573148 7.7013,39.400272 C 8.1700257,38.708535 7.9117307,38.288789 6.5765707,37.572506 C 5.9368614,37.229314 5.9624636,37.339655 6.1271971,35.63596 C 6.2065843,34.814921 6.3042843,33.896251 6.3443079,33.59447 C 6.4716729,32.634106 6.2626243,32.129418 5.4879064,31.526936 L 5.0629064,31.196426 L 5.3767536,30.792255 C 5.5493679,30.56996 5.7219679,30.284762 5.7603086,30.158481 C 5.8644721,29.81541 5.9258057,27.433018 5.8365586,27.196771 C 5.79574,27.088716 5.6768971,26.910748 5.5724671,26.801287 L 5.3825957,26.60227 L 5.5127614,26.22986 C 5.5843557,26.025033 5.9316871,25.230663 6.2846107,24.464592 C 6.6375329,23.698521 7.0087007,22.82366 7.109425,22.520458 C 7.277495,22.014535 7.2843457,21.947986 7.1927086,21.711565 C 7.0933807,21.455304 6.9437893,21.335557 6.506725,21.162437 L 6.2777371,21.071735 L 6.5636736,20.214592 C 6.9032029,19.196805 6.8999586,18.979271 6.5327421,18.140518 C 6.3957814,17.827688 6.2626336,17.411021 6.2368586,17.214592 C 6.2110857,17.018163 6.0944786,16.533351 5.9777364,16.137232 C 5.7954493,15.518712 5.7754886,15.372348 5.8363707,15.100678 C 5.9564907,14.564681 6.1719864,14.166177 6.6572036,13.582763 C 7.1780071,12.956556 7.2328514,12.840673 7.1691371,12.501045 C 7.1185321,12.231303 6.9132286,12.069096 6.5318714,11.997553 C 6.3886293,11.970679 6.2714286,11.940996 6.2714286,11.931587 C 6.2714286,11.922179 6.3033457,11.821292 6.3423557,11.707393 C 6.3813657,11.593495 6.4568307,11.162091 6.510055,10.748716 C 6.5852621,10.164618 6.6745314,9.8386598 6.9106386,9.2860348 C 7.1505936,8.7244084 7.2066971,8.5171398 7.1775643,8.2999384 C 7.1116693,7.8086598 6.8826164,7.6506276 5.7683471,7.3276662 C 5.3659629,7.2110384 5.0051114,7.0839891 4.9664557,7.0453334 C 4.820815,6.8996955 5.0088736,6.5601841 5.4912679,6.0978555 C 5.96305,5.6456969 5.9857143,5.6088641 5.9857143,5.2942841 C 5.9857143,5.0099562 6.0057829,4.9645919 6.1315643,4.9645919 C 6.2117836,4.9645919 6.6858886,4.8801791 7.1851357,4.7770076 C 7.9867914,4.6113434 8.1971879,4.5943598 8.9857143,4.6316691 C 10.939766,4.7241248 12.132817,4.8764955 13.314673,5.1845412 C 13.939104,5.3472976 14.578416,5.5109648 14.735369,5.5482491 C 15.055889,5.6243884 15.522769,5.5763576 16.076881,5.4102398 C 16.362754,5.3245369 16.959404,5.2881219 18.628571,5.2545019 L 20.807143,5.2106226 L 21.505516,4.8626698 C 22.154785,4.5391841 22.240286,4.5150969 22.721589,4.5200834 C 23.337312,4.5264612 23.861705,4.6408341 25.342857,5.0917919 C 26.424614,5.4211491 26.471292,5.4288012 27.378571,5.4255362 C 28.247603,5.4224084 28.348363,5.4070655 28.95,5.1862505 C 29.935853,4.8244198 30.046504,4.8130819 31.128571,4.9630341 C 32.325444,5.1288969 34.302779,5.2053526 34.511171,5.0938262 C 34.592129,5.0504976 34.708857,4.9526955 34.770564,4.8764891 C 34.879871,4.7415012 34.909379,4.7501019 35.9157,5.2102834 C 36.499964,5.4774598 37.133329,5.8260562 37.373821,6.0128162 C 38.078793,6.5602755 38.4398,6.5490241 39.084843,5.9594876 L 39.479514,5.5987776 L 40.342864,6.0389391 C 41.461136,6.6090676 41.478964,6.6360605 41.273021,7.4473476 C 41.161636,7.8861626 41.09685,8.4326298 41.05505,9.2860205 C 41.006707,10.272911 40.959957,10.620692 40.805379,11.143163 C 40.548586,12.011153 40.539564,12.197236 40.614936,15.071735 L 40.680486,17.571735 L 41.051114,18.786021 C 41.305336,19.618892 41.434743,20.179846 41.463093,20.571896 C 41.505086,21.152446 41.5012,21.174513 41.0947,22.666229 C 41.037714,22.875342 40.986714,23.261058 40.981379,23.523372 C 40.966586,24.249466 41.113179,27.524756 41.16415,27.607235 C 41.188829,27.647148 41.047564,27.865416 40.85025,28.092276 C 40.228479,28.807139 40.154843,29.212256 40.411114,30.508218 C 40.487936,30.896722 40.585093,31.512499 40.627014,31.876608 C 40.676821,32.309154 40.801707,32.814676 40.987336,33.335036 C 41.143586,33.773061 41.271429,34.140662 41.271429,34.151926 C 41.271429,34.173972 41.004557,34.218958 40.474664,34.286234 C 40.04405,34.340906 39.771429,34.582555 39.771429,34.909573 C 39.771429,35.267375 39.9168,35.411287 40.574064,35.704151 L 41.173643,35.971315 L 41.271129,36.735811 C 41.384121,37.621818 41.386243,37.721658 41.309557,38.541511 C 41.252821,39.148118 41.254836,39.159868 41.514836,39.735701 C 41.805514,40.379488 41.797757,40.453391 41.388486,40.939781 C 41.117879,41.261381 40.916814,41.693941 40.8221,42.158268 L 40.735371,42.583414 L 40.021257,42.418419 C 39.628493,42.327673 39.188336,42.252724 39.043129,42.251866 C 38.872929,42.25086 38.58105,42.144953 38.2217,41.95381 C 37.915121,41.790736 37.522229,41.581808 37.348607,41.489524 C 36.960936,41.283462 36.761543,41.2792 36.370279,41.468606 C 36.058586,41.619493 35.7523,42.015786 35.531493,42.553878 C 35.416286,42.834618 35.3089,42.865286 34.771429,42.770932 z"
       id="path3311" />
    <path
       style="opacity:1;fill:#ff621d;fill-opacity:1;fill-rule:nonzero;stroke:none;stroke-width:0.40799998999999998;stroke-linecap:round;stroke-linejoin:round;marker:none;marker-start:none;marker-mid:none;marker-end:none;stroke-miterlimit:4;stroke-dasharray:none;stroke-dashoffset:0;stroke-opacity:0.98983047000000002;visibility:visible;display:inline;overflow:visible;enable-background:accumulate"
       d="M 3.1389821,44.08372 C 3.0053679,43.703244 2.9841157,43.487306 2.9831486,42.500306 C 2.9816929,41.012471 2.894995,40.16603 2.6379771,39.130266 C 2.4111707,38.216244 2.3115271,37.206469 2.4430914,37.155279 C 2.4861786,37.138516 2.719895,36.975352 2.9624657,36.792694 C 3.7045029,36.233933 3.964865,35.433012 3.6382157,34.713979 C 3.4813971,34.368785 3.0898164,34.010028 2.7460057,33.89656 C 2.3545243,33.76736 2.324555,33.586358 2.3206793,31.3279 C 2.3171464,29.269559 2.3783029,28.566977 2.6320907,27.750306 C 2.7114464,27.494949 2.7954986,27.012806 2.818875,26.678878 C 2.8727914,25.908706 2.677995,25.069816 2.2279029,24.133863 C 2.055415,23.775176 1.9156964,23.405534 1.9174207,23.312435 C 1.9230464,23.008733 2.0911879,22.656631 2.6292864,21.821735 C 3.4081407,20.61329 3.4481643,20.336476 3.0785357,18.714592 C 2.8498921,17.711329 2.88196,17.101608 3.2381993,15.678878 C 3.4405893,14.870581 3.4890207,14.556901 3.4587671,14.250306 C 3.4105743,13.761916 2.8111121,11.991923 1.9709907,9.8574491 C 1.5305371,8.7384012 1.5090393,8.4280419 1.795345,7.3217348 C 1.9020971,6.9092348 2.0541279,6.1477762 2.1331893,5.6296041 C 2.2969729,4.5561626 2.2959157,4.5505298 1.7820264,3.7570891 C 1.4676064,3.2716291 1.422865,3.0310362 1.5668914,2.6002505 C 1.6809043,2.2592376 1.7065636,2.2437698 2.0058579,2.3356262 C 2.2111107,2.3986184 2.3621336,2.5366726 2.6627957,2.9361384 C 3.1404964,3.5708205 3.7462193,4.1612069 4.241105,4.4744848 C 4.4454736,4.6038584 4.6673057,4.8111262 4.73406,4.9350819 L 4.8554307,5.1604562 L 4.5237307,5.5017491 C 4.1058879,5.9316798 3.9127586,6.3079498 3.8631321,6.7887834 C 3.7711786,7.6797184 4.0720893,7.9683955 5.5326014,8.3903919 L 6.0437764,8.5380891 L 5.7994657,9.1373348 C 5.6340643,9.5430298 5.5235536,9.9752748 5.4573186,10.475587 C 5.4035086,10.88204 5.2873414,11.450871 5.1991671,11.739657 C 5.0613914,12.190893 5.0505821,12.303883 5.1222921,12.543228 C 5.1681843,12.696406 5.2285514,12.82245 5.2564386,12.823323 C 5.2843243,12.824196 5.3809043,12.881671 5.4710579,12.951045 L 5.6349714,13.077178 L 5.4132086,13.383315 C 4.7545029,14.292632 4.5734036,15.451628 4.9340014,16.450136 C 5.0375379,16.73683 5.1443943,17.170758 5.1714621,17.414422 C 5.2013657,17.683607 5.3304357,18.107822 5.5003893,18.495508 L 5.7801043,19.133568 L 5.5156086,19.924078 C 5.1787693,20.930803 5.1137157,21.637968 5.3363543,21.872631 C 5.4188229,21.959555 5.6147357,22.065256 5.7717193,22.107527 C 5.9287007,22.149798 6.0571429,22.21244 6.0571429,22.24673 C 6.0571429,22.330893 5.6544793,23.255683 5.2003136,24.214592 C 4.2482936,26.224652 4.1237307,26.864431 4.584975,27.375101 L 4.8270929,27.643163 L 4.7812986,28.750306 L 4.735505,29.857449 L 4.3999164,30.286021 C 4.0373707,30.749021 3.9029479,31.156163 3.999005,31.500306 C 4.078495,31.785102 4.1560721,31.873031 4.6826821,32.275244 C 5.3336071,32.772408 5.3657393,32.860381 5.2397807,33.800563 C 5.0653836,35.102291 4.9034114,37.109144 4.9535764,37.346633 C 5.0593914,37.847571 5.3778029,38.15546 6.363625,38.710078 L 6.70582,38.902598 L 6.560055,39.138455 C 6.3972786,39.40183 6.3636386,39.946831 6.4944421,40.201431 C 6.5385279,40.287241 6.6536671,40.44232 6.7503064,40.546051 L 6.9260129,40.734651 L 6.1888957,41.118396 C 5.3088986,41.576524 5.1926629,41.737899 4.9749071,42.803831 C 4.89689,43.185737 4.8272264,43.502043 4.8201,43.506738 C 4.8129736,43.511435 4.4666186,43.742299 4.0504214,44.019773 L 3.2937021,44.524271 L 3.1389821,44.08372 z"
       id="path3313" />
    <path
       style="opacity:1;fill:#ff621d;fill-opacity:1;fill-rule:nonzero;stroke:none;stroke-width:0.40799998999999998;stroke-linecap:round;stroke-linejoin:round;marker:none;marker-start:none;marker-mid:none;marker-end:none;stroke-miterlimit:4;stroke-dasharray:none;stroke-dashoffset:0;stroke-opacity:0.98983047000000002;visibility:visible;display:inline;overflow:visible;enable-background:accumulate"
       d="M 22.615671,46.101926 C 22.392506,46.069186 21.831104,45.957436 21.368114,45.853596 C 20.585765,45.67813 20.162256,45.540241 17.993657,44.754919 C 16.61714,44.256437 16.217006,44.280271 15.057143,44.929828 C 14.683929,45.138838 14.121429,45.388577 13.807143,45.484801 C 12.881795,45.768111 12.858994,45.770816 12.805889,45.603499 C 12.736014,45.383336 12.539177,45.337062 11.001734,45.179353 C 10.226851,45.099868 9.4482143,45.000178 9.2714286,44.957823 C 8.4549957,44.762216 6.5290229,44.826181 6.1709514,45.060799 C 6.0329793,45.151201 5.9527171,45.141101 5.4387371,44.968648 L 4.8614814,44.774964 L 5.1557407,44.588786 C 5.7085664,44.239003 5.8346993,44.048962 5.9502564,43.391704 C 6.1320429,42.357751 6.1319321,42.357925 6.8313564,42.00171 C 7.1716107,41.82842 7.5464286,41.62573 7.6642857,41.551288 L 7.8785714,41.415943 L 8.5214286,41.757278 C 9.8971264,42.487736 10.730011,42.622008 12.073754,42.329966 C 13.115314,42.103598 13.762295,42.127466 14.842857,42.432123 C 15.945889,42.743117 16.595856,42.798537 17.759362,42.680811 L 18.664286,42.589248 L 19.514736,42.884065 C 20.679231,43.287743 20.854699,43.281047 22.220384,42.780801 C 23.474734,42.321335 24.118309,42.164163 24.399019,42.248736 C 24.505631,42.280856 24.914286,42.458175 25.307143,42.642778 C 26.488459,43.197873 27.017399,43.38429 27.942788,43.57166 C 29.096123,43.805183 29.757282,43.803008 30.747854,43.562428 C 31.795789,43.307918 32.410309,43.314521 33.557143,43.59262 C 34.674036,43.863456 35.103014,43.919908 35.56325,43.85661 C 35.957757,43.802353 36.369521,43.511788 36.453986,43.22805 C 36.526571,42.984226 36.791564,42.464592 36.843329,42.464592 C 36.868943,42.464592 37.144493,42.610061 37.455664,42.787857 C 38.056229,43.131006 38.5854,43.321058 38.945107,43.322791 C 39.065657,43.323372 39.373214,43.373518 39.628571,43.434228 C 39.883929,43.494938 40.253571,43.574877 40.45,43.61187 C 40.646429,43.648863 40.91165,43.734622 41.039386,43.802446 C 41.287879,43.934379 41.2916,43.933827 42.378571,43.603351 C 42.649629,43.520941 42.702757,43.533061 43.414286,43.839653 C 43.826786,44.017395 44.276786,44.198698 44.414286,44.242549 C 44.551786,44.286398 44.983821,44.515013 45.374357,44.750578 C 45.7649,44.986144 46.126507,45.178878 46.177929,45.178878 C 46.229357,45.178878 46.271429,45.211021 46.271429,45.250306 C 46.271429,45.289592 46.226821,45.321735 46.1723,45.321735 C 46.117779,45.321735 45.909629,45.434235 45.709736,45.571735 C 45.488936,45.723613 45.260636,45.821735 45.128043,45.821735 C 44.788107,45.821735 44.124371,45.573353 42.833557,44.963096 C 41.181786,44.182193 41.041429,44.149683 39.307143,44.146314 C 38.043993,44.143859 37.820671,44.161295 37.378571,44.296878 C 34.945686,45.042988 34.591336,45.055654 32.021429,44.4884 C 30.786391,44.215791 30.843798,44.217525 28.807143,44.391287 C 28.15353,44.44705 27.829281,44.523094 26.878571,44.843576 C 25.629286,45.264703 25.376419,45.374286 24.722416,45.77796 C 24.077397,46.176088 23.610511,46.247884 22.615671,46.101927 L 22.615671,46.101926 z"
       id="path3315" />
    <path
       style="opacity:1;fill:#f04b00;fill-opacity:1;fill-rule:nonzero;stroke:none;stroke-width:0.40799998999999998;stroke-linecap:round;stroke-linejoin:round;marker:none;marker-start:none;marker-mid:none;marker-end:none;stroke-miterlimit:4;stroke-dasharray:none;stroke-dashoffset:0;stroke-opacity:0.98983047000000002;visibility:visible;display:inline;overflow:visible;enable-background:accumulate"
       d="M 40.528457,4.9206769 C 39.423864,4.3750319 39.1406,4.3883355 38.476479,5.0170469 L 38.21725,5.2624591 L 37.861557,5.0069241 C 37.436564,4.7015962 36.2114,4.1177369 34.820193,3.5575419 C 33.595411,3.0643619 33.137952,3.0121905 32.892824,3.3377298 C 32.766742,3.5051698 32.757093,3.5674084 32.823616,3.7841584 L 32.900915,4.0360205 L 32.488386,4.0360205 C 32.261494,4.0360205 31.806466,3.9910405 31.477214,3.9360648 C 30.090329,3.7044962 29.729824,3.7287262 28.747079,4.1195641 C 28.21555,4.3309512 28.09517,4.3514962 27.378571,4.3531105 C 26.647669,4.3547555 26.525587,4.3334769 25.628571,4.0480726 C 23.223781,3.2829405 22.333302,3.2449562 21.073964,3.8537948 L 20.401551,4.1788776 L 18.494355,4.1788776 C 16.994097,4.1788776 16.496321,4.2026991 16.161436,4.2905212 C 15.195196,4.5439126 15.131172,4.5448162 14.297659,4.3168034 C 12.513417,3.8287105 11.134949,3.6372812 8.8428571,3.5592869 C 7.9483579,3.5288491 7.7194921,3.5450512 7.1642857,3.6781176 C 6.8107143,3.7628591 6.2934943,3.8501634 6.0149071,3.8721298 C 5.5620193,3.9078391 5.4676471,3.8916062 5.1236343,3.7188184 C 4.5805529,3.4460455 4.0662143,2.9838605 3.5239371,2.2813362 L 3.0563929,1.6756276 L 3.2399864,1.6058248 C 3.4988714,1.5073969 3.5747364,1.5145105 4.4009793,1.7146841 C 5.17862,1.9030848 5.9498757,1.9425169 6.45,1.8194469 C 6.965855,1.6925076 7.57633,1.7351712 8.5620707,1.9670548 C 9.8030986,2.2589919 10.411636,2.2677412 11.362887,2.0073262 C 12.195939,1.7792705 12.234774,1.7838062 13.592097,2.2676834 C 14.794483,2.6963262 14.97983,2.6949955 15.986321,2.2504834 C 17.326654,1.6585341 17.321701,1.6598962 17.985714,1.7000705 C 18.319643,1.7202755 19.035104,1.8372084 19.575626,1.9599241 C 20.783978,2.2342569 21.633795,2.3460148 22.057143,2.2862626 C 22.233929,2.2613105 22.697581,2.1465848 23.08748,2.0313155 C 23.477379,1.9160455 23.863094,1.8219655 23.944623,1.8222469 C 24.026151,1.8225291 24.558929,1.9347984 25.128571,2.0717348 C 26.441026,2.3872362 26.834806,2.3934862 27.378571,2.1074491 C 27.848584,1.8602084 28.080941,1.8452562 28.85804,2.0122469 C 29.291547,2.1054026 29.451231,2.1135469 29.591467,2.0496505 C 29.761501,1.9721776 29.779945,1.9861476 29.949556,2.3208598 C 30.150841,2.7180712 30.295631,2.8217348 30.64916,2.8217348 C 31.008424,2.8217348 31.232765,2.5741048 31.408705,1.9833305 C 31.490346,1.7091969 31.557143,1.4321198 31.557143,1.3676055 C 31.557143,1.2095519 31.602781,1.2153484 32.438836,1.4795955 C 33.19894,1.7198369 33.388793,1.7346048 34.95,1.6749205 C 35.464171,1.6552634 35.707243,1.6836634 36.164286,1.8167912 C 36.863586,2.0204848 37.32675,2.0197419 38.164286,1.8135834 C 38.6499,1.6940491 39.034264,1.6538555 39.735714,1.6492548 C 40.589807,1.6436526 40.709079,1.6596434 41.222764,1.8486284 C 41.663164,2.0106534 41.849586,2.0447255 42.1045,2.0097862 L 42.42775,1.9654791 L 42.273964,2.1971776 C 41.982221,2.6367098 41.853186,3.0257262 41.639807,4.1090619 C 41.522057,4.7068884 41.399036,5.2206148 41.366429,5.2506762 C 41.333821,5.2807376 40.956736,5.1322391 40.528457,4.9206776 L 40.528457,4.9206769 z"
       id="path3317" />
    <path
       style="opacity:1;fill:#f04b00;fill-opacity:1;fill-rule:nonzero;stroke:none;stroke-width:0.40799998999999998;stroke-linecap:round;stroke-linejoin:round;marker:none;marker-start:none;marker-mid:none;marker-end:none;stroke-miterlimit:4;stroke-dasharray:none;stroke-dashoffset:0;stroke-opacity:0.98983047000000002;visibility:visible;display:inline;overflow:visible;enable-background:accumulate"
       d="M 45.738821,43.708171 C 45.465521,43.535216 45.095879,43.340618 44.917386,43.275729 C 44.738886,43.210842 44.255357,43.012923 43.842857,42.835914 C 43.027814,42.486171 42.598629,42.406977 42.165843,42.526476 C 42.01225,42.568881 41.8737,42.590676 41.857936,42.574906 C 41.774671,42.491643 41.968779,42.044466 42.312164,41.528473 C 42.924614,40.608173 42.968379,40.207822 42.547636,39.374336 C 42.328493,38.940215 42.3277,38.93448 42.404479,38.339687 C 42.465507,37.866921 42.459021,37.551641 42.373514,36.835229 C 42.218,35.532205 42.212207,35.504629 42.059279,35.340483 C 41.921229,35.192308 41.921457,35.190608 42.094393,35.077296 C 42.348136,34.911042 42.5068,34.563654 42.455029,34.287708 C 42.4312,34.160681 42.266514,33.664086 42.089057,33.184164 C 41.846529,32.528253 41.741779,32.113022 41.667221,31.511963 C 41.612664,31.072174 41.517364,30.493894 41.455443,30.226895 C 41.262586,29.395312 41.288179,29.258177 41.728336,28.764886 C 42.241643,28.189614 42.3008,27.9919 42.208007,27.161844 C 42.136386,26.521197 42.036321,24.189563 42.052407,23.536021 C 42.056757,23.359235 42.164064,22.861021 42.290871,22.428878 C 42.49615,21.729319 42.520964,21.549175 42.517214,20.786021 C 42.512829,19.893223 42.456686,19.618875 41.939864,17.964592 C 41.756357,17.377228 41.748093,17.274841 41.68605,14.821735 C 41.642143,13.085841 41.645493,12.1959 41.696671,12.000306 C 41.737786,11.843163 41.837571,11.473521 41.918429,11.178878 C 42.019343,10.811116 42.085421,10.26247 42.1292,9.4288776 C 42.167657,8.6964241 42.240836,8.0445334 42.313607,7.7860205 C 42.461657,7.2601298 42.480557,6.5758941 42.355279,6.2773698 C 42.273893,6.0834476 42.281007,5.9904869 42.409879,5.5630841 C 42.491364,5.2928426 42.636536,4.6606455 42.732479,4.1582026 C 42.89,3.3332919 42.940021,3.1924184 43.248136,2.7060391 C 43.435793,2.4097934 43.612829,2.1528941 43.641529,2.1351548 C 43.670229,2.1174155 43.830364,2.3851748 43.997379,2.7301755 L 44.301043,3.3574491 L 44.346807,4.4288776 C 44.383086,5.2780869 44.433493,5.6484519 44.589843,6.2145919 C 44.885971,7.2868669 44.873136,7.4124805 44.355957,8.5033648 C 43.954021,9.3511898 43.914286,9.4772141 43.914286,9.9043298 C 43.914286,10.162463 43.947636,10.546802 43.988386,10.758414 C 44.029143,10.970028 44.123357,11.501708 44.19775,11.939929 C 44.272143,12.378151 44.397186,12.862486 44.475621,13.016231 C 44.64455,13.347353 45.072957,13.75178 45.39695,13.885984 C 45.524343,13.938751 45.628571,14.020086 45.628571,14.066729 C 45.628571,14.113371 45.535364,14.406927 45.421443,14.719073 C 45.307529,15.031218 45.160179,15.64005 45.094014,16.072031 C 45.027843,16.50401 44.912121,17.103876 44.83685,17.405064 C 44.647521,18.162663 44.66145,18.752386 44.88725,19.539573 C 45.069107,20.173558 45.072179,20.216794 44.993964,21.040656 C 44.934336,21.668707 44.839357,22.122209 44.628143,22.787371 C 44.471236,23.281502 44.342857,23.763081 44.342857,23.857546 C 44.342857,24.090393 44.439943,24.297921 44.973507,25.205615 C 45.507657,26.1143 45.506729,26.089476 45.046357,27.145133 C 44.744436,27.837456 44.73595,27.877496 44.744029,28.571735 C 44.751557,29.219153 44.780814,29.366262 45.056486,30.143163 C 45.316536,30.876068 45.361921,31.088308 45.3696,31.607449 L 45.378571,32.214592 L 44.7804,32.253441 C 44.23405,32.288928 44.167021,32.309977 44.006636,32.496443 C 43.864429,32.661771 43.839271,32.749462 43.874379,32.957592 C 43.909643,33.166672 44.062864,33.354441 44.696086,33.964592 C 45.124179,34.377092 45.5079,34.782516 45.548786,34.865533 C 45.606686,34.98309 45.5899,35.077881 45.472864,35.294105 C 45.023179,36.1249 44.990171,36.21707 44.98795,36.648056 C 44.985221,37.177403 45.094579,37.557993 45.633071,38.893163 C 45.862807,39.462806 46.071243,40.058316 46.096257,40.216518 C 46.137236,40.475706 46.112857,40.54259 45.849771,40.892728 C 45.689186,41.106443 45.537321,41.390461 45.512293,41.523881 C 45.451414,41.848411 45.633643,42.483161 46.026064,43.313441 C 46.2003,43.682093 46.342857,43.995487 46.342857,44.00987 C 46.342857,44.072125 46.205564,44.003553 45.738814,43.708171 L 45.738821,43.708171 z"
       id="path3319" />
    <g
       id="g3394"
       transform="translate(-74.953319,-7.6771593)">
      <path
         id="path3232"
         d="M 90.040371,45.150436 C 90.046847,45.10491 90.808138,43.415226 91.732128,41.395583 C 92.733144,39.207572 93.428537,37.608037 93.452755,37.4378 C 93.483313,37.223 93.457268,37.105686 93.347801,36.965092 C 93.087782,36.631139 92.859978,36.656026 91.0438,37.21679 C 90.134383,37.497582 89.380116,37.714231 89.367659,37.698229 C 89.355202,37.682229 90.831435,35.935108 92.648183,33.815738 C 95.616566,30.352914 95.95447,29.935265 95.981999,29.695192 C 96.02104,29.354724 95.801864,29.085845 95.443767,29.034902 C 95.274322,29.010797 94.551446,29.188664 93.077463,29.617138 C 91.910185,29.956457 90.948768,30.223638 90.940986,30.210871 C 90.933205,30.198103 92.52355,27.199125 94.47509,23.546472 L 98.02334,16.905287 L 104.19435,16.609648 C 107.58841,16.447047 110.37794,16.330163 110.39331,16.349905 C 110.40868,16.369647 107.81572,18.901265 104.63117,21.975722 C 98.529014,27.86693 98.59962,27.791871 98.761428,28.21562 C 98.83789,28.415858 99.190582,28.625167 99.416415,28.604331 C 99.510552,28.595646 101.21726,28.092092 103.20909,27.485318 C 105.20093,26.878544 106.84134,26.395865 106.85444,26.412697 C 106.86755,26.429528 104.68087,28.435469 101.99517,30.870343 C 96.801943,35.578538 96.858684,35.520364 97.027827,35.963318 C 97.104269,36.163496 97.456915,36.372839 97.682799,36.352133 C 97.776928,36.343504 98.95494,36.00912 100.30061,35.609058 C 101.64628,35.208993 102.75425,34.890816 102.76277,34.901996 C 102.77128,34.913176 100.06679,37.112725 96.752793,39.789887 C 93.438783,42.467047 90.570117,44.786997 90.377967,44.94533 C 90.18581,45.10366 90.033894,45.19596 90.040371,45.150435 L 90.040371,45.150436 z"
         style="fill:#ffffff;fill-opacity:1;fill-rule:nonzero;stroke:none;stroke-width:0.40799999;stroke-linecap:round;stroke-linejoin:round;marker:none;marker-start:none;marker-mid:none;marker-end:none;stroke-miterlimit:4;stroke-dasharray:none;stroke-dashoffset:0;stroke-opacity:0.98983047;visibility:visible;display:inline;overflow:visible;enable-background:accumulate" />
      <path
         id="path3392"
         d="M 90.36149,44.67274 C 90.36149,44.585277 91.103023,42.886978 92.009332,40.898735 C 93.541592,37.537313 93.633758,37.260336 93.323359,36.949936 C 92.974634,36.601231 92.952148,36.604589 89.874455,37.465328 C 89.662121,37.524705 90.961521,35.858185 92.761976,33.761949 C 96.927866,28.911659 96.973807,28.429542 93.165654,29.525117 C 92.153259,29.816376 91.286305,30.016055 91.239091,29.968848 C 91.191896,29.921648 92.711307,26.962305 94.615566,23.392543 L 98.077864,16.902067 L 99.320937,16.886419 C 100.00465,16.877807 102.74596,16.758948 105.41276,16.622285 C 108.07957,16.485617 110.27822,16.38059 110.29865,16.388881 C 110.31907,16.397176 107.78741,18.856791 104.67271,21.854699 C 101.558,24.852606 98.927826,27.458223 98.827902,27.644956 C 98.572717,28.121762 98.813901,28.619836 99.299946,28.619836 C 99.525433,28.619836 101.20837,28.160879 103.03981,27.599932 C 104.87128,27.038988 106.39778,26.608063 106.43205,26.642327 C 106.46631,26.676588 104.36453,28.640348 101.76143,31.006229 C 98.158312,34.280988 97.028497,35.420737 97.028497,35.7808 C 97.028497,36.040932 97.164161,36.305822 97.329967,36.369448 C 97.495773,36.433069 98.652439,36.175155 99.900341,35.796297 C 101.14826,35.417438 102.1988,35.137013 102.23492,35.173128 C 102.27103,35.209247 99.727928,37.310332 96.583586,39.842211 C 89.790209,45.312312 90.36149,44.868807 90.36149,44.672736 L 90.36149,44.67274 z"
         style="opacity:1;fill:#ffffcd;fill-opacity:1;fill-rule:nonzero;stroke:none;stroke-width:0.40799999;stroke-linecap:round;stroke-linejoin:round;marker:none;marker-start:none;marker-mid:none;marker-end:none;stroke-miterlimit:4;stroke-dasharray:none;stroke-dashoffset:0;stroke-opacity:0.98983047;visibility:visible;display:inline;overflow:visible;enable-background:accumulate" />
      <path
         transform="matrix(0.7162096,0.1598945,-0.2293594,0.9248904,64.429451,-33.791633)"
         id="path3174"
         d="M 59.446871,75.240613 C 59.474028,75.122756 60.008164,73.235031 60.633835,71.045669 C 61.755335,67.121335 61.872835,66.5929 61.679871,66.341566 C 61.560878,66.18657 61.312957,66.062042 61.123392,66.062042 C 61.036807,66.062042 60.210535,66.431685 59.287242,66.88347 C 58.363942,67.335256 57.599242,67.704899 57.587914,67.704899 C 57.576578,67.704899 58.838814,65.63972 60.392885,63.115613 C 63.485892,58.091957 63.435385,58.193531 63.038064,57.796211 C 62.6981,57.456247 62.519235,57.505387 60.28285,58.553154 C 59.169492,59.074775 58.240607,59.483602 58.218671,59.461663 C 58.188771,59.431764 63.375335,44.532987 63.44935,44.436156 C 63.467385,44.412567 76.016864,41.927577 76.034078,41.944185 C 76.041035,41.950896 73.795171,44.945341 71.043271,48.598502 C 68.291371,52.251663 65.979542,55.337042 65.905885,55.454899 C 65.694657,55.792872 65.728235,56.155857 65.991192,56.377121 C 66.119371,56.484975 66.299128,56.562042 66.422528,56.562042 C 66.553057,56.562042 68.016085,55.891754 70.242228,54.812042 C 72.226707,53.849542 73.865907,53.062042 73.884892,53.062042 C 73.903885,53.062042 71.978692,55.481457 69.6067,58.438521 C 67.234707,61.395586 65.256764,63.884543 65.211278,63.96954 C 64.979792,64.402059 65.219171,64.906608 65.685521,64.969159 C 65.9272,65.001573 66.238121,64.872497 68.374514,63.852857 C 69.703164,63.218732 70.80485,62.71451 70.8227,62.732363 C 70.852535,62.762193 60.212607,74.636117 59.646371,75.204899 L 59.397492,75.454899 L 59.446871,75.240613 z"
         style="fill:#e9ff76;fill-opacity:1;fill-rule:nonzero;stroke:none;stroke-width:0.40799999;stroke-linecap:round;stroke-linejoin:round;marker:none;marker-start:none;marker-mid:none;marker-end:none;stroke-miterlimit:4;stroke-dasharray:none;stroke-dashoffset:0;stroke-opacity:0.98983047;visibility:visible;display:inline;overflow:visible;filter:url(#filter3388);enable-background:accumulate" />
      <path
         sodipodi:nodetypes="cccccccccccc"
         id="path2400"
         d="M 97.599905,16.275081 C 101.27018,16.119728 112.22168,15.577485 112.22168,15.577485 L 99.372921,27.976803 L 109.64246,24.83085 L 97.63932,35.724501 L 105.91994,33.244084 L 88.164244,47.587532 L 92.848376,37.346391 L 87.272671,39.059885 L 95.347844,29.639896 L 89.565843,31.324043 L 97.599905,16.275081 z"
         style="fill:none;fill-opacity:1;fill-rule:evenodd;stroke:#000000;stroke-width:1.24224257;stroke-linecap:round;stroke-linejoin:round;marker:none;marker-start:none;marker-mid:none;marker-end:none;stroke-miterlimit:4;stroke-dasharray:none;stroke-dashoffset:0;stroke-opacity:1;visibility:visible;display:inline;overflow:visible;enable-background:accumulate" />
    </g>
  </g>
</svg>
