<?xml version="1.0" encoding="UTF-8" standalone="no"?>
<!-- Created with Inkscape (http://www.inkscape.org/) -->
<svg
   xmlns:dc="http://purl.org/dc/elements/1.1/"
   xmlns:cc="http://creativecommons.org/ns#"
   xmlns:rdf="http://www.w3.org/1999/02/22-rdf-syntax-ns#"
   xmlns:svg="http://www.w3.org/2000/svg"
   xmlns="http://www.w3.org/2000/svg"
   xmlns:sodipodi="http://sodipodi.sourceforge.net/DTD/sodipodi-0.dtd"
   xmlns:inkscape="http://www.inkscape.org/namespaces/inkscape"
   width="48px"
   height="48px"
   id="svg2383"
   sodipodi:version="0.32"
   inkscape:version="0.46"
   sodipodi:docname="quadrat_blatt.svg"
   inkscape:output_extension="org.inkscape.output.svg.inkscape"
   inkscape:export-filename="/home/stefan/workspace/FallingBlocks/res_original/quadrat_blatt.png"
   inkscape:export-xdpi="40.158447"
   inkscape:export-ydpi="40.158447">
  <defs
     id="defs2385">
    <filter
       inkscape:collect="always"
       id="filter3454"
       x="-0.29955371"
       width="1.5991074"
       y="-0.045995788"
       height="1.0919916">
      <feGaussianBlur
         inkscape:collect="always"
         stdDeviation="0.15406706"
         id="feGaussianBlur3456" />
    </filter>
    <filter
       inkscape:collect="always"
       id="filter3458">
      <feGaussianBlur
         inkscape:collect="always"
         stdDeviation="0.15406706"
         id="feGaussianBlur3460" />
    </filter>
    <filter
       inkscape:collect="always"
       id="filter3908"
       x="-0.08007811"
       width="1.1601562"
       y="-0.25091138"
       height="1.5018228">
      <feGaussianBlur
         inkscape:collect="always"
         stdDeviation="0.14001754"
         id="feGaussianBlur3910" />
    </filter>
    <filter
       inkscape:collect="always"
       id="filter3912"
       x="-0.065115415"
       width="1.1302308"
       y="-0.21630302"
       height="1.432606">
      <feGaussianBlur
         inkscape:collect="always"
         stdDeviation="0.14001754"
         id="feGaussianBlur3914" />
    </filter>
    <filter
       inkscape:collect="always"
       id="filter3916"
       x="-0.054231575"
       width="1.1084631"
       y="-0.12883808"
       height="1.2576762">
      <feGaussianBlur
         inkscape:collect="always"
         stdDeviation="0.14001754"
         id="feGaussianBlur3918" />
    </filter>
    <filter
       inkscape:collect="always"
       id="filter3920"
       x="-0.048626249"
       width="1.0972525"
       y="-0.1719758"
       height="1.3439516">
      <feGaussianBlur
         inkscape:collect="always"
         stdDeviation="0.14001754"
         id="feGaussianBlur3922" />
    </filter>
    <filter
       inkscape:collect="always"
       id="filter3924"
       x="-0.074380846"
       width="1.1487617"
       y="-0.11986159"
       height="1.2397232">
      <feGaussianBlur
         inkscape:collect="always"
         stdDeviation="0.14001754"
         id="feGaussianBlur3926" />
    </filter>
    <filter
       inkscape:collect="always"
       id="filter3928"
       x="-0.1238017"
       width="1.2476034"
       y="-0.15054687"
       height="1.3010937">
      <feGaussianBlur
         inkscape:collect="always"
         stdDeviation="0.14001754"
         id="feGaussianBlur3930" />
    </filter>
    <filter
       inkscape:collect="always"
       id="filter3932"
       x="-0.12140877"
       width="1.2428175"
       y="-0.59427218"
       height="2.1885444">
      <feGaussianBlur
         inkscape:collect="always"
         stdDeviation="0.14001754"
         id="feGaussianBlur3934" />
    </filter>
    <filter
       inkscape:collect="always"
       id="filter3936"
       x="-0.081464752"
       width="1.1629295"
       y="-0.28087091"
       height="1.5617418">
      <feGaussianBlur
         inkscape:collect="always"
         stdDeviation="0.14001754"
         id="feGaussianBlur3938" />
    </filter>
    <filter
       inkscape:collect="always"
       id="filter3940"
       x="-0.084387251"
       width="1.1687745"
       y="-0.21144218"
       height="1.4228844">
      <feGaussianBlur
         inkscape:collect="always"
         stdDeviation="0.14001754"
         id="feGaussianBlur3942" />
    </filter>
    <filter
       inkscape:collect="always"
       id="filter3944"
       x="-0.091796849"
       width="1.1835937"
       y="-0.23232533"
       height="1.4646507">
      <feGaussianBlur
         inkscape:collect="always"
         stdDeviation="0.14001754"
         id="feGaussianBlur3946" />
    </filter>
    <filter
       inkscape:collect="always"
       id="filter3948"
       x="-0.11405067"
       width="1.2281013"
       y="-0.18632042"
       height="1.3726408">
      <feGaussianBlur
         inkscape:collect="always"
         stdDeviation="0.14001754"
         id="feGaussianBlur3950" />
    </filter>
    <filter
       inkscape:collect="always"
       id="filter3952"
       x="-0.22139246"
       width="1.4427849"
       y="-0.31895522"
       height="1.6379104">
      <feGaussianBlur
         inkscape:collect="always"
         stdDeviation="0.14001754"
         id="feGaussianBlur3954" />
    </filter>
  </defs>
  <sodipodi:namedview
     id="base"
     pagecolor="#ffffff"
     bordercolor="#666666"
     borderopacity="1.0"
     inkscape:pageopacity="0.0"
     inkscape:pageshadow="2"
     inkscape:zoom="9.8994949"
     inkscape:cx="10.628266"
     inkscape:cy="24.046505"
     inkscape:current-layer="layer1"
     showgrid="true"
     inkscape:grid-bbox="true"
     inkscape:document-units="px"
     inkscape:window-width="1440"
     inkscape:window-height="839"
     inkscape:window-x="0"
     inkscape:window-y="34" />
  <metadata
     id="metadata2388">
    <rdf:RDF>
      <cc:Work
         rdf:about="">
        <dc:format>image/svg+xml</dc:format>
        <dc:type
           rdf:resource="http://purl.org/dc/dcmitype/StillImage" />
      </cc:Work>
    </rdf:RDF>
  </metadata>
  <g
     id="layer1"
     inkscape:label="Layer 1"
     inkscape:groupmode="layer">
    <g
       id="g3177"
       transform="translate(0.5570715,-0.5122553)">
      <path
         sodipodi:nodetypes="csssssssssssssssssssssssssssssssssssssssssssssssssssccssssssssssssssssssssc"
         id="path2395"
         d="M 2.5714286,1.8571428 C 2.8196532,2.4777043 3.9138442,1.5947249 4.5714286,1.7142857 C 5.5555586,1.8932184 6.2530868,2.2883596 7.2142857,2 C 8.3025798,1.6735118 9.3352687,2.1583605 10.428571,2.3571428 C 11.239123,2.5045158 11.729679,2.302525 12.5,2.0714285 C 13.354464,1.8150894 14.685313,2.5350414 15.5,2.7857143 C 15.94858,2.9237388 17.399472,2.0658727 17.857143,1.9285714 C 18.986579,1.5897406 20.792649,2.2955097 21.857143,2.4285714 C 23.193756,2.595648 23.108419,2.3925091 24.285714,2.0714285 C 25.276174,1.8013031 26.341895,2.5 27.428571,2.5 C 28.022587,2.5 27.856119,2.3705952 28.357143,2.1428571 C 28.922368,1.8859366 29.603424,2.1746485 30.214286,2.2857143 C 30.371429,2.3142857 30.268852,1.8571428 30.428571,1.8571428 C 30.997875,1.8571428 31.334349,2.8715866 31.357143,2.9285714 C 31.597806,3.5302281 31.944449,1.8730603 31.928571,1.7142857 C 31.831177,0.74034306 33.89735,2.1205299 34.857143,1.9285714 C 35.948113,1.7103775 36.404426,1.7713278 37.642857,2.1428571 C 38.218176,2.3154526 39.004237,1.9044088 39.571429,1.8571428 C 40.354594,1.791879 40.806052,1.6897819 41.642857,1.8571428 C 42.722105,2.0729924 42.479472,2.4955317 43.5,1.9285714 C 44.541959,1.3497052 44.973796,2.5242617 45.357143,3.2142857 C 45.806531,4.0231847 45.714286,4.400805 45.714286,5.3571428 C 45.714286,6.3048177 46.130537,7.0073396 46.214286,7.9285714 C 46.270731,8.549467 45.591916,9.6341818 45.357143,10.142857 C 45.101197,10.697406 45.516226,11.876543 45.571429,12.428571 C 45.671015,13.424435 45.80279,13.849687 46.714286,14.214286 C 47.449881,14.508524 46.756169,15.546753 46.642857,16 C 46.45085,16.76803 46.432691,17.557698 46.214286,18.285714 C 45.981165,19.062782 46.028925,19.500883 46.285714,20.142857 C 46.540373,20.779505 46.424914,21.536579 46.357143,22.214286 C 46.273956,23.04615 45.938082,23.825442 45.714286,24.571429 C 45.674337,24.704591 46.723372,26.271412 46.785714,26.5 C 46.980286,27.213431 46.338914,28.060762 46.142857,28.714286 C 45.916709,29.468113 46.309006,30.415371 46.571429,31.071429 C 46.828157,31.713249 46.849875,32.429822 46.785714,33.071429 C 46.73851,33.543476 45.902973,33.5 45.428571,33.5 C 44.63282,33.5 46.642913,34.614432 46.928571,35.357143 C 47.2543,36.204037 46.357143,36.537008 46.357143,37.357143 C 46.357143,38.240405 47.17676,39.66063 47.428571,40.5 C 47.670738,41.307222 47.439967,41.629834 46.928571,42.214286 C 46.561842,42.633405 48.303248,45.512179 48.357143,45.714286 C 48.529027,46.358853 47.153569,46.355105 46.714286,46.857143 C 45.936819,47.745676 43.19617,45.922533 42.142857,45.571429 C 41.35255,45.307993 40.343982,45.357143 39.5,45.357143 C 38.510399,45.357143 37.463605,45.896228 36.5,46.071429 C 35.086406,46.328446 33.566814,45.923284 32.071429,45.571429 C 31.339344,45.399173 30.342513,45.642857 29.571429,45.642857 C 28.815562,45.642857 27.994448,46.092423 27.285714,46.285714 C 26.543285,46.488195 26.114316,46.780932 25.571429,47.142857 C 24.568654,47.811374 22.207467,47.123295 21.142857,46.857143 C 20.048763,46.583619 18.98227,46.001658 17.928571,45.714286 C 16.994698,45.459593 16.473264,45.975171 15.785714,46.357143 C 15.068922,46.755361 11.551335,47.714286 13.214286,46.571429 C 9.03856,46.089136 10.258932,46.356622 10.357143,46.357143 C 9.8310447,45.896807 7.0975268,46.090275 7.2857143,46.285714 C 8.2558954,47.29328 5.7107694,45.741538 5,46 C 3.9312719,46.388628 3.7531291,45.668537 3.4285714,44.857143 C 3.2033532,44.294097 3.2857143,43.627739 3.2857143,43 C 3.2857143,42.193268 3.2963578,41.41036 3.1428571,40.642857 C 2.9865072,39.861107 2.7142857,39.429955 2.7142857,38.5 C 2.7142857,37.34069 2.4891676,37.769126 3.4285714,37.142857 C 4.5826795,36.373452 4.078275,35.229941 3.2857143,35.071429 C 2.5406346,34.922413 2.6428571,33.637091 2.6428571,33.071429 C 2.6428571,32.2776 2.55379,31.604957 2.6428571,30.714286 C 2.7167433,29.975424 2.6513509,29.400259 2.8571429,28.714286 C 3.257939,27.378299 3.3097681,27.000733 2.8571429,25.642857 C 2.5529177,24.730182 2.1133898,24.676804 2.2857143,23.642857 C 2.3911187,23.010431 3.2048518,22.090296 3.5,21.5 C 3.940815,20.61837 3.2142857,19.356331 3.2142857,18.428571 C 3.2142857,17.446088 3.5297309,16.367177 3.7857143,15.428571 C 3.9815562,14.710484 3.0542082,12.953281 2.8571429,12.214286 C 2.4682408,10.755903 1.5911403,9.7914372 2,8.4285714 C 2.2701141,7.528191 2.4758014,6.456272 2.5714286,5.5 C 2.6045766,5.1685199 1.7857143,4.5328856 1.7857143,3.8571428 C 1.7857143,2.9527696 2.4041228,2.0722502 2.5714286,1.8571428 z"
         style="opacity:1;fill:none;fill-opacity:1;fill-rule:evenodd;stroke:#000000;stroke-width:1;stroke-linecap:round;stroke-linejoin:round;marker:none;marker-start:none;marker-mid:none;marker-end:none;stroke-miterlimit:4;stroke-dasharray:none;stroke-dashoffset:0;stroke-opacity:1;visibility:visible;display:inline;overflow:visible;enable-background:accumulate" />
      <path
         sodipodi:nodetypes="cssssssssssssssssssssssssssssssssssssssssssssssssssssssssssssssssc"
         id="path2397"
         d="M 5.9285714,5.1428571 C 6.4613284,5.2276874 7.396502,5.1310494 8.0714286,4.9285714 C 8.8584022,4.6924793 9.8737439,4.7289573 10.642857,4.8571428 C 11.248419,4.9580698 11.903086,4.9457351 12.5,5 C 13.440531,5.0855028 14.627454,5.4445786 15.571429,5.7142857 C 16.296736,5.9215163 17.040959,5.4285714 17.785714,5.4285714 C 18.904762,5.4285714 20.02381,5.4285714 21.142857,5.4285714 C 21.746903,5.4285714 22.367321,4.8408215 23,4.7142857 C 24.147777,4.4847303 25.977038,5.1716827 27.071429,5.5 C 28.031543,5.7880344 29.151864,5.674068 29.928571,5.2857143 C 30.745458,4.877271 31.520114,5.0325943 32.428571,5.2142857 C 33.268694,5.3823102 34.221543,5.2438248 35.071429,5.3571428 C 35.440083,5.4062967 34.666596,4.7063022 34.357143,4.5 C 33.297501,3.7935719 36.78949,5.2876023 37.928571,5.8571428 C 39.025435,6.4055746 38.801533,7.05561 39.642857,6.2142857 C 40.183094,5.6740486 40.113165,5.5922968 41.214286,6.1428571 C 42.521656,6.796542 43.092582,7.0079686 42.642857,8.3571428 C 42.416085,9.0374579 42.428571,10.006941 42.428571,10.714286 C 42.428571,11.421153 42.178006,11.990167 42,12.642857 C 41.824813,13.285211 42,14.205651 42,14.928571 C 42,15.761905 42,16.595238 42,17.428571 C 42,18.371738 42.60149,19.650305 42.785714,20.571429 C 43.006309,21.674402 42.865948,22.350787 42.5,23.357143 C 42.23605,24.083006 42.360197,24.962171 42.428571,25.714286 C 42.510211,26.612315 42.398206,27.491031 42.571429,28.357143 C 42.709633,29.048166 41.549868,29.169839 41.642857,30.285714 C 41.693169,30.889456 42,31.635563 42,32.428571 C 42,33.271269 42.563469,34.256531 42.785714,35.071429 C 42.930346,35.601745 41.724656,35.36728 41.214286,35.571429 C 40.692552,35.780122 42.571429,36.009504 42.571429,36.571429 C 42.571429,37.229394 42.785714,37.767123 42.785714,38.5 C 42.785714,39.380147 42.390577,39.460486 42.928571,40.357143 C 43.428314,41.190047 43.001885,41.569005 42.5,42.214286 C 42.199768,42.600298 42.142857,43.195057 42.142857,43.5 C 42.142857,44.261905 40.619048,43.5 39.857143,43.5 C 39.125681,43.5 38.511696,42.966815 37.928571,42.642857 C 37.292438,42.28945 36.894757,43.42224 36.785714,43.785714 C 36.577112,44.481057 34.103998,43.663657 33.642857,43.571429 C 32.799728,43.402803 31.850948,43.644547 31.071429,43.857143 C 30.230462,44.086498 29.425207,43.856531 28.642857,43.714286 C 27.493127,43.505244 26.416331,42.823675 25.428571,42.428571 C 24.690868,42.13349 22.642554,43.1477 21.857143,43.357143 C 21.195011,43.533711 20.21628,42.785714 19.428571,42.785714 C 18.650158,42.785714 18.084142,43.015557 17.214286,42.928571 C 16.49204,42.856347 15.79507,42.591625 15.142857,42.428571 C 14.084929,42.164089 13.218375,42.427695 12.214286,42.642857 C 11.0267,42.89734 9.4967428,41.974019 8.5714286,41.357143 C 7.4887994,40.63539 7.6591716,40.338498 8.1428571,39.785714 C 8.6862088,39.164741 6.6533472,38.84156 6.3571429,38.071429 C 6.2341054,37.751531 6.5,36.170632 6.5,35.714286 C 6.5,35.050249 6.7142857,34.474125 6.7142857,33.785714 C 6.7142857,33.013173 6.0390042,32.70494 5.5,32.285714 C 4.9317002,31.843703 5.9847333,31.169937 6.1428571,30.642857 C 6.2461356,30.298596 6.1066464,29.252482 6.2142857,28.714286 C 6.4592274,27.489578 5.3774904,28.153243 5.7857143,26.928571 C 6.2526373,25.527802 7.1496587,24.19048 7.5714286,22.714286 C 7.6650811,22.386502 6.9693806,22.383671 6.6428571,22.285714 C 6.3132962,22.186846 7.0880416,20.235875 7.1428571,20.071429 C 7.3049327,19.585202 6.5714286,18.640577 6.5714286,18.214286 C 6.5714286,16.905757 5.7586787,16.689985 6.2857143,15.214286 C 6.8791601,13.552637 8.5249928,13.214286 6.7142857,13.214286 C 6.0667294,13.214286 6.8571429,12.598672 6.8571429,11.071429 C 6.8571429,10.547041 7.3193095,9.6772105 7.5,9.2857143 C 7.8818949,8.4582753 5.2142857,8.6970314 5.2142857,7.7857143 C 5.2142857,7.0779106 5.6859964,6.5664786 6.2142857,6.2142857 C 6.5577007,5.9853424 6.045421,5.3960311 5.9285714,5.1428571 z"
         style="opacity:1;fill:none;fill-opacity:1;fill-rule:evenodd;stroke:#000000;stroke-width:1;stroke-linecap:round;stroke-linejoin:round;marker:none;marker-start:none;marker-mid:none;marker-end:none;stroke-miterlimit:4;stroke-dasharray:none;stroke-dashoffset:0;stroke-opacity:1;visibility:visible;display:inline;overflow:visible;enable-background:accumulate" />
      <path
         id="path2399"
         d="M 2.4285714,1.7857143 C 2.5095862,2.4609671 2.690191,2.4427716 3.3571429,2.6428571 C 3.6064626,2.717653 4.1514704,3.6950366 4.5,4 C 4.9628594,4.405002 5.1304145,4.6366358 5.7142857,4.9285714 C 6.3364843,5.2396707 6.1284951,4.8567614 6.2857143,5.6428571"
         style="opacity:1;fill:none;fill-opacity:1;fill-rule:evenodd;stroke:#000000;stroke-width:1;stroke-linecap:round;stroke-linejoin:round;marker:none;marker-start:none;marker-mid:none;marker-end:none;stroke-miterlimit:4;stroke-dasharray:none;stroke-dashoffset:0;stroke-opacity:1;visibility:visible;display:inline;overflow:visible;enable-background:accumulate" />
      <path
         id="path2401"
         d="M 44.285714,2 C 44.317416,2.015851 43.806979,2.9624562 43.5,3.3571428 C 43.01941,3.975044 43.083492,5.2555546 42.785714,6 C 42.650997,6.3367931 42.621286,6.6029049 42.571429,6.7857143"
         style="opacity:1;fill:none;fill-opacity:1;fill-rule:evenodd;stroke:#000000;stroke-width:1;stroke-linecap:round;stroke-linejoin:round;marker:none;marker-start:none;marker-mid:none;marker-end:none;stroke-miterlimit:4;stroke-dasharray:none;stroke-dashoffset:0;stroke-opacity:1;visibility:visible;display:inline;overflow:visible;enable-background:accumulate" />
      <path
         id="path2403"
         d="M 42.142857,43.928571 C 41.955277,44.397523 43.159082,43.569153 43.642857,43.714286 C 44.241943,43.894011 44.779438,44.251535 45.428571,44.428571 C 45.919863,44.56256 46.468812,44.998546 46.857143,45.214286 C 47.518687,45.58181 47.930114,45.542799 48.285714,46"
         style="opacity:1;fill:none;fill-opacity:1;fill-rule:evenodd;stroke:#000000;stroke-width:1;stroke-linecap:round;stroke-linejoin:round;marker:none;marker-start:none;marker-mid:none;marker-end:none;stroke-miterlimit:4;stroke-dasharray:none;stroke-dashoffset:0;stroke-opacity:1;visibility:visible;display:inline;overflow:visible;enable-background:accumulate" />
      <path
         id="path2405"
         d="M 8.3571429,41.357143 C 8.9358116,41.678625 7.3365093,42.204232 6.7857143,42.571429 C 6.3480852,42.863181 6.3267929,43.978543 6.2142857,44.428571 C 6.1672544,44.616697 5.0649839,45.266917 4.8571429,45.428571 C 4.6379679,45.599041 4.3809524,45.714286 4.1428571,45.857143"
         style="opacity:1;fill:none;fill-opacity:1;fill-rule:evenodd;stroke:#000000;stroke-width:1;stroke-linecap:round;stroke-linejoin:round;marker:none;marker-start:none;marker-mid:none;marker-end:none;stroke-miterlimit:4;stroke-dasharray:none;stroke-dashoffset:0;stroke-opacity:1;visibility:visible;display:inline;overflow:visible;enable-background:accumulate" />
    </g>
    <g
       id="g3291"
       transform="translate(-0.404061,-2.9294424)">
      <g
         transform="matrix(0.9356232,-0.3530002,0.3530002,0.9356232,37.820217,5.3373521)"
         id="g3219">
        <path
           style="opacity:1;fill:#66cd35;fill-opacity:1;fill-rule:nonzero;stroke:none;stroke-width:0.40799999;stroke-linecap:round;stroke-linejoin:round;marker:none;marker-start:none;marker-mid:none;marker-end:none;stroke-miterlimit:4;stroke-dasharray:none;stroke-dashoffset:0;stroke-opacity:0.98983047;visibility:visible;display:inline;overflow:visible;enable-background:accumulate"
           d="M -17.369995,26.319919 C -17.922124,26.22238 -18.18385,26.079719 -18.712372,25.588216 C -18.923433,25.391934 -19.254263,25.091776 -19.447545,24.9212 C -19.640828,24.750625 -20.017676,24.330148 -20.284982,23.986809 C -20.552289,23.643471 -20.887669,23.226186 -21.030273,23.05951 C -21.172881,22.892835 -21.420656,22.5402 -21.580897,22.275875 C -21.741137,22.011552 -22.010267,21.609119 -22.178978,21.381581 C -22.403025,21.079407 -22.522965,20.854941 -22.623869,20.548972 C -22.887049,19.750917 -23.312773,18.820574 -23.6473,18.312451 C -24.074287,17.663881 -24.30299,17.020903 -24.570989,15.7156 C -24.682767,15.171183 -24.816531,14.521196 -24.868241,14.271183 C -24.967888,13.789426 -25.071383,12.598974 -25.071383,11.934566 C -25.071383,11.499117 -24.88655,10.781735 -24.6224,10.19197 C -24.544821,10.018746 -24.441058,9.7520132 -24.391823,9.5992277 C -24.246816,9.1492537 -23.926961,8.4646107 -23.554043,7.8059746 C -23.362392,7.4674901 -23.088655,6.9313234 -22.945729,6.6144936 C -22.802802,6.2976648 -22.561063,5.8263412 -22.408525,5.5671088 C -22.255982,5.3078769 -22.028899,4.8769009 -21.903888,4.6093842 C -21.778882,4.3418665 -21.585286,3.9885323 -21.473684,3.8241957 C -21.210651,3.4368562 -20.511059,2.0310092 -20.395175,1.6569033 C -20.345697,1.4971729 -20.290447,1.3664844 -20.272401,1.3664844 C -20.254349,1.3664844 -20.154071,1.5653582 -20.049561,1.8084261 C -19.945051,2.0514941 -19.801079,2.3526458 -19.729631,2.4776522 C -19.358995,3.1260828 -18.555076,4.3707473 -18.273465,4.7321657 C -17.843964,5.2833827 -17.071702,5.9989662 -16.485086,6.3892912 C -15.898516,6.7795863 -15.837215,6.8352523 -14.813486,7.9072222 C -13.886499,8.8778888 -13.465654,9.4632768 -12.990731,10.442627 C -12.826405,10.78149 -12.575912,11.23606 -12.434082,11.45278 C -11.981488,12.144363 -11.977947,12.153747 -11.559845,13.772466 C -11.335884,14.639538 -11.181785,15.740033 -11.181775,16.472468 C -11.181765,16.909828 -11.146319,17.365034 -11.081805,17.75621 C -11.026828,18.08956 -10.981376,18.517796 -10.9808,18.707845 C -10.979679,19.076228 -11.080639,19.437623 -11.766078,21.519028 C -11.944471,22.060722 -12.124808,22.633043 -12.166831,22.790851 C -12.271795,23.185027 -12.793433,23.831566 -13.70798,24.701008 C -14.393813,25.353019 -14.453149,25.396614 -15.063711,25.697089 C -15.41489,25.869916 -15.751705,26.011968 -15.812188,26.012762 C -15.872681,26.013558 -16.067954,26.090199 -16.246145,26.183079 C -16.661363,26.399503 -16.814169,26.418109 -17.369995,26.319918 L -17.369995,26.319919 z"
           id="path3217" />
        <g
           id="g3201"
           transform="translate(-0.1515227,1.3467407e-8)">
          <path
             id="path3280"
             d="M -20.285714,1.1071428 C -20.24256,1.1638045 -20.310449,1.5330571 -20.321429,1.6428571 C -20.341161,1.8401848 -20.336921,2.0120715 -20.357143,2.2142857 C -20.374463,2.3874916 -20.412053,2.584811 -20.428571,2.75 C -20.44834,2.9476808 -20.428571,3.1583277 -20.428571,3.3571428 C -20.428571,3.5669294 -20.411891,3.7739498 -20.392857,3.9642857 C -20.373069,4.1621694 -20.392857,4.3725969 -20.392857,4.5714285 C -20.392857,4.7589188 -20.357143,4.9774879 -20.357143,5.1785714 C -20.357143,5.3728325 -20.321429,5.6055581 -20.321429,5.8214285 C -20.321429,6.0034097 -20.248712,6.2207259 -20.214286,6.3928571 C -20.172677,6.6009024 -20.129186,6.7795653 -20.107143,7 C -20.079952,7.2719052 -20.015104,7.5316232 -19.964286,7.7857143 C -19.91702,8.0220438 -19.869289,8.2606983 -19.821429,8.5 C -19.768775,8.76327 -19.657451,9.0491514 -19.571429,9.2857143 C -19.490588,9.5080261 -19.386849,9.7105021 -19.321429,9.9285714 C -19.253433,10.155223 -19.167305,10.327423 -19.071429,10.5 C -18.955832,10.708074 -18.866649,10.896455 -18.75,11.071429 C -18.598935,11.298027 -18.419801,11.508643 -18.285714,11.75 C -18.149365,11.995429 -18.025288,12.225911 -17.892857,12.464286 C -17.734105,12.750039 -17.570162,13.002533 -17.428571,13.285714 C -17.255812,13.631234 -17.213523,14.001907 -17.071429,14.357143 C -16.912138,14.75537 -16.905139,15.147868 -16.75,15.535714 C -16.629356,15.837325 -16.641526,16.256654 -16.571429,16.607143 C -16.508647,16.921052 -16.445253,17.22134 -16.392857,17.535714 C -16.342571,17.837432 -16.264324,18.128341 -16.214286,18.428571 C -16.193875,18.551034 -16.166548,18.667261 -16.142857,18.785714 M -16.142857,18.785714 C -16.122799,18.906065 -16.119847,18.992804 -16.107143,19.107143"
             style="opacity:1;fill:none;fill-opacity:1;fill-rule:evenodd;stroke:#002b00;stroke-width:0.708;stroke-linecap:round;stroke-linejoin:round;marker:none;marker-start:none;marker-mid:none;marker-end:none;stroke-miterlimit:4;stroke-dasharray:none;stroke-dashoffset:0;stroke-opacity:1;visibility:visible;display:inline;overflow:visible;filter:url(#filter3458);enable-background:accumulate" />
          <path
             id="path3284"
             d="M -16.142857,19 C -16.150877,19.038876 -16.142857,19.380314 -16.142857,19.571429 C -16.142857,19.748569 -16.089395,19.927475 -16.071429,20.107143 C -16.05047,20.316733 -16.050763,20.471912 -16.071429,20.678571 C -16.094355,20.907833 -16.086676,21.132004 -16.107143,21.357143 C -16.127017,21.575753 -16.121017,21.781601 -16.142857,22 C -16.168364,22.255069 -16.231946,22.311813 -16.285714,22.5 C -16.338191,22.683667 -16.33751,22.8751 -16.357143,23.071429 C -16.370856,23.208564 -16.50244,23.460515 -16.535714,23.571429 C -16.587411,23.743751 -16.588677,23.851051 -16.607143,24.035714 C -16.620676,24.171041 -16.66143,24.364305 -16.678571,24.535714 C -16.691749,24.667493 -16.738185,24.917564 -16.75,25.035714 C -16.770617,25.241881 -16.76829,25.451192 -16.785714,25.642857 C -16.802774,25.83051 -16.766774,26.01083 -16.75,26.178571 C -16.734345,26.335122 -16.540838,26.526491 -16.535714,26.535714 C -16.527538,26.550431 -16.511905,26.511905 -16.5,26.5"
             style="opacity:1;fill:none;fill-opacity:1;fill-rule:evenodd;stroke:#002b00;stroke-width:0.80000001;stroke-linecap:round;stroke-linejoin:round;marker:none;marker-start:none;marker-mid:none;marker-end:none;stroke-miterlimit:4;stroke-dasharray:none;stroke-dashoffset:0;stroke-opacity:1;visibility:visible;display:inline;overflow:visible;filter:url(#filter3454);enable-background:accumulate" />
          <path
             id="path3462"
             d="M -17.714286,8.5 C -17.775551,8.5227249 -18.129661,8.7579604 -18.357143,8.9285714 C -18.604017,9.1137268 -18.836695,9.2933475 -19.107143,9.4285714"
             style="opacity:1;fill:none;fill-opacity:0.75294118;fill-rule:evenodd;stroke:#002a00;stroke-width:0.708;stroke-linecap:round;stroke-linejoin:round;marker:none;marker-start:none;marker-mid:none;marker-end:none;stroke-miterlimit:4;stroke-dasharray:none;stroke-dashoffset:0;stroke-opacity:0.75294118;visibility:visible;display:inline;overflow:visible;filter:url(#filter3952);enable-background:accumulate" />
          <path
             id="path3464"
             d="M -15.321429,9.75 C -15.397944,9.7882578 -15.706985,10.145028 -15.892857,10.392857 C -16.069246,10.628043 -16.401813,10.758944 -16.642857,10.892857 C -16.884868,11.027307 -17.135378,11.111294 -17.392857,11.214286 C -17.621904,11.305904 -17.847868,11.348145 -18.071429,11.392857 C -18.097531,11.398078 -18.119048,11.416667 -18.142857,11.428571"
             style="opacity:1;fill:none;fill-opacity:0.75294118;fill-rule:evenodd;stroke:#002a00;stroke-width:0.708;stroke-linecap:round;stroke-linejoin:round;marker:none;marker-start:none;marker-mid:none;marker-end:none;stroke-miterlimit:4;stroke-dasharray:none;stroke-dashoffset:0;stroke-opacity:0.75294118;visibility:visible;display:inline;overflow:visible;filter:url(#filter3948);enable-background:accumulate" />
          <path
             id="path3466"
             d="M -13.285714,12 C -13.381367,12.019131 -13.789603,12.338047 -14,12.464286 C -14.273241,12.62823 -14.528203,12.750515 -14.821429,12.857143 C -15.118123,12.965032 -15.406435,13.090587 -15.678571,13.214286 C -15.896107,13.313165 -16.157359,13.285714 -16.392857,13.285714 C -16.531946,13.285714 -16.677744,13.309455 -16.821429,13.321429"
             style="opacity:1;fill:none;fill-opacity:0.75294118;fill-rule:evenodd;stroke:#002a00;stroke-width:0.708;stroke-linecap:round;stroke-linejoin:round;marker:none;marker-start:none;marker-mid:none;marker-end:none;stroke-miterlimit:4;stroke-dasharray:none;stroke-dashoffset:0;stroke-opacity:0.75294118;visibility:visible;display:inline;overflow:visible;filter:url(#filter3944);enable-background:accumulate" />
          <path
             id="path3468"
             d="M -12.392857,15.535714 C -12.48253,15.535714 -12.923542,15.854628 -13.142857,15.964286 C -13.462423,16.124069 -13.761654,16.292189 -14.071429,16.464286 C -14.549063,16.729638 -15.130389,16.835395 -15.642857,16.928571 C -15.873281,16.970467 -16.033829,16.974568 -16.25,17"
             style="opacity:1;fill:none;fill-opacity:0.75294118;fill-rule:evenodd;stroke:#002a00;stroke-width:0.708;stroke-linecap:round;stroke-linejoin:round;marker:none;marker-start:none;marker-mid:none;marker-end:none;stroke-miterlimit:4;stroke-dasharray:none;stroke-dashoffset:0;stroke-opacity:0.75294118;visibility:visible;display:inline;overflow:visible;filter:url(#filter3940);enable-background:accumulate" />
          <path
             id="path3470"
             d="M -11.642857,18.392857 C -11.79058,18.419716 -12.176982,18.665784 -12.392857,18.785714 C -12.686853,18.949045 -13.001558,19.019905 -13.321429,19.107143 C -13.675537,19.203718 -14.068345,19.249383 -14.428571,19.321429 C -14.632335,19.362181 -14.881101,19.373824 -15.071429,19.392857 C -15.256693,19.411384 -15.448977,19.444898 -15.642857,19.464286"
             style="opacity:1;fill:none;fill-opacity:0.75294118;fill-rule:evenodd;stroke:#002a00;stroke-width:0.708;stroke-linecap:round;stroke-linejoin:round;marker:none;marker-start:none;marker-mid:none;marker-end:none;stroke-miterlimit:4;stroke-dasharray:none;stroke-dashoffset:0;stroke-opacity:0.75294118;visibility:visible;display:inline;overflow:visible;filter:url(#filter3936);enable-background:accumulate" />
          <path
             id="path3472"
             d="M -13.107143,21.607143 C -13.227088,21.619137 -13.560669,21.776419 -13.785714,21.821429 C -14.141907,21.892667 -14.452491,21.99882 -14.821429,22.035714 C -15.089121,22.062483 -15.373358,22.035714 -15.642857,22.035714 C -15.678571,22.035714 -15.714286,22.035714 -15.75,22.035714"
             style="opacity:1;fill:none;fill-opacity:0.75294118;fill-rule:evenodd;stroke:#002a00;stroke-width:0.708;stroke-linecap:round;stroke-linejoin:round;marker:none;marker-start:none;marker-mid:none;marker-end:none;stroke-miterlimit:4;stroke-dasharray:none;stroke-dashoffset:0;stroke-opacity:0.75294118;visibility:visible;display:inline;overflow:visible;filter:url(#filter3932);enable-background:accumulate" />
          <path
             id="path3474"
             d="M -22.214286,7.5 C -22.436473,7.5 -21.904187,8.608178 -21.785714,8.8214286 C -21.632542,9.0971391 -21.388197,9.2565575 -21.142857,9.3928571 C -20.831529,9.5658175 -20.493618,9.5357143 -20.142857,9.5357143 C -19.961316,9.5357143 -19.844662,9.5739247 -19.678571,9.6071428"
             style="opacity:1;fill:none;fill-opacity:0.75294118;fill-rule:evenodd;stroke:#002a00;stroke-width:0.708;stroke-linecap:round;stroke-linejoin:round;marker:none;marker-start:none;marker-mid:none;marker-end:none;stroke-miterlimit:4;stroke-dasharray:none;stroke-dashoffset:0;stroke-opacity:0.75294118;visibility:visible;display:inline;overflow:visible;filter:url(#filter3928);enable-background:accumulate" />
          <path
             id="path3476"
             d="M -23.071429,9.5 C -23.044833,9.5 -22.643917,10.337563 -22.5,10.571429 C -22.271551,10.942658 -21.9379,11.210588 -21.607143,11.5 C -21.278967,11.787154 -20.864552,11.890163 -20.464286,12.035714 C -20.059463,12.182922 -19.710398,12.178571 -19.285714,12.178571 C -19.056785,12.178571 -18.94102,12.128734 -18.75,12.071429 C -18.724503,12.063779 -18.702381,12.047619 -18.678571,12.035714"
             style="opacity:1;fill:none;fill-opacity:0.75294118;fill-rule:evenodd;stroke:#002a00;stroke-width:0.708;stroke-linecap:round;stroke-linejoin:round;marker:none;marker-start:none;marker-mid:none;marker-end:none;stroke-miterlimit:4;stroke-dasharray:none;stroke-dashoffset:0;stroke-opacity:0.75294118;visibility:visible;display:inline;overflow:visible;filter:url(#filter3924);enable-background:accumulate" />
          <path
             id="path3478"
             d="M -23.928571,12.857143 C -23.574272,12.750853 -22.181563,13.743616 -21.75,13.928571 C -21.094807,14.209368 -20.365445,14.505482 -19.678571,14.642857 C -19.361173,14.706337 -18.980774,14.67033 -18.678571,14.642857 C -18.347847,14.612791 -18.071713,14.471542 -17.785714,14.357143 C -17.587945,14.278035 -17.365256,14.223051 -17.142857,14.178571"
             style="opacity:1;fill:none;fill-opacity:0.75294118;fill-rule:evenodd;stroke:#002a00;stroke-width:0.708;stroke-linecap:round;stroke-linejoin:round;marker:none;marker-start:none;marker-mid:none;marker-end:none;stroke-miterlimit:4;stroke-dasharray:none;stroke-dashoffset:0;stroke-opacity:0.75294118;visibility:visible;display:inline;overflow:visible;filter:url(#filter3920);enable-background:accumulate" />
          <path
             id="path3480"
             d="M -22.607143,14.892857 C -22.128099,14.797048 -21.926539,15.599739 -21.535714,15.892857 C -21.024907,16.275963 -20.63835,16.641916 -20.035714,16.857143 C -19.725019,16.968106 -19.334404,17.005314 -19,17.035714 C -18.546444,17.076947 -18.149832,17.202643 -17.714286,17.321429 C -17.431762,17.398481 -17.113629,17.357143 -16.821429,17.357143 C -16.72619,17.357143 -16.630952,17.357143 -16.535714,17.357143"
             style="opacity:1;fill:none;fill-opacity:0.75294118;fill-rule:evenodd;stroke:#002a00;stroke-width:0.708;stroke-linecap:round;stroke-linejoin:round;marker:none;marker-start:none;marker-mid:none;marker-end:none;stroke-miterlimit:4;stroke-dasharray:none;stroke-dashoffset:0;stroke-opacity:0.75294118;visibility:visible;display:inline;overflow:visible;filter:url(#filter3916);enable-background:accumulate" />
          <path
             id="path3482"
             d="M -21.821429,17.964286 C -21.404932,17.964286 -21.142232,18.46706 -20.75,18.607143 C -20.438769,18.718297 -20.145043,18.753353 -19.821429,18.785714 C -19.530496,18.814808 -19.220244,18.785714 -18.928571,18.785714 C -18.455823,18.785714 -17.888836,19.008515 -17.428571,19.107143 C -17.179037,19.160615 -17.002552,19.262755 -16.785714,19.392857"
             style="opacity:1;fill:none;fill-opacity:0.75294118;fill-rule:evenodd;stroke:#002a00;stroke-width:0.708;stroke-linecap:round;stroke-linejoin:round;marker:none;marker-start:none;marker-mid:none;marker-end:none;stroke-miterlimit:4;stroke-dasharray:none;stroke-dashoffset:0;stroke-opacity:0.75294118;visibility:visible;display:inline;overflow:visible;filter:url(#filter3912);enable-background:accumulate" />
          <path
             id="path3484"
             d="M -20.714286,20.642857 C -20.357965,20.719212 -20.18889,21.170635 -19.857143,21.321429 C -19.498727,21.484345 -18.995736,21.480201 -18.607143,21.535714 C -18.274325,21.58326 -17.937652,21.54705 -17.607143,21.607143 C -17.271237,21.668217 -16.969959,21.791722 -16.642857,21.857143"
             style="opacity:1;fill:none;fill-opacity:0.75294118;fill-rule:evenodd;stroke:#002a00;stroke-width:0.708;stroke-linecap:round;stroke-linejoin:round;marker:none;marker-start:none;marker-mid:none;marker-end:none;stroke-miterlimit:4;stroke-dasharray:none;stroke-dashoffset:0;stroke-opacity:0.75294118;visibility:visible;display:inline;overflow:visible;filter:url(#filter3908);enable-background:accumulate" />
        </g>
      </g>
      <path
         sodipodi:nodetypes="cssssssssssssssssssssssccsssssssssssssssssssssssssc"
         id="path2506"
         d="M 18.635266,10.712734 C 18.765036,10.861891 18.828509,11.503806 18.95722,11.844953 C 19.095241,12.210776 19.233262,12.576599 19.371283,12.942421 C 19.506111,13.299782 19.897948,13.568494 20.126174,13.827719 C 20.439263,14.183331 20.699711,14.366626 21.065287,14.643511 C 21.473974,14.953051 21.815448,15.243257 22.243823,15.536132 C 22.694834,15.844482 23.109255,16.08788 23.583201,16.270016 C 25.023154,16.823386 24.503314,16.5641 25.227351,16.750698 C 25.719237,16.877467 26.234119,17.192855 26.746719,17.431147 C 27.237984,17.659519 27.626383,17.809934 28.026661,18.03477 C 28.418883,18.25508 28.758165,18.556606 29.030276,18.742648 C 29.37164,18.976033 29.751224,19.405604 29.996992,19.631605 C 30.373062,19.977426 30.825035,20.204421 31.160777,20.537026 C 31.475883,20.849187 31.609511,21.094246 31.861755,21.457135 C 32.134785,21.849923 32.14942,21.757391 32.758832,22.768557 C 32.993603,23.1581 33.175396,23.473448 33.384716,23.869686 C 33.576771,24.233237 33.68165,24.656704 33.826383,25.040319 C 33.939437,25.339966 34.353864,25.903828 34.48835,26.242348 C 34.907627,27.299406 34.752393,26.900931 34.782011,27.430648 C 34.890026,29.362436 34.934949,29.360194 34.895324,29.937431 C 34.858396,30.475397 35.113255,31.066327 34.943021,31.562077 C 34.626074,32.48508 34.731554,32.224428 34.571124,32.681642 C 34.391893,33.192438 34.051276,33.512376 33.928485,33.994168 C 33.805879,34.475239 33.509201,34.634792 32.982604,35.208537 C 31.945006,36.527232 32.908043,35.001095 31.971916,36.201869 C 31.003021,36.774447 31.653416,36.360209 30.94473,36.571689 C 30.568163,36.684062 30.342576,36.684801 29.936772,36.612419 C 29.450964,36.525767 28.934518,36.188895 28.417795,36.058818 C 28.028899,35.960919 27.404149,35.605662 27.057823,35.368883 C 26.717288,35.136063 26.292916,34.878271 25.88266,34.687557 C 25.525186,34.521379 25.085971,34.070871 24.724209,33.82354 C 24.39808,33.600569 24.0009,33.434038 23.720594,33.115663 C 23.425469,32.780453 23.307884,32.545026 22.9657,32.230365 C 22.704204,31.989901 22.445771,31.627543 22.118697,31.37982 C 21.900725,31.214728 21.509979,31.022914 21.234795,30.710355 C 20.992805,30.435498 20.705305,30.115876 20.452297,29.751895 C 20.169871,29.345586 19.940007,28.900872 19.651493,28.466024 C 19.406525,28.096807 19.097093,27.667499 18.878292,27.253317 C 18.641321,26.80474 18.499192,26.347496 18.261703,25.897942 C 18.069811,25.5347 17.910882,25.079628 17.911033,24.640335 C 17.911197,24.157045 17.819037,24.343353 17.902306,23.22278 C 17.945352,22.6435 17.798785,23.380375 17.931592,21.676368 C 17.969952,21.184186 18.134148,20.512757 18.17227,19.957394 C 18.206577,19.457621 18.191438,19.394404 18.245675,18.883331 C 18.287948,18.484975 18.400009,18.09557 18.439473,17.723683 C 18.484749,17.297027 18.455713,16.934066 18.541163,16.598787 C 18.622005,16.281587 18.734811,15.880728 18.734961,15.439138 C 18.735106,15.017948 18.879533,14.68837 18.836651,14.314242 C 18.786874,13.879935 18.846091,13.638959 18.846232,13.224096 C 18.846354,12.868692 18.968892,12.44982 18.920318,12.026035 C 18.878096,11.657649 18.602328,11.023105 18.635266,10.712734 z"
         style="fill:none;fill-opacity:1;fill-rule:evenodd;stroke:#000000;stroke-width:0.92799991;stroke-linecap:round;stroke-linejoin:round;marker:none;marker-start:none;marker-mid:none;marker-end:none;stroke-miterlimit:4;stroke-dasharray:none;stroke-dashoffset:0;stroke-opacity:1;visibility:visible;display:inline;overflow:visible;enable-background:accumulate" />
      <path
         id="path3237"
         d="M 31.309551,36.58687 C 31.390927,36.802557 31.698341,37.617353 31.889818,38.12486 C 32.071151,38.605483 32.252484,39.086105 32.433818,39.566727 C 32.624095,40.071055 32.936782,40.583436 33.206073,41.032282 C 33.399795,41.355169 33.599742,41.688435 33.796998,42.017215"
         style="fill:none;fill-opacity:1;fill-rule:evenodd;stroke:#000000;stroke-width:0.49791929;stroke-linecap:butt;stroke-linejoin:miter;marker:none;marker-start:none;marker-mid:none;marker-end:none;stroke-miterlimit:4;stroke-dasharray:none;stroke-dashoffset:0;stroke-opacity:1;visibility:visible;display:inline;overflow:visible;enable-background:accumulate" />
      <path
         id="path3239"
         d="M 32.105241,36.176858 C 32.304572,36.509096 32.780183,37.385114 33.150558,37.978619 C 33.379541,38.345554 33.536885,39.002575 33.694558,39.420487 C 33.90359,39.974523 33.988933,40.387399 34.110565,40.910643 C 34.136509,41.022251 34.351641,41.247583 34.419892,41.342974"
         style="fill:none;fill-opacity:1;fill-rule:evenodd;stroke:#000000;stroke-width:0.49791929;stroke-linecap:butt;stroke-linejoin:miter;marker:none;marker-start:none;marker-mid:none;marker-end:none;stroke-miterlimit:4;stroke-dasharray:none;stroke-dashoffset:0;stroke-opacity:1;visibility:visible;display:inline;overflow:visible;enable-background:accumulate" />
      <path
         id="path3241"
         d="M 33.696735,41.945237 C 33.803296,42.403654 34.039463,41.303493 34.210828,40.982623"
         style="fill:none;fill-opacity:1;fill-rule:evenodd;stroke:#000000;stroke-width:0.49791929;stroke-linecap:butt;stroke-linejoin:miter;marker:none;marker-start:none;marker-mid:none;marker-end:none;stroke-miterlimit:4;stroke-dasharray:none;stroke-dashoffset:0;stroke-opacity:1;visibility:visible;display:inline;overflow:visible;enable-background:accumulate" />
      <path
         id="path3243"
         d="M 33.522917,41.167797 C 33.342804,40.90761 32.813675,39.773635 32.347092,38.647844 C 31.520753,36.654008 31.50439,36.598853 31.715853,36.520013 C 31.905022,36.449483 31.992805,36.547038 32.398271,37.278375 C 32.654186,37.739997 32.93142,38.236403 33.014312,38.381511 C 33.243566,38.782831 33.981973,41.353368 33.911952,41.50641 C 33.875087,41.586993 33.719239,41.451338 33.522928,41.167795 L 33.522917,41.167797 z"
         style="fill:#003b00;fill-opacity:1;fill-rule:nonzero;stroke:none;stroke-width:0.40799999;stroke-linecap:round;stroke-linejoin:round;marker:none;marker-start:none;marker-mid:none;marker-end:none;stroke-miterlimit:4;stroke-dasharray:none;stroke-dashoffset:0;stroke-opacity:0.98983047;visibility:visible;display:inline;overflow:visible;enable-background:accumulate" />
    </g>
    <path
       style="opacity:1;fill:#6df77e;fill-opacity:1;fill-rule:nonzero;stroke:none;stroke-width:0.40799998999999998;stroke-linecap:round;stroke-linejoin:round;marker:none;marker-start:none;marker-mid:none;marker-end:none;stroke-miterlimit:4;stroke-dasharray:none;stroke-dashoffset:0;stroke-opacity:0.98983047000000002;visibility:visible;display:inline;overflow:visible;enable-background:accumulate"
       d="M 35.54873,42.811468 C 33.774599,42.382539 33.452875,42.379012 31.609135,42.768286 C 30.44154,43.014803 29.168394,42.753458 27.27153,41.877889 C 25.786706,41.19251 25.459447,41.190094 23.548885,41.850376 L 22.155642,42.331873 L 21.175027,42.004819 L 20.194411,41.677758 L 19.124801,41.796364 C 17.986076,41.922627 17.649463,41.88929 16.307354,41.517326 C 15.414319,41.269819 14.238925,41.247384 13.274866,41.459439 C 12.38769,41.654582 12.056531,41.646078 11.387618,41.410975 C 10.771536,41.194446 9.6075477,40.536405 9.1606966,40.152036 C 8.8918849,39.920825 8.8886221,39.906163 9.0627421,39.713761 C 9.161828,39.604275 9.2677829,39.361312 9.2982087,39.17384 C 9.3723943,38.71666 9.0989864,38.381171 8.2780859,37.922096 C 7.9256235,37.724986 7.5855152,37.501395 7.5222999,37.425218 C 7.4360026,37.321244 7.4478213,36.90029 7.5696962,35.736529 C 7.862489,32.940825 7.8609737,32.989937 7.6666002,32.580327 C 7.5684437,32.373478 7.27058,32.020784 7.0046674,31.796568 L 6.5211983,31.388901 L 6.8928233,30.871895 L 7.2644584,30.354883 L 7.2986117,28.879673 C 7.3326033,27.411242 7.3315326,27.403006 7.0667817,27.088356 L 6.8007984,26.772256 L 7.1620088,25.899649 C 7.3606755,25.419721 7.6733379,24.724134 7.8568119,24.353903 C 8.3807073,23.296757 8.6454481,22.488036 8.6098604,22.053598 C 8.5824651,21.71917 8.524846,21.634071 8.2241034,21.483839 C 8.029649,21.386703 7.8354169,21.295443 7.7924753,21.281038 C 7.7495438,21.266634 7.8290933,20.917671 7.969252,20.505565 C 8.2982991,19.538148 8.2903391,19.164214 7.9210576,18.241989 C 7.7543824,17.825734 7.6180118,17.373656 7.6180118,17.237364 C 7.6180118,17.101072 7.5270981,16.704974 7.4159813,16.357148 C 7.3048646,16.009322 7.2137286,15.65111 7.2134558,15.561121 C 7.2122639,15.172496 7.5900104,14.405746 8.0895511,13.782799 C 8.408729,13.384768 8.6281644,13.010994 8.6281644,12.865353 C 8.6281644,12.542676 8.2916725,12.215523 7.9597869,12.215523 C 7.7341087,12.215523 7.704794,12.182291 7.7592716,11.988238 C 7.7943744,11.863232 7.8670043,11.429281 7.920694,11.023902 C 7.9743735,10.618525 8.1555241,9.9602602 8.3232296,9.5610944 C 8.4909453,9.1619276 8.6281644,8.7179746 8.6281644,8.574532 C 8.6281644,8.1470263 8.1386344,7.7764791 7.2473566,7.5293332 C 6.2238296,7.2455147 6.1757059,7.0782748 6.9036421,6.3348864 C 7.31038,5.9195187 7.4159813,5.7429087 7.4159813,5.4780639 C 7.4159813,5.1692754 7.4404068,5.144366 7.7442809,5.1432559 C 7.9248457,5.1425963 8.3225932,5.0749504 8.6281644,4.9929321 C 8.9337355,4.9109137 9.5246748,4.8434022 9.9413627,4.8429072 C 11.304483,4.841288 13.684927,5.1231195 14.739587,5.4109908 C 16.022723,5.7612228 16.724173,5.8093272 17.610057,5.6078372 C 18.118093,5.4922848 18.841968,5.4475007 20.201634,5.4475007 L 22.088275,5.4475007 L 22.900771,5.0806456 C 23.658386,4.7385736 23.761603,4.7176392 24.428718,4.7707419 C 24.822213,4.8020647 25.780272,5.0126048 26.557736,5.2386113 C 28.401759,5.7746608 29.200699,5.7944709 30.572223,5.3381527 L 31.50812,5.0267742 L 32.537112,5.1866298 C 33.10306,5.2745505 34.111899,5.3464855 34.778973,5.3464855 C 35.853321,5.3464855 36.007097,5.3247045 36.125416,5.1557818 C 36.253463,4.9729704 36.302819,4.9847185 37.318073,5.4396973 C 37.900567,5.7007369 38.60237,6.0864626 38.877637,6.2968642 C 39.506629,6.7776352 39.888264,6.7516481 40.464678,6.1888042 L 40.850677,5.8118779 L 41.552268,6.1512811 C 41.938137,6.3379542 42.380078,6.5913429 42.534369,6.7143674 L 42.814888,6.9380495 L 42.645395,7.834273 C 42.552178,8.3271961 42.453729,9.2077936 42.426636,9.7911567 C 42.395473,10.462078 42.301276,11.087111 42.17028,11.492162 C 41.985796,12.062644 41.963279,12.387767 41.963966,14.472112 C 41.964815,17.083366 42.025373,17.614289 42.485993,19.04828 C 42.903014,20.346583 42.931702,21.389687 42.582826,22.570182 C 42.347582,23.366189 42.345359,23.414561 42.441273,25.648201 L 42.538723,27.917501 L 42.153713,28.404574 C 41.680396,29.003367 41.591503,29.433977 41.752592,30.347761 C 41.821161,30.73667 41.937359,31.46398 42.010837,31.964005 C 42.084316,32.464031 42.262749,33.19684 42.407363,33.592471 C 42.551986,33.988103 42.670305,34.334762 42.670305,34.362831 C 42.670305,34.390901 42.412737,34.435221 42.097943,34.461326 C 41.474487,34.513027 41.155076,34.760566 41.155076,35.192028 C 41.155076,35.480027 41.378704,35.674588 42.026222,35.94995 L 42.543814,36.17006 L 42.667952,36.939543 C 42.745319,37.419131 42.765825,38.024253 42.722379,38.545752 C 42.658315,39.314858 42.674073,39.429208 42.917378,39.960656 L 43.182079,40.538833 L 42.813666,41.073745 C 42.44295,41.612014 42.177876,42.217715 42.169664,42.545353 C 42.1643,42.759345 42.242364,42.760255 40.980401,42.531495 C 40.17541,42.385573 39.80728,42.260895 39.314296,41.96723 C 38.176773,41.289609 37.666373,41.398889 37.112143,42.438738 C 36.753741,43.111137 36.771115,43.107002 35.54873,42.811469 L 35.54873,42.811468 z M 33.472422,39.391573 C 33.573195,39.337636 33.725415,39.119142 33.810692,38.906031 C 33.895959,38.692923 34.03836,38.458279 34.127132,38.384605 C 34.237309,38.293159 34.256957,38.212607 34.189034,38.130762 C 34.134304,38.064821 33.885261,37.377637 33.635602,36.603682 C 33.351416,35.72267 32.99562,34.872629 32.684079,34.330366 L 32.186488,33.464239 L 33.034228,32.573463 C 33.500494,32.083536 33.881978,31.637614 33.881978,31.582523 C 33.881978,31.527433 34.05728,31.13616 34.271543,30.713029 C 34.485807,30.289898 34.761134,29.640228 34.883383,29.269318 C 35.101071,28.608828 35.103354,28.547443 34.993691,26.289368 C 34.932102,25.021304 34.856351,23.892886 34.82536,23.781769 C 34.766306,23.570047 33.963002,21.855254 33.243602,20.405227 C 32.838602,19.58891 31.887735,18.128846 31.356597,17.507726 C 31.217701,17.345299 30.785861,16.951354 30.396952,16.632293 C 30.008043,16.313228 29.394375,15.798632 29.033246,15.488738 C 28.209032,14.781457 25.748452,13.55467 24.409939,13.183661 C 23.205868,12.849913 22.702367,12.589022 21.488669,11.669975 C 19.74162,10.347058 19.26997,9.7142962 18.921164,8.2254202 C 18.79635,7.6926395 18.493445,7.2657753 18.24021,7.2657753 C 17.993723,7.2657753 17.719446,7.5807166 17.720739,7.8622694 C 17.721406,8.0064424 17.786531,8.3670911 17.865484,8.6637072 C 18.036149,9.3048925 17.934114,12.010999 17.685748,13.430465 C 17.60338,13.901197 17.483616,14.763633 17.419593,15.346996 C 17.355589,15.930359 17.238048,16.930967 17.158418,17.570572 C 17.078787,18.210176 17.008925,19.505696 17.003167,20.449507 C 16.99343,22.044053 17.01036,22.212005 17.242301,22.822125 C 17.915487,24.592885 19.457747,27.095309 20.478254,28.072686 C 20.856606,28.435043 21.700771,29.254271 22.354178,29.893192 C 24.059972,31.561171 26.079035,32.907717 28.125886,33.742448 C 29.040206,34.115313 29.293592,34.176123 29.98188,34.187835 L 30.778991,34.201397 L 30.910948,34.547422 C 31.671512,36.541799 32.050137,37.426553 32.399094,38.02492 C 32.625904,38.413829 32.894301,38.90249 32.995529,39.110834 C 33.197792,39.527113 33.207964,39.5331 33.472412,39.391573 L 33.472422,39.391573 z"
       id="path3315" />
    <path
       style="opacity:1;fill:#70ff82;fill-opacity:1;fill-rule:nonzero;stroke:none;stroke-width:0.40799998999999998;stroke-linecap:round;stroke-linejoin:round;marker:none;marker-start:none;marker-mid:none;marker-end:none;stroke-miterlimit:4;stroke-dasharray:none;stroke-dashoffset:0;stroke-opacity:0.98983047000000002;visibility:visible;display:inline;overflow:visible;enable-background:accumulate"
       d="M 23.367108,46.166415 C 22.10967,45.893781 21.471931,45.700369 19.943186,45.128005 C 18.672414,44.652224 18.533155,44.621111 17.872373,44.665319 C 17.325164,44.701931 17.049018,44.780525 16.658877,45.01071 C 16.108415,45.335488 15.246068,45.694454 14.689857,45.830355 C 14.400954,45.900946 14.309515,45.882508 14.184781,45.728526 C 14.061613,45.576469 13.703999,45.500456 12.315221,45.33115 C 9.9397061,45.041548 8.2598325,44.985632 7.7931521,45.180625 C 7.4645798,45.317914 7.3785552,45.314545 6.8430834,45.143454 C 6.5192588,45.039984 6.3035609,44.952885 6.363766,44.949898 C 6.4239711,44.946911 6.6570032,44.774002 6.8816207,44.565658 C 7.2446595,44.228921 7.3032079,44.108029 7.4088193,43.477112 C 7.474156,43.086755 7.5616049,42.712383 7.6031424,42.645173 C 7.6446799,42.577964 8.0452155,42.325356 8.4932181,42.083824 L 9.3077647,41.644675 L 9.9528683,41.978221 C 10.77086,42.401155 11.770092,42.72213 12.268754,42.72213 C 12.481502,42.72213 12.988104,42.652176 13.394529,42.566675 C 14.436259,42.347532 15.241724,42.364907 16.166892,42.626487 C 17.270868,42.93863 18.128275,43.016626 19.14161,42.8971 C 19.978067,42.798439 20.0411,42.805891 20.960137,43.112066 C 21.48376,43.28651 22.022878,43.429237 22.158178,43.429237 C 22.293488,43.429237 23.101418,43.191375 23.953603,42.900655 L 25.503005,42.372072 L 25.929673,42.536296 C 26.164342,42.626613 26.787768,42.891609 27.315067,43.125173 C 28.416275,43.612939 29.755869,43.935212 30.731726,43.947129 C 31.10318,43.951662 31.885836,43.857046 32.470957,43.736865 C 33.493605,43.52682 33.564022,43.524696 34.289231,43.682081 C 37.112204,44.29472 37.497829,44.241674 37.969187,43.175845 L 38.21133,42.628316 L 38.900335,43.01652 C 39.464202,43.334216 39.818665,43.445522 40.852031,43.629384 C 41.546511,43.752947 42.25485,43.923803 42.426111,44.009059 C 42.713802,44.152279 42.78715,44.147546 43.390201,43.946866 L 44.042901,43.729662 L 44.897075,44.088104 C 45.850811,44.488325 46.562635,44.827753 47.165484,45.169787 C 47.689198,45.466915 47.692026,45.469521 47.547615,45.521189 C 47.479985,45.54538 47.256802,45.679094 47.05163,45.818327 C 46.707178,46.052078 46.643064,46.062686 46.214931,45.956734 C 45.959918,45.893627 45.160331,45.566265 44.438072,45.229266 C 42.694276,44.415625 42.384594,44.341008 40.745722,44.339573 C 39.485001,44.338472 39.277678,44.36634 38.124619,44.691927 C 36.499374,45.150846 35.760326,45.157756 33.717737,44.733132 C 32.239308,44.42579 32.192841,44.422512 30.818579,44.528624 C 29.613387,44.621683 29.253348,44.693776 28.192183,45.054529 C 27.515815,45.28446 26.647084,45.659593 26.26166,45.888149 C 25.657851,46.246208 25.469165,46.307226 24.897954,46.329151 C 24.528966,46.343313 23.850194,46.271159 23.367108,46.166417 L 23.367108,46.166415 z"
       id="path3317" />
    <path
       style="opacity:1;fill:#70ff82;fill-opacity:1;fill-rule:nonzero;stroke:none;stroke-width:0.40799998999999998;stroke-linecap:round;stroke-linejoin:round;marker:none;marker-start:none;marker-mid:none;marker-end:none;stroke-miterlimit:4;stroke-dasharray:none;stroke-dashoffset:0;stroke-opacity:0.98983047000000002;visibility:visible;display:inline;overflow:visible;enable-background:accumulate"
       d="M 4.5862915,44.363628 C 4.4977314,44.180997 4.4277986,43.428355 4.3821498,42.166546 C 4.3300865,40.727729 4.2601335,40.044952 4.1027012,39.439134 C 3.9872104,38.994667 3.8649517,38.358271 3.8310206,38.02492 L 3.7693205,37.418829 L 4.2750332,37.081022 C 5.3996057,36.329851 5.5020453,34.8188 4.4668107,34.25243 C 3.7155905,33.841444 3.7617141,34.021109 3.7617646,31.506387 C 3.761805,29.423254 3.783301,29.143738 4.0231618,28.107469 C 4.1669065,27.486447 4.2845084,26.823233 4.2845084,26.633652 C 4.2845084,26.128353 3.9326723,24.837763 3.6345157,24.249382 C 3.224818,23.440866 3.2615977,23.270735 4.1394707,21.913684 C 4.7748971,20.931415 4.8341021,20.518184 4.5466531,19.071894 C 4.2883066,17.771994 4.3130553,17.182647 4.6819226,15.85154 C 5.0191924,14.634489 4.9820592,14.381131 4.122985,12.037127 C 3.7007918,10.885183 3.2665171,9.6699384 3.1579156,9.336588 L 2.9604712,8.7304965 L 3.212282,7.6193287 C 3.350784,7.0081864 3.5186815,6.1141489 3.5854021,5.6325778 C 3.7001857,4.8040962 3.6952865,4.7388888 3.4944378,4.4203948 C 2.9446623,3.5486038 2.8808409,3.3737767 2.9692292,2.9818749 C 3.0162114,2.7735309 3.0792449,2.5784816 3.109297,2.5484316 C 3.2588399,2.3988886 3.699721,2.6715369 4.0250811,3.1147615 C 4.4479107,3.6907737 5.5068233,4.6979332 5.7811403,4.7849982 C 5.8846911,4.8178656 6.0302743,4.9584677 6.1046518,5.0974465 C 6.2288905,5.3296048 6.214718,5.3766627 5.9301075,5.6766104 C 5.4890749,6.1414098 5.2757913,6.6169523 5.2588511,7.1733049 C 5.2389713,7.8264595 5.5724327,8.1760581 6.492217,8.4663466 C 6.864529,8.5838506 7.2246786,8.6799889 7.2925609,8.6799889 C 7.4560036,8.6799889 7.4541247,8.691151 7.1744943,9.3793134 C 7.0416794,9.7061745 6.9015409,10.262119 6.8630743,10.614743 C 6.8245976,10.967368 6.7287139,11.480049 6.6499827,11.754035 C 6.4342343,12.504901 6.462367,12.888829 6.7468058,13.0752 L 6.9867675,13.232426 L 6.5896664,14.011923 C 6.0806809,15.01103 6.001192,15.6637 6.28556,16.508671 C 6.3977476,16.842021 6.5354213,17.364775 6.5915049,17.670347 C 6.6475987,17.975918 6.7878584,18.445619 6.9032077,18.714128 C 7.1658272,19.325448 7.1646352,19.369184 6.8591044,20.325846 C 6.4597911,21.576209 6.5677562,22.317048 7.1493112,22.317048 C 7.2439119,22.317048 7.3454222,22.379899 7.3748984,22.456717 C 7.4043848,22.533536 7.0892475,23.340393 6.6746102,24.249738 C 6.2599628,25.159083 5.8670639,26.103519 5.8014949,26.348489 C 5.6568512,26.888827 5.7346329,27.378595 6.0037477,27.622137 C 6.1787465,27.780526 6.2037983,27.934938 6.2037983,28.855952 L 6.2037983,29.908717 L 5.7997373,30.472982 C 5.4814887,30.917418 5.3956762,31.127672 5.3956762,31.463037 C 5.3956762,31.861338 5.4387794,31.926666 6.063276,32.474944 L 6.7308757,33.06106 L 6.6776911,33.573196 C 6.3602002,36.630581 6.3143797,37.331746 6.4090916,37.68349 C 6.5220569,38.103021 6.8666402,38.433844 7.614749,38.841016 C 8.0884197,39.098819 8.1072287,39.124574 7.9675751,39.323967 C 7.7463719,39.63979 7.7804646,40.32122 8.0335886,40.643014 C 8.151039,40.792329 8.2305885,40.927129 8.2103653,40.942571 C 8.190142,40.958017 7.8667821,41.139659 7.4917933,41.346227 C 6.7153092,41.773964 6.5704028,41.987332 6.3828781,42.97906 L 6.2543059,43.658975 L 5.5265112,44.150198 C 5.126218,44.420369 4.7812206,44.64142 4.7598559,44.64142 C 4.7384811,44.64142 4.6603761,44.516413 4.5862915,44.363628 z"
       id="path3321" />
    <path
       style="opacity:1;fill:#59cb67;fill-opacity:1;fill-rule:nonzero;stroke:none;stroke-width:0.40799998999999998;stroke-linecap:round;stroke-linejoin:round;marker:none;marker-start:none;marker-mid:none;marker-end:none;stroke-miterlimit:4;stroke-dasharray:none;stroke-dashoffset:0;stroke-opacity:0.98983047000000002;visibility:visible;display:inline;overflow:visible;enable-background:accumulate"
       d="M 39.28293,5.1941514 C 38.948004,4.9275964 36.372317,3.7556871 35.405743,3.4300695 C 34.955801,3.2784961 34.735911,3.2511533 34.546386,3.3232125 C 34.283595,3.4231247 34.117334,3.8122052 34.22147,4.0835685 C 34.297767,4.2823968 33.836855,4.2823352 32.622641,4.0833523 C 31.60265,3.9162014 30.946232,3.9787864 30.064915,4.3272173 C 29.244317,4.6516419 28.34609,4.612844 26.92234,4.191475 C 24.580625,3.4984295 23.703529,3.4624853 22.531672,4.0115446 L 21.838485,4.3363329 L 20.056798,4.3380683 C 18.712063,4.3393775 18.055837,4.3859284 17.380975,4.5278821 L 16.486828,4.7159604 L 15.209147,4.373949 C 13.900878,4.0237473 12.770487,3.8767155 10.547454,3.7675928 C 9.4740358,3.7149022 9.1225634,3.7391125 8.2026679,3.9291121 L 7.1205824,4.1526134 L 6.5864239,3.9041109 C 6.041487,3.6505908 5.3345317,3.0003971 4.7901403,2.2520559 L 4.4864076,1.8345315 L 4.7477846,1.7845633 C 4.8915495,1.7570821 5.3347842,1.8191833 5.732754,1.9225663 C 6.5590487,2.1372177 7.2436998,2.1617573 8.0304773,2.0049281 C 8.4936727,1.9125971 8.7326748,1.9297071 9.5878093,2.1164277 C 11.057854,2.4374188 11.847743,2.4759531 12.59869,2.263317 C 13.44542,2.0235583 13.72098,2.0484202 14.960498,2.4764117 C 16.223663,2.9125744 16.434623,2.9034749 17.634876,2.3610675 C 18.778541,1.844233 19.229715,1.8242684 21.090831,2.2081465 C 22.899185,2.5811413 23.372401,2.5890943 24.476731,2.2650414 L 25.324521,2.016265 L 26.413981,2.2671607 C 27.767131,2.5787887 28.320715,2.585389 28.898603,2.2967814 C 29.316674,2.0879838 29.384274,2.0826624 30.097048,2.2024301 C 30.512503,2.2722397 30.937141,2.3024685 31.040682,2.2696052 C 31.18281,2.2244938 31.260359,2.2857162 31.357193,2.5195028 C 31.751122,3.470519 32.748668,3.0547806 32.92704,1.8652482 L 32.992418,1.4292684 L 33.816005,1.6846148 C 34.642785,1.9409471 34.905778,1.9645776 36.306344,1.9083727 C 36.805996,1.8883221 37.250776,1.9353508 37.612623,2.0464908 C 38.286142,2.253361 38.716861,2.2572097 39.437817,2.0627967 C 40.396462,1.8042926 41.526732,1.7640926 42.215737,1.9639987 C 42.549087,2.0607168 43.037122,2.1611048 43.300246,2.1870849 L 43.778675,2.2343226 L 43.525086,2.6670376 C 43.375301,2.9226285 43.19313,3.5078927 43.080043,4.096849 C 42.899135,5.0390758 42.789726,5.4475007 42.718237,5.4475007 C 42.700933,5.4475007 42.354784,5.2884017 41.949026,5.0939473 C 41.518014,4.8873913 41.056576,4.7403939 40.839182,4.7403939 C 40.561874,4.7403939 40.359278,4.8304611 40.043909,5.0939473 C 39.811159,5.2884017 39.613664,5.4453663 39.605038,5.442757 C 39.596401,5.4401498 39.451454,5.3282764 39.28293,5.1941524 L 39.28293,5.1941514 z"
       id="path3323" />
    <path
       style="opacity:1;fill:#59cb67;fill-opacity:1;fill-rule:nonzero;stroke:none;stroke-width:0.40799998999999998;stroke-linecap:round;stroke-linejoin:round;marker:none;marker-start:none;marker-mid:none;marker-end:none;stroke-miterlimit:4;stroke-dasharray:none;stroke-dashoffset:0;stroke-opacity:0.98983047000000002;visibility:visible;display:inline;overflow:visible;enable-background:accumulate"
       d="M 47.248003,43.936859 C 47.015598,43.787595 46.22686,43.423887 45.495247,43.128617 C 44.251214,42.626537 44.136269,42.598351 43.720722,42.69344 C 43.325369,42.783911 43.276397,42.775514 43.276397,42.617252 C 43.276397,42.519428 43.441446,42.19617 43.643183,41.898905 C 44.350401,40.856766 44.411859,40.430309 43.977544,39.578981 C 43.819788,39.269756 43.796292,39.066142 43.842961,38.412608 C 43.902802,37.574619 43.67276,35.703969 43.487034,35.518249 C 43.417252,35.448467 43.464295,35.341174 43.633344,35.184504 C 43.970149,34.872366 43.952209,34.554568 43.532309,33.394588 C 43.339713,32.862532 43.134137,32.05025 43.075467,31.589517 C 43.016798,31.128782 42.92545,30.569995 42.872467,30.347761 C 42.701085,29.628868 42.745754,29.411783 43.158744,28.956545 C 43.371826,28.721663 43.574846,28.450215 43.609909,28.353328 C 43.644961,28.256442 43.624283,27.127402 43.563947,25.844353 C 43.45485,23.524296 43.455557,23.507305 43.69362,22.737516 C 43.880306,22.133902 43.931915,21.741104 43.928077,20.953342 C 43.923773,20.068787 43.873983,19.786194 43.527612,18.680499 L 43.132046,17.417808 L 43.094317,14.930572 C 43.059568,12.640591 43.073467,12.38314 43.269568,11.684288 C 43.400171,11.218825 43.517217,10.383582 43.57218,9.5248209 C 43.621465,8.7545937 43.711449,7.9964398 43.772139,7.8400369 C 43.909217,7.4867957 43.915743,6.7085408 43.783706,6.4618262 C 43.715611,6.3345934 43.730976,6.1221765 43.833152,5.7781085 C 43.914682,5.5035793 44.053275,4.89641 44.141138,4.4288427 C 44.282125,3.6785155 44.511278,3.1276046 44.95125,2.4811726 C 45.068387,2.3090588 45.10353,2.3396391 45.357523,2.834726 C 45.589091,3.2861066 45.647689,3.5624035 45.708127,4.4878558 C 45.748028,5.0989981 45.876348,5.9702526 45.993263,6.4239758 C 46.110178,6.8777009 46.205637,7.354997 46.205385,7.484636 C 46.205132,7.6142769 46.000778,8.1521842 45.751271,8.6799889 C 45.164362,9.9215078 45.163594,9.9973379 45.710561,12.701701 C 45.832547,13.304791 46.230396,13.834762 46.710451,14.033604 C 47.068631,14.181966 47.070873,14.200387 46.820174,14.932563 C 46.581545,15.629492 46.101541,18.177886 46.10344,18.737926 C 46.104198,18.963967 46.178383,19.395805 46.268297,19.697571 C 46.511239,20.512967 46.413597,21.807874 46.017021,23.029983 C 45.65169,24.155773 45.658528,24.20501 46.34525,25.398014 C 46.601102,25.842481 46.810769,26.26553 46.811183,26.338123 C 46.811597,26.410719 46.64769,26.865284 46.446952,27.348276 C 46.111865,28.15458 46.08657,28.284306 46.137997,28.933547 C 46.169615,29.332808 46.327643,30.014467 46.500975,30.499284 C 46.688793,31.024661 46.808718,31.559034 46.809941,31.876103 L 46.811931,32.394294 L 46.214335,32.437514 C 45.505743,32.488772 45.296702,32.63296 45.296702,33.070461 C 45.296702,33.345141 45.427628,33.520332 46.155332,34.219373 C 46.627578,34.673016 47.013961,35.090506 47.013961,35.147122 C 47.013961,35.203741 46.87253,35.500658 46.699672,35.806944 C 46.247033,36.608978 46.30243,37.315008 46.941089,38.88355 C 47.601991,40.506768 47.611982,40.589889 47.212729,41.145827 C 46.918674,41.555298 46.890036,41.655113 46.941624,42.090716 C 46.973353,42.358594 47.162302,42.93543 47.361514,43.37257 C 47.560726,43.809709 47.711754,44.176568 47.697137,44.18781 C 47.682521,44.199055 47.480409,44.086124 47.248003,43.936859 z"
       id="path3325" />
  </g>
</svg>
