<?xml version="1.0" encoding="UTF-8" standalone="no"?>
<!-- Created with Inkscape (http://www.inkscape.org/) -->
<svg
   xmlns:dc="http://purl.org/dc/elements/1.1/"
   xmlns:cc="http://creativecommons.org/ns#"
   xmlns:rdf="http://www.w3.org/1999/02/22-rdf-syntax-ns#"
   xmlns:svg="http://www.w3.org/2000/svg"
   xmlns="http://www.w3.org/2000/svg"
   xmlns:sodipodi="http://sodipodi.sourceforge.net/DTD/sodipodi-0.dtd"
   xmlns:inkscape="http://www.inkscape.org/namespaces/inkscape"
   width="48px"
   height="48px"
   id="svg2383"
   sodipodi:version="0.32"
   inkscape:version="0.46"
   sodipodi:docname="quadrat_feuer.svg"
   inkscape:output_extension="org.inkscape.output.svg.inkscape"
   inkscape:export-filename="/home/stefan/workspace/FallingBlocks/res_original/quadrat_feuer.png"
   inkscape:export-xdpi="40.158451"
   inkscape:export-ydpi="40.158451">
  <defs
     id="defs2385">
    <inkscape:perspective
       sodipodi:type="inkscape:persp3d"
       inkscape:vp_x="0 : 24 : 1"
       inkscape:vp_y="0 : 1000 : 0"
       inkscape:vp_z="48 : 24 : 1"
       inkscape:persp3d-origin="24 : 16 : 1"
       id="perspective2391" />
    <filter
       inkscape:collect="always"
       id="filter3775">
      <feGaussianBlur
         inkscape:collect="always"
         stdDeviation="0.25697624"
         id="feGaussianBlur3777" />
    </filter>
    <filter
       inkscape:collect="always"
       id="filter3799">
      <feGaussianBlur
         inkscape:collect="always"
         stdDeviation="0.25610162"
         id="feGaussianBlur3801" />
    </filter>
    <filter
       inkscape:collect="always"
       id="filter3809">
      <feGaussianBlur
         inkscape:collect="always"
         stdDeviation="0.19823441"
         id="feGaussianBlur3811" />
    </filter>
    <filter
       inkscape:collect="always"
       id="filter3909"
       x="-0.36397046"
       width="1.7279409"
       y="-0.099274925"
       height="1.1985498">
      <feGaussianBlur
         inkscape:collect="always"
         stdDeviation="0.22838048"
         id="feGaussianBlur3911" />
    </filter>
    <filter
       inkscape:collect="always"
       id="filter3931"
       x="-0.13697619"
       width="1.2739524"
       y="-0.02909842"
       height="1.0581968">
      <feGaussianBlur
         inkscape:collect="always"
         stdDeviation="0.14996141"
         id="feGaussianBlur3933" />
    </filter>
    <filter
       inkscape:collect="always"
       id="filter3963"
       x="-0.10954649"
       width="1.219093"
       y="-0.030733181"
       height="1.0614664">
      <feGaussianBlur
         inkscape:collect="always"
         stdDeviation="0.079576987"
         id="feGaussianBlur3965" />
    </filter>
    <filter
       inkscape:collect="always"
       id="filter4011">
      <feGaussianBlur
         inkscape:collect="always"
         stdDeviation="0.12440067"
         id="feGaussianBlur4013" />
    </filter>
    <filter
       inkscape:collect="always"
       id="filter4041"
       x="-0.18122254"
       width="1.3624451"
       y="-0.035951494"
       height="1.071903">
      <feGaussianBlur
         inkscape:collect="always"
         stdDeviation="0.078643893"
         id="feGaussianBlur4043" />
    </filter>
    <filter
       inkscape:collect="always"
       id="filter4063"
       x="-0.16617338"
       width="1.3323468"
       y="-0.028051391"
       height="1.0561028">
      <feGaussianBlur
         inkscape:collect="always"
         stdDeviation="0.027893362"
         id="feGaussianBlur4065" />
    </filter>
    <filter
       inkscape:collect="always"
       id="filter4143"
       x="-0.22185702"
       width="1.443714"
       y="-0.12029199"
       height="1.240584">
      <feGaussianBlur
         inkscape:collect="always"
         stdDeviation="0.085929513"
         id="feGaussianBlur4145" />
    </filter>
  </defs>
  <sodipodi:namedview
     id="base"
     pagecolor="#ffffff"
     bordercolor="#666666"
     borderopacity="1.0"
     inkscape:pageopacity="0.0"
     inkscape:pageshadow="2"
     inkscape:zoom="14"
     inkscape:cx="5.4785714"
     inkscape:cy="24.137958"
     inkscape:current-layer="layer1"
     showgrid="true"
     inkscape:grid-bbox="true"
     inkscape:document-units="px"
     inkscape:window-width="1440"
     inkscape:window-height="839"
     inkscape:window-x="0"
     inkscape:window-y="34" />
  <metadata
     id="metadata2388">
    <rdf:RDF>
      <cc:Work
         rdf:about="">
        <dc:format>image/svg+xml</dc:format>
        <dc:type
           rdf:resource="http://purl.org/dc/dcmitype/StillImage" />
      </cc:Work>
    </rdf:RDF>
  </metadata>
  <g
     id="layer1"
     inkscape:label="Layer 1"
     inkscape:groupmode="layer">
    <g
       id="g3177"
       transform="translate(-0.8571425,-0.7142858)">
      <path
         sodipodi:nodetypes="csssssssssssssssssssssssssssssssssssssssssssssssssssccssssssssssssssssssssc"
         id="path2395"
         d="M 2.5714286,1.8571428 C 2.8196532,2.4777043 3.9138442,1.5947249 4.5714286,1.7142857 C 5.5555586,1.8932184 6.2530868,2.2883596 7.2142857,2 C 8.3025798,1.6735118 9.3352687,2.1583605 10.428571,2.3571428 C 11.239123,2.5045158 11.729679,2.302525 12.5,2.0714285 C 13.354464,1.8150894 14.685313,2.5350414 15.5,2.7857143 C 15.94858,2.9237388 17.399472,2.0658727 17.857143,1.9285714 C 18.986579,1.5897406 20.792649,2.2955097 21.857143,2.4285714 C 23.193756,2.595648 23.108419,2.3925091 24.285714,2.0714285 C 25.276174,1.8013031 26.341895,2.5 27.428571,2.5 C 28.022587,2.5 27.856119,2.3705952 28.357143,2.1428571 C 28.922368,1.8859366 29.603424,2.1746485 30.214286,2.2857143 C 30.371429,2.3142857 30.268852,1.8571428 30.428571,1.8571428 C 30.997875,1.8571428 31.334349,2.8715866 31.357143,2.9285714 C 31.597806,3.5302281 31.944449,1.8730603 31.928571,1.7142857 C 31.831177,0.74034306 33.89735,2.1205299 34.857143,1.9285714 C 35.948113,1.7103775 36.404426,1.7713278 37.642857,2.1428571 C 38.218176,2.3154526 39.004237,1.9044088 39.571429,1.8571428 C 40.354594,1.791879 40.806052,1.6897819 41.642857,1.8571428 C 42.722105,2.0729924 42.479472,2.4955317 43.5,1.9285714 C 44.541959,1.3497052 44.973796,2.5242617 45.357143,3.2142857 C 45.806531,4.0231847 45.714286,4.400805 45.714286,5.3571428 C 45.714286,6.3048177 46.130537,7.0073396 46.214286,7.9285714 C 46.270731,8.549467 45.591916,9.6341818 45.357143,10.142857 C 45.101197,10.697406 45.516226,11.876543 45.571429,12.428571 C 45.671015,13.424435 45.80279,13.849687 46.714286,14.214286 C 47.449881,14.508524 46.756169,15.546753 46.642857,16 C 46.45085,16.76803 46.432691,17.557698 46.214286,18.285714 C 45.981165,19.062782 46.028925,19.500883 46.285714,20.142857 C 46.540373,20.779505 46.424914,21.536579 46.357143,22.214286 C 46.273956,23.04615 45.938082,23.825442 45.714286,24.571429 C 45.674337,24.704591 46.723372,26.271412 46.785714,26.5 C 46.980286,27.213431 46.338914,28.060762 46.142857,28.714286 C 45.916709,29.468113 46.309006,30.415371 46.571429,31.071429 C 46.828157,31.713249 46.849875,32.429822 46.785714,33.071429 C 46.73851,33.543476 45.902973,33.5 45.428571,33.5 C 44.63282,33.5 46.642913,34.614432 46.928571,35.357143 C 47.2543,36.204037 46.357143,36.537008 46.357143,37.357143 C 46.357143,38.240405 47.17676,39.66063 47.428571,40.5 C 47.670738,41.307222 47.439967,41.629834 46.928571,42.214286 C 46.561842,42.633405 48.303248,45.512179 48.357143,45.714286 C 48.529027,46.358853 47.153569,46.355105 46.714286,46.857143 C 45.936819,47.745676 43.19617,45.922533 42.142857,45.571429 C 41.35255,45.307993 40.343982,45.357143 39.5,45.357143 C 38.510399,45.357143 37.463605,45.896228 36.5,46.071429 C 35.086406,46.328446 33.566814,45.923284 32.071429,45.571429 C 31.339344,45.399173 30.342513,45.642857 29.571429,45.642857 C 28.815562,45.642857 27.994448,46.092423 27.285714,46.285714 C 26.543285,46.488195 26.114316,46.780932 25.571429,47.142857 C 24.568654,47.811374 22.207467,47.123295 21.142857,46.857143 C 20.048763,46.583619 18.98227,46.001658 17.928571,45.714286 C 16.994698,45.459593 16.473264,45.975171 15.785714,46.357143 C 15.068922,46.755361 11.551335,47.714286 13.214286,46.571429 C 9.03856,46.089136 10.258932,46.356622 10.357143,46.357143 C 9.8310447,45.896807 7.0975268,46.090275 7.2857143,46.285714 C 8.2558954,47.29328 5.7107694,45.741538 5,46 C 3.9312719,46.388628 3.7531291,45.668537 3.4285714,44.857143 C 3.2033532,44.294097 3.2857143,43.627739 3.2857143,43 C 3.2857143,42.193268 3.2963578,41.41036 3.1428571,40.642857 C 2.9865072,39.861107 2.7142857,39.429955 2.7142857,38.5 C 2.7142857,37.34069 2.4891676,37.769126 3.4285714,37.142857 C 4.5826795,36.373452 4.078275,35.229941 3.2857143,35.071429 C 2.5406346,34.922413 2.6428571,33.637091 2.6428571,33.071429 C 2.6428571,32.2776 2.55379,31.604957 2.6428571,30.714286 C 2.7167433,29.975424 2.6513509,29.400259 2.8571429,28.714286 C 3.257939,27.378299 3.3097681,27.000733 2.8571429,25.642857 C 2.5529177,24.730182 2.1133898,24.676804 2.2857143,23.642857 C 2.3911187,23.010431 3.2048518,22.090296 3.5,21.5 C 3.940815,20.61837 3.2142857,19.356331 3.2142857,18.428571 C 3.2142857,17.446088 3.5297309,16.367177 3.7857143,15.428571 C 3.9815562,14.710484 3.0542082,12.953281 2.8571429,12.214286 C 2.4682408,10.755903 1.5911403,9.7914372 2,8.4285714 C 2.2701141,7.528191 2.4758014,6.456272 2.5714286,5.5 C 2.6045766,5.1685199 1.7857143,4.5328856 1.7857143,3.8571428 C 1.7857143,2.9527696 2.4041228,2.0722502 2.5714286,1.8571428 z"
         style="opacity:1;fill:none;fill-opacity:1;fill-rule:evenodd;stroke:#000000;stroke-width:1;stroke-linecap:round;stroke-linejoin:round;marker:none;marker-start:none;marker-mid:none;marker-end:none;stroke-miterlimit:4;stroke-dasharray:none;stroke-dashoffset:0;stroke-opacity:1;visibility:visible;display:inline;overflow:visible;enable-background:accumulate" />
      <path
         sodipodi:nodetypes="cssssssssssssssssssssssssssssssssssssssssssssssssssssssssssssssssc"
         id="path2397"
         d="M 5.9285714,5.1428571 C 6.4613284,5.2276874 7.396502,5.1310494 8.0714286,4.9285714 C 8.8584022,4.6924793 9.8737439,4.7289573 10.642857,4.8571428 C 11.248419,4.9580698 11.903086,4.9457351 12.5,5 C 13.440531,5.0855028 14.627454,5.4445786 15.571429,5.7142857 C 16.296736,5.9215163 17.040959,5.4285714 17.785714,5.4285714 C 18.904762,5.4285714 20.02381,5.4285714 21.142857,5.4285714 C 21.746903,5.4285714 22.367321,4.8408215 23,4.7142857 C 24.147777,4.4847303 25.977038,5.1716827 27.071429,5.5 C 28.031543,5.7880344 29.151864,5.674068 29.928571,5.2857143 C 30.745458,4.877271 31.520114,5.0325943 32.428571,5.2142857 C 33.268694,5.3823102 34.221543,5.2438248 35.071429,5.3571428 C 35.440083,5.4062967 34.666596,4.7063022 34.357143,4.5 C 33.297501,3.7935719 36.78949,5.2876023 37.928571,5.8571428 C 39.025435,6.4055746 38.801533,7.05561 39.642857,6.2142857 C 40.183094,5.6740486 40.113165,5.5922968 41.214286,6.1428571 C 42.521656,6.796542 43.092582,7.0079686 42.642857,8.3571428 C 42.416085,9.0374579 42.428571,10.006941 42.428571,10.714286 C 42.428571,11.421153 42.178006,11.990167 42,12.642857 C 41.824813,13.285211 42,14.205651 42,14.928571 C 42,15.761905 42,16.595238 42,17.428571 C 42,18.371738 42.60149,19.650305 42.785714,20.571429 C 43.006309,21.674402 42.865948,22.350787 42.5,23.357143 C 42.23605,24.083006 42.360197,24.962171 42.428571,25.714286 C 42.510211,26.612315 42.398206,27.491031 42.571429,28.357143 C 42.709633,29.048166 41.549868,29.169839 41.642857,30.285714 C 41.693169,30.889456 42,31.635563 42,32.428571 C 42,33.271269 42.563469,34.256531 42.785714,35.071429 C 42.930346,35.601745 41.724656,35.36728 41.214286,35.571429 C 40.692552,35.780122 42.571429,36.009504 42.571429,36.571429 C 42.571429,37.229394 42.785714,37.767123 42.785714,38.5 C 42.785714,39.380147 42.390577,39.460486 42.928571,40.357143 C 43.428314,41.190047 43.001885,41.569005 42.5,42.214286 C 42.199768,42.600298 42.142857,43.195057 42.142857,43.5 C 42.142857,44.261905 40.619048,43.5 39.857143,43.5 C 39.125681,43.5 38.511696,42.966815 37.928571,42.642857 C 37.292438,42.28945 36.894757,43.42224 36.785714,43.785714 C 36.577112,44.481057 34.103998,43.663657 33.642857,43.571429 C 32.799728,43.402803 31.850948,43.644547 31.071429,43.857143 C 30.230462,44.086498 29.425207,43.856531 28.642857,43.714286 C 27.493127,43.505244 26.416331,42.823675 25.428571,42.428571 C 24.690868,42.13349 22.642554,43.1477 21.857143,43.357143 C 21.195011,43.533711 20.21628,42.785714 19.428571,42.785714 C 18.650158,42.785714 18.084142,43.015557 17.214286,42.928571 C 16.49204,42.856347 15.79507,42.591625 15.142857,42.428571 C 14.084929,42.164089 13.218375,42.427695 12.214286,42.642857 C 11.0267,42.89734 9.4967428,41.974019 8.5714286,41.357143 C 7.4887994,40.63539 7.6591716,40.338498 8.1428571,39.785714 C 8.6862088,39.164741 6.6533472,38.84156 6.3571429,38.071429 C 6.2341054,37.751531 6.5,36.170632 6.5,35.714286 C 6.5,35.050249 6.7142857,34.474125 6.7142857,33.785714 C 6.7142857,33.013173 6.0390042,32.70494 5.5,32.285714 C 4.9317002,31.843703 5.9847333,31.169937 6.1428571,30.642857 C 6.2461356,30.298596 6.1066464,29.252482 6.2142857,28.714286 C 6.4592274,27.489578 5.3774904,28.153243 5.7857143,26.928571 C 6.2526373,25.527802 7.1496587,24.19048 7.5714286,22.714286 C 7.6650811,22.386502 6.9693806,22.383671 6.6428571,22.285714 C 6.3132962,22.186846 7.0880416,20.235875 7.1428571,20.071429 C 7.3049327,19.585202 6.5714286,18.640577 6.5714286,18.214286 C 6.5714286,16.905757 5.7586787,16.689985 6.2857143,15.214286 C 6.8791601,13.552637 8.5249928,13.214286 6.7142857,13.214286 C 6.0667294,13.214286 6.8571429,12.598672 6.8571429,11.071429 C 6.8571429,10.547041 7.3193095,9.6772105 7.5,9.2857143 C 7.8818949,8.4582753 5.2142857,8.6970314 5.2142857,7.7857143 C 5.2142857,7.0779106 5.6859964,6.5664786 6.2142857,6.2142857 C 6.5577007,5.9853424 6.045421,5.3960311 5.9285714,5.1428571 z"
         style="opacity:1;fill:none;fill-opacity:1;fill-rule:evenodd;stroke:#000000;stroke-width:1;stroke-linecap:round;stroke-linejoin:round;marker:none;marker-start:none;marker-mid:none;marker-end:none;stroke-miterlimit:4;stroke-dasharray:none;stroke-dashoffset:0;stroke-opacity:1;visibility:visible;display:inline;overflow:visible;enable-background:accumulate" />
      <path
         id="path2399"
         d="M 2.4285714,1.7857143 C 2.5095862,2.4609671 2.690191,2.4427716 3.3571429,2.6428571 C 3.6064626,2.717653 4.1514704,3.6950366 4.5,4 C 4.9628594,4.405002 5.1304145,4.6366358 5.7142857,4.9285714 C 6.3364843,5.2396707 6.1284951,4.8567614 6.2857143,5.6428571"
         style="opacity:1;fill:none;fill-opacity:1;fill-rule:evenodd;stroke:#000000;stroke-width:1;stroke-linecap:round;stroke-linejoin:round;marker:none;marker-start:none;marker-mid:none;marker-end:none;stroke-miterlimit:4;stroke-dasharray:none;stroke-dashoffset:0;stroke-opacity:1;visibility:visible;display:inline;overflow:visible;enable-background:accumulate" />
      <path
         id="path2401"
         d="M 44.285714,2 C 44.317416,2.015851 43.806979,2.9624562 43.5,3.3571428 C 43.01941,3.975044 43.083492,5.2555546 42.785714,6 C 42.650997,6.3367931 42.621286,6.6029049 42.571429,6.7857143"
         style="opacity:1;fill:none;fill-opacity:1;fill-rule:evenodd;stroke:#000000;stroke-width:1;stroke-linecap:round;stroke-linejoin:round;marker:none;marker-start:none;marker-mid:none;marker-end:none;stroke-miterlimit:4;stroke-dasharray:none;stroke-dashoffset:0;stroke-opacity:1;visibility:visible;display:inline;overflow:visible;enable-background:accumulate" />
      <path
         id="path2403"
         d="M 42.142857,43.928571 C 41.955277,44.397523 43.159082,43.569153 43.642857,43.714286 C 44.241943,43.894011 44.779438,44.251535 45.428571,44.428571 C 45.919863,44.56256 46.468812,44.998546 46.857143,45.214286 C 47.518687,45.58181 47.930114,45.542799 48.285714,46"
         style="opacity:1;fill:none;fill-opacity:1;fill-rule:evenodd;stroke:#000000;stroke-width:1;stroke-linecap:round;stroke-linejoin:round;marker:none;marker-start:none;marker-mid:none;marker-end:none;stroke-miterlimit:4;stroke-dasharray:none;stroke-dashoffset:0;stroke-opacity:1;visibility:visible;display:inline;overflow:visible;enable-background:accumulate" />
      <path
         id="path2405"
         d="M 8.3571429,41.357143 C 8.9358116,41.678625 7.3365093,42.204232 6.7857143,42.571429 C 6.3480852,42.863181 6.3267929,43.978543 6.2142857,44.428571 C 6.1672544,44.616697 5.0649839,45.266917 4.8571429,45.428571 C 4.6379679,45.599041 4.3809524,45.714286 4.1428571,45.857143"
         style="opacity:1;fill:none;fill-opacity:1;fill-rule:evenodd;stroke:#000000;stroke-width:1;stroke-linecap:round;stroke-linejoin:round;marker:none;marker-start:none;marker-mid:none;marker-end:none;stroke-miterlimit:4;stroke-dasharray:none;stroke-dashoffset:0;stroke-opacity:1;visibility:visible;display:inline;overflow:visible;enable-background:accumulate" />
    </g>
    <path
       style="opacity:1;fill:#970000;fill-opacity:1;fill-rule:nonzero;stroke:none;stroke-width:0.40799998999999998;stroke-linecap:round;stroke-linejoin:round;marker:none;marker-start:none;marker-mid:none;marker-end:none;stroke-miterlimit:4;stroke-dasharray:none;stroke-dashoffset:0;stroke-opacity:0.98983047000000002;visibility:visible;display:inline;overflow:visible;enable-background:accumulate"
       d="M 21.8,45.950243 C 20.683243,45.707259 19.899214,45.472958 18.854043,45.069868 C 16.677729,44.230527 16.422007,44.222189 15.013014,44.944626 C 14.503,45.206131 13.8125,45.496866 13.478571,45.590708 C 12.883943,45.757815 12.87035,45.758476 12.818986,45.622799 C 12.732829,45.39519 12.366871,45.304854 11.014286,45.177307 C 10.307143,45.110624 9.4934786,45.004955 9.2061429,44.942488 C 8.4919071,44.787211 6.6399857,44.835416 6.2529429,45.019361 C 5.9986714,45.140204 5.97665,45.138854 5.4394929,44.969497 L 4.8873857,44.795428 L 5.27235,44.511039 C 5.4840786,44.354626 5.69825,44.177323 5.7482857,44.117032 C 5.7983286,44.056743 5.9010214,43.68333 5.9764929,43.28723 C 6.0519714,42.891129 6.1488857,42.501349 6.1918571,42.42105 C 6.2348357,42.34075 6.5338857,42.142761 6.8564286,41.981074 C 7.1789643,41.819384 7.5313571,41.624549 7.6395286,41.548102 L 7.8362,41.40911 L 8.7109571,41.840049 C 10.0915,42.52015 10.748457,42.621761 11.9847,42.346391 C 13.206571,42.074224 13.511436,42.082419 14.8,42.422063 C 16.057329,42.753474 16.632193,42.799049 18.017043,42.677112 L 18.734079,42.613974 L 19.593093,42.909437 C 20.066971,43.072431 20.586536,43.204899 20.751957,43.204899 C 20.939107,43.204899 21.492021,43.045368 22.222979,42.780471 C 22.867107,42.547036 23.588093,42.315982 23.825143,42.26702 C 24.234121,42.182546 24.277336,42.187449 24.670929,42.362988 C 26.917021,43.36472 27.148671,43.44498 28.434357,43.666855 C 29.317707,43.819295 29.755914,43.804415 30.621429,43.592577 C 31.834129,43.295762 32.220064,43.291102 33.339536,43.559756 C 34.337414,43.799229 35.276764,43.901514 35.717993,43.818739 C 36.081536,43.750539 36.378164,43.471872 36.510121,43.074574 C 36.572307,42.887358 36.672464,42.663824 36.732693,42.577834 L 36.8422,42.421487 L 37.142529,42.611249 C 37.774936,43.010836 38.3059,43.226616 38.870136,43.313332 C 39.89495,43.470834 40.724307,43.645687 40.930786,43.747776 C 41.2195,43.890524 41.589971,43.872794 42.106064,43.691532 C 42.486329,43.557975 42.595579,43.546041 42.82035,43.613495 C 43.468471,43.807992 44.856793,44.429336 45.47145,44.799993 C 45.840743,45.022692 46.194314,45.205481 46.257164,45.206194 C 46.320007,45.206904 46.196607,45.303844 45.982943,45.421613 C 45.769279,45.539381 45.537057,45.687682 45.466907,45.751169 C 45.2174,45.976972 44.457586,45.744 42.657143,44.889644 C 41.154457,44.176581 40.851279,44.113877 39.085714,44.150989 L 37.728571,44.179513 L 36.764286,44.479928 C 35.033571,45.01911 34.4621,45.024826 32.180386,44.525776 C 30.9009,44.245929 30.548121,44.229796 28.978571,44.379329 C 28.046029,44.468172 27.825457,44.51789 26.764286,44.878436 C 26.093314,45.106409 25.370371,45.406119 25.085714,45.574321 C 24.116579,46.146982 24.157564,46.134011 23.338471,46.127334 C 22.831257,46.123202 22.329414,46.065434 21.8,45.950243 z"
       id="path4191" />
    <path
       style="opacity:1;fill:#970000;fill-opacity:1;fill-rule:nonzero;stroke:none;stroke-width:0.40799998999999998;stroke-linecap:round;stroke-linejoin:round;marker:none;marker-start:none;marker-mid:none;marker-end:none;stroke-miterlimit:4;stroke-dasharray:none;stroke-dashoffset:0;stroke-opacity:0.98983047000000002;visibility:visible;display:inline;overflow:visible;enable-background:accumulate"
       d="M 3.1576571,44.187042 C 3.0522929,43.937751 3.0195857,43.570558 2.9747357,42.133471 C 2.9183071,40.325164 2.8930143,40.116477 2.5882429,38.943854 C 2.4718357,38.495981 2.4071857,38.054541 2.4072714,37.708126 L 2.4073929,37.169185 L 2.7280286,36.966622 C 3.1501214,36.699959 3.6019071,36.179478 3.6916143,35.856519 C 3.9211214,35.030281 3.6046286,34.304854 2.8612286,33.953169 C 2.63195,33.844701 2.4485286,33.704686 2.4143571,33.612042 C 2.3136857,33.339123 2.26575,30.784923 2.3403857,29.670602 C 2.3917071,28.904325 2.4721714,28.367496 2.6238786,27.779309 C 2.9757929,26.414892 2.8790429,25.537319 2.2204714,24.120187 C 1.7820857,23.176852 1.7862571,23.153704 2.6327,21.832829 C 3.4051857,20.627365 3.4509143,20.297602 3.07085,18.672903 C 2.8407143,17.689112 2.8693714,17.141461 3.2242786,15.740614 C 3.5061429,14.628049 3.52695,14.349229 3.3723929,13.755828 C 3.2636214,13.338236 2.6634286,11.665131 2.0411429,10.044829 C 1.5057786,8.6508592 1.4993071,8.5929057 1.7594643,7.5233242 C 2.0371143,6.3818492 2.2800214,4.8331464 2.2213786,4.578375 C 2.1967,4.4711771 2.0153143,4.1341971 1.8182929,3.82953 C 1.4974,3.3333021 1.4637929,3.2439992 1.4957857,2.9723871 C 1.5154214,2.805625 1.5758357,2.5686307 1.6300286,2.4457314 L 1.7285714,2.2222792 L 2.0248857,2.3504357 C 2.2413071,2.4440385 2.4257643,2.619835 2.7090286,3.00246 C 3.1470429,3.5941042 3.7525786,4.1730635 4.2988929,4.5225357 C 4.5193571,4.6635657 4.7045929,4.8465071 4.7583571,4.9763028 C 4.8445857,5.1844664 4.8365143,5.2045514 4.5697929,5.4455121 C 3.9481714,6.0071142 3.6604786,7.0101614 3.9627429,7.5620421 C 4.1178786,7.8452921 4.7322929,8.1948314 5.3099214,8.32845 C 5.5008929,8.372625 5.7432571,8.4415942 5.8485143,8.4817142 L 6.0398786,8.5546592 L 5.7945071,9.136455 C 5.6189,9.5528478 5.5278143,9.9095064 5.4741286,10.390973 C 5.4328786,10.760969 5.3203214,11.326939 5.2240214,11.648681 C 5.1082714,12.035394 5.0639857,12.313954 5.0933643,12.470538 C 5.1371,12.703693 5.4105429,12.990614 5.5890071,12.990614 C 5.6406714,12.990614 5.5496143,13.185312 5.3788429,13.439976 C 4.7352286,14.399771 4.5912786,15.392236 4.9387643,16.474061 C 5.0431,16.798889 5.1474071,17.232816 5.17055,17.438347 C 5.1936929,17.643881 5.3384286,18.109157 5.4921857,18.472297 L 5.7717286,19.132551 L 5.5093929,19.936584 C 5.3651071,20.3788 5.2314357,20.949542 5.2123429,21.204899 C 5.1825214,21.603799 5.1992643,21.696474 5.3312,21.862958 C 5.4223571,21.977981 5.5874214,22.075989 5.7373714,22.104119 C 6.1575429,22.182946 6.1679714,22.136889 5.3183143,23.954899 C 4.5878286,25.517944 4.3357143,26.205409 4.3357143,26.634325 C 4.3357143,27.034889 4.4766571,27.374905 4.6900286,27.489098 C 4.8209929,27.559192 4.8262643,27.624746 4.7863786,28.687644 L 4.7441857,29.812042 L 4.4244429,30.240614 C 4.0182,30.785126 3.9584643,30.944907 3.9988214,31.37904 C 4.0335,31.751976 4.0716857,31.799266 4.8292429,32.40722 C 5.3592429,32.832549 5.3698286,32.869283 5.2393286,33.830665 C 5.0154643,35.479853 4.8975429,37.118255 4.9805214,37.426428 C 5.0865857,37.820314 5.4488714,38.196781 6.0270571,38.513924 C 6.2950357,38.660911 6.5563214,38.807237 6.6077071,38.839092 C 6.6815214,38.884854 6.6684643,38.952358 6.5455071,39.160757 C 6.3200071,39.542955 6.3742714,40.104864 6.6725286,40.476004 L 6.8904571,40.747179 L 6.2189071,41.089665 C 5.3840571,41.515444 5.23415,41.699857 5.0426857,42.536634 C 4.9630857,42.884536 4.8753,43.249099 4.8476071,43.34677 C 4.8138214,43.465918 4.5626643,43.683082 4.0843429,44.006724 C 3.6922357,44.272028 3.3522,44.489435 3.3286929,44.489853 C 3.3051857,44.490269 3.2282214,44.354006 3.1576571,44.187042 z"
       id="path4193" />
    <path
       style="opacity:1;fill:#6b0000;fill-opacity:1;fill-rule:nonzero;stroke:none;stroke-width:0.40799998999999998;stroke-linecap:round;stroke-linejoin:round;marker:none;marker-start:none;marker-mid:none;marker-end:none;stroke-miterlimit:4;stroke-dasharray:none;stroke-dashoffset:0;stroke-opacity:0.98983047000000002;visibility:visible;display:inline;overflow:visible;enable-background:accumulate"
       d="M 37.935164,5.0552364 C 37.622629,4.8060957 36.679057,4.3413421 35.3,3.7573028 C 33.623357,3.0472328 33.295979,2.9734735 32.948636,3.2275307 C 32.803914,3.3333792 32.759843,3.7076378 32.865086,3.9370421 C 32.944243,4.1096121 32.7105,4.104925 31.322564,3.90611 C 30.059907,3.72524 29.610871,3.7577464 28.798679,4.0888128 C 28.218643,4.3252464 27.528286,4.4423585 27.038393,4.3874285 C 26.815943,4.362485 26.157014,4.1983064 25.574107,4.0225864 C 24.010293,3.5511621 23.203671,3.3981992 22.500557,3.4397278 C 21.987214,3.4700485 21.825043,3.5169292 21.179129,3.8217371 L 20.442857,4.169185 L 18.3,4.2109092 C 16.558421,4.2448214 16.0775,4.2760471 15.731857,4.3776571 C 15.199136,4.5342614 14.990786,4.5118107 13.621429,4.1502514 C 13.010079,3.9888335 12.178429,3.8241085 11.764286,3.7824085 C 8.3874286,3.4423957 8.3227,3.4419535 6.8224,3.7485814 C 6.3632929,3.8424142 5.8872,3.919185 5.7644071,3.919185 C 5.1802214,3.919185 4.2519071,3.2207957 3.46895,2.1922642 L 3.0486929,1.6401892 L 3.31645,1.5899571 C 3.4661286,1.5618778 3.7577857,1.5778085 3.9778143,1.6260842 C 4.1943,1.6735814 4.5964286,1.7612071 4.8714286,1.82081 C 5.4180214,1.9392764 5.9489286,1.9261007 6.7469643,1.7742671 C 7.2565571,1.6773121 7.2856643,1.6801528 8.46125,1.9414585 C 9.9048,2.2623278 10.415229,2.2780342 11.267957,2.0278264 C 12.162771,1.7652685 12.280336,1.7797814 13.835714,2.3448207 C 14.904957,2.7332578 14.966829,2.7244614 16.692857,1.9386071 C 17.516043,1.5638157 17.751879,1.5704421 19.8837,2.0282592 C 21.40235,2.3543964 22.036914,2.3615735 22.9821,2.0633035 C 23.353371,1.94614 23.786314,1.8497121 23.944193,1.8490178 C 24.102064,1.8483235 24.61635,1.94601 25.08705,2.0660971 C 25.650693,2.2098985 26.138914,2.2877735 26.517143,2.2942085 C 27.045757,2.3032014 27.1244,2.2851114 27.506129,2.0667085 L 27.920836,1.8294392 L 28.566236,1.9541628 C 28.937607,2.0259307 29.340864,2.0611728 29.516007,2.0371671 C 29.804657,1.9976035 29.825121,2.0068907 29.912071,2.2168057 C 30.180236,2.8641978 30.686614,3.0500392 31.07575,2.6438714 C 31.269321,2.4418271 31.5484,1.6842585 31.549457,1.3579714 C 31.549829,1.24153 31.581464,1.2016892 31.652036,1.2287714 C 31.708157,1.2503078 32.101907,1.3742271 32.527036,1.5041492 C 33.215007,1.7143964 33.370686,1.7371728 33.942857,1.7112828 C 35.209829,1.6539557 35.715336,1.6815607 36.26285,1.8379778 C 36.928943,2.0282707 37.28045,2.0290771 38.05,1.8420778 C 39.371086,1.5210557 40.478886,1.5253392 41.242086,1.8544207 C 41.600193,2.0088321 42.036764,2.0505814 42.326486,1.9581235 C 42.490607,1.9057471 42.488836,1.9142421 42.268936,2.2338514 C 41.963314,2.6780614 41.871421,2.9184535 41.733907,3.6334707 C 41.522543,4.732515 41.386729,5.2763278 41.323621,5.2763278 C 41.289414,5.2763278 40.974536,5.1322392 40.623879,4.9561307 C 39.52175,4.4026085 39.146864,4.4035128 38.550729,4.9611314 L 38.213179,5.2768664 L 37.935164,5.0552364 z"
       id="path4195" />
    <path
       style="opacity:1;fill:#6b0000;fill-opacity:1;fill-rule:nonzero;stroke:none;stroke-width:0.40799998999999998;stroke-linecap:round;stroke-linejoin:round;marker:none;marker-start:none;marker-mid:none;marker-end:none;stroke-miterlimit:4;stroke-dasharray:none;stroke-dashoffset:0;stroke-opacity:0.98983047000000002;visibility:visible;display:inline;overflow:visible;enable-background:accumulate"
       d="M 45.835714,43.758061 C 45.433907,43.503629 44.738721,43.191421 43.303664,42.620931 C 42.913793,42.465941 42.340521,42.437899 42.023943,42.558329 L 41.819307,42.636174 L 41.866436,42.366965 C 41.892343,42.2189 42.041614,41.920971 42.198143,41.704899 C 42.601536,41.148046 42.834207,40.64247 42.835014,40.321032 C 42.835436,40.155247 42.732857,39.816498 42.579143,39.476061 L 42.322571,38.907815 L 42.404936,38.324214 C 42.4755,37.824201 42.466729,37.582699 42.343707,36.638075 C 42.234514,35.79957 42.165321,35.488459 42.054786,35.338952 L 41.909443,35.142369 L 42.056079,35.095825 C 42.231421,35.040174 42.477929,34.659388 42.478307,34.443601 C 42.47845,34.358817 42.316036,33.828459 42.117386,33.265029 C 41.847836,32.500504 41.731429,32.040997 41.658543,31.453777 C 41.604821,31.021016 41.510221,30.448487 41.4483,30.181488 C 41.264029,29.386921 41.285429,29.270186 41.701886,28.798341 C 42.253229,28.173679 42.292043,28.042137 42.202643,27.101817 C 42.161343,26.667443 42.107857,25.620971 42.083786,24.776328 L 42.040029,23.240614 L 42.264043,22.490614 C 42.5247,21.617922 42.603271,20.757704 42.489143,20.026328 C 42.446236,19.751328 42.262143,19.044185 42.080071,18.454899 L 41.749029,17.383471 L 41.68335,14.821939 L 41.617664,12.260404 L 41.84135,11.470716 C 42.02995,10.804881 42.073329,10.500855 42.117936,9.5322492 C 42.154329,8.7421285 42.223686,8.1534628 42.3401,7.6467564 C 42.505379,6.9274085 42.506536,6.8992507 42.389307,6.4522814 C 42.280686,6.0381128 42.279536,5.9654271 42.3773,5.6889964 C 42.436729,5.5209564 42.579736,4.9065057 42.695086,4.3235485 C 42.892871,3.3239721 42.926236,3.2296642 43.280986,2.667135 L 43.657143,2.0706435 L 43.971207,2.6913428 L 44.285257,3.3120421 L 44.341757,4.419185 C 44.385286,5.2721535 44.441857,5.6821121 44.588157,6.2048992 C 44.885907,7.2688664 44.868579,7.4378964 44.349879,8.5293864 C 43.835914,9.6109114 43.810164,9.8267 44.046014,11.076274 C 44.1224,11.480946 44.207329,11.972756 44.23475,12.169185 C 44.348971,12.987411 44.632614,13.4462 45.234136,13.785676 C 45.44715,13.905891 45.621429,14.045569 45.621429,14.096071 C 45.621429,14.146571 45.540536,14.402796 45.441671,14.665458 C 45.342807,14.928121 45.184186,15.582839 45.089186,16.120391 C 44.994186,16.657941 44.866621,17.306685 44.805714,17.562042 C 44.643221,18.243287 44.6645,18.787489 44.882529,19.526328 C 45.068007,20.154846 45.070429,20.18853 44.991036,21.036493 C 44.929886,21.689571 44.838929,22.127094 44.622771,22.807807 C 44.464893,23.305009 44.335714,23.799429 44.335714,23.906514 C 44.335714,24.013599 44.483214,24.35758 44.6635,24.670914 C 44.843779,24.984248 45.0888,25.410929 45.207993,25.619092 C 45.473914,26.083513 45.460757,26.204531 45.039214,27.171155 C 44.742136,27.852366 44.728786,27.913101 44.733493,28.562042 C 44.737929,29.17223 44.769107,29.326993 45.042914,30.097756 C 45.277393,30.757821 45.356407,31.096107 45.386564,31.569046 L 45.425721,32.183193 L 45.148571,32.228974 C 44.996143,32.254154 44.741971,32.275109 44.58375,32.275541 C 44.057843,32.276977 43.7818,32.596554 43.906486,33.059608 C 43.968243,33.288956 44.118379,33.460726 44.702221,33.970024 C 45.098007,34.315277 45.46835,34.687654 45.525193,34.797529 C 45.638871,35.017241 45.661393,34.947103 45.202886,35.801439 C 44.812893,36.528109 44.880164,37.025771 45.6136,38.839931 C 45.855914,39.439302 46.071943,40.063939 46.09365,40.228013 C 46.128979,40.494961 46.1029,40.566544 45.845593,40.90883 C 45.49545,41.374617 45.439471,41.600054 45.554036,42.083052 C 45.647207,42.475856 46.110893,43.58483 46.307286,43.884571 C 46.465171,44.125546 46.379936,44.102676 45.835714,43.758061 L 45.835714,43.758061 z"
       id="path4197" />
    <path
       style="opacity:1;fill:#800000;fill-opacity:1;fill-rule:nonzero;stroke:none;stroke-width:0.40799998999999998;stroke-linecap:round;stroke-linejoin:round;marker:none;marker-start:none;marker-mid:none;marker-end:none;stroke-miterlimit:4;stroke-dasharray:none;stroke-dashoffset:0;stroke-opacity:0.98983047000000002;visibility:visible;display:inline;overflow:visible;enable-background:accumulate"
       d="M 33.814286,42.544046 C 32.6458,42.239053 31.607786,42.229255 30.469286,42.512467 C 29.529179,42.746322 29.333979,42.74799 28.242857,42.531468 C 27.296521,42.343678 27.038343,42.252246 25.682257,41.624632 C 25.146964,41.37689 24.609571,41.178153 24.411564,41.154702 C 23.916243,41.096038 23.330086,41.232751 21.966971,41.724873 L 20.762507,42.159716 L 19.847536,41.849653 L 18.932557,41.539594 L 18.087707,41.601746 C 16.587107,41.712134 16.20355,41.683416 15.1,41.378041 C 14.204621,41.130273 14.0178,41.101965 13.314286,41.107479 C 12.789693,41.111592 12.304164,41.164411 11.853343,41.266411 C 11.045036,41.449296 10.716857,41.456795 10.202793,41.304132 C 9.4891857,41.092214 7.9470357,40.23123 7.6059143,39.854291 C 7.4833286,39.718836 7.48565,39.704817 7.6708286,39.462031 C 7.92835,39.124405 7.9716357,38.737266 7.7851143,38.439901 C 7.6349714,38.200538 7.4404143,38.059263 6.5868214,37.569774 C 6.3045714,37.407918 6.0545,37.215173 6.0311,37.141448 C 5.9937714,37.023832 6.1649714,35.068304 6.3426214,33.583104 C 6.4583286,32.61579 6.25485,32.119188 5.4997286,31.52593 L 5.0691857,31.187678 L 5.3775,30.785575 C 5.5470714,30.564417 5.7198857,30.270971 5.7615428,30.133471 C 5.8031928,29.995971 5.8549,29.324843 5.8764428,28.642078 C 5.9182786,27.316295 5.88115,27.092376 5.5741428,26.818828 C 5.4901571,26.743988 5.4214286,26.62877 5.4214286,26.562784 C 5.4214286,26.400926 5.8792571,25.300566 6.4145357,24.175922 C 6.6558571,23.668915 6.9535357,22.957741 7.0760643,22.595538 L 7.2988428,21.936986 L 7.1637,21.66023 C 7.0570928,21.441882 6.9529428,21.35332 6.6702214,21.240613 C 6.25055,21.073313 6.2531357,21.126 6.6129,20.06735 C 6.9124214,19.186021 6.9044928,18.998223 6.5321286,18.15131 C 6.3936428,17.836339 6.2500643,17.364848 6.2130571,17.103552 C 6.1760571,16.842257 6.0598214,16.370359 5.9547643,16.054893 C 5.8081928,15.614781 5.7746643,15.408492 5.8106786,15.168325 C 5.8797286,14.707888 6.2176143,14.086462 6.7051143,13.523318 C 7.1594928,12.998443 7.2654357,12.724663 7.1409071,12.39713 C 7.0627143,12.191481 6.7042286,11.990613 6.4153928,11.990613 C 6.2899357,11.990613 6.2704786,11.961267 6.30885,11.829899 C 6.3629071,11.644802 6.4588143,11.092968 6.5563428,10.405756 C 6.5964857,10.122896 6.7430428,9.6639827 6.9156428,9.2806591 C 7.2731071,8.4867956 7.2860357,8.2282991 6.9854571,7.885957 C 6.8069357,7.6826327 6.6435214,7.5975863 6.1461714,7.4491663 C 5.1053571,7.1385641 4.9214286,7.0602327 4.9214286,6.9275749 C 4.9214286,6.7437177 5.2574571,6.2644563 5.5282928,6.062042 C 5.8412714,5.8281284 5.9928571,5.5633813 5.9928571,5.2506863 C 5.9928571,5.0129813 6.0096428,4.9943634 6.2607143,4.9536391 C 6.4080357,4.9297427 6.8339286,4.8494884 7.2071428,4.775297 C 8.2561857,4.5667563 8.5686714,4.5446406 9.2890071,4.6279584 C 9.6564786,4.6704634 10.379293,4.7362527 10.895257,4.7741584 C 11.969864,4.8531034 12.590986,4.9687827 13.85,5.3244456 C 14.647064,5.5496106 14.804164,5.5722363 15.314286,5.5353327 C 15.628571,5.5125963 16.0435,5.4450191 16.23635,5.3851606 C 16.5119,5.2996341 16.986079,5.2759541 18.450636,5.2745813 C 19.475643,5.2736206 20.452743,5.2409013 20.621964,5.2018706 C 20.791186,5.1628399 21.209043,4.9948763 21.550536,4.828617 C 22.148771,4.5373591 22.194886,4.5266841 22.814286,4.5360856 C 23.4888,4.5463241 24.066193,4.6754541 25.618529,5.1632399 C 26.9717,5.5884399 27.961786,5.5768556 29.135714,5.1220849 C 29.889343,4.8301349 30.112371,4.8150806 31.242857,4.9798506 C 32.258664,5.1279056 34.25065,5.2047791 34.542771,5.1071984 C 34.62915,5.0783427 34.720579,4.9893691 34.745936,4.9094777 C 34.78115,4.7985349 34.832157,4.7742906 34.961871,4.8068456 C 35.291171,4.8894949 36.889564,5.6544499 37.1932,5.8747056 C 37.362314,5.9973834 37.6001,6.1700777 37.721614,6.2584706 C 37.963479,6.4344049 38.338014,6.4682613 38.586836,6.3366834 C 38.67265,6.2913077 38.909821,6.1121399 39.113893,5.9385334 L 39.484943,5.6228856 L 40.078179,5.9012799 C 40.882564,6.278752 41.271657,6.5345477 41.348371,6.736332 C 41.392893,6.8534299 41.368979,7.0774491 41.270486,7.465827 C 41.177479,7.8325934 41.107207,8.4480913 41.067171,9.2465477 C 41.015036,10.286453 40.972464,10.58449 40.779086,11.263413 L 40.552171,12.060058 L 40.619593,14.828907 L 40.687007,17.597756 L 41.062986,18.812042 C 41.411921,19.938998 41.439343,20.080267 41.444214,20.776328 C 41.44865,21.409784 41.419407,21.616785 41.256029,22.108452 C 40.993086,22.899751 40.916671,23.586331 40.994879,24.454899 C 41.03025,24.847756 41.062686,25.570971 41.06695,26.062042 C 41.071214,26.553113 41.101021,27.131685 41.133171,27.347756 L 41.191629,27.740613 L 40.881671,28.062042 C 40.264171,28.702392 40.159407,29.264103 40.41795,30.548306 C 40.494614,30.929077 40.59205,31.540833 40.634479,31.907768 C 40.686407,32.356821 40.8043,32.826768 40.9951,33.345287 C 41.151007,33.768985 41.278571,34.131292 41.278571,34.150411 C 41.278571,34.169528 41.065493,34.207002 40.805064,34.233683 C 40.053479,34.310689 39.778571,34.513584 39.778571,34.991323 C 39.778571,35.282931 39.961579,35.441003 40.635714,35.731675 L 41.171429,35.962663 L 41.284671,36.872288 C 41.356243,37.44708 41.377536,37.905773 41.342507,38.118405 C 41.225507,38.828768 41.2674,39.210516 41.523621,39.76896 C 41.65695,40.05955 41.748086,40.348836 41.72615,40.411817 C 41.704207,40.474798 41.559493,40.697528 41.404557,40.906773 C 41.056929,41.376264 40.862886,41.805209 40.8041,42.234141 C 40.779379,42.414488 40.732621,42.562042 40.7002,42.562042 C 40.667779,42.562042 40.365543,42.497756 40.028571,42.419185 C 39.6916,42.340613 39.319907,42.276328 39.202593,42.276328 C 38.882671,42.276328 38.30315,42.049656 37.742857,41.705376 C 36.736507,41.087011 36.101664,41.286136 35.6334,42.367037 L 35.457143,42.773891 L 35.064286,42.77083 C 34.848214,42.769146 34.285714,42.667092 33.814286,42.544043 L 33.814286,42.544046 z"
       id="path2438" />
    <g
       id="g4157"
       transform="matrix(1.4168733,0,0,1,51.703984,9)">
      <g
         id="g4153">
        <path
           style="opacity:1;fill:#ffa700;fill-opacity:0.92156863;fill-rule:nonzero;stroke:none;stroke-width:0.40799999;stroke-linecap:round;stroke-linejoin:round;marker:none;marker-start:none;marker-mid:none;marker-end:none;stroke-miterlimit:4;stroke-dasharray:none;stroke-dashoffset:0;stroke-opacity:0.98983047;visibility:visible;display:inline;overflow:visible;filter:url(#filter4041);enable-background:accumulate"
           d="M -16.79981,5.0383342 C -16.934537,4.264675 -16.886803,3.8080642 -16.526001,2.419185 C -16.333299,1.6773928 -16.16484,0.78550281 -16.161426,0.48898138 L -16.158566,0.24061352 L -16.061379,0.41918495 C -15.762979,0.96744209 -15.749393,1.9824778 -16.023914,3.2173842 C -16.163689,3.8461335 -16.652265,5.4906135 -16.699294,5.4906135 C -16.711259,5.4906135 -16.756491,5.2870878 -16.799811,5.0383342 L -16.79981,5.0383342 z"
           id="path4019" />
        <path
           style="opacity:1;fill:#ff0000;fill-opacity:1;fill-rule:evenodd;stroke:none;stroke-width:0.1;stroke-linecap:butt;stroke-linejoin:miter;marker:none;marker-start:none;marker-mid:none;marker-end:none;stroke-miterlimit:4;stroke-dasharray:none;stroke-dashoffset:0;stroke-opacity:1;visibility:visible;display:inline;overflow:visible;filter:url(#filter3909);enable-background:accumulate"
           d="M -28.785714,6.3571429 C -28.982048,6.5319476 -28.958481,7.0848095 -29,7.5 C -29.035434,7.854345 -29.039441,8.2515576 -29.071429,8.5714286 C -29.107983,8.9369748 -29.380449,9.3855204 -29.5,9.7142857 C -29.630695,10.073698 -29.674457,10.414855 -29.785714,10.785714 C -29.888145,11.12715 -29.857143,11.492288 -29.857143,11.857143 C -29.857143,11.904762 -29.761905,11.857143 -29.714286,11.857143 C -29.326695,11.857143 -29.576013,11.09435 -29.5,10.714286 C -29.418395,10.30626 -29.192823,9.9899381 -29,9.6428571 C -28.769941,9.2287508 -28.56226,9.0170575 -28.428571,8.5714286 C -28.290901,8.1125271 -28.381839,7.82447 -28.428571,7.3571429 C -28.4749,6.8938596 -28.602515,6.8151409 -28.785714,6.3571429 z"
           id="path4151"
           transform="matrix(0.5256839,0,0,0.5471969,-1.1266566,-2.3106197)"
           inkscape:transform-center-x="-0.39581963" />
      </g>
      <g
         id="g4147">
        <path
           style="opacity:1;fill:#ff4b00;fill-opacity:1;fill-rule:nonzero;stroke:none;stroke-width:0.40799999;stroke-linecap:round;stroke-linejoin:round;marker:none;marker-start:none;marker-mid:none;marker-end:none;stroke-miterlimit:4;stroke-dasharray:none;stroke-dashoffset:0;stroke-opacity:0.98983047;visibility:visible;display:inline;overflow:visible;filter:url(#filter4063);enable-background:accumulate"
           d="M -24.721332,9.8120421 C -24.762342,9.6548992 -24.816341,9.0923992 -24.84133,8.5620421 C -24.890808,7.5118985 -24.846035,7.4586214 -24.592534,8.265995 C -24.426943,8.7933785 -24.411876,9.3217942 -24.549468,9.7763278 L -24.646769,10.097756 L -24.721332,9.8120421 z"
           id="path4045"
           transform="matrix(2.0638308,0,0,1.2394442,26.160183,-2.2749916)" />
        <path
           style="opacity:1;fill:#ffaa00;fill-opacity:1;fill-rule:evenodd;stroke:none;stroke-width:0.1;stroke-linecap:butt;stroke-linejoin:miter;marker:none;marker-start:none;marker-mid:none;marker-end:none;stroke-miterlimit:4;stroke-dasharray:none;stroke-dashoffset:0;stroke-opacity:1;visibility:visible;display:inline;overflow:visible;filter:url(#filter4143);enable-background:accumulate"
           d="M -25.285715,7.6428574 C -25.231545,7.8798474 -25.086335,8.5683284 -25,9.0000004 C -24.951926,9.2403734 -24.571429,9.2380954 -24.357143,9.3571424 C -24.332347,9.3709184 -24.778789,8.3150264 -24.857143,8.2142854 C -24.935043,8.1141284 -25.236695,7.7082164 -25.285715,7.6428574 z"
           id="path4069" />
      </g>
      <g
         id="g4015">
        <path
           style="opacity:1;fill:#ffa800;fill-opacity:0.98039216;fill-rule:nonzero;stroke:none;stroke-width:0.40799999;stroke-linecap:round;stroke-linejoin:round;marker:none;marker-start:none;marker-mid:none;marker-end:none;stroke-miterlimit:4;stroke-dasharray:none;stroke-dashoffset:0;stroke-opacity:0.98983047;visibility:visible;display:inline;overflow:visible;filter:url(#filter4011);enable-background:accumulate"
           d="M -9.3003714,11.78387 C -9.4734214,11.48508 -9.7094786,11.049884 -9.8249429,10.81677 C -9.9404143,10.583659 -10.219,10.101514 -10.44405,9.7453414 C -11.311036,8.3731828 -11.352121,8.2754464 -11.63225,6.919185 C -11.805079,6.082415 -11.811614,5.9792142 -11.736371,5.2763278 C -11.664186,4.60201 -11.432864,3.2448078 -11.329386,2.8884714 C -11.301136,2.7911814 -11.222129,2.927805 -11.060907,3.3527571 C -10.74175,4.1939757 -10.578386,4.4831728 -10.236579,4.8120421 C -10.073257,4.969185 -9.7924714,5.3031685 -9.6126071,5.5542278 C -9.08675,6.2882557 -8.7228071,7.6179935 -8.7263071,8.7925107 C -8.7287143,9.598445 -8.86815,11.780298 -8.9380214,12.105301 C -8.9853857,12.325608 -8.9878786,12.323396 -9.3003643,11.783872 L -9.3003714,11.78387 z"
           id="path3997" />
        <path
           style="opacity:1;fill:#ff0000;fill-opacity:1;fill-rule:evenodd;stroke:none;stroke-width:0.1;stroke-linecap:butt;stroke-linejoin:miter;marker:none;marker-start:none;marker-mid:none;marker-end:none;stroke-miterlimit:4;stroke-dasharray:none;stroke-dashoffset:0;stroke-opacity:1;visibility:visible;display:inline;overflow:visible;filter:url(#filter3909);enable-background:accumulate"
           d="M -28.785714,6.3571429 C -28.982048,6.5319476 -28.958481,7.0848095 -29,7.5 C -29.035434,7.854345 -29.430114,8.0767502 -29.478432,8.3936083 C -29.551331,8.8716517 -29.787452,9.2077001 -29.907003,9.5364654 C -30.037698,9.8958777 -29.674457,10.414855 -29.785714,10.785714 C -29.888145,11.12715 -29.857143,11.492288 -29.857143,11.857143 C -29.857143,11.904762 -29.761905,11.857143 -29.714286,11.857143 C -29.326695,11.857143 -29.576013,11.09435 -29.5,10.714286 C -29.418395,10.30626 -29.192823,9.9899381 -29,9.6428571 C -28.769941,9.2287508 -28.56226,9.0170575 -28.428571,8.5714286 C -28.290901,8.1125271 -28.381839,7.82447 -28.428571,7.3571429 C -28.4749,6.8938596 -28.602515,6.8151409 -28.785714,6.3571429 z"
           id="path3995"
           transform="matrix(-1.3196303,0.12898,0.2086047,1.3115434,-50.661212,-0.85315)"
           inkscape:transform-center-x="0.84866766"
           inkscape:transform-center-y="0.071637209"
           sodipodi:nodetypes="cssssssssssc" />
      </g>
      <g
         id="g3971">
        <path
           style="opacity:1;fill:#ffa700;fill-opacity:0.88627451;fill-rule:nonzero;stroke:none;stroke-width:0.40799999;stroke-linecap:round;stroke-linejoin:round;marker:none;marker-start:none;marker-mid:none;marker-end:none;stroke-miterlimit:4;stroke-dasharray:none;stroke-dashoffset:0;stroke-opacity:0.98983047;visibility:visible;display:inline;overflow:visible;filter:url(#filter3963);enable-background:accumulate"
           d="M -23.385839,4.4727564 C -23.436219,4.187935 -23.476683,3.6977564 -23.475757,3.3834707 C -23.474199,2.8544107 -23.436908,2.7114164 -22.972807,1.4548992 C -22.697113,0.70847066 -22.389956,-0.062957907 -22.290244,-0.25938648 C -22.190529,-0.45581505 -22.068096,-0.75313648 -22.018167,-0.92010076 C -21.968238,-1.087065 -21.904701,-1.2236722 -21.876974,-1.2236722 C -21.849245,-1.2236722 -21.80612,-1.0745429 -21.781137,-0.89227434 C -21.606601,0.38110066 -21.905593,1.9163714 -22.5957,3.2903785 C -22.787033,3.67132 -23.012438,4.2097135 -23.096602,4.4868071 C -23.180767,4.7639 -23.259665,4.9906135 -23.271932,4.9906135 C -23.284197,4.9906135 -23.335456,4.7575778 -23.385838,4.4727564 L -23.385839,4.4727564 z"
           id="path3937" />
        <path
           style="opacity:1;fill:#ff0000;fill-opacity:1;fill-rule:evenodd;stroke:none;stroke-width:0.1;stroke-linecap:butt;stroke-linejoin:miter;marker:none;marker-start:none;marker-mid:none;marker-end:none;stroke-miterlimit:4;stroke-dasharray:none;stroke-dashoffset:0;stroke-opacity:1;visibility:visible;display:inline;overflow:visible;filter:url(#filter3909);enable-background:accumulate"
           d="M -28.785714,6.3571429 C -28.982048,6.5319476 -28.958481,7.0848095 -29,7.5 C -29.035434,7.854345 -29.039441,8.2515576 -29.071429,8.5714286 C -29.107983,8.9369748 -29.380449,9.3855204 -29.5,9.7142857 C -29.630695,10.073698 -29.674457,10.414855 -29.785714,10.785714 C -29.888145,11.12715 -29.857143,11.492288 -29.857143,11.857143 C -29.857143,11.904762 -29.761905,11.857143 -29.714286,11.857143 C -29.326695,11.857143 -29.576013,11.09435 -29.5,10.714286 C -29.418395,10.30626 -29.192823,9.9899381 -29,9.6428571 C -28.769941,9.2287508 -28.56226,9.0170575 -28.428571,8.5714286 C -28.290901,8.1125271 -28.381839,7.82447 -28.428571,7.3571429 C -28.4749,6.8938596 -28.602515,6.8151409 -28.785714,6.3571429 z"
           id="path3935"
           transform="matrix(0.8549013,6.9294944e-2,-8.1836317e-2,1.009626,3.0218776,-5.100523)"
           inkscape:transform-center-x="-0.57955429"
           inkscape:transform-center-y="0.038439603" />
      </g>
      <g
         id="g3967">
        <path
           style="opacity:1;fill:#ffa700;fill-opacity:0.99860385;fill-rule:nonzero;stroke:none;stroke-width:0.40799999;stroke-linecap:round;stroke-linejoin:round;marker:none;marker-start:none;marker-mid:none;marker-end:none;stroke-miterlimit:4;stroke-dasharray:none;stroke-dashoffset:0;stroke-opacity:0.98983047;visibility:visible;display:inline;overflow:visible;filter:url(#filter3931);enable-background:accumulate"
           d="M -29.592857,15.722277 C -29.592857,15.687913 -29.707067,15.163695 -29.846658,14.557348 C -30.336356,12.430212 -30.378379,11.993484 -30.232081,10.551753 C -30.150196,9.7448021 -29.876925,8.3397035 -29.712203,7.8786671 C -29.504314,7.2968121 -29.270141,5.6603785 -29.166045,4.0620421 C -29.139177,3.6495421 -29.111722,3.3481928 -29.105028,3.3923771 C -29.098333,3.4365614 -28.919024,3.7107457 -28.70656,4.001675 C -28.477861,4.3148357 -28.274159,4.6900335 -28.207255,4.92134 C -28.038389,5.5051564 -27.739906,7.2949671 -27.689443,8.0263278 C -27.632234,8.855475 -27.796329,9.5326271 -28.334197,10.686934 C -28.965434,12.04162 -29.306662,13.394727 -29.415141,14.973328 C -29.442834,15.376321 -29.494149,15.723754 -29.529174,15.745401 C -29.564199,15.767048 -29.592857,15.756642 -29.592857,15.722278 L -29.592857,15.722277 z"
           id="path3913" />
        <path
           style="opacity:1;fill:#ff0000;fill-opacity:1;fill-rule:evenodd;stroke:none;stroke-width:0.1;stroke-linecap:butt;stroke-linejoin:miter;marker:none;marker-start:none;marker-mid:none;marker-end:none;stroke-miterlimit:4;stroke-dasharray:none;stroke-dashoffset:0;stroke-opacity:1;visibility:visible;display:inline;overflow:visible;filter:url(#filter3909);enable-background:accumulate"
           d="M -28.785714,6.3571429 C -28.982048,6.5319476 -28.958481,7.0848095 -29,7.5 C -29.035434,7.854345 -29.039441,8.2515576 -29.071429,8.5714286 C -29.107983,8.9369748 -29.380449,9.3855204 -29.5,9.7142857 C -29.630695,10.073698 -29.674457,10.414855 -29.785714,10.785714 C -29.888145,11.12715 -29.857143,11.492288 -29.857143,11.857143 C -29.857143,11.904762 -29.761905,11.857143 -29.714286,11.857143 C -29.326695,11.857143 -29.576013,11.09435 -29.5,10.714286 C -29.418395,10.30626 -29.192823,9.9899381 -29,9.6428571 C -28.769941,9.2287508 -28.56226,9.0170575 -28.428571,8.5714286 C -28.290901,8.1125271 -28.381839,7.82447 -28.428571,7.3571429 C -28.4749,6.8938596 -28.602515,6.8151409 -28.785714,6.3571429 z"
           id="path3819"
           transform="matrix(1.0948632,0,0,1.3881169,2.7613344,-3.3244575)"
           inkscape:transform-center-x="-0.82439234" />
      </g>
      <g
         transform="translate(9.6428571,-14)"
         id="g3813">
        <path
           style="fill:none;fill-opacity:1;fill-rule:evenodd;stroke:#000000;stroke-width:0.80000001;stroke-linecap:round;stroke-linejoin:round;marker:none;marker-start:none;marker-mid:none;marker-end:none;stroke-miterlimit:4;stroke-dasharray:none;stroke-dashoffset:0;stroke-opacity:1;visibility:visible;display:inline;overflow:visible;enable-background:accumulate"
           d="M -38.504311,32.478058 C -38.504311,32.545402 -38.504311,32.545402 -38.504311,32.478058 z"
           id="path3727" />
        <path
           style="opacity:1;fill:#ffaa00;fill-opacity:1;fill-rule:nonzero;stroke:none;stroke-width:0.40799999;stroke-linecap:round;stroke-linejoin:round;marker:none;marker-start:none;marker-mid:none;marker-end:none;stroke-miterlimit:4;stroke-dasharray:none;stroke-dashoffset:0;stroke-opacity:0.98983047;visibility:visible;display:inline;overflow:visible;filter:url(#filter3809);enable-background:accumulate"
           d="M -29.914286,43.409437 C -31.054666,43.313297 -31.189537,43.231463 -32.651994,41.748291 C -33.35702,41.03328 -34.177967,40.217961 -34.476324,39.936469 C -35.024928,39.418877 -35.839994,38.271724 -36.202634,37.506802 C -37.020323,35.782037 -37.244876,33.860392 -36.906428,31.483987 C -36.774252,30.555927 -36.672792,30.189802 -36.22911,29.039862 C -35.977065,28.386607 -35.844945,27.909397 -35.758738,27.340896 L -35.63886,26.550342 L -35.347705,27.10645 C -34.995282,27.77959 -34.753459,28.133482 -34.149828,28.859462 C -33.770991,29.315082 -33.655722,29.518107 -33.50095,30.002319 C -33.235525,30.832712 -33.045023,31.634882 -32.945517,32.34113 C -32.845102,33.053829 -32.727289,33.320712 -32.469885,33.418577 C -32.06407,33.572865 -31.690031,33.34084 -31.616767,32.889362 C -31.567662,32.586765 -31.689967,31.686791 -31.89512,30.84113 C -32.021865,30.318666 -32.042513,30.004857 -32.043157,28.59113 C -32.043783,27.21403 -32.018623,26.806258 -31.88762,26.070363 C -31.683063,24.9213 -31.443324,24.332142 -30.471844,22.591131 C -30.230711,22.158988 -29.881452,21.475952 -29.695716,21.073274 C -29.353823,20.332041 -29.235715,20.191261 -29.235715,20.524965 C -29.235715,20.788409 -28.939269,21.637831 -28.402454,22.912559 C -27.658005,24.680336 -27.576455,24.828429 -26.816527,25.792571 C -26.157345,26.628897 -26.076788,26.765153 -25.887499,27.364 C -25.773507,27.724637 -25.583307,28.222216 -25.464843,28.469734 C -25.160622,29.10535 -25.061386,29.900914 -25.118979,31.242483 C -25.149293,31.948581 -25.214607,32.515047 -25.307672,32.878909 C -25.4899,33.591408 -25.486707,33.719062 -25.280686,33.958576 C -25.07215,34.201015 -24.681586,34.227849 -24.443007,34.01613 C -24.111622,33.722047 -23.465957,32.03622 -23.268036,30.948273 C -23.203715,30.594702 -23.134707,29.758987 -23.114693,29.09113 C -23.080779,27.959533 -23.093515,27.78984 -23.301715,26.599168 C -23.4246,25.896447 -23.542272,25.293767 -23.563215,25.259882 C -23.720522,25.005356 -22.790343,25.648012 -22.478407,26.009373 C -22.33785,26.172196 -22.060843,26.642916 -21.862829,27.055416 C -21.664822,27.467916 -21.381379,27.96613 -21.232972,28.162559 C -21.084572,28.358987 -20.924507,28.664345 -20.877293,28.84113 C -20.623493,29.791502 -20.436722,33.153214 -20.589115,34.02829 C -20.764072,35.032993 -21.211972,36.21583 -21.829136,37.303002 C -22.029093,37.655247 -22.293,38.22045 -22.415586,38.559011 C -22.538179,38.89757 -22.819036,39.461157 -23.039722,39.811425 C -23.260407,40.161692 -23.493343,40.58147 -23.55735,40.744266 C -23.653407,40.98857 -23.7819,41.112244 -24.293179,41.45249 C -24.633872,41.679219 -25.072357,41.990987 -25.267593,42.145311 C -25.462829,42.299635 -25.88106,42.554988 -26.196997,42.712761 C -26.512935,42.870535 -26.952419,43.108603 -27.17363,43.241804 C -27.57436,43.483101 -27.578932,43.48395 -28.42363,43.473809 C -28.88992,43.468212 -29.560715,43.439242 -29.914286,43.409435 L -29.914286,43.409437 z"
           id="path3803" />
        <path
           style="opacity:1;fill:#ff4800;fill-opacity:1;fill-rule:nonzero;stroke:none;stroke-width:0.40799999;stroke-linecap:round;stroke-linejoin:round;marker:none;marker-start:none;marker-mid:none;marker-end:none;stroke-miterlimit:4;stroke-dasharray:none;stroke-dashoffset:0;stroke-opacity:0.98983047;visibility:visible;display:inline;overflow:visible;filter:url(#filter3799);enable-background:accumulate"
           d="M -32.989221,47.914856 C -33.878195,47.826437 -33.983333,47.751176 -35.12338,46.387127 C -35.672977,45.729543 -36.31294,44.979707 -36.545522,44.720824 C -36.973182,44.244803 -37.60856,43.189785 -37.891253,42.486299 C -38.528676,40.900061 -38.703725,39.132756 -38.43989,36.947215 C -38.336853,36.093693 -38.257761,35.756974 -37.911892,34.699393 C -37.715413,34.098605 -37.612419,33.659723 -37.545217,33.136882 L -37.451768,32.409823 L -37.2248,32.921266 C -36.950071,33.540342 -36.76156,33.86581 -36.291004,34.533482 C -35.995685,34.952509 -35.905828,35.139227 -35.785177,35.584549 C -35.578267,36.348248 -35.429762,37.085991 -35.352193,37.735515 C -35.273915,38.390973 -35.182075,38.636421 -34.981418,38.726426 C -34.665068,38.868322 -34.373489,38.654932 -34.316377,38.239715 C -34.278097,37.961422 -34.373439,37.13373 -34.533364,36.35599 C -34.632168,35.875488 -34.648263,35.586883 -34.648766,34.286702 C -34.649254,33.020206 -34.62964,32.645184 -34.527518,31.968394 C -34.368057,30.911618 -34.18117,30.36978 -33.423861,28.768601 C -33.235887,28.371166 -32.963625,27.742989 -32.818836,27.372653 C -32.552316,26.690953 -32.460246,26.56148 -32.460246,26.868382 C -32.460246,27.110667 -32.229154,27.891867 -31.810684,29.064213 C -31.230355,30.690009 -31.166783,30.826207 -30.574387,31.712913 C -30.060527,32.482067 -29.997729,32.607381 -29.850171,33.158131 C -29.761309,33.489801 -29.61304,33.947418 -29.520693,34.175056 C -29.283539,34.75962 -29.206181,35.491289 -29.251077,36.725108 C -29.274708,37.374493 -29.325623,37.895464 -29.398171,38.230102 C -29.540226,38.885375 -29.537736,39.002777 -29.377134,39.223054 C -29.214572,39.446021 -28.910111,39.4707 -28.724128,39.275985 C -28.4658,39.005522 -27.962477,37.455095 -27.808189,36.454528 C -27.758048,36.129354 -27.704253,35.360761 -27.688652,34.746544 C -27.662214,33.705832 -27.672142,33.549769 -27.834443,32.454727 C -27.930237,31.808444 -28.021967,31.254171 -28.038293,31.223008 C -28.160921,30.988922 -27.435807,31.579965 -27.19264,31.912302 C -27.08307,32.062048 -26.867131,32.494961 -26.712771,32.874331 C -26.558416,33.2537 -26.33746,33.7119 -26.221771,33.892552 C -26.106087,34.073204 -25.981309,34.354036 -25.944504,34.516623 C -25.746656,35.390664 -25.60106,38.482376 -25.719857,39.287169 C -25.856244,40.211177 -26.2054,41.299013 -26.686506,42.298867 C -26.842381,42.622821 -27.048107,43.142629 -27.143668,43.453998 C -27.239235,43.765365 -27.458175,44.283687 -27.630209,44.605823 C -27.802242,44.927958 -27.983825,45.314021 -28.033721,45.463741 C -28.108602,45.688424 -28.208768,45.802165 -28.607331,46.115083 C -28.872916,46.323602 -29.214733,46.61033 -29.366928,46.75226 C -29.519123,46.894189 -29.845151,47.129033 -30.091437,47.274134 C -30.337724,47.419236 -30.680321,47.638183 -30.852764,47.760686 C -31.16515,47.982603 -31.168714,47.983384 -31.827192,47.974057 C -32.190684,47.96891 -32.713597,47.942267 -32.989221,47.914854 L -32.989221,47.914856 z"
           id="path3781"
           transform="matrix(1.1774458,0,0,1,9.1991363,-4.2857136)" />
        <path
           style="opacity:1;fill:#ff0000;fill-opacity:1;fill-rule:evenodd;stroke:none;stroke-width:0.1;stroke-linecap:butt;stroke-linejoin:miter;marker:none;marker-start:none;marker-mid:none;marker-end:none;stroke-miterlimit:4;stroke-dasharray:none;stroke-dashoffset:0;stroke-opacity:1;visibility:visible;display:inline;overflow:visible;filter:url(#filter3775);enable-background:accumulate"
           d="M -47.42857,20.642856 C -47.608567,20.767202 -47.806092,21.377454 -47.92857,21.785714 C -48.032339,22.131608 -48.077569,22.530708 -48.142856,22.857142 C -48.259045,23.438085 -47.897748,24.296966 -47.785713,24.857142 C -47.776374,24.903836 -47.785713,24.95238 -47.785713,24.999999 C -47.785713,25.507517 -47.412263,26.234502 -47.357142,26.785714 C -47.30727,27.28443 -47.629716,27.662062 -47.857142,28.071428 C -48.16824,28.631405 -48.454589,29.201358 -48.785713,29.642856 C -48.930541,29.835961 -48.736121,30.567347 -48.714285,30.785714 C -48.676304,31.165515 -48.642856,31.546875 -48.642856,31.928571 C -48.642856,32.496516 -49.598868,31.315039 -50.071427,30.999999 C -50.460376,30.7407 -50.868261,29.892278 -51.142856,29.499999 C -51.48999,29.004093 -51.69322,28.617834 -51.857142,28.071428 C -52.005678,27.576307 -52.049326,26.833867 -52.142856,26.428571 C -52.359184,25.491151 -52.642856,26.435143 -52.642856,26.999999 C -52.642856,27.37388 -52.53576,27.820907 -52.499999,28.214285 C -52.436128,28.916862 -52.458334,29.452374 -52.285713,30.142856 C -52.103523,30.871618 -51.999999,31.707413 -51.999999,32.499999 C -51.999999,33.085503 -51.729014,33.760427 -51.571427,34.285714 C -51.411677,34.818216 -51.043371,35.211712 -50.92857,35.785714 C -50.839749,36.229822 -50.080466,36.941688 -49.857142,37.499999 C -49.607961,38.122951 -48.928587,38.314282 -48.357142,38.428571 C -47.3885,38.622299 -46.451587,38.898412 -45.499999,39.071428 C -45.106951,39.142891 -44.636473,39.035075 -44.285713,38.999999 C -43.902655,38.961693 -43.472601,38.249183 -43.285713,37.999999 C -42.985319,37.599474 -42.600743,37.471924 -42.214285,37.214285 C -41.725439,36.888388 -41.316089,36.530375 -40.92857,36.142856 C -40.697307,35.911593 -41.044173,34.520669 -41.071427,34.357142 C -41.196704,33.605483 -40.642856,32.986544 -40.642856,32.214285 C -40.642856,31.490093 -40.95345,31.147927 -40.285713,31.071428 C -39.628092,30.996089 -39.673373,29.619636 -39.499999,29.142856 C -39.309746,28.619661 -39.10489,27.453023 -38.999999,26.928571 C -38.891721,26.387182 -38.983091,26.11664 -38.92857,25.571428 C -38.884148,25.127206 -39.418184,23.551931 -39.499999,23.142857 C -39.615452,22.565591 -39.880316,25.841588 -39.857142,26.142856 C -39.80321,26.843965 -40.049159,27.349476 -40.285713,27.999999 C -40.490415,28.56293 -40.738682,28.966658 -41.142856,29.428571 C -41.522602,29.862566 -41.600582,30.138483 -42.142856,30.499999 C -42.747952,30.903396 -42.752264,30.724931 -43.285713,30.428571 C -43.741384,30.17542 -44.156369,29.679966 -44.571427,29.357142 C -44.969794,29.047301 -44.857142,28.606811 -44.857142,28.142856 C -44.857142,27.252124 -44.821153,26.987637 -44.357142,26.214285 C -44.00235,25.622965 -44.963034,23.968035 -45.142856,23.428571 C -45.380149,22.71669 -45.728599,22.042799 -46.071427,21.357142 C -46.322065,20.855866 -46.769955,20.38078 -47.071427,19.928571 C -47.187992,19.753723 -47.071427,19.077839 -47.071427,18.857143 C -47.071427,18.028747 -47.444779,19.103845 -47.571427,19.357142 C -47.85305,19.920388 -47.623948,20.154411 -47.42857,20.642856 z"
           id="path3753"
           sodipodi:nodetypes="cssssssssssssssssssssssssssssssssssssssssssssssc"
           transform="matrix(1.0046785,0,0,0.9443773,17.714628,6.8174493)" />
      </g>
      <path
         sodipodi:nodetypes="cssssssssssssssssssssssssssssssssssssssssssssssssssssssssssssssssssssssssssssssssss"
         id="path2911"
         d="M -22.270908,29.450926 C -22.211648,29.635027 -21.393673,29.861964 -21.178492,29.962789 C -20.944598,30.072382 -20.399642,30.07965 -20.086076,30.109035 C -19.675439,30.147517 -19.303669,30.145794 -18.91563,30.182159 C -18.578463,30.213755 -18.168514,30.207206 -17.901244,30.182159 C -17.469345,30.141685 -17.279711,29.907323 -16.964887,29.743419 C -16.560725,29.533002 -16.181058,29.359713 -15.79444,29.158432 C -15.428522,28.967926 -14.967873,28.540925 -14.702025,28.354075 C -14.329747,28.092422 -13.934722,27.825956 -13.609608,27.622842 C -13.358744,27.466114 -13.246902,26.923272 -13.141431,26.745362 C -12.928493,26.386174 -12.71182,26.123059 -12.517193,25.794758 C -12.256261,25.354614 -12.187678,25.057932 -12.049015,24.624784 C -11.922937,24.230953 -11.542703,23.675832 -11.346747,23.308563 C -11.104497,22.854528 -10.916814,22.374442 -10.722508,21.919221 C -10.53651,21.48346 -10.472607,21.041092 -10.332361,20.603 C -10.199538,20.188096 -10.219663,19.620007 -10.176301,19.213657 C -10.12809,18.761867 -10.176301,18.278903 -10.176301,17.824313 C -10.176301,17.394195 -10.289408,16.983743 -10.332361,16.581216 C -10.373801,16.192872 -10.368971,15.872518 -10.41039,15.484365 C -10.445516,15.1552 -10.576573,14.778821 -10.64448,14.460639 C -10.70818,14.162165 -11.023167,13.891764 -11.190688,13.656282 C -11.393635,13.371004 -11.492296,12.986238 -11.580837,12.778802 C -11.741495,12.40241 -12.011029,12.02784 -12.205074,11.755076 C -12.394976,11.488134 -12.681421,11.282216 -12.90734,11.096965 C -13.158817,10.89076 -13.526007,10.735264 -13.843698,10.511978 C -14.200923,10.260906 -14.555387,10.084896 -14.780054,9.9269911 C -15.12643,9.6835451 -15.294974,9.3964081 -15.482322,9.1957581 C -15.881502,8.7682371 -15.576289,9.0196411 -15.404293,9.3420051 C -15.186936,9.7493851 -15.066226,9.9592991 -14.936114,10.365732 C -14.80089,10.788133 -14.638869,11.062117 -14.467936,11.462582 C -14.3138,11.823693 -14.316676,12.244454 -14.233847,12.632556 C -14.137497,13.084014 -14.045545,13.592816 -13.999757,14.021899 C -13.959157,14.402369 -13.999757,14.809563 -13.999757,15.191873 C -13.999757,15.608426 -14.037169,15.981206 -14.077788,16.361847 C -14.125258,16.806709 -14.238629,17.261737 -14.311876,17.604942 C -14.403724,18.035303 -14.587361,18.307796 -14.702025,18.701792 C -14.795419,19.022708 -15.001859,19.367683 -15.092173,19.579274 C -15.230483,19.903301 -14.8918,18.903102 -14.858085,18.555547 C -14.820333,18.166389 -14.780054,17.710887 -14.780054,17.385573 C -14.780054,16.946832 -14.780054,16.508093 -14.780054,16.069352 C -14.780054,15.575165 -14.847588,15.31418 -14.936114,14.899379 C -15.020518,14.503895 -15.285756,14.080236 -15.404293,13.802529 C -15.525435,13.518716 -15.608511,13.115852 -15.716412,12.778802 C -15.866129,12.311122 -16.074224,12.161094 -16.340649,11.828198 C -16.637051,11.457845 -16.8254,11.131446 -17.198976,10.731349 C -17.511068,10.397097 -17.713905,9.5819871 -17.901244,9.1957581 C -18.236598,8.5043681 -18.494402,7.8316661 -18.75957,7.1483041 C -19.04334,6.4170061 -18.988505,5.5147751 -19.071689,4.7352341 C -19.149034,4.0104281 -19.06196,3.2455961 -18.99366,2.5415341 C -18.98395,2.4414481 -19.04568,2.3465381 -19.071689,2.2490391 C -19.251117,1.5764601 -19.394859,3.6060601 -19.461838,4.2964931 C -19.523522,4.9323551 -19.878171,5.5155411 -20.164104,6.0514531 C -20.460907,6.6077331 -20.666167,7.2118081 -20.944402,7.7332911 C -21.194208,8.2014851 -21.430362,8.6385431 -21.64667,8.9763891 C -21.959104,9.4643691 -22.14586,10.058238 -22.426968,10.585102 C -22.691553,11.080998 -22.703721,11.735618 -22.817116,12.266938 C -22.942652,12.855154 -22.910065,13.430472 -22.973175,14.021899 C -23.01382,14.402787 -22.973175,14.808823 -22.973175,15.191873 C -22.973175,15.538139 -22.895145,15.993271 -22.895145,16.434969 C -22.895145,16.786235 -22.731078,17.203724 -22.661057,17.53182 C -22.583285,17.896227 -22.549552,18.138018 -22.504998,18.555547 C -22.494645,18.65256 -22.504998,18.750542 -22.504998,18.84804 C -22.504998,19.292832 -22.646001,17.967974 -22.739086,17.53182 C -22.83763,17.070078 -22.965338,16.583771 -23.051206,16.288722 C -23.15531,15.931006 -23.263333,15.608939 -23.441354,15.191873 C -23.562083,14.909026 -23.964292,14.530459 -24.143622,14.314393 C -24.440538,13.956646 -24.681095,13.627142 -24.923918,13.217542 C -25.207912,12.738498 -25.348354,12.223728 -25.626186,11.755076 C -25.797993,11.465267 -25.817405,11.11604 -25.938305,10.804472 C -26.180104,10.181335 -26.376375,12.065986 -26.562542,12.705678 C -26.665467,13.059338 -26.64448,13.455226 -26.718601,13.802529 C -26.811046,14.235687 -26.946532,14.51933 -27.10875,14.899379 C -27.299151,15.34545 -27.435557,15.729828 -27.57693,16.215599 C -27.73786,16.768578 -27.777018,17.393138 -27.889048,17.970559 C -27.989154,18.486524 -27.911584,18.986099 -27.967078,19.50615 C -28.016554,19.96981 -27.933427,20.479605 -27.889048,20.895494 C -27.824543,21.499983 -27.733981,21.964562 -27.57693,22.504207 C -27.443852,22.961472 -27.30652,23.283972 -27.10875,23.747304 C -26.8829,24.276429 -26.532421,24.734092 -26.250424,25.209771 C -25.970414,25.682097 -25.716201,25.959506 -25.392097,26.30662 C -25.067999,26.653728 -24.783247,26.888518 -24.37771,27.184102 C -24.043724,27.427536 -23.88406,27.76503 -23.675443,27.988459 C -23.429706,28.251643 -22.361156,29.275848 -22.091159,29.528866"
         style="fill:none;fill-opacity:1;fill-rule:evenodd;stroke:#000000;stroke-width:1.16326535;stroke-linecap:round;stroke-linejoin:round;marker:none;marker-start:none;marker-mid:none;marker-end:none;stroke-miterlimit:4;stroke-dasharray:none;stroke-dashoffset:0;stroke-opacity:1;visibility:visible;display:inline;overflow:visible;enable-background:accumulate" />
      <path
         id="path3709"
         d="M -22.714285,8.5000001 C -22.870278,8.3245031 -22.857143,7.7689601 -22.857143,7.3571431 C -22.857143,7.1057511 -22.968152,6.6756221 -23,6.3571431 C -23.040418,5.9529641 -22.925456,5.6614361 -22.857143,5.2857141 C -22.79178,4.9262181 -22.684473,4.6625291 -22.571428,4.2857141 C -22.467034,3.9377351 -22.210892,3.5646411 -22.071428,3.2857141 C -21.923443,2.9897431 -21.817272,2.6146101 -21.714285,2.3571431 C -21.555704,1.9606891 -21.516671,1.6547871 -21.428571,1.2142861 C -21.338556,0.76420814 -21.285714,0.40281434 -21.285714,-0.071428557 C -21.285714,-0.48190306 -21.320835,-0.70835246 -21.357143,-1.0714286 C -21.393212,-1.4321239 -21.543349,-1.8111637 -21.642857,-2.1428571 C -21.754765,-2.5158831 -21.725178,-2.881336 -21.785714,-3.2142857 C -21.800401,-3.2950628 -22.012658,-2.6244716 -22.071428,-2.4285714 C -22.17937,-2.0687658 -22.284645,-1.6482013 -22.357143,-1.2857143 C -22.420937,-0.96674066 -22.638004,-0.58113366 -22.785714,-0.28571426 C -22.976135,0.095127043 -23.063213,0.47946074 -23.214285,0.85714314 C -23.388387,1.2923961 -23.500733,1.6091611 -23.642857,2.0000001 C -23.786454,2.3948911 -23.840234,2.5583141 -23.928571,3.0000001 C -24.012458,3.4194351 -23.891747,3.9050681 -23.857143,4.2857141 C -23.819469,4.7001191 -23.743017,4.9518461 -23.642857,5.2857141 C -23.516174,5.7079911 -23.40479,5.8887951 -23.285714,6.2857141 C -23.21381,6.5253941 -23.111484,6.9425801 -23.071428,7.1428571 C -22.989676,7.5516171 -22.862577,8.0056951 -22.714285,8.5000001 z"
         style="fill:none;fill-opacity:1;fill-rule:evenodd;stroke:#000000;stroke-width:0.80000001;stroke-linecap:round;stroke-linejoin:round;marker:none;marker-start:none;marker-mid:none;marker-end:none;stroke-miterlimit:4;stroke-dasharray:none;stroke-dashoffset:0;stroke-opacity:1;visibility:visible;display:inline;overflow:visible;enable-background:accumulate" />
      <path
         sodipodi:nodetypes="csssssssssssssssssssssssssc"
         id="path3713"
         d="M -11.235206,1.0872731 C -11.092867,0.62964604 -11.547259,1.9131641 -11.663777,2.3015591 C -11.753049,2.5991321 -11.893025,3.5719901 -12,3.9285711 C -12.104186,4.2758601 -12.072052,4.6459741 -12.142857,5.0000001 C -12.210281,5.3371181 -12.214285,5.6628361 -12.214285,6.0714291 C -12.214285,6.5612791 -12.079624,6.8875951 -12,7.2857141 C -11.911188,7.7297741 -11.873887,8.0295691 -11.714285,8.4285711 C -11.611414,8.6857501 -11.398111,9.0262571 -11.214285,9.3571431 C -10.977199,9.7838991 -10.832831,9.9650391 -10.571428,10.357143 C -10.383481,10.639063 -10.251163,11.03362 -10.071428,11.357143 C -9.87568,11.709489 -9.778999,11.76923 -9.571428,12.142857 C -9.401998,12.447832 -9.337349,12.692341 -9.214285,13 C -9.070047,13.360595 -8.96737,13.561146 -8.857143,13.928571 C -8.752986,14.275759 -8.752082,14.622039 -8.714285,15 C -8.676305,15.379801 -8.642857,14.238839 -8.642857,13.857143 C -8.642857,13.479407 -8.611146,13.254318 -8.571428,12.857143 C -8.528492,12.427776 -8.469327,11.978984 -8.428571,11.571429 C -8.389331,11.179028 -8.393798,10.795125 -8.357143,10.428571 C -8.314474,10.001891 -8.328217,9.6393141 -8.285714,9.2142861 C -8.248289,8.8400341 -8.246823,8.5317701 -8.285714,8.1428571 C -8.328657,7.7134271 -8.421893,7.4619621 -8.5,7.0714291 C -8.575993,6.6914621 -8.743021,6.3089761 -8.857143,5.9285711 C -8.938155,5.6585291 -9.23058,5.3706691 -9.357143,5.1428571 C -9.557231,4.7826971 -9.889724,4.5750091 -10.142857,4.2857141 C -10.361056,4.0363441 -10.503327,3.5631091 -10.642857,3.2142861 C -10.808807,2.7994121 -10.913758,2.5026351 -11,2.0714291 C -11.058135,1.7807501 -11.222621,1.2366001 -11.285714,1.0000001"
         style="fill:none;fill-opacity:1;fill-rule:evenodd;stroke:#000000;stroke-width:0.80000001;stroke-linecap:round;stroke-linejoin:round;marker:none;marker-start:none;marker-mid:none;marker-end:none;stroke-miterlimit:4;stroke-dasharray:none;stroke-dashoffset:0;stroke-opacity:1;visibility:visible;display:inline;overflow:visible;enable-background:accumulate" />
      <path
         id="path3729"
         d="M -28.790025,18.751518 C -28.815998,18.607353 -28.914973,18.200337 -28.992055,17.943396 C -29.058863,17.720703 -29.070124,17.364737 -29.093071,17.135274 C -29.117746,16.888524 -29.093071,16.625865 -29.093071,16.377659 C -29.093071,15.992192 -29.029236,15.638298 -28.992055,15.266491 C -28.947628,14.822212 -28.975817,14.427682 -28.89104,14.003801 C -28.804703,13.572114 -28.762415,13.204659 -28.638502,12.791618 C -28.52214,12.403746 -28.403135,12.023898 -28.284949,11.629942 C -28.179072,11.277022 -27.939028,10.887594 -27.779872,10.569282 C -27.626751,10.26304 -27.535265,9.9092371 -27.426319,9.6096371 C -27.315602,9.3051661 -27.288431,8.9707041 -27.224289,8.6499921 C -27.162591,8.3415061 -27.246522,7.9730931 -27.274796,7.6903471 C -27.314285,7.2954571 -27.348813,6.9667081 -27.426319,6.5791801 C -27.502594,6.1978051 -27.588372,5.8172841 -27.62835,5.4175041 C -27.658887,5.1121251 -27.803429,4.7418761 -27.880888,4.4578591 C -27.946831,4.2160681 -28.241169,3.8933051 -28.385964,3.7002451 C -28.632434,3.3716181 -28.833205,2.9885151 -29.042563,2.6395851 C -29.235544,2.3179491 -29.368365,2.0018571 -29.497132,1.6799401 C -29.625056,1.3601281 -29.681756,1.0668551 -29.800178,0.77080214 C -30.02225,0.21562014 -29.78082,0.96438114 -29.74967,1.2758791 C -29.715418,1.6183941 -29.733302,1.9446301 -29.699162,2.2860311 C -29.66857,2.5919571 -29.62749,2.9017351 -29.598147,3.1951691 C -29.568534,3.4913031 -29.598147,3.8064721 -29.598147,4.1043061 C -29.598147,4.4409411 -29.639142,4.7133411 -29.699162,5.0134431 C -29.771266,5.3739641 -29.764877,5.7716091 -29.800178,6.1246111 C -29.834884,6.4716751 -29.88652,6.8088611 -29.9517,7.1347631 C -30.022057,7.4865491 -30.149289,7.7933931 -30.254746,8.1449161 C -30.365371,8.5136661 -30.407323,8.9400681 -30.507284,9.3065911 C -30.614484,9.6996581 -30.62229,10.066583 -30.658807,10.468267 C -30.69789,10.898173 -30.759822,11.287423 -30.759822,11.730958 C -30.759822,12.14071 -30.736199,12.505672 -30.658807,12.892633 C -30.564341,13.364962 -30.492558,13.80035 -30.355761,14.256339 C -30.26141,14.570843 -30.245568,14.909859 -30.153731,15.215984 C -30.067911,15.502052 -30.031511,15.731469 -29.9517,16.024106 C -29.863511,16.347467 -29.749834,16.559192 -29.598147,16.832228 C -29.449741,17.099359 -29.392058,17.296943 -29.295101,17.539335 C -29.205125,17.764276 -29.062369,17.913686 -28.941548,18.094919 C -28.765018,18.359713 -28.852875,18.43727 -28.790025,18.751518 z"
         style="fill:none;fill-opacity:1;fill-rule:evenodd;stroke:#000000;stroke-width:0.80000001;stroke-linecap:round;stroke-linejoin:round;marker:none;marker-start:none;marker-mid:none;marker-end:none;stroke-miterlimit:4;stroke-dasharray:none;stroke-dashoffset:0;stroke-opacity:1;visibility:visible;display:inline;overflow:visible;enable-background:accumulate" />
      <path
         sodipodi:nodetypes="csssssssssssssssssscc"
         id="path3731"
         d="M -23.917308,11.374866 C -24.004551,11.061608 -24.018323,11.109638 -24.018323,10.970805 C -24.018323,10.733071 -24.210572,10.136844 -24.143323,9.9126831 C -24.090599,9.7369341 -23.9918,9.5491331 -23.9918,9.2560841 C -23.9918,9.0123331 -23.978126,8.7629181 -24.042308,8.5489781 C -24.12101,8.2866361 -24.185294,8.0147371 -24.294846,7.7408551 C -24.364823,7.5659131 -24.479418,7.3551881 -24.547384,7.1852721 C -24.647408,6.9352121 -24.719399,6.6635141 -24.85043,6.4276571 C -24.964605,6.2221431 -25.057759,5.8876641 -25.203984,5.7205501 C -25.356652,5.5460721 -25.441989,5.3544601 -25.658552,5.1649661 C -25.848607,4.9986691 -26.387287,4.4896401 -26.264644,4.7103981 C -26.153477,4.9104991 -26.130287,5.1897241 -26.012106,5.3669971 C -25.918786,5.5069761 -25.642281,5.8019081 -25.608045,5.9730891 C -25.555539,6.2356161 -25.510159,6.4625151 -25.456522,6.7307031 C -25.41017,6.9624591 -25.304999,7.2456141 -25.304999,7.4883171 C -25.304999,7.7408551 -25.304999,7.9933941 -25.304999,8.2459321 C -25.304999,8.4881531 -25.275681,8.7411391 -25.254491,8.9530391 C -25.229058,9.2073681 -25.275723,9.4715221 -25.203984,9.7106531 C -25.148843,9.8944561 -25.108631,10.225644 -24.951445,10.41776 C -24.799923,10.602954 -24.364147,11.172439 -24.496877,10.973344 C -24.496877,11.210576 -23.947657,11.422705 -23.941293,11.427912"
         style="fill:none;fill-opacity:1;fill-rule:evenodd;stroke:#000000;stroke-width:0.80000001;stroke-linecap:round;stroke-linejoin:round;marker:none;marker-start:none;marker-mid:none;marker-end:none;stroke-miterlimit:4;stroke-dasharray:none;stroke-dashoffset:0;stroke-opacity:1;visibility:visible;display:inline;overflow:visible;enable-background:accumulate" />
      <path
         id="path3733"
         d="M -16.668194,-1.3000103 C -16.611112,-1.1648918 -16.59558,-0.72539236 -16.567179,-0.44138056 C -16.540893,-0.17851636 -16.567179,0.10219204 -16.567179,0.36674144 C -16.567179,0.66672214 -16.639646,0.91134414 -16.718702,1.1748631 C -16.795375,1.4304391 -16.772968,1.6482251 -16.819717,1.8819701 C -16.866104,2.1139031 -16.949598,2.2980711 -17.021748,2.5385691 C -17.080897,2.7357351 -17.138855,3.0735971 -17.173271,3.2456761 C -17.22778,3.5182241 -17.29416,3.7474621 -17.324794,4.0537981 C -17.352532,4.3311781 -17.298896,4.6158241 -17.274286,4.8619201 C -17.244924,5.1555411 -17.200349,5.3609161 -17.122763,5.6195351 C -17.055428,5.8439841 -16.99324,5.9757221 -16.920733,6.1751191 C -16.828547,6.4286281 -16.763712,6.5205641 -16.668194,6.7307021 C -16.570084,6.9465451 -16.47694,7.0345541 -16.365149,7.2357791 C -16.123141,7.6713931 -16.365149,7.0953511 -16.365149,6.9832411 C -16.365149,6.7307021 -16.365149,6.4781641 -16.365149,6.2256261 C -16.365149,6.0131641 -16.255443,5.7276041 -16.213626,5.5185191 C -16.168187,5.2913241 -16.086184,5.0600431 -16.011595,4.8114131 C -15.931674,4.5450091 -15.860647,4.3077721 -15.759057,4.0537981 C -15.666234,3.8217411 -15.669366,3.5527971 -15.607534,3.3466911 C -15.518214,3.0489561 -15.485834,2.8873021 -15.456011,2.5890771 C -15.434781,2.3767731 -15.379995,2.1319591 -15.354996,1.8819701 C -15.325329,1.5853001 -15.379156,1.3878291 -15.405504,1.1243561 C -15.426017,0.91922114 -15.520932,0.64822914 -15.557027,0.46775674 C -15.596794,0.26892094 -15.728208,0.12539324 -15.809565,-0.037319557 C -15.921517,-0.26122326 -16.076491,-0.43697376 -16.163118,-0.59290346 C -16.271236,-0.78751606 -16.289986,-0.92228026 -16.415656,-1.1484874 C -16.463331,-1.2343027 -16.584015,-1.2495026 -16.668194,-1.3000103 z"
         style="fill:none;fill-opacity:1;fill-rule:evenodd;stroke:#000000;stroke-width:0.80000001;stroke-linecap:round;stroke-linejoin:round;marker:none;marker-start:none;marker-mid:none;marker-end:none;stroke-miterlimit:4;stroke-dasharray:none;stroke-dashoffset:0;stroke-opacity:1;visibility:visible;display:inline;overflow:visible;enable-background:accumulate" />
    </g>
  </g>
</svg>
