<?xml version="1.0" encoding="UTF-8" standalone="no"?>
<!-- Created with Inkscape (http://www.inkscape.org/) -->
<svg
   xmlns:dc="http://purl.org/dc/elements/1.1/"
   xmlns:cc="http://creativecommons.org/ns#"
   xmlns:rdf="http://www.w3.org/1999/02/22-rdf-syntax-ns#"
   xmlns:svg="http://www.w3.org/2000/svg"
   xmlns="http://www.w3.org/2000/svg"
   xmlns:sodipodi="http://sodipodi.sourceforge.net/DTD/sodipodi-0.dtd"
   xmlns:inkscape="http://www.inkscape.org/namespaces/inkscape"
   width="48px"
   height="48px"
   id="svg2383"
   sodipodi:version="0.32"
   inkscape:version="0.46"
   sodipodi:docname="quadrat_wasser.svg"
   inkscape:output_extension="org.inkscape.output.svg.inkscape"
   inkscape:export-filename="/home/stefan/workspace/FallingBlocks/res_original/quadrat_wasser.png"
   inkscape:export-xdpi="40.158451"
   inkscape:export-ydpi="40.158451">
  <defs
     id="defs2385">
    <filter
       inkscape:collect="always"
       id="filter3311"
       x="-0.15956281"
       width="1.3191256"
       y="-0.13120322"
       height="1.2624064">
      <feGaussianBlur
         inkscape:collect="always"
         stdDeviation="0.29712311"
         id="feGaussianBlur3313" />
    </filter>
  </defs>
  <sodipodi:namedview
     id="base"
     pagecolor="#ffffff"
     bordercolor="#666666"
     borderopacity="1.0"
     inkscape:pageopacity="0.0"
     inkscape:pageshadow="2"
     inkscape:zoom="9.8994949"
     inkscape:cx="65.810919"
     inkscape:cy="30.563547"
     inkscape:current-layer="layer1"
     showgrid="true"
     inkscape:grid-bbox="true"
     inkscape:document-units="px"
     inkscape:window-width="1440"
     inkscape:window-height="839"
     inkscape:window-x="0"
     inkscape:window-y="34" />
  <metadata
     id="metadata2388">
    <rdf:RDF>
      <cc:Work
         rdf:about="">
        <dc:format>image/svg+xml</dc:format>
        <dc:type
           rdf:resource="http://purl.org/dc/dcmitype/StillImage" />
      </cc:Work>
    </rdf:RDF>
  </metadata>
  <g
     id="layer1"
     inkscape:label="Layer 1"
     inkscape:groupmode="layer">
    <g
       id="g3177"
       transform="translate(-0.8571425,-0.7142858)">
      <path
         sodipodi:nodetypes="csssssssssssssssssssssssssssssssssssssssssssssssssssccssssssssssssssssssssc"
         id="path2395"
         d="M 2.5714286,1.8571428 C 2.8196532,2.4777043 3.9138442,1.5947249 4.5714286,1.7142857 C 5.5555586,1.8932184 6.2530868,2.2883596 7.2142857,2 C 8.3025798,1.6735118 9.3352687,2.1583605 10.428571,2.3571428 C 11.239123,2.5045158 11.729679,2.302525 12.5,2.0714285 C 13.354464,1.8150894 14.685313,2.5350414 15.5,2.7857143 C 15.94858,2.9237388 17.399472,2.0658727 17.857143,1.9285714 C 18.986579,1.5897406 20.792649,2.2955097 21.857143,2.4285714 C 23.193756,2.595648 23.108419,2.3925091 24.285714,2.0714285 C 25.276174,1.8013031 26.341895,2.5 27.428571,2.5 C 28.022587,2.5 27.856119,2.3705952 28.357143,2.1428571 C 28.922368,1.8859366 29.603424,2.1746485 30.214286,2.2857143 C 30.371429,2.3142857 30.268852,1.8571428 30.428571,1.8571428 C 30.997875,1.8571428 31.334349,2.8715866 31.357143,2.9285714 C 31.597806,3.5302281 31.944449,1.8730603 31.928571,1.7142857 C 31.831177,0.74034306 33.89735,2.1205299 34.857143,1.9285714 C 35.948113,1.7103775 36.404426,1.7713278 37.642857,2.1428571 C 38.218176,2.3154526 39.004237,1.9044088 39.571429,1.8571428 C 40.354594,1.791879 40.806052,1.6897819 41.642857,1.8571428 C 42.722105,2.0729924 42.479472,2.4955317 43.5,1.9285714 C 44.541959,1.3497052 44.973796,2.5242617 45.357143,3.2142857 C 45.806531,4.0231847 45.714286,4.400805 45.714286,5.3571428 C 45.714286,6.3048177 46.130537,7.0073396 46.214286,7.9285714 C 46.270731,8.549467 45.591916,9.6341818 45.357143,10.142857 C 45.101197,10.697406 45.516226,11.876543 45.571429,12.428571 C 45.671015,13.424435 45.80279,13.849687 46.714286,14.214286 C 47.449881,14.508524 46.756169,15.546753 46.642857,16 C 46.45085,16.76803 46.432691,17.557698 46.214286,18.285714 C 45.981165,19.062782 46.028925,19.500883 46.285714,20.142857 C 46.540373,20.779505 46.424914,21.536579 46.357143,22.214286 C 46.273956,23.04615 45.938082,23.825442 45.714286,24.571429 C 45.674337,24.704591 46.723372,26.271412 46.785714,26.5 C 46.980286,27.213431 46.338914,28.060762 46.142857,28.714286 C 45.916709,29.468113 46.309006,30.415371 46.571429,31.071429 C 46.828157,31.713249 46.849875,32.429822 46.785714,33.071429 C 46.73851,33.543476 45.902973,33.5 45.428571,33.5 C 44.63282,33.5 46.642913,34.614432 46.928571,35.357143 C 47.2543,36.204037 46.357143,36.537008 46.357143,37.357143 C 46.357143,38.240405 47.17676,39.66063 47.428571,40.5 C 47.670738,41.307222 47.439967,41.629834 46.928571,42.214286 C 46.561842,42.633405 48.303248,45.512179 48.357143,45.714286 C 48.529027,46.358853 47.153569,46.355105 46.714286,46.857143 C 45.936819,47.745676 43.19617,45.922533 42.142857,45.571429 C 41.35255,45.307993 40.343982,45.357143 39.5,45.357143 C 38.510399,45.357143 37.463605,45.896228 36.5,46.071429 C 35.086406,46.328446 33.566814,45.923284 32.071429,45.571429 C 31.339344,45.399173 30.342513,45.642857 29.571429,45.642857 C 28.815562,45.642857 27.994448,46.092423 27.285714,46.285714 C 26.543285,46.488195 26.114316,46.780932 25.571429,47.142857 C 24.568654,47.811374 22.207467,47.123295 21.142857,46.857143 C 20.048763,46.583619 18.98227,46.001658 17.928571,45.714286 C 16.994698,45.459593 16.473264,45.975171 15.785714,46.357143 C 15.068922,46.755361 11.551335,47.714286 13.214286,46.571429 C 9.03856,46.089136 10.258932,46.356622 10.357143,46.357143 C 9.8310447,45.896807 7.0975268,46.090275 7.2857143,46.285714 C 8.2558954,47.29328 5.7107694,45.741538 5,46 C 3.9312719,46.388628 3.7531291,45.668537 3.4285714,44.857143 C 3.2033532,44.294097 3.2857143,43.627739 3.2857143,43 C 3.2857143,42.193268 3.2963578,41.41036 3.1428571,40.642857 C 2.9865072,39.861107 2.7142857,39.429955 2.7142857,38.5 C 2.7142857,37.34069 2.4891676,37.769126 3.4285714,37.142857 C 4.5826795,36.373452 4.078275,35.229941 3.2857143,35.071429 C 2.5406346,34.922413 2.6428571,33.637091 2.6428571,33.071429 C 2.6428571,32.2776 2.55379,31.604957 2.6428571,30.714286 C 2.7167433,29.975424 2.6513509,29.400259 2.8571429,28.714286 C 3.257939,27.378299 3.3097681,27.000733 2.8571429,25.642857 C 2.5529177,24.730182 2.1133898,24.676804 2.2857143,23.642857 C 2.3911187,23.010431 3.2048518,22.090296 3.5,21.5 C 3.940815,20.61837 3.2142857,19.356331 3.2142857,18.428571 C 3.2142857,17.446088 3.5297309,16.367177 3.7857143,15.428571 C 3.9815562,14.710484 3.0542082,12.953281 2.8571429,12.214286 C 2.4682408,10.755903 1.5911403,9.7914372 2,8.4285714 C 2.2701141,7.528191 2.4758014,6.456272 2.5714286,5.5 C 2.6045766,5.1685199 1.7857143,4.5328856 1.7857143,3.8571428 C 1.7857143,2.9527696 2.4041228,2.0722502 2.5714286,1.8571428 z"
         style="opacity:1;fill:none;fill-opacity:1;fill-rule:evenodd;stroke:#000000;stroke-width:1;stroke-linecap:round;stroke-linejoin:round;marker:none;marker-start:none;marker-mid:none;marker-end:none;stroke-miterlimit:4;stroke-dasharray:none;stroke-dashoffset:0;stroke-opacity:1;visibility:visible;display:inline;overflow:visible;enable-background:accumulate" />
      <path
         sodipodi:nodetypes="cssssssssssssssssssssssssssssssssssssssssssssssssssssssssssssssssc"
         id="path2397"
         d="M 5.9285714,5.1428571 C 6.4613284,5.2276874 7.396502,5.1310494 8.0714286,4.9285714 C 8.8584022,4.6924793 9.8737439,4.7289573 10.642857,4.8571428 C 11.248419,4.9580698 11.903086,4.9457351 12.5,5 C 13.440531,5.0855028 14.627454,5.4445786 15.571429,5.7142857 C 16.296736,5.9215163 17.040959,5.4285714 17.785714,5.4285714 C 18.904762,5.4285714 20.02381,5.4285714 21.142857,5.4285714 C 21.746903,5.4285714 22.367321,4.8408215 23,4.7142857 C 24.147777,4.4847303 25.977038,5.1716827 27.071429,5.5 C 28.031543,5.7880344 29.151864,5.674068 29.928571,5.2857143 C 30.745458,4.877271 31.520114,5.0325943 32.428571,5.2142857 C 33.268694,5.3823102 34.221543,5.2438248 35.071429,5.3571428 C 35.440083,5.4062967 34.666596,4.7063022 34.357143,4.5 C 33.297501,3.7935719 36.78949,5.2876023 37.928571,5.8571428 C 39.025435,6.4055746 38.801533,7.05561 39.642857,6.2142857 C 40.183094,5.6740486 40.113165,5.5922968 41.214286,6.1428571 C 42.521656,6.796542 43.092582,7.0079686 42.642857,8.3571428 C 42.416085,9.0374579 42.428571,10.006941 42.428571,10.714286 C 42.428571,11.421153 42.178006,11.990167 42,12.642857 C 41.824813,13.285211 42,14.205651 42,14.928571 C 42,15.761905 42,16.595238 42,17.428571 C 42,18.371738 42.60149,19.650305 42.785714,20.571429 C 43.006309,21.674402 42.865948,22.350787 42.5,23.357143 C 42.23605,24.083006 42.360197,24.962171 42.428571,25.714286 C 42.510211,26.612315 42.398206,27.491031 42.571429,28.357143 C 42.709633,29.048166 41.549868,29.169839 41.642857,30.285714 C 41.693169,30.889456 42,31.635563 42,32.428571 C 42,33.271269 42.563469,34.256531 42.785714,35.071429 C 42.930346,35.601745 41.724656,35.36728 41.214286,35.571429 C 40.692552,35.780122 42.571429,36.009504 42.571429,36.571429 C 42.571429,37.229394 42.785714,37.767123 42.785714,38.5 C 42.785714,39.380147 42.390577,39.460486 42.928571,40.357143 C 43.428314,41.190047 43.001885,41.569005 42.5,42.214286 C 42.199768,42.600298 42.142857,43.195057 42.142857,43.5 C 42.142857,44.261905 40.619048,43.5 39.857143,43.5 C 39.125681,43.5 38.511696,42.966815 37.928571,42.642857 C 37.292438,42.28945 36.894757,43.42224 36.785714,43.785714 C 36.577112,44.481057 34.103998,43.663657 33.642857,43.571429 C 32.799728,43.402803 31.850948,43.644547 31.071429,43.857143 C 30.230462,44.086498 29.425207,43.856531 28.642857,43.714286 C 27.493127,43.505244 26.416331,42.823675 25.428571,42.428571 C 24.690868,42.13349 22.642554,43.1477 21.857143,43.357143 C 21.195011,43.533711 20.21628,42.785714 19.428571,42.785714 C 18.650158,42.785714 18.084142,43.015557 17.214286,42.928571 C 16.49204,42.856347 15.79507,42.591625 15.142857,42.428571 C 14.084929,42.164089 13.218375,42.427695 12.214286,42.642857 C 11.0267,42.89734 9.4967428,41.974019 8.5714286,41.357143 C 7.4887994,40.63539 7.6591716,40.338498 8.1428571,39.785714 C 8.6862088,39.164741 6.6533472,38.84156 6.3571429,38.071429 C 6.2341054,37.751531 6.5,36.170632 6.5,35.714286 C 6.5,35.050249 6.7142857,34.474125 6.7142857,33.785714 C 6.7142857,33.013173 6.0390042,32.70494 5.5,32.285714 C 4.9317002,31.843703 5.9847333,31.169937 6.1428571,30.642857 C 6.2461356,30.298596 6.1066464,29.252482 6.2142857,28.714286 C 6.4592274,27.489578 5.3774904,28.153243 5.7857143,26.928571 C 6.2526373,25.527802 7.1496587,24.19048 7.5714286,22.714286 C 7.6650811,22.386502 6.9693806,22.383671 6.6428571,22.285714 C 6.3132962,22.186846 7.0880416,20.235875 7.1428571,20.071429 C 7.3049327,19.585202 6.5714286,18.640577 6.5714286,18.214286 C 6.5714286,16.905757 5.7586787,16.689985 6.2857143,15.214286 C 6.8791601,13.552637 8.5249928,13.214286 6.7142857,13.214286 C 6.0667294,13.214286 6.8571429,12.598672 6.8571429,11.071429 C 6.8571429,10.547041 7.3193095,9.6772105 7.5,9.2857143 C 7.8818949,8.4582753 5.2142857,8.6970314 5.2142857,7.7857143 C 5.2142857,7.0779106 5.6859964,6.5664786 6.2142857,6.2142857 C 6.5577007,5.9853424 6.045421,5.3960311 5.9285714,5.1428571 z"
         style="opacity:1;fill:none;fill-opacity:1;fill-rule:evenodd;stroke:#000000;stroke-width:1;stroke-linecap:round;stroke-linejoin:round;marker:none;marker-start:none;marker-mid:none;marker-end:none;stroke-miterlimit:4;stroke-dasharray:none;stroke-dashoffset:0;stroke-opacity:1;visibility:visible;display:inline;overflow:visible;enable-background:accumulate" />
      <path
         id="path2399"
         d="M 2.4285714,1.7857143 C 2.5095862,2.4609671 2.690191,2.4427716 3.3571429,2.6428571 C 3.6064626,2.717653 4.1514704,3.6950366 4.5,4 C 4.9628594,4.405002 5.1304145,4.6366358 5.7142857,4.9285714 C 6.3364843,5.2396707 6.1284951,4.8567614 6.2857143,5.6428571"
         style="opacity:1;fill:none;fill-opacity:1;fill-rule:evenodd;stroke:#000000;stroke-width:1;stroke-linecap:round;stroke-linejoin:round;marker:none;marker-start:none;marker-mid:none;marker-end:none;stroke-miterlimit:4;stroke-dasharray:none;stroke-dashoffset:0;stroke-opacity:1;visibility:visible;display:inline;overflow:visible;enable-background:accumulate" />
      <path
         id="path2401"
         d="M 44.285714,2 C 44.317416,2.015851 43.806979,2.9624562 43.5,3.3571428 C 43.01941,3.975044 43.083492,5.2555546 42.785714,6 C 42.650997,6.3367931 42.621286,6.6029049 42.571429,6.7857143"
         style="opacity:1;fill:none;fill-opacity:1;fill-rule:evenodd;stroke:#000000;stroke-width:1;stroke-linecap:round;stroke-linejoin:round;marker:none;marker-start:none;marker-mid:none;marker-end:none;stroke-miterlimit:4;stroke-dasharray:none;stroke-dashoffset:0;stroke-opacity:1;visibility:visible;display:inline;overflow:visible;enable-background:accumulate" />
      <path
         id="path2403"
         d="M 42.142857,43.928571 C 41.955277,44.397523 43.159082,43.569153 43.642857,43.714286 C 44.241943,43.894011 44.779438,44.251535 45.428571,44.428571 C 45.919863,44.56256 46.468812,44.998546 46.857143,45.214286 C 47.518687,45.58181 47.930114,45.542799 48.285714,46"
         style="opacity:1;fill:none;fill-opacity:1;fill-rule:evenodd;stroke:#000000;stroke-width:1;stroke-linecap:round;stroke-linejoin:round;marker:none;marker-start:none;marker-mid:none;marker-end:none;stroke-miterlimit:4;stroke-dasharray:none;stroke-dashoffset:0;stroke-opacity:1;visibility:visible;display:inline;overflow:visible;enable-background:accumulate" />
      <path
         id="path2405"
         d="M 8.3571429,41.357143 C 8.9358116,41.678625 7.3365093,42.204232 6.7857143,42.571429 C 6.3480852,42.863181 6.3267929,43.978543 6.2142857,44.428571 C 6.1672544,44.616697 5.0649839,45.266917 4.8571429,45.428571 C 4.6379679,45.599041 4.3809524,45.714286 4.1428571,45.857143"
         style="opacity:1;fill:none;fill-opacity:1;fill-rule:evenodd;stroke:#000000;stroke-width:1;stroke-linecap:round;stroke-linejoin:round;marker:none;marker-start:none;marker-mid:none;marker-end:none;stroke-miterlimit:4;stroke-dasharray:none;stroke-dashoffset:0;stroke-opacity:1;visibility:visible;display:inline;overflow:visible;enable-background:accumulate" />
    </g>
    <path
       style="opacity:1;fill:#0000af;fill-opacity:1;fill-rule:nonzero;stroke:none;stroke-width:0.40799998999999998;stroke-linecap:round;stroke-linejoin:round;marker:none;marker-start:none;marker-mid:none;marker-end:none;stroke-miterlimit:4;stroke-dasharray:none;stroke-dashoffset:0;stroke-opacity:0.98983047000000002;visibility:visible;display:inline;overflow:visible;enable-background:accumulate"
       d="M 33.708271,42.516006 C 32.516663,42.215821 31.844391,42.207276 30.65149,42.477152 C 29.13991,42.819126 27.934764,42.621888 25.89009,41.697884 C 24.339068,40.996965 24.083,40.990725 22.259207,41.609403 C 21.5222,41.859416 20.827233,42.063972 20.714842,42.063972 C 20.602453,42.063972 20.173006,41.945547 19.760522,41.800806 C 19.045639,41.549954 18.946752,41.54078 17.646846,41.604742 C 16.377913,41.667181 16.212937,41.653382 15.272987,41.4062 C 13.863996,41.03567 13.159622,41.000784 11.896424,41.238963 C 10.950177,41.417381 10.788281,41.423241 10.302353,41.296673 C 10.004882,41.219193 9.5696894,41.059184 9.3352602,40.941102 C 8.7709365,40.656851 7.5453204,39.844932 7.5453204,39.75534 C 7.5453204,39.716413 7.6066084,39.594894 7.6815153,39.485306 C 7.7564211,39.375714 7.8458539,39.140044 7.8802527,38.96159 C 7.9638862,38.527713 7.6441841,38.152529 6.7781106,37.668192 C 6.4151597,37.465219 6.0922665,37.231562 6.0605659,37.148952 C 6.0007073,36.992965 6.1602286,35.103229 6.3454521,33.774065 C 6.4968043,32.687975 6.3765517,32.316749 5.6617597,31.663469 L 5.0944863,31.145015 L 5.2979341,30.922385 C 5.7122219,30.469041 5.7990909,30.12569 5.8686834,28.666505 L 5.9367464,27.239348 L 5.6722158,26.92497 C 5.4260679,26.632439 5.4163169,26.584204 5.5318874,26.230808 C 5.6001959,26.021925 5.8805799,25.373726 6.1549576,24.790363 C 6.8187339,23.379097 7.2422747,22.277153 7.2422747,21.961463 C 7.2422747,21.59698 6.9901436,21.282064 6.6360579,21.204294 C 6.4694494,21.167699 6.3331374,21.095063 6.3331374,21.042875 C 6.3331374,20.990692 6.4467795,20.62272 6.5856755,20.22517 C 6.9104133,19.295701 6.9036372,19.009116 6.5351679,18.088907 C 6.3684927,17.672653 6.2321221,17.221769 6.2321221,17.086936 C 6.2321221,16.952101 6.1412084,16.577541 6.0300916,16.254574 C 5.9189748,15.931607 5.8280611,15.546206 5.8280611,15.398125 C 5.8280611,14.893258 6.1383699,14.216935 6.6443098,13.61909 C 6.9221866,13.290739 7.1754147,12.919477 7.2070416,12.794065 C 7.2875295,12.474918 7.0069819,12.093374 6.6311364,12.010825 C 6.3582346,11.950887 6.3244763,11.908672 6.3782215,11.694532 C 6.4123364,11.558614 6.4818823,11.119011 6.5327718,10.717632 C 6.5836643,10.316253 6.764119,9.6616318 6.9337872,9.2629165 C 7.2858607,8.4355602 7.3013928,8.3069799 7.0885294,7.9821087 C 6.9172096,7.7206479 6.4678412,7.5025823 5.6026435,7.2610629 C 5.2842091,7.1721755 4.9980026,7.057907 4.9666273,7.0071408 C 4.8737346,6.8568362 5.1117145,6.4842798 5.5858669,6.0377328 C 5.9156413,5.7271523 6.0300916,5.5426924 6.0300916,5.3217488 L 6.0300916,5.0241306 L 7.2001826,4.7919975 C 8.1101634,4.6114681 8.5312071,4.5752976 9.0942186,4.6292872 C 9.4923884,4.6674689 10.340137,4.7422131 10.978104,4.7953856 C 11.700218,4.8555725 12.644094,5.0251902 13.478737,5.244764 C 14.923684,5.6248935 15.283031,5.6610641 15.829238,5.48137 C 16.023376,5.4175032 17.22731,5.334906 18.505476,5.2977667 L 20.828826,5.2302552 L 21.586441,4.8512137 C 22.603539,4.3423433 22.619686,4.3438282 25.930097,5.2505603 C 27.09985,5.5709625 28.008412,5.5402872 29.162585,5.1414335 C 29.718124,4.949451 30.054916,4.8915349 30.425276,4.9242911 C 30.703068,4.9488611 31.71439,5.0274721 32.672659,5.0989849 C 34.412932,5.2288562 34.41524,5.2287501 34.650799,5.007454 L 34.88663,4.7858992 L 35.938951,5.2517351 C 36.517728,5.5079502 37.180741,5.8723799 37.412329,6.0615825 C 37.983237,6.5280123 38.374115,6.5230464 39.004986,6.0413431 L 39.48202,5.6770982 L 39.912052,5.8413278 C 40.471475,6.054973 41.274991,6.5665305 41.347358,6.7551118 C 41.378612,6.8365432 41.335287,7.1889632 41.251101,7.5382629 C 41.166914,7.8875665 41.066687,8.7188362 41.028382,9.3855369 C 40.9844,10.150582 40.882173,10.839919 40.751206,11.254319 C 40.562823,11.850375 40.545661,12.134464 40.564965,14.335284 C 40.587491,16.902347 40.658505,17.639508 40.970733,18.546998 C 41.308861,19.529796 41.515266,20.638833 41.449434,21.119143 C 41.415483,21.366877 41.289921,21.891465 41.17042,22.284884 C 40.965935,22.958111 40.957338,23.125649 41.0242,25.132715 C 41.063273,26.305603 41.118912,27.363144 41.147833,27.482808 C 41.184734,27.635437 41.096709,27.81634 40.852939,28.088899 C 40.661818,28.302583 40.453434,28.57671 40.389855,28.698064 C 40.250241,28.964563 40.242968,29.841716 40.375773,30.39671 C 40.428948,30.618943 40.523225,31.207476 40.585269,31.70456 C 40.647312,32.201642 40.827069,32.958177 40.984723,33.385743 L 41.271354,34.163135 L 40.713992,34.232774 C 40.029968,34.318237 39.743832,34.562891 39.788481,35.024114 C 39.81633,35.311698 39.891455,35.381036 40.485173,35.667129 L 41.150651,35.987803 L 41.268667,36.831414 C 41.334549,37.302392 41.358268,38.011219 41.322347,38.436126 C 41.267617,39.083534 41.290163,39.269902 41.473243,39.683793 C 41.7495,40.308319 41.744257,40.435838 41.424978,40.857417 C 41.059717,41.339721 40.784198,41.958754 40.781561,42.303037 C 40.779632,42.553878 40.748934,42.584367 40.552055,42.530976 C 40.427048,42.497078 39.938387,42.397201 39.466141,42.309029 C 38.87607,42.198855 38.379934,42.024881 37.879908,41.75279 C 37.430168,41.508069 37.01843,41.356865 36.801742,41.356865 C 36.356245,41.356865 35.918778,41.714933 35.62642,42.318868 C 35.424925,42.735098 35.378084,42.770548 35.037713,42.764416 C 34.834322,42.760753 34.236076,42.648965 33.708271,42.516004 L 33.708271,42.516006 z"
       id="path3320" />
    <path
       style="opacity:1;fill:#0000ea;fill-opacity:1;fill-rule:nonzero;stroke:none;stroke-width:0.40799998999999998;stroke-linecap:round;stroke-linejoin:round;marker:none;marker-start:none;marker-mid:none;marker-end:none;stroke-miterlimit:4;stroke-dasharray:none;stroke-dashoffset:0;stroke-opacity:0.98983047000000002;visibility:visible;display:inline;overflow:visible;enable-background:accumulate"
       d="M 3.1646778,44.056989 C 3.0598461,43.764525 2.9969429,43.087873 2.9653191,41.912449 C 2.9276061,40.51067 2.8708628,40.000334 2.6564599,39.134529 C 2.512002,38.551166 2.3937455,37.884941 2.3936728,37.654031 C 2.3935536,37.267481 2.4324848,37.206214 2.8846776,36.881346 C 3.4071669,36.505972 3.807756,35.846548 3.807756,35.361828 C 3.807756,34.756506 3.3888589,34.166138 2.7483797,33.868809 C 2.4876624,33.747777 2.4349052,33.653258 2.3605014,33.173884 C 2.3131373,32.868724 2.300569,31.732637 2.3325727,30.649248 C 2.379272,29.068409 2.4333516,28.529851 2.6064513,27.921836 C 2.986303,26.587615 2.8448665,25.262922 2.1843267,23.968158 C 1.8279368,23.269578 1.9016729,22.976495 2.7724668,21.630386 C 3.3633697,20.716942 3.4182281,20.235106 3.1031514,18.725855 C 2.8550135,17.537252 2.8715537,17.211846 3.257931,15.680684 C 3.3936601,15.14281 3.5047103,14.564968 3.5047103,14.396589 C 3.5047103,14.024818 3.222014,13.147677 2.3943092,10.951273 C 1.4907429,8.5535601 1.5057032,8.6483498 1.8172615,7.2955171 C 1.961973,6.6671578 2.129336,5.8182226 2.1891805,5.4089906 C 2.284751,4.7554482 2.2761516,4.6246839 2.118482,4.3340822 C 1.4357441,3.0757271 1.4575856,3.1427659 1.5810131,2.68439 C 1.6821718,2.3087213 1.7253498,2.2618139 1.918996,2.3172369 C 2.0410982,2.3521852 2.2686644,2.5249576 2.4246935,2.7011767 C 2.5807257,2.8773958 2.9361095,3.2828508 3.2144409,3.6021873 C 3.4927753,3.9215218 3.9141362,4.2962773 4.1508038,4.4349732 C 4.3874715,4.5736702 4.6416097,4.8001969 4.7155569,4.9383676 C 4.8385955,5.1682652 4.8269706,5.2077076 4.5786004,5.4030751 C 4.2145818,5.689414 3.9104936,6.310672 3.8390354,6.9140229 C 3.7842286,7.3768021 3.8024679,7.4303786 4.1224054,7.7463199 C 4.3439298,7.9650776 4.6778034,8.1466858 5.0704467,8.2620028 C 6.1042853,8.5656345 6.0497239,8.4974704 5.7754705,9.1427801 C 5.6433194,9.4537333 5.4868063,10.067398 5.4276659,10.506486 C 5.3685225,10.945576 5.2601493,11.527298 5.1868294,11.799208 C 5.0192703,12.420622 5.0806048,12.755495 5.3876104,12.895376 C 5.6207323,13.001596 5.6226537,13.012137 5.4550936,13.265934 C 4.7417875,14.346355 4.5613924,15.365665 4.8972884,16.417807 C 5.0105214,16.772498 5.1299901,17.253104 5.1627736,17.485824 C 5.1955551,17.718548 5.3430545,18.187207 5.4905469,18.527296 L 5.7587182,19.145643 L 5.4747239,20.00029 C 5.0994623,21.129615 5.0846191,21.704624 5.4240001,21.965415 C 5.5628961,22.07215 5.7591505,22.160485 5.8601223,22.16172 C 6.0986628,22.164637 6.0589123,22.294978 5.3511317,23.830718 C 4.2312433,26.260652 4.101573,26.847146 4.5629855,27.395503 C 4.796859,27.673447 4.8116113,27.758249 4.7896708,28.698516 C 4.7665413,29.689738 4.7604177,29.712637 4.365037,30.286713 C 4.0632317,30.724926 3.96387,30.968179 3.96387,31.268867 C 3.963868,31.634669 4.0227912,31.721951 4.6589772,32.298587 L 5.3540834,32.928627 L 5.2436717,33.682973 C 5.1829494,34.097863 5.0757035,35.08954 5.0053504,35.886698 C 4.8343538,37.824225 4.8440149,37.843004 6.5129284,38.817877 C 6.616068,38.878125 6.6094757,38.971745 6.4803247,39.280848 C 6.2991649,39.71442 6.3449349,40.038708 6.6471978,40.463196 L 6.846808,40.743523 L 6.2499038,41.044842 C 5.3226091,41.51294 5.1657374,41.761907 4.8612421,43.248758 C 4.8323679,43.389767 4.5353598,43.662691 4.0664854,43.979084 L 3.3178341,44.484269 L 3.1646778,44.056989 z"
       id="path3322" />
    <path
       style="opacity:1;fill:#0000ea;fill-opacity:1;fill-rule:nonzero;stroke:none;stroke-width:0.40799998999999998;stroke-linecap:round;stroke-linejoin:round;marker:none;marker-start:none;marker-mid:none;marker-end:none;stroke-miterlimit:4;stroke-dasharray:none;stroke-dashoffset:0;stroke-opacity:0.98983047000000002;visibility:visible;display:inline;overflow:visible;enable-background:accumulate"
       d="M 21.434918,45.854596 C 20.879334,45.724868 19.970197,45.451047 19.414613,45.246106 C 16.594047,44.205674 16.460084,44.196086 15.000325,44.930147 C 14.483589,45.189993 13.812151,45.468156 13.508242,45.548282 C 12.992106,45.684359 12.94216,45.681369 12.750627,45.502914 C 12.588495,45.351855 12.228424,45.278616 11.030347,45.153019 C 10.196971,45.065655 9.1215483,44.94417 8.6405197,44.883051 C 7.9848459,44.79974 7.5802768,44.802009 7.0242757,44.892115 C 6.0672147,45.047215 5.643683,45.050358 5.2858658,44.905017 L 4.9962086,44.787364 L 5.449858,44.360059 C 5.8322411,43.999881 5.9143019,43.85341 5.9722291,43.427678 C 6.1088118,42.423877 6.1586861,42.354091 7.0730893,41.887295 L 7.9138746,41.458083 L 8.4763518,41.762732 C 9.7740968,42.465619 10.811328,42.620207 12.192022,42.31651 C 13.146995,42.106454 13.553057,42.129723 14.938571,42.473898 C 16.117455,42.766746 16.251021,42.779377 17.506945,42.716818 C 18.766024,42.654104 18.867829,42.663836 19.558524,42.912983 C 19.958245,43.057168 20.477258,43.17514 20.711893,43.17514 C 20.955893,43.17514 21.699199,42.980722 22.448386,42.720946 C 23.16882,42.471138 23.903574,42.266583 24.08117,42.266377 C 24.258768,42.26617 24.963346,42.51353 25.646907,42.816065 C 26.947647,43.391757 28.488217,43.783635 29.43099,43.778638 C 29.700054,43.777215 30.306583,43.687465 30.778829,43.579201 C 31.911824,43.319458 32.380226,43.327745 33.626074,43.629578 C 35.418793,44.0639 36.168185,43.940993 36.479544,43.161577 C 36.766064,42.44435 36.780731,42.439419 37.481949,42.824853 C 37.946942,43.080447 38.448341,43.236822 39.419078,43.428995 C 40.139448,43.571599 40.873657,43.740002 41.050656,43.803216 C 41.312225,43.896628 41.486779,43.883548 41.982815,43.733359 L 42.593149,43.548565 L 43.479265,43.881809 C 43.966623,44.065093 44.778806,44.445757 45.284104,44.727729 L 46.202818,45.240403 L 45.738663,45.535773 C 45.302085,45.813597 45.244516,45.824818 44.769442,45.724691 C 44.49165,45.666144 43.622636,45.319903 42.838313,44.955271 C 41.149257,44.170038 40.47193,44.029307 38.809542,44.118218 C 37.95269,44.164047 37.46717,44.251814 36.688221,44.501691 C 35.323334,44.93953 34.209602,44.950566 32.344565,44.54473 C 31.133998,44.281309 30.92277,44.263845 29.64183,44.321286 C 28.354142,44.379032 28.150528,44.416948 26.86391,44.838605 C 26.041208,45.108225 25.208005,45.458799 24.818929,45.699041 C 24.183371,46.091476 24.134814,46.104244 23.3037,46.097469 C 22.783562,46.093232 22.046844,45.997483 21.434918,45.854597 L 21.434918,45.854596 z"
       id="path3324" />
    <path
       style="opacity:1;fill:#00007f;fill-opacity:1;fill-rule:nonzero;stroke:none;stroke-width:0.40799998999999998;stroke-linecap:round;stroke-linejoin:round;marker:none;marker-start:none;marker-mid:none;marker-end:none;stroke-miterlimit:4;stroke-dasharray:none;stroke-dashoffset:0;stroke-opacity:0.98983047000000002;visibility:visible;display:inline;overflow:visible;enable-background:accumulate"
       d="M 45.830102,43.732388 C 45.635647,43.600815 44.892933,43.257113 44.179624,42.968609 C 43.065981,42.518183 42.812604,42.450789 42.386603,42.491723 C 41.746641,42.553217 41.74153,42.432847 42.345076,41.513927 C 42.72755,40.931608 42.799644,40.743462 42.799644,40.32771 C 42.799644,40.023598 42.717286,39.672153 42.585472,39.413776 C 42.402927,39.055962 42.380774,38.888731 42.435444,38.281379 C 42.50573,37.500466 42.281567,35.574226 42.094103,35.348348 C 42.008664,35.245395 42.04305,35.152589 42.239383,34.956257 C 42.380855,34.814788 42.496598,34.607916 42.496598,34.496539 C 42.496598,34.385164 42.337439,33.848979 42.142924,33.305019 C 41.948399,32.761061 41.742813,31.952345 41.686072,31.507878 C 41.629332,31.06341 41.53956,30.517928 41.486577,30.295695 C 41.305992,29.538196 41.358227,29.20235 41.723327,28.773395 C 42.293538,28.103477 42.298649,28.079245 42.190189,26.561561 C 42.017867,24.150313 42.04499,23.217673 42.31073,22.416505 C 42.676507,21.313739 42.624575,20.138956 42.141035,18.577925 C 41.767349,17.371517 41.765187,17.354192 41.686789,14.941376 C 41.61122,12.615469 41.645474,12.040517 41.898113,11.393865 C 41.960662,11.233779 42.047192,10.507472 42.090416,9.779853 C 42.133641,9.0522371 42.251162,8.1084303 42.351571,7.6825126 C 42.507357,7.0217042 42.515902,6.8369432 42.409786,6.422907 C 42.321953,6.0802067 42.315609,5.8583327 42.388169,5.6674694 C 42.444677,5.5188447 42.583391,4.9359372 42.696417,4.3721256 C 42.884638,3.4331989 43.327358,2.3867546 43.610362,2.2118497 C 43.660527,2.180839 43.82402,2.3957995 43.973644,2.6895377 C 44.200797,3.135418 44.258092,3.4154303 44.320712,4.3852818 C 44.361966,5.0242033 44.496973,5.9670191 44.620737,6.4804281 L 44.845769,7.4138959 L 44.364825,8.4166562 C 43.887871,9.4111119 43.884356,9.4259642 43.940521,10.210597 C 44.016878,11.277424 44.278356,12.629146 44.492882,13.066009 C 44.644577,13.374918 44.978281,13.671709 45.517702,13.977481 C 45.638153,14.045748 45.633132,14.124928 45.484902,14.495383 C 45.247729,15.088167 44.7006,17.849467 44.694771,18.483159 C 44.692195,18.764384 44.770957,19.238014 44.869821,19.535663 C 45.108035,20.252836 45.027606,21.396923 44.653102,22.618535 C 44.261577,23.895671 44.279104,24.073849 44.899953,25.128158 C 45.189301,25.619518 45.426041,26.062189 45.426041,26.111874 C 45.426041,26.16156 45.266942,26.586554 45.072487,27.056306 C 44.60809,28.178158 44.597584,28.83815 45.024041,30.099762 C 45.400625,31.213852 45.517187,32.044792 45.314853,32.172902 C 45.237112,32.222122 44.96627,32.263095 44.712984,32.263945 C 44.118611,32.265943 43.877144,32.443636 43.877144,32.87907 C 43.877144,33.171011 43.983038,33.317072 44.638172,33.928775 C 45.657699,34.880687 45.672427,34.915352 45.324399,35.542898 C 44.797494,36.492975 44.826899,36.880357 45.570008,38.778702 C 46.184756,40.349135 46.183372,40.337269 45.816485,40.891162 C 45.393706,41.529449 45.41202,41.93446 45.915268,43.074873 C 46.135744,43.574489 46.286317,43.980641 46.249891,43.977438 C 46.213475,43.974239 46.024556,43.863964 45.830102,43.732389 L 45.830102,43.732388 z"
       id="path3326" />
    <path
       style="opacity:1;fill:#00007f;fill-opacity:1;fill-rule:nonzero;stroke:none;stroke-width:0.40799998999999998;stroke-linecap:round;stroke-linejoin:round;marker:none;marker-start:none;marker-mid:none;marker-end:none;stroke-miterlimit:4;stroke-dasharray:none;stroke-dashoffset:0;stroke-opacity:0.98983047000000002;visibility:visible;display:inline;overflow:visible;enable-background:accumulate"
       d="M 37.849897,4.9919097 C 37.282888,4.5380694 33.854097,3.0720835 33.359627,3.0720835 C 32.994866,3.0720835 32.773881,3.3481531 32.820309,3.7458411 L 32.859765,4.0838392 L 32.349627,4.0245058 C 32.069052,3.9918718 31.592492,3.9233259 31.290607,3.8721809 C 30.358783,3.7143132 29.784656,3.7644673 28.768972,4.0924638 C 27.596034,4.4712407 27.015435,4.4521812 25.485888,3.9846866 C 24.082178,3.5556536 22.878598,3.3451722 22.291063,3.4259783 C 22.0233,3.4628044 21.516573,3.6355436 21.165001,3.8098423 L 20.525781,4.1267474 L 18.353953,4.1880637 C 17.110402,4.2231715 15.942074,4.3072011 15.620496,4.3846616 C 15.08689,4.5131934 15.001198,4.5042141 13.903237,4.2047049 C 12.66021,3.865626 11.924096,3.7536031 9.7171484,3.5676684 C 8.4027197,3.4569284 8.2238752,3.463751 7.1824585,3.6643642 C 6.5661978,3.7830763 5.9397052,3.8802055 5.7902541,3.8802055 C 5.1425049,3.8802055 4.3640652,3.3151191 3.5443789,2.2498759 C 3.1363117,1.71956 3.1160621,1.6665926 3.2991755,1.6084745 C 3.4089528,1.5736313 3.9845711,1.6446167 4.5783236,1.7662189 C 5.5459891,1.9643987 5.7271792,1.9742366 6.3265724,1.8611389 C 7.1034474,1.7145526 7.4877387,1.7432329 9.0316195,2.0630128 L 10.164362,2.2976339 L 11.056803,2.0787692 C 11.547644,1.9583903 12.031098,1.8599004 12.131144,1.8599004 C 12.231192,1.8599004 12.861127,2.0437805 13.531002,2.2685223 C 14.935753,2.7398181 14.892945,2.7424525 16.418542,2.0907748 C 17.629147,1.5736485 17.662135,1.5730212 19.768166,2.0269494 C 21.286531,2.3542146 22.131897,2.3612533 23.082361,2.0545477 L 23.82067,1.8163043 L 24.648096,1.9952912 C 26.605123,2.4186259 26.732576,2.4241706 27.419584,2.11586 C 28.00186,1.8545497 28.07264,1.8448411 28.55383,1.9602763 C 28.836099,2.0279908 29.228435,2.0645533 29.425689,2.0415259 C 29.753809,2.0032189 29.800496,2.0313355 29.974232,2.3718882 C 30.4085,3.2231235 31.129701,2.9836527 31.445494,1.8833633 C 31.536898,1.5648874 31.621173,1.2930523 31.632767,1.279285 C 31.644364,1.2655176 32.036545,1.3706997 32.504284,1.5130221 C 33.267424,1.7452289 33.458819,1.7650936 34.368874,1.7065573 C 35.138536,1.6570507 35.531698,1.6798478 35.999701,1.8011207 C 36.767791,2.0001531 37.53279,2.0029613 38.253958,1.8093928 C 39.101557,1.5818873 40.552257,1.6110524 41.204916,1.8687191 C 41.541206,2.0014854 41.860778,2.0599147 42.06788,2.0264968 L 42.396765,1.9734254 L 42.138257,2.4145409 C 41.980986,2.682899 41.783582,3.3194002 41.634201,4.0397531 C 41.499164,4.6910055 41.37239,5.2401183 41.3525,5.2600052 C 41.33261,5.2798941 41.047787,5.159293 40.719538,4.9920077 C 39.551792,4.3968753 39.131114,4.3960773 38.506496,4.9878065 L 38.20345,5.2748928 L 37.849897,4.9919097 z"
       id="path3328" />
    <g
       id="g3315"
       transform="matrix(1.2700381,0,0,1.1442277,-78.81359,1.6915771)">
      <path
         sodipodi:nodetypes="cccccccccccccccccccccccccccccccccccccccccccccccccc"
         id="path2491"
         d="M 83.830034,12.656925 C 83.883434,12.970433 84.195619,13.215761 84.249021,13.529268 C 84.400053,13.71759 84.499329,13.974091 84.650363,14.162412 C 85.271279,15.161358 84.933072,14.54387 85.126092,14.791258 C 85.381018,15.103466 85.532428,15.529306 85.787354,15.841515 C 85.978739,16.059639 86.170126,16.277764 86.361513,16.495888 C 86.622123,16.795282 86.882735,17.094677 87.143346,17.394071 C 87.429619,17.735345 87.715893,18.07662 88.002166,18.417894 C 88.292867,18.944026 88.583568,19.470158 88.874269,19.99629 C 89.098915,20.425609 89.323559,20.854928 89.548205,21.284247 C 89.614259,21.706555 89.680315,22.128862 89.74637,22.55117 C 89.786762,23.062887 89.827155,23.574603 89.867547,24.08632 C 89.917608,24.578946 89.967669,25.071574 90.01773,25.5642 C 89.944534,25.945991 89.87134,26.327783 89.798144,26.709573 C 89.586962,27.072275 89.375782,27.434977 89.164601,27.797679 C 88.890526,28.111488 88.616451,28.425297 88.342376,28.739107 C 88.015709,29.036163 87.689044,29.33322 87.362378,29.630276 C 86.836729,29.91662 86.311082,30.202962 85.785434,30.489306 C 85.259785,30.718381 84.734137,30.947455 84.208488,31.176531 C 83.707871,31.348336 83.207254,31.520143 82.706637,31.691949 C 82.080865,31.730128 81.455093,31.768307 80.829321,31.806487 C 80.278642,31.730128 79.727964,31.65377 79.177285,31.577412 C 78.727995,31.497352 78.278703,31.417292 77.829413,31.337232 C 77.377592,31.134258 76.925771,30.931286 76.473951,30.728312 C 75.948302,30.438658 75.422654,30.149005 74.897005,29.859351 C 74.596634,29.47756 74.296265,29.095769 73.995894,28.713977 C 73.695523,28.217649 73.395153,27.721321 73.094782,27.224992 C 72.894536,26.652306 72.694289,26.079618 72.494043,25.506932 C 72.368889,24.876976 72.243733,24.247021 72.118579,23.617065 C 72.16864,23.063468 72.218703,22.509872 72.268764,21.956274 C 72.519072,21.383588 72.769382,20.8109 73.01969,20.238214 C 73.269999,19.627348 73.520308,19.016481 73.770617,18.405615 C 74.070987,18.023825 74.241965,17.505673 74.542334,17.123883 C 74.805658,16.723907 75.068981,16.39211 75.332303,15.992133 C 75.643595,15.431732 75.747859,15.234955 76.110908,14.924546 C 76.295781,14.619113 76.713558,14.290954 76.898429,13.985521 C 77.149801,13.715065 77.29766,13.399155 77.549032,13.128699 C 77.760193,12.724483 78.074869,12.456627 78.286031,12.05241 C 78.509451,11.727586 78.784628,11.357309 79.008046,11.032485 C 79.118277,10.799407 79.228507,10.543603 79.338737,10.310525 C 79.724642,10.10578 79.669454,9.4953298 79.953385,9.2106038 C 80.06634,8.8432278 80.360444,8.5894848 80.473401,8.2221088 C 80.59982,7.8952488 80.777996,7.7047488 80.904415,7.3778888 C 81.358211,6.7462088 82.433092,5.8190828 82.886888,5.1874028 C 83.553797,4.3937798 82.305693,6.0091768 82.48091,6.2382528 C 82.348975,6.9800318 82.061767,7.5854518 82.395645,8.3954128 C 82.411202,8.7350858 82.426759,9.0747608 82.442316,9.4144338 C 82.551913,9.7428948 82.66151,10.071356 82.771107,10.399817 C 82.947172,10.747367 83.123236,11.094917 83.299301,11.442467 C 83.476211,11.847287 83.653122,12.252107 83.830034,12.656925 z"
         style="opacity:1;fill:none;fill-opacity:1;fill-rule:evenodd;stroke:#000000;stroke-width:1.17881274;stroke-linecap:round;stroke-linejoin:round;marker:none;marker-start:none;marker-mid:none;marker-end:none;stroke-miterlimit:4;stroke-dasharray:none;stroke-dashoffset:0;stroke-opacity:1;visibility:visible;display:inline;overflow:visible;enable-background:accumulate" />
      <path
         id="path3263"
         d="M 80.276304,31.093896 C 80.137408,31.068489 79.569197,30.976427 79.013613,30.889312 C 78.151337,30.754105 77.820431,30.640437 76.753124,30.112821 C 75.359639,29.423949 75.015136,29.106645 74.155012,27.719806 C 73.309898,26.357151 72.727434,24.215153 72.839389,22.881565 C 72.891513,22.260669 73.022994,21.851066 73.617631,20.457199 C 74.011166,19.534713 74.450279,18.5754 74.593428,18.325387 C 75.155184,17.344303 76.230148,15.803778 77.009278,14.863247 C 77.86513,13.830096 79.385773,11.693886 79.758045,11.001781 C 79.877576,10.779547 80.018735,10.529535 80.071728,10.446197 C 80.12471,10.362859 80.253808,10.112847 80.358591,9.8906132 C 80.463364,9.6683796 80.767935,9.0547119 81.035403,8.5269072 L 81.521711,7.5672623 L 81.654667,8.0723386 C 81.727802,8.3501305 81.788512,8.7853729 81.789583,9.0395445 C 81.791553,9.5061754 82.180795,10.809615 82.433656,11.196329 C 82.509003,11.311564 82.7176,11.746768 82.897205,12.163456 C 83.709135,14.047142 84.727147,15.6102 86.405849,17.550664 C 87.212657,18.483278 87.604475,19.048989 88.18995,20.126553 C 89.012921,21.641255 89.021841,21.676456 89.270863,24.390755 C 89.441892,26.254867 89.194678,26.898639 87.758352,28.329554 C 86.984727,29.100261 86.758695,29.257582 85.630112,29.810839 C 83.709701,30.752263 82.805362,31.037628 81.56545,31.09343 C 80.99533,31.119092 80.4152,31.119298 80.276304,31.093894 L 80.276304,31.093896 z"
         style="opacity:1;fill:#00bcff;fill-opacity:1;fill-rule:nonzero;stroke:none;stroke-width:0.40799999;stroke-linecap:round;stroke-linejoin:round;marker:none;marker-start:none;marker-mid:none;marker-end:none;stroke-miterlimit:4;stroke-dasharray:none;stroke-dashoffset:0;stroke-opacity:0.98983047;visibility:visible;display:inline;overflow:visible;enable-background:accumulate" />
      <path
         id="path3265"
         d="M 83.640631,19.008622 C 83.747372,18.787729 84.518688,18.705576 85.256875,18.705576 C 85.526249,18.705576 85.795623,18.705576 86.064997,18.705576 C 86.272254,18.705576 87.644385,20.486994 87.883272,20.725881 C 88.042295,20.884904 88.02797,22.15648 88.085302,22.443141 C 88.208693,23.060093 87.836591,23.496913 87.580226,23.958369 C 87.263287,24.52886 85.806316,23.590179 85.559921,23.453293 C 85.021552,23.154199 85.201296,22.134812 85.15586,21.635018 C 85.09094,20.920898 84.084093,19.970294 83.741646,19.513698 C 83.638631,19.376344 83.674303,19.176981 83.640631,19.008622 z"
         style="opacity:1;fill:#ffffff;fill-opacity:1;fill-rule:evenodd;stroke:none;stroke-width:0.1;stroke-linecap:butt;stroke-linejoin:miter;marker:none;marker-start:none;marker-mid:none;marker-end:none;stroke-miterlimit:4;stroke-dasharray:none;stroke-dashoffset:0;stroke-opacity:1;visibility:visible;display:inline;overflow:visible;filter:url(#filter3311);enable-background:accumulate" />
    </g>
  </g>
</svg>
