<?xml version="1.0" encoding="UTF-8" standalone="no"?>
<!-- Created with Inkscape (http://www.inkscape.org/) -->
<svg
   xmlns:dc="http://purl.org/dc/elements/1.1/"
   xmlns:cc="http://creativecommons.org/ns#"
   xmlns:rdf="http://www.w3.org/1999/02/22-rdf-syntax-ns#"
   xmlns:svg="http://www.w3.org/2000/svg"
   xmlns="http://www.w3.org/2000/svg"
   xmlns:sodipodi="http://sodipodi.sourceforge.net/DTD/sodipodi-0.dtd"
   xmlns:inkscape="http://www.inkscape.org/namespaces/inkscape"
   width="48px"
   height="48px"
   id="svg2383"
   sodipodi:version="0.32"
   inkscape:version="0.46"
   sodipodi:docname="quadrat_blume.svg"
   inkscape:output_extension="org.inkscape.output.svg.inkscape"
   inkscape:export-filename="/home/stefan/workspace/FallingBlocks/res_original/quadrat_blume.png"
   inkscape:export-xdpi="40.158451"
   inkscape:export-ydpi="40.158451">
  <defs
     id="defs2385">
    <inkscape:perspective
       sodipodi:type="inkscape:persp3d"
       inkscape:vp_x="0 : 24 : 1"
       inkscape:vp_y="0 : 1000 : 0"
       inkscape:vp_z="48 : 24 : 1"
       inkscape:persp3d-origin="24 : 16 : 1"
       id="perspective2391" />
  </defs>
  <sodipodi:namedview
     id="base"
     pagecolor="#ffffff"
     bordercolor="#666666"
     borderopacity="1.0"
     inkscape:pageopacity="0.0"
     inkscape:pageshadow="2"
     inkscape:zoom="4.9497475"
     inkscape:cx="31.989546"
     inkscape:cy="21.645187"
     inkscape:current-layer="layer1"
     showgrid="true"
     inkscape:grid-bbox="true"
     inkscape:document-units="px"
     inkscape:window-width="1440"
     inkscape:window-height="839"
     inkscape:window-x="0"
     inkscape:window-y="34" />
  <metadata
     id="metadata2388">
    <rdf:RDF>
      <cc:Work
         rdf:about="">
        <dc:format>image/svg+xml</dc:format>
        <dc:type
           rdf:resource="http://purl.org/dc/dcmitype/StillImage" />
      </cc:Work>
    </rdf:RDF>
  </metadata>
  <g
     id="layer1"
     inkscape:label="Layer 1"
     inkscape:groupmode="layer">
    <g
       id="g3177"
       transform="translate(-0.8571425,-0.7142858)">
      <path
         sodipodi:nodetypes="csssssssssssssssssssssssssssssssssssssssssssssssssssccssssssssssssssssssssc"
         id="path2395"
         d="M 2.5714286,1.8571428 C 2.8196532,2.4777043 3.9138442,1.5947249 4.5714286,1.7142857 C 5.5555586,1.8932184 6.2530868,2.2883596 7.2142857,2 C 8.3025798,1.6735118 9.3352687,2.1583605 10.428571,2.3571428 C 11.239123,2.5045158 11.729679,2.302525 12.5,2.0714285 C 13.354464,1.8150894 14.685313,2.5350414 15.5,2.7857143 C 15.94858,2.9237388 17.399472,2.0658727 17.857143,1.9285714 C 18.986579,1.5897406 20.792649,2.2955097 21.857143,2.4285714 C 23.193756,2.595648 23.108419,2.3925091 24.285714,2.0714285 C 25.276174,1.8013031 26.341895,2.5 27.428571,2.5 C 28.022587,2.5 27.856119,2.3705952 28.357143,2.1428571 C 28.922368,1.8859366 29.603424,2.1746485 30.214286,2.2857143 C 30.371429,2.3142857 30.268852,1.8571428 30.428571,1.8571428 C 30.997875,1.8571428 31.334349,2.8715866 31.357143,2.9285714 C 31.597806,3.5302281 31.944449,1.8730603 31.928571,1.7142857 C 31.831177,0.74034306 33.89735,2.1205299 34.857143,1.9285714 C 35.948113,1.7103775 36.404426,1.7713278 37.642857,2.1428571 C 38.218176,2.3154526 39.004237,1.9044088 39.571429,1.8571428 C 40.354594,1.791879 40.806052,1.6897819 41.642857,1.8571428 C 42.722105,2.0729924 42.479472,2.4955317 43.5,1.9285714 C 44.541959,1.3497052 44.973796,2.5242617 45.357143,3.2142857 C 45.806531,4.0231847 45.714286,4.400805 45.714286,5.3571428 C 45.714286,6.3048177 46.130537,7.0073396 46.214286,7.9285714 C 46.270731,8.549467 45.591916,9.6341818 45.357143,10.142857 C 45.101197,10.697406 45.516226,11.876543 45.571429,12.428571 C 45.671015,13.424435 45.80279,13.849687 46.714286,14.214286 C 47.449881,14.508524 46.756169,15.546753 46.642857,16 C 46.45085,16.76803 46.432691,17.557698 46.214286,18.285714 C 45.981165,19.062782 46.028925,19.500883 46.285714,20.142857 C 46.540373,20.779505 46.424914,21.536579 46.357143,22.214286 C 46.273956,23.04615 45.938082,23.825442 45.714286,24.571429 C 45.674337,24.704591 46.723372,26.271412 46.785714,26.5 C 46.980286,27.213431 46.338914,28.060762 46.142857,28.714286 C 45.916709,29.468113 46.309006,30.415371 46.571429,31.071429 C 46.828157,31.713249 46.849875,32.429822 46.785714,33.071429 C 46.73851,33.543476 45.902973,33.5 45.428571,33.5 C 44.63282,33.5 46.642913,34.614432 46.928571,35.357143 C 47.2543,36.204037 46.357143,36.537008 46.357143,37.357143 C 46.357143,38.240405 47.17676,39.66063 47.428571,40.5 C 47.670738,41.307222 47.439967,41.629834 46.928571,42.214286 C 46.561842,42.633405 48.303248,45.512179 48.357143,45.714286 C 48.529027,46.358853 47.153569,46.355105 46.714286,46.857143 C 45.936819,47.745676 43.19617,45.922533 42.142857,45.571429 C 41.35255,45.307993 40.343982,45.357143 39.5,45.357143 C 38.510399,45.357143 37.463605,45.896228 36.5,46.071429 C 35.086406,46.328446 33.566814,45.923284 32.071429,45.571429 C 31.339344,45.399173 30.342513,45.642857 29.571429,45.642857 C 28.815562,45.642857 27.994448,46.092423 27.285714,46.285714 C 26.543285,46.488195 26.114316,46.780932 25.571429,47.142857 C 24.568654,47.811374 22.207467,47.123295 21.142857,46.857143 C 20.048763,46.583619 18.98227,46.001658 17.928571,45.714286 C 16.994698,45.459593 16.473264,45.975171 15.785714,46.357143 C 15.068922,46.755361 11.551335,47.714286 13.214286,46.571429 C 9.03856,46.089136 10.258932,46.356622 10.357143,46.357143 C 9.8310447,45.896807 7.0975268,46.090275 7.2857143,46.285714 C 8.2558954,47.29328 5.7107694,45.741538 5,46 C 3.9312719,46.388628 3.7531291,45.668537 3.4285714,44.857143 C 3.2033532,44.294097 3.2857143,43.627739 3.2857143,43 C 3.2857143,42.193268 3.2963578,41.41036 3.1428571,40.642857 C 2.9865072,39.861107 2.7142857,39.429955 2.7142857,38.5 C 2.7142857,37.34069 2.4891676,37.769126 3.4285714,37.142857 C 4.5826795,36.373452 4.078275,35.229941 3.2857143,35.071429 C 2.5406346,34.922413 2.6428571,33.637091 2.6428571,33.071429 C 2.6428571,32.2776 2.55379,31.604957 2.6428571,30.714286 C 2.7167433,29.975424 2.6513509,29.400259 2.8571429,28.714286 C 3.257939,27.378299 3.3097681,27.000733 2.8571429,25.642857 C 2.5529177,24.730182 2.1133898,24.676804 2.2857143,23.642857 C 2.3911187,23.010431 3.2048518,22.090296 3.5,21.5 C 3.940815,20.61837 3.2142857,19.356331 3.2142857,18.428571 C 3.2142857,17.446088 3.5297309,16.367177 3.7857143,15.428571 C 3.9815562,14.710484 3.0542082,12.953281 2.8571429,12.214286 C 2.4682408,10.755903 1.5911403,9.7914372 2,8.4285714 C 2.2701141,7.528191 2.4758014,6.456272 2.5714286,5.5 C 2.6045766,5.1685199 1.7857143,4.5328856 1.7857143,3.8571428 C 1.7857143,2.9527696 2.4041228,2.0722502 2.5714286,1.8571428 z"
         style="opacity:1;fill:none;fill-opacity:1;fill-rule:evenodd;stroke:#000000;stroke-width:1;stroke-linecap:round;stroke-linejoin:round;marker:none;marker-start:none;marker-mid:none;marker-end:none;stroke-miterlimit:4;stroke-dasharray:none;stroke-dashoffset:0;stroke-opacity:1;visibility:visible;display:inline;overflow:visible;enable-background:accumulate" />
      <path
         sodipodi:nodetypes="cssssssssssssssssssssssssssssssssssssssssssssssssssssssssssssssssc"
         id="path2397"
         d="M 5.9285714,5.1428571 C 6.4613284,5.2276874 7.396502,5.1310494 8.0714286,4.9285714 C 8.8584022,4.6924793 9.8737439,4.7289573 10.642857,4.8571428 C 11.248419,4.9580698 11.903086,4.9457351 12.5,5 C 13.440531,5.0855028 14.627454,5.4445786 15.571429,5.7142857 C 16.296736,5.9215163 17.040959,5.4285714 17.785714,5.4285714 C 18.904762,5.4285714 20.02381,5.4285714 21.142857,5.4285714 C 21.746903,5.4285714 22.367321,4.8408215 23,4.7142857 C 24.147777,4.4847303 25.977038,5.1716827 27.071429,5.5 C 28.031543,5.7880344 29.151864,5.674068 29.928571,5.2857143 C 30.745458,4.877271 31.520114,5.0325943 32.428571,5.2142857 C 33.268694,5.3823102 34.221543,5.2438248 35.071429,5.3571428 C 35.440083,5.4062967 34.666596,4.7063022 34.357143,4.5 C 33.297501,3.7935719 36.78949,5.2876023 37.928571,5.8571428 C 39.025435,6.4055746 38.801533,7.05561 39.642857,6.2142857 C 40.183094,5.6740486 40.113165,5.5922968 41.214286,6.1428571 C 42.521656,6.796542 43.092582,7.0079686 42.642857,8.3571428 C 42.416085,9.0374579 42.428571,10.006941 42.428571,10.714286 C 42.428571,11.421153 42.178006,11.990167 42,12.642857 C 41.824813,13.285211 42,14.205651 42,14.928571 C 42,15.761905 42,16.595238 42,17.428571 C 42,18.371738 42.60149,19.650305 42.785714,20.571429 C 43.006309,21.674402 42.865948,22.350787 42.5,23.357143 C 42.23605,24.083006 42.360197,24.962171 42.428571,25.714286 C 42.510211,26.612315 42.398206,27.491031 42.571429,28.357143 C 42.709633,29.048166 41.549868,29.169839 41.642857,30.285714 C 41.693169,30.889456 42,31.635563 42,32.428571 C 42,33.271269 42.563469,34.256531 42.785714,35.071429 C 42.930346,35.601745 41.724656,35.36728 41.214286,35.571429 C 40.692552,35.780122 42.571429,36.009504 42.571429,36.571429 C 42.571429,37.229394 42.785714,37.767123 42.785714,38.5 C 42.785714,39.380147 42.390577,39.460486 42.928571,40.357143 C 43.428314,41.190047 43.001885,41.569005 42.5,42.214286 C 42.199768,42.600298 42.142857,43.195057 42.142857,43.5 C 42.142857,44.261905 40.619048,43.5 39.857143,43.5 C 39.125681,43.5 38.511696,42.966815 37.928571,42.642857 C 37.292438,42.28945 36.894757,43.42224 36.785714,43.785714 C 36.577112,44.481057 34.103998,43.663657 33.642857,43.571429 C 32.799728,43.402803 31.850948,43.644547 31.071429,43.857143 C 30.230462,44.086498 29.425207,43.856531 28.642857,43.714286 C 27.493127,43.505244 26.416331,42.823675 25.428571,42.428571 C 24.690868,42.13349 22.642554,43.1477 21.857143,43.357143 C 21.195011,43.533711 20.21628,42.785714 19.428571,42.785714 C 18.650158,42.785714 18.084142,43.015557 17.214286,42.928571 C 16.49204,42.856347 15.79507,42.591625 15.142857,42.428571 C 14.084929,42.164089 13.218375,42.427695 12.214286,42.642857 C 11.0267,42.89734 9.4967428,41.974019 8.5714286,41.357143 C 7.4887994,40.63539 7.6591716,40.338498 8.1428571,39.785714 C 8.6862088,39.164741 6.6533472,38.84156 6.3571429,38.071429 C 6.2341054,37.751531 6.5,36.170632 6.5,35.714286 C 6.5,35.050249 6.7142857,34.474125 6.7142857,33.785714 C 6.7142857,33.013173 6.0390042,32.70494 5.5,32.285714 C 4.9317002,31.843703 5.9847333,31.169937 6.1428571,30.642857 C 6.2461356,30.298596 6.1066464,29.252482 6.2142857,28.714286 C 6.4592274,27.489578 5.3774904,28.153243 5.7857143,26.928571 C 6.2526373,25.527802 7.1496587,24.19048 7.5714286,22.714286 C 7.6650811,22.386502 6.9693806,22.383671 6.6428571,22.285714 C 6.3132962,22.186846 7.0880416,20.235875 7.1428571,20.071429 C 7.3049327,19.585202 6.5714286,18.640577 6.5714286,18.214286 C 6.5714286,16.905757 5.7586787,16.689985 6.2857143,15.214286 C 6.8791601,13.552637 8.5249928,13.214286 6.7142857,13.214286 C 6.0667294,13.214286 6.8571429,12.598672 6.8571429,11.071429 C 6.8571429,10.547041 7.3193095,9.6772105 7.5,9.2857143 C 7.8818949,8.4582753 5.2142857,8.6970314 5.2142857,7.7857143 C 5.2142857,7.0779106 5.6859964,6.5664786 6.2142857,6.2142857 C 6.5577007,5.9853424 6.045421,5.3960311 5.9285714,5.1428571 z"
         style="opacity:1;fill:none;fill-opacity:1;fill-rule:evenodd;stroke:#000000;stroke-width:1;stroke-linecap:round;stroke-linejoin:round;marker:none;marker-start:none;marker-mid:none;marker-end:none;stroke-miterlimit:4;stroke-dasharray:none;stroke-dashoffset:0;stroke-opacity:1;visibility:visible;display:inline;overflow:visible;enable-background:accumulate" />
      <path
         id="path2399"
         d="M 2.4285714,1.7857143 C 2.5095862,2.4609671 2.690191,2.4427716 3.3571429,2.6428571 C 3.6064626,2.717653 4.1514704,3.6950366 4.5,4 C 4.9628594,4.405002 5.1304145,4.6366358 5.7142857,4.9285714 C 6.3364843,5.2396707 6.1284951,4.8567614 6.2857143,5.6428571"
         style="opacity:1;fill:none;fill-opacity:1;fill-rule:evenodd;stroke:#000000;stroke-width:1;stroke-linecap:round;stroke-linejoin:round;marker:none;marker-start:none;marker-mid:none;marker-end:none;stroke-miterlimit:4;stroke-dasharray:none;stroke-dashoffset:0;stroke-opacity:1;visibility:visible;display:inline;overflow:visible;enable-background:accumulate" />
      <path
         id="path2401"
         d="M 44.285714,2 C 44.317416,2.015851 43.806979,2.9624562 43.5,3.3571428 C 43.01941,3.975044 43.083492,5.2555546 42.785714,6 C 42.650997,6.3367931 42.621286,6.6029049 42.571429,6.7857143"
         style="opacity:1;fill:none;fill-opacity:1;fill-rule:evenodd;stroke:#000000;stroke-width:1;stroke-linecap:round;stroke-linejoin:round;marker:none;marker-start:none;marker-mid:none;marker-end:none;stroke-miterlimit:4;stroke-dasharray:none;stroke-dashoffset:0;stroke-opacity:1;visibility:visible;display:inline;overflow:visible;enable-background:accumulate" />
      <path
         id="path2403"
         d="M 42.142857,43.928571 C 41.955277,44.397523 43.159082,43.569153 43.642857,43.714286 C 44.241943,43.894011 44.779438,44.251535 45.428571,44.428571 C 45.919863,44.56256 46.468812,44.998546 46.857143,45.214286 C 47.518687,45.58181 47.930114,45.542799 48.285714,46"
         style="opacity:1;fill:none;fill-opacity:1;fill-rule:evenodd;stroke:#000000;stroke-width:1;stroke-linecap:round;stroke-linejoin:round;marker:none;marker-start:none;marker-mid:none;marker-end:none;stroke-miterlimit:4;stroke-dasharray:none;stroke-dashoffset:0;stroke-opacity:1;visibility:visible;display:inline;overflow:visible;enable-background:accumulate" />
      <path
         id="path2405"
         d="M 8.3571429,41.357143 C 8.9358116,41.678625 7.3365093,42.204232 6.7857143,42.571429 C 6.3480852,42.863181 6.3267929,43.978543 6.2142857,44.428571 C 6.1672544,44.616697 5.0649839,45.266917 4.8571429,45.428571 C 4.6379679,45.599041 4.3809524,45.714286 4.1428571,45.857143"
         style="opacity:1;fill:none;fill-opacity:1;fill-rule:evenodd;stroke:#000000;stroke-width:1;stroke-linecap:round;stroke-linejoin:round;marker:none;marker-start:none;marker-mid:none;marker-end:none;stroke-miterlimit:4;stroke-dasharray:none;stroke-dashoffset:0;stroke-opacity:1;visibility:visible;display:inline;overflow:visible;enable-background:accumulate" />
    </g>
    <path
       style="opacity:1;fill:#a800a8;fill-opacity:1;fill-rule:nonzero;stroke:none;stroke-width:0.40799998999999998;stroke-linecap:round;stroke-linejoin:round;marker:none;marker-start:none;marker-mid:none;marker-end:none;stroke-miterlimit:4;stroke-dasharray:none;stroke-dashoffset:0;stroke-opacity:0.98983047000000002;visibility:visible;display:inline;overflow:visible;enable-background:accumulate"
       d="M 33.496832,42.45817 C 32.237604,42.172157 32.194418,42.171654 30.803704,42.426824 C 29.009055,42.756111 28.076747,42.617863 25.983358,41.712039 C 25.162481,41.356837 24.339902,41.065173 24.155398,41.063889 C 23.970898,41.062601 23.127258,41.291654 22.280651,41.572887 L 20.741367,42.084224 L 19.763662,41.78224 C 18.95104,41.531246 18.588041,41.496314 17.61384,41.57536 C 16.65183,41.65342 16.207305,41.612543 15.133954,41.347327 C 13.802905,41.018434 13.804351,41.018456 11.24853,41.293731 C 10.530444,41.371073 10.320932,41.328106 9.4664725,40.928256 C 8.9339082,40.679041 8.2872382,40.314244 8.0294253,40.117601 C 7.6440368,39.823653 7.5862268,39.712331 7.7043411,39.491633 C 7.7833525,39.34399 7.8480039,39.030777 7.8480039,38.7956 C 7.8480039,38.338339 7.5784682,38.058859 6.6628182,37.566696 C 6.3757253,37.412377 6.1159882,37.219523 6.0856339,37.138124 C 6.0552839,37.056721 6.1211625,36.122269 6.2320382,35.061554 C 6.4781568,32.707033 6.4229639,32.345736 5.7153782,31.679373 L 5.1691182,31.164939 L 5.5085611,30.664739 C 5.7682468,30.28207 5.8555982,29.94265 5.8803268,29.22019 C 5.9413339,27.437786 5.9077996,27.078697 5.6541739,26.798444 C 5.4166153,26.535949 5.4428825,26.44264 6.2787668,24.579731 C 7.4080182,22.063011 7.4537582,21.792357 6.8320711,21.305814 L 6.3573768,20.934313 L 6.6033925,20.24793 C 6.9187011,19.368256 6.9126496,18.915593 6.5745182,18.088037 C 6.4241053,17.719903 6.1914211,16.928646 6.0574525,16.329696 C 5.7699711,15.044411 5.8723539,14.561803 6.6175668,13.689481 C 7.2716596,12.923817 7.3614911,12.575041 6.9981682,12.211719 C 6.8370068,12.050557 6.6208025,11.918697 6.5177168,11.918697 C 6.2583425,11.918697 6.5493396,10.228704 6.9930425,9.1581915 C 7.3010525,8.4150657 7.3071096,8.3437186 7.0903053,8.0128343 C 6.9382896,7.78083 6.5391596,7.5535 5.9249811,7.3491143 C 5.3954039,7.17288 4.9908611,6.95553 4.9908611,6.8472272 C 4.9908611,6.7421629 5.2158611,6.44397 5.4908611,6.1845829 C 5.7658611,5.9251943 5.9908611,5.5732786 5.9908611,5.4025457 C 5.9908611,5.03579 6.0472482,5.0098857 7.3510382,4.7776043 C 8.6854825,4.5398643 11.549928,4.7747429 13.493781,5.2813 C 14.369034,5.5093886 15.08489,5.6192586 15.348004,5.5658929 C 15.583718,5.5180786 16.901575,5.4272686 18.276575,5.3640815 C 20.58304,5.2580915 20.840898,5.21867 21.607461,4.8548586 C 22.578117,4.39419 22.84747,4.41039 25.127721,5.0666415 C 26.874215,5.5692829 27.763324,5.59599 29.082955,5.1854643 C 29.977304,4.9072415 30.169071,4.8948443 31.292761,5.0426072 C 33.042775,5.2727286 34.486118,5.2540457 34.698175,4.9985272 C 34.84439,4.8223472 35.023847,4.8631886 35.941804,5.2815143 C 36.531818,5.5503929 37.207018,5.9323286 37.442247,6.1302557 C 37.99799,6.5978915 38.388475,6.5846086 38.996018,6.0774086 L 39.49039,5.6646857 L 40.28489,6.0657486 C 41.401618,6.6294743 41.435447,6.6903386 41.196561,7.7060072 C 41.085875,8.1765586 40.993618,8.9794115 40.991547,9.4901257 C 40.989475,10.00084 40.892032,10.734271 40.775032,11.119973 C 40.620018,11.630889 40.56229,12.528234 40.56229,14.425761 C 40.56229,16.802031 40.595747,17.153709 40.944032,18.438771 C 41.450247,20.30653 41.50219,21.043643 41.202804,22.110663 C 40.956704,22.987771 40.879761,26.075844 41.077204,27.152247 C 41.142432,27.507917 41.06559,27.728421 40.703818,28.223676 C 40.273947,28.812153 40.25269,28.899561 40.326332,29.77584 C 40.460961,31.377963 40.715632,32.791869 40.999104,33.511034 L 41.272404,34.204411 L 40.790318,34.204411 C 39.564275,34.204411 39.340304,35.272604 40.475461,35.706123 C 41.216418,35.989101 41.276575,36.166943 41.276575,38.074564 C 41.276575,38.95243 41.348332,39.488046 41.511875,39.831014 C 41.743875,40.317523 41.741004,40.333794 41.306532,40.989723 C 41.064161,41.355619 40.824604,41.842897 40.774161,42.072559 C 40.723704,42.30222 40.627475,42.490126 40.560275,42.490126 C 40.016818,42.490126 38.310947,41.996657 37.851247,41.706463 C 37.056847,41.20498 36.401904,41.228511 35.942004,41.775069 C 35.744018,42.010356 35.541118,42.331789 35.491104,42.489354 C 35.379704,42.840336 35.164632,42.836976 33.496832,42.458167 L 33.496832,42.45817 z"
       id="path3240" />
    <path
       style="opacity:1;fill:#ba00ba;fill-opacity:1;fill-rule:nonzero;stroke:none;stroke-width:0.40799998999999998;stroke-linecap:round;stroke-linejoin:round;marker:none;marker-start:none;marker-mid:none;marker-end:none;stroke-miterlimit:4;stroke-dasharray:none;stroke-dashoffset:0;stroke-opacity:0.98983047000000002;visibility:visible;display:inline;overflow:visible;enable-background:accumulate"
       d="M 21.490861,45.841017 C 21.019432,45.735496 19.798004,45.357054 18.776575,45.000031 C 17.755147,44.64301 16.756904,44.350083 16.55826,44.349084 C 16.359612,44.348087 15.733218,44.569571 15.16627,44.841274 C 13.69771,45.54506 13.055145,45.721319 12.78259,45.495117 C 12.589087,45.33453 10.942951,45.088033 8.3124196,44.825754 C 7.7851196,44.773174 7.0767168,44.809529 6.5818125,44.914554 C 5.9291968,45.053047 5.6733296,45.054579 5.4246211,44.921474 L 5.1053111,44.75058 L 5.5480853,44.317693 C 5.8359239,44.036274 5.9908611,43.744014 5.9908611,43.482474 C 5.9908611,42.7519 6.2345796,42.398243 7.0585025,41.93325 L 7.8626353,41.479427 L 8.8159511,41.949057 C 9.6429911,42.356493 9.9116582,42.418026 10.844347,42.413629 C 11.43564,42.410839 12.315872,42.354029 12.80041,42.287377 C 13.525207,42.187677 13.905085,42.223414 14.943267,42.488979 C 15.970864,42.75184 16.437938,42.796843 17.459017,42.731399 C 18.476717,42.666173 18.864361,42.70315 19.517095,42.927723 C 20.608551,43.303241 20.874527,43.283211 22.639531,42.692604 L 24.16904,42.1808 L 25.310677,42.70265 C 26.699415,43.337463 28.35077,43.77584 29.353332,43.77584 C 29.76327,43.77584 30.554675,43.67286 31.112018,43.546997 C 32.079732,43.328463 32.186847,43.331674 33.490704,43.618426 C 35.670932,44.097914 36.071075,44.024407 36.566418,43.053451 L 36.857218,42.483473 L 37.473061,42.844391 C 37.842804,43.061071 38.597404,43.294779 39.361318,43.4292 C 40.061147,43.552339 40.772147,43.720391 40.941332,43.80264 C 41.161761,43.909804 41.450161,43.90061 41.959047,43.770189 C 42.624261,43.599696 42.731247,43.61294 43.651432,43.979679 C 44.19169,44.194994 44.976804,44.566557 45.396118,44.805369 L 46.158518,45.239567 L 45.753261,45.514261 C 45.20809,45.883779 44.730461,45.794471 42.993375,44.998223 C 42.210818,44.639511 41.234404,44.273933 40.823547,44.18582 C 39.808318,43.968094 37.702804,44.115409 36.56229,44.483959 C 35.357575,44.873253 34.021332,44.875129 32.212018,44.490054 C 31.06969,44.246936 30.53629,44.206024 29.497725,44.281867 C 28.047292,44.387787 26.086995,44.965486 24.885882,45.640979 C 24.265731,45.989747 23.985234,46.059106 23.243025,46.04721 C 22.750765,46.039319 21.96229,45.946533 21.490861,45.841014 L 21.490861,45.841017 z"
       id="path3242" />
    <path
       style="opacity:1;fill:#ba00ba;fill-opacity:1;fill-rule:nonzero;stroke:none;stroke-width:0.40799998999999998;stroke-linecap:round;stroke-linejoin:round;marker:none;marker-start:none;marker-mid:none;marker-end:none;stroke-miterlimit:4;stroke-dasharray:none;stroke-dashoffset:0;stroke-opacity:0.98983047000000002;visibility:visible;display:inline;overflow:visible;enable-background:accumulate"
       d="M 3.1810725,44.168697 C 3.1192768,44.070483 3.0254225,43.057983 2.9725125,41.918697 C 2.9195996,40.779411 2.7735153,39.46412 2.6478725,38.995826 C 2.2845553,37.641654 2.3289525,37.4046 3.0727053,36.727613 C 3.5905439,36.256256 3.7401825,36.01452 3.7944939,35.561554 C 3.8766825,34.876097 3.5037053,34.185823 2.8933725,33.893834 C 2.5223039,33.716306 2.4825268,33.617699 2.3841582,32.631411 C 2.2537211,31.323534 2.3747882,29.159367 2.6463025,27.945547 C 2.7572411,27.449603 2.8480039,26.73645 2.8480039,26.360769 C 2.8480039,25.686441 2.4015425,24.129379 2.1304625,23.858299 C 1.8512182,23.579057 2.0034053,22.951289 2.5835011,21.989476 C 3.3473525,20.722994 3.4401668,20.280544 3.1914011,19.091566 C 2.9162253,17.77639 2.9387253,17.087036 3.3049339,15.612456 L 3.6190082,14.347809 L 3.1091739,12.883253 C 2.8287625,12.077747 2.3654339,10.76469 2.0795525,9.9653486 L 1.5597696,8.5120029 L 1.8577253,7.25106 C 2.2825582,5.4532215 2.2905811,4.3956143 1.8837182,3.8252157 C 1.5099939,3.3012743 1.4552796,2.5222229 1.7833625,2.3963243 C 1.9321811,2.3392215 2.3414811,2.6558657 3.0356125,3.3650943 C 3.6027639,3.9445786 4.2454553,4.5728729 4.4638282,4.76131 L 4.8608653,5.1039215 L 4.5147525,5.4756 C 4.0283568,5.9978957 3.8480039,6.3964357 3.8480039,6.9489472 C 3.8480039,7.6676772 4.1846125,8.02723 5.1046653,8.2912757 C 5.5527868,8.4198857 5.9402439,8.5434043 5.9656811,8.5657686 C 5.9911182,8.5881357 5.9167211,8.7905415 5.8003582,9.0155643 C 5.5910696,9.4202815 5.0903311,11.878236 5.1095511,12.406487 C 5.1150268,12.556911 5.2079025,12.768391 5.3159453,12.876434 C 5.4826353,13.043121 5.4512496,13.194089 5.1087682,13.873061 C 4.8798725,14.326843 4.7051468,14.905136 4.7051468,15.208904 C 4.7051468,15.763774 5.2876196,18.187384 5.5698311,18.806771 C 5.6985068,19.08919 5.6710753,19.351891 5.4321182,20.125544 C 5.0331039,21.417397 5.0480139,21.715637 5.5265753,22.015024 C 5.7426468,22.150193 5.9427396,22.276773 5.9712253,22.2963 C 5.9997111,22.315824 5.7288768,22.962071 5.3693696,23.732394 C 4.2082782,26.220304 4.0801896,26.787376 4.5486653,27.365919 C 4.9394339,27.848491 4.8060496,29.614463 4.3253382,30.322831 C 3.7547496,31.163636 3.8161825,31.536627 4.6498482,32.293283 L 5.2986525,32.882154 L 5.0825711,34.95605 C 4.9637253,36.096696 4.9031925,37.181704 4.9480525,37.36718 C 5.0552768,37.810487 5.6362182,38.426911 6.1456668,38.637933 C 6.5273553,38.796029 6.5473125,38.84523 6.4671268,39.430256 C 6.4055925,39.879189 6.4462868,40.15269 6.6123225,40.406091 C 6.8285211,40.736053 6.8261296,40.763529 6.5742896,40.84346 C 6.4264953,40.89037 6.0447668,41.117671 5.7260111,41.348577 C 5.2178139,41.716713 5.1244596,41.874893 4.9678253,42.633241 C 4.8026439,43.432973 4.7393882,43.53004 4.1275225,43.922673 C 3.3775211,44.40395 3.3359082,44.414766 3.1810753,44.168697 L 3.1810725,44.168697 z"
       id="path3244" />
    <path
       style="opacity:1;fill:#8d008d;fill-opacity:1;fill-rule:nonzero;stroke:none;stroke-width:0.40799998999999998;stroke-linecap:round;stroke-linejoin:round;marker:none;marker-start:none;marker-mid:none;marker-end:none;stroke-miterlimit:4;stroke-dasharray:none;stroke-dashoffset:0;stroke-opacity:0.98983047000000002;visibility:visible;display:inline;overflow:visible;enable-background:accumulate"
       d="M 37.609904,4.8266915 C 36.621332,4.2428843 33.800661,3.0642572 33.388747,3.0628643 C 32.95189,3.06139 32.65119,3.4689972 32.801032,3.8594972 C 32.884632,4.0773557 32.829432,4.0947757 32.336232,4.0062157 C 30.820004,3.7339615 29.645448,3.7484315 28.789925,4.0499172 C 27.652647,4.4506957 27.042805,4.42462 25.276575,3.8997072 C 23.280652,3.3065315 22.088557,3.2840343 20.990861,3.8188243 C 20.25385,4.1778915 20.081175,4.2017557 18.205147,4.2038129 C 17.105147,4.2050215 15.97182,4.2708157 15.686641,4.3500286 C 15.268074,4.4662872 14.88258,4.4240157 13.686641,4.1306972 C 12.858752,3.9276457 11.319457,3.69702 10.197608,3.6079472 C 8.4746496,3.4711443 8.0115196,3.4816729 6.9304825,3.6822 C 5.7825839,3.8951286 5.6289725,3.8959543 5.1980996,3.6914929 C 4.6651253,3.4385829 3.8975368,2.73299 3.4089968,2.0468986 L 3.0815239,1.5870057 L 3.8576211,1.70783 C 4.2844739,1.77429 5.4694325,1.8397557 6.4908611,1.8533129 C 7.5122896,1.8668729 8.5725796,1.9514143 8.8470611,2.0411872 C 9.4871211,2.25053 10.40241,2.2486357 11.432674,2.0358372 C 12.190818,1.87924 12.334841,1.8958443 13.459011,2.2693943 C 14.825174,2.7233529 15.176001,2.7049715 16.419432,2.1142629 C 17.369965,1.6626986 18.008881,1.6511472 19.810777,2.0529443 C 21.412078,2.4100086 21.88406,2.41788 23.005154,2.1061872 C 23.819055,1.8799015 23.94387,1.8799443 25.038711,2.10685 C 26.471537,2.4038015 26.887381,2.4081172 27.422148,2.1315786 C 27.736915,1.9688086 28.082191,1.9384672 28.829441,2.0079172 C 29.674345,2.0864472 29.8414,2.1477143 29.967968,2.4255029 C 30.328262,3.2162486 31.19069,2.9577229 31.435475,1.9855886 C 31.523875,1.63451 31.659032,1.3472686 31.735832,1.3472686 C 31.812632,1.3472686 32.234475,1.45164 32.67329,1.5792043 C 33.226932,1.7401557 33.729132,1.7841715 34.314161,1.7230243 C 34.86889,1.6650415 35.498247,1.7124757 36.154404,1.8617143 C 37.065932,2.0690357 37.238218,2.0689557 38.160175,1.8607515 C 39.423875,1.5753757 40.422561,1.5707686 41.084318,1.8472686 C 41.36639,1.9651257 41.75169,2.0615543 41.940547,2.0615543 C 42.27579,2.0615543 42.27869,2.0716629 42.063132,2.4884872 C 41.941704,2.7233 41.74009,3.4143715 41.61509,4.0242015 C 41.49009,4.6340315 41.372675,5.1498872 41.354161,5.1705472 C 41.335647,5.1912086 40.955204,5.0465643 40.508747,4.8491186 C 39.497018,4.4016886 39.121804,4.3983929 38.60599,4.8324186 L 38.199204,5.1747129 L 37.609904,4.8266915 z"
       id="path3246" />
    <path
       style="opacity:1;fill:#8d008d;fill-opacity:1;fill-rule:nonzero;stroke:none;stroke-width:0.40799998999999998;stroke-linecap:round;stroke-linejoin:round;marker:none;marker-start:none;marker-mid:none;marker-end:none;stroke-miterlimit:4;stroke-dasharray:none;stroke-dashoffset:0;stroke-opacity:0.98983047000000002;visibility:visible;display:inline;overflow:visible;enable-background:accumulate"
       d="M 45.494861,43.534656 C 44.472175,42.981254 43.05259,42.490126 42.47569,42.490126 C 41.767218,42.490126 41.765804,42.433834 42.44699,41.355014 C 42.892661,40.649169 42.950532,40.102783 42.642661,39.507421 C 42.512175,39.255076 42.43689,38.671843 42.436147,37.907373 C 42.435518,37.245746 42.368147,36.363187 42.286475,35.946137 C 42.165275,35.327233 42.17769,35.127243 42.354075,34.858053 C 42.55209,34.555851 42.535175,34.41603 42.152132,33.187756 C 41.766475,31.951123 41.419432,30.19051 41.419432,29.47062 C 41.419432,29.305664 41.619661,28.942651 41.86439,28.663924 C 42.30149,28.166083 42.307761,28.138034 42.21919,27.073636 C 42.053275,25.079776 42.105047,23.030599 42.340075,22.28885 C 42.665704,21.261227 42.61719,20.151607 42.186175,18.768503 C 41.850218,17.690456 41.80309,17.27045 41.744832,14.835923 C 41.69179,12.619354 41.722018,11.967491 41.906661,11.345709 C 42.031547,10.925189 42.133718,10.179139 42.133718,9.6878215 C 42.133718,9.1965086 42.229004,8.3415129 42.345475,7.78784 C 42.495632,7.07407 42.516118,6.6729829 42.41589,6.40937 C 42.338147,6.2048872 42.308904,5.9819729 42.350904,5.9140115 C 42.392904,5.8460472 42.548975,5.2209 42.697732,4.5247886 C 42.924018,3.4658986 43.438961,2.2044115 43.644932,2.2044115 C 43.674847,2.2044115 43.829218,2.4589929 43.987961,2.7701486 C 44.187561,3.1614043 44.276575,3.6147743 44.276575,4.2401343 C 44.276575,4.7374715 44.373004,5.5145972 44.490861,5.9670815 C 44.796761,7.1414857 44.760647,7.5866229 44.276461,8.6100957 C 43.770647,9.6793372 43.760947,9.8839229 44.129047,11.726314 C 44.365332,12.908989 44.476261,13.192707 44.825675,13.50805 C 45.054232,13.714333 45.322947,13.910346 45.42279,13.943626 C 45.566261,13.991454 45.557718,14.152373 45.381947,14.711417 C 44.992918,15.948841 44.67199,18.000124 44.754047,18.725089 C 45.050004,21.34007 45.06979,21.07971 44.396275,23.434061 C 44.235261,23.996923 44.252332,24.062344 44.814861,25.038034 C 45.443947,26.129147 45.453875,26.313781 44.937261,27.312806 C 44.620632,27.925081 44.642275,29.1772 44.984504,30.045421 C 45.138161,30.435221 45.307147,31.08046 45.360047,31.479281 L 45.456247,32.204411 L 44.928447,32.204411 C 43.544147,32.204411 43.474904,32.895644 44.740861,34.077143 L 45.633718,34.910431 L 45.31229,35.478581 C 44.83429,36.323486 44.892447,37.085783 45.571075,38.870376 L 46.15129,40.396176 L 45.863104,40.785963 C 45.386518,41.430594 45.368647,41.799383 45.766561,42.778664 C 45.968504,43.27563 46.133718,43.703301 46.133718,43.729041 C 46.133718,43.826251 45.90529,43.756747 45.494847,43.534651 L 45.494861,43.534656 z"
       id="path3248" />
    <g
       id="g3216"
       transform="matrix(1.0492086,-0.2101532,0.2168933,1.021973,-55.332881,11.947306)">
      <path
         sodipodi:nodetypes="csssssssssssssssssssssssssssssssssc"
         id="path2398"
         d="M 68.785714,22.642857 C 68.359861,22.642857 68.170703,22.442495 67.857143,22.285714 C 67.539391,22.126838 67.416571,21.943047 67.214286,21.785714 C 66.866094,21.514898 66.752107,21.394964 66.5,21.142857 C 66.229022,20.87188 66.122592,20.671098 65.928571,20.428571 C 65.711923,20.157761 65.616603,19.862936 65.5,19.571429 C 65.389545,19.295291 65.202179,18.969732 65.071429,18.642857 C 64.951615,18.343323 64.991157,17.884356 64.928571,17.571429 C 64.847081,17.163977 64.895688,16.885453 64.857143,16.5 C 64.829517,16.223737 65.014975,15.710839 65.071429,15.428571 C 65.14544,15.058514 65.341961,14.887506 65.5,14.571429 C 65.612223,14.346983 66.006292,14.119494 66.142857,14 C 66.503341,13.684577 66.613486,13.708811 67.071429,13.571429 C 67.470558,13.45169 67.630043,13.455861 68.071429,13.5 C 68.457545,13.538612 68.649564,13.702139 68.928571,13.857143 C 69.187928,14.00123 69.542227,14.221872 69.785714,14.357143 C 70.011713,14.482698 70.550045,14.405004 70.785714,14.428571 C 71.110999,14.4611 71.506677,14.320761 71.857143,14.285714 C 72.230634,14.248365 72.496677,14.044186 72.785714,13.928571 C 73.098818,13.80333 73.298979,13.680408 73.571429,13.571429 C 73.875148,13.449941 74.339778,13.619692 74.571429,13.642857 C 74.751838,13.660898 75.102923,14.125772 75.285714,14.285714 C 75.713112,14.659688 75.6846,15.06586 75.785714,15.571429 C 75.855,15.917857 75.902522,16.453791 75.928571,16.714286 C 75.958563,17.014198 75.822249,17.491794 75.785714,17.857143 C 75.745694,18.257343 75.652561,18.665766 75.571429,19.071429 C 75.48943,19.481422 75.429054,19.89165 75.285715,20.25 C 75.172724,20.532476 74.841425,20.916434 74.642857,21.214286 C 74.429433,21.534423 74.169005,21.980321 73.964286,22.214286 C 73.653073,22.569958 73.390056,22.604731 73,22.821428 C 72.610939,23.037573 72.169711,23.003544 71.821429,23.142857 C 71.440163,23.295363 71.097909,23.099199 70.714286,23.214286 C 70.419401,23.302751 69.953401,23.214286 69.642857,23.214286 C 69.21698,23.214286 69.080401,22.981175 68.857143,22.857143 C 68.567517,22.69624 68.457379,22.635052 68.214286,22.5"
         style="opacity:1;fill:none;fill-opacity:1;fill-rule:evenodd;stroke:#000000;stroke-width:0.89999998;stroke-linecap:round;stroke-linejoin:round;marker:none;marker-start:none;marker-mid:none;marker-end:none;stroke-miterlimit:4;stroke-dasharray:none;stroke-dashoffset:0;stroke-opacity:1;visibility:visible;display:inline;overflow:visible;enable-background:accumulate" />
      <path
         sodipodi:nodetypes="csssssssssssssssssssc"
         id="path2400"
         d="M 74.714286,13.642857 C 74.402087,13.469413 75.430344,13.678394 75.785714,13.642857 C 76.165918,13.604837 76.424791,13.358655 76.785714,13.214286 C 77.035093,13.114534 77.216461,12.873368 77.428571,12.714286 C 77.694915,12.514528 77.985686,12.366686 78.214286,12.214286 C 78.554821,11.987263 78.939384,12.108224 79.285714,12.142857 C 79.57992,12.172278 79.782638,12.490703 80,12.642857 C 80.238976,12.81014 80.260662,13.321256 80.357143,13.642857 C 80.472906,14.028734 80.394251,14.343204 80.357143,14.714286 C 80.316585,15.119869 80.125326,15.329542 80,15.642857 C 79.845701,16.028604 79.75838,16.306345 79.571429,16.642857 C 79.374957,16.996507 79.234183,17.220155 79,17.571429 C 78.805131,17.863732 78.780198,18.226747 78.642857,18.5 C 78.366592,19.049656 78.278542,18.937587 78.035714,19.214286 C 77.789375,19.494985 77.644549,19.890923 77.392857,20.178571 C 77.119628,20.490833 76.967774,20.711572 76.642857,20.964285 C 76.397132,21.155405 76.049096,21.617756 75.857143,21.785714 C 75.657479,21.960421 75.422536,22.039068 75.107143,22.214286 C 74.801881,22.383876 74.162048,22.521288 73.964286,22.642857 C 73.374282,23.005546 73.112721,22.934041 72.892857,23 C 72.718157,23.05241 71.408421,23.069699 71.392857,23.071428"
         style="opacity:1;fill:none;fill-opacity:1;fill-rule:evenodd;stroke:#000000;stroke-width:0.89999998;stroke-linecap:round;stroke-linejoin:round;marker:none;marker-start:none;marker-mid:none;marker-end:none;stroke-miterlimit:4;stroke-dasharray:none;stroke-dashoffset:0;stroke-opacity:1;visibility:visible;display:inline;overflow:visible;enable-background:accumulate" />
      <path
         sodipodi:nodetypes="csssssssssssssssssssssc"
         id="path2404"
         d="M 69.785714,23.285714 C 69.568115,23.263273 69.166487,23.374175 68.785714,23.428571 C 68.420737,23.480711 68.094508,23.461978 67.714286,23.5 C 67.268556,23.544573 67.000171,23.428606 66.642857,23.357143 C 66.299393,23.28845 65.82802,23.349633 65.571428,23.178572 C 65.260861,22.971527 64.861692,22.716105 64.5,22.571428 C 64.164478,22.43722 64.193689,22.420333 63.714286,22 C 63.412451,21.735356 63.282796,21.622811 62.928571,21.357143 C 62.595138,21.107067 62.385084,20.776831 62.142857,20.5 C 61.844807,20.159372 61.705815,19.880152 61.5,19.571429 C 61.26154,19.213738 61.20262,18.936145 61,18.571429 C 60.814761,18.237998 60.728993,17.715692 60.642857,17.428571 C 60.526447,17.040536 60.501604,16.615965 60.428571,16.214286 C 60.356639,15.818655 60.294778,15.402462 60.214286,15 C 60.137273,14.614936 60.178465,14.286779 60.214286,13.928571 C 60.263858,13.432847 60.593973,13.444559 60.857143,13.214286 C 61.173266,12.937678 61.497518,13.313541 61.642857,13.357143 C 61.852184,13.419941 62.049205,13.811337 62.214286,14 C 62.45295,14.272759 62.869186,14.179776 63.214286,14.214286 C 63.556817,14.248539 63.969049,13.955238 64.214286,13.857143 C 64.48879,13.747341 64.840959,13.751618 65.214286,13.714286 C 65.512955,13.684419 65.803534,13.823211 66.142857,13.857143 C 66.264316,13.869289 66.578294,13.794938 66.642857,13.785714"
         style="opacity:1;fill:none;fill-opacity:1;fill-rule:evenodd;stroke:#000000;stroke-width:0.89999998;stroke-linecap:round;stroke-linejoin:round;marker:none;marker-start:none;marker-mid:none;marker-end:none;stroke-miterlimit:4;stroke-dasharray:none;stroke-dashoffset:0;stroke-opacity:1;visibility:visible;display:inline;overflow:visible;enable-background:accumulate" />
      <path
         id="path2406"
         d="M 60.928571,13.357143 C 61.009468,13.365233 61.277804,12.716884 61.357143,12.571429 C 61.523999,12.265526 61.885757,12.162463 62.071429,12 C 62.296997,11.802627 62.656409,11.820073 63,11.785714 C 63.404733,11.745241 63.682715,11.8794 63.928571,11.928571 C 64.300449,12.002947 64.557012,12.052818 64.857143,12.142857 C 65.126438,12.223646 65.572999,12.042543 65.785714,12 C 66.152201,11.926703 66.527815,12 66.785714,12 C 66.997299,12 67.339263,12.502212 67.5,12.642857 C 67.713555,12.829717 67.958885,12.99081 68.214286,13.214286 C 68.32902,13.314678 68.404762,13.452381 68.5,13.571429"
         style="opacity:1;fill:none;fill-opacity:1;fill-rule:evenodd;stroke:#000000;stroke-width:0.89999998;stroke-linecap:round;stroke-linejoin:round;marker:none;marker-start:none;marker-mid:none;marker-end:none;stroke-miterlimit:4;stroke-dasharray:none;stroke-dashoffset:0;stroke-opacity:1;visibility:visible;display:inline;overflow:visible;enable-background:accumulate" />
      <path
         id="path2408"
         d="M 67.285714,12.357143 C 67.534646,12.574958 67.857143,12.02381 68.142857,11.857143 C 68.497064,11.650522 68.732771,11.653446 69.142857,11.571429 C 69.291587,11.541683 69.854491,11.714286 70.142857,11.714286 C 70.546498,11.714286 70.672623,11.648213 70.928571,11.571429 C 71.236787,11.478964 71.422438,11.372655 71.857143,11.285714 C 72.202438,11.216655 72.577943,11.17792 72.928571,11.142857 C 72.999646,11.13575 73.071429,11.142857 73.142857,11.142857"
         style="opacity:1;fill:none;fill-opacity:1;fill-rule:evenodd;stroke:#000000;stroke-width:0.89999998;stroke-linecap:round;stroke-linejoin:round;marker:none;marker-start:none;marker-mid:none;marker-end:none;stroke-miterlimit:4;stroke-dasharray:none;stroke-dashoffset:0;stroke-opacity:1;visibility:visible;display:inline;overflow:visible;enable-background:accumulate" />
      <path
         sodipodi:nodetypes="cssssssssssc"
         id="path2410"
         d="M 71.571428,14.428571 C 71.901411,14.395573 71.880952,13.309524 72,13 C 72.122889,12.680489 72.180049,12.533055 72.357143,12.214286 C 72.494928,11.966273 72.670088,11.708127 72.785714,11.5 C 72.962921,11.181028 73.246335,11.162547 73.571429,11 C 73.88947,10.840979 74.326796,10.968394 74.642857,11 C 74.938756,11.02959 75.203151,11.266975 75.428571,11.357143 C 75.846422,11.524283 75.949024,11.262515 76.214286,11.214286 C 76.514856,11.159637 76.955261,10.813422 77.285714,10.714286 C 77.710034,10.58699 77.735442,11.099637 77.928571,11.357143 C 78.103527,11.590416 78.276502,11.804482 78.428571,12 C 78.493943,12.08405 78.52381,12.190476 78.571429,12.285714"
         style="opacity:1;fill:none;fill-opacity:1;fill-rule:evenodd;stroke:#000000;stroke-width:0.89999998;stroke-linecap:round;stroke-linejoin:round;marker:none;marker-start:none;marker-mid:none;marker-end:none;stroke-miterlimit:4;stroke-dasharray:none;stroke-dashoffset:0;stroke-opacity:1;visibility:visible;display:inline;overflow:visible;enable-background:accumulate" />
      <path
         id="path2412"
         d="M 77.714286,11.214286 C 77.941212,11.506049 78.417925,10.96535 78.785714,10.928571 C 78.986433,10.9085 79.3544,11.486661 79.428571,11.571429 C 79.485672,11.636687 80.229346,11.774441 80.285714,11.785714 C 80.537209,11.836013 80.428571,12.567579 80.428571,12.642857 C 80.428571,12.857143 80.428571,13.071429 80.428571,13.285714"
         style="opacity:1;fill:none;fill-opacity:1;fill-rule:evenodd;stroke:#000000;stroke-width:0.89999998;stroke-linecap:round;stroke-linejoin:round;marker:none;marker-start:none;marker-mid:none;marker-end:none;stroke-miterlimit:4;stroke-dasharray:none;stroke-dashoffset:0;stroke-opacity:1;visibility:visible;display:inline;overflow:visible;enable-background:accumulate" />
      <path
         sodipodi:nodetypes="cssssssssssssc"
         id="path3184"
         d="M 70.071429,23.142857 C 69.989897,23.303513 70,23.901777 70,24.285714 C 70,24.717631 70.029785,24.940712 70.071429,25.357143 C 70.108698,25.729837 70.109341,26.164835 70.142857,26.5 C 70.194785,27.019281 70.163913,27.567704 70.214286,28.071429 C 70.264879,28.577359 70.308368,29.012255 70.357143,29.5 C 70.418083,30.109405 70.598836,30.779892 70.714286,31.357143 C 70.84804,32.025912 70.938987,32.614577 71,33.285714 C 71.061856,33.966132 71.378153,34.712893 71.571429,35.357143 C 71.750732,35.954822 71.951172,36.421149 72.214286,37 C 72.505295,37.640221 72.720691,38.314092 73,38.928571 C 73.268449,39.519159 73.435785,40.085856 73.714286,40.642857 C 73.953664,41.121615 74.247076,41.544736 74.5,42 C 74.692005,42.345609 74.851353,42.497815 75.062763,42.713914"
         style="opacity:1;fill:none;fill-opacity:1;fill-rule:evenodd;stroke:#000000;stroke-width:0.69999999;stroke-linecap:butt;stroke-linejoin:miter;marker:none;marker-start:none;marker-mid:none;marker-end:none;stroke-miterlimit:4;stroke-dasharray:none;stroke-dashoffset:0;stroke-opacity:1;visibility:visible;display:inline;overflow:visible;enable-background:accumulate" />
      <path
         sodipodi:nodetypes="cssssssssssssssssc"
         id="path3186"
         d="M 71.285714,23.642857 C 71.312067,23.690292 71.285714,24.479077 71.285714,24.785714 C 71.285714,25.07809 71.395772,25.457719 71.428571,25.785714 C 71.463402,26.134022 71.5,26.487152 71.5,26.857143 C 71.5,27.23683 71.533765,27.551933 71.571429,27.928571 C 71.611272,28.327004 71.673601,28.736008 71.714286,29.142857 C 71.74353,29.435302 71.823051,29.801936 71.857143,30.142857 C 71.894457,30.515998 71.995643,30.906787 72.071429,31.285714 C 72.144049,31.648819 72.210047,32.013096 72.281382,32.36977 C 72.366834,32.797033 72.502008,33.240784 72.625898,33.550508 C 72.760853,33.887895 72.850633,34.143542 72.949492,34.39069 C 73.117587,34.810929 73.109419,35.105918 73.277048,35.407651 C 73.468612,35.752466 73.477356,36.099822 73.650779,36.411983 C 73.836491,36.746264 73.765686,36.859222 73.953082,37.277421 C 74.132544,37.677914 74.342045,38.058516 74.545431,38.42461 C 74.772609,38.833531 74.792317,38.946277 75.032804,39.307007 C 75.184814,39.535023 75.38013,39.970643 75.499256,40.185071 C 75.535822,40.250888 75.950936,40.795124 75.974746,40.866552"
         style="opacity:1;fill:none;fill-opacity:1;fill-rule:evenodd;stroke:#000000;stroke-width:0.69999999;stroke-linecap:butt;stroke-linejoin:miter;marker:none;marker-start:none;marker-mid:none;marker-end:none;stroke-miterlimit:4;stroke-dasharray:none;stroke-dashoffset:0;stroke-opacity:1;visibility:visible;display:inline;overflow:visible;enable-background:accumulate" />
      <path
         id="path3188"
         d="M 75.071428,42.714286 C 75.246407,43.029248 74.964423,42.001373 74.928571,41.642857 C 74.884478,41.201927 75.115622,41.032373 75.214285,40.785714 C 75.428741,40.249575 75.748801,40.726324 75.857142,40.714286 C 75.962974,40.702527 75.928571,41.684827 75.928571,41.785714 C 75.928571,42.072657 75.729961,42.35251 75.642857,42.642857 C 75.551904,42.946034 75.245099,42.692577 75.071428,42.714286 z"
         style="opacity:1;fill:none;fill-opacity:1;fill-rule:evenodd;stroke:#000000;stroke-width:0.69999999;stroke-linecap:butt;stroke-linejoin:miter;marker:none;marker-start:none;marker-mid:none;marker-end:none;stroke-miterlimit:4;stroke-dasharray:none;stroke-dashoffset:0;stroke-opacity:1;visibility:visible;display:inline;overflow:visible;enable-background:accumulate" />
      <path
         id="path3190"
         d="M 73.185552,33.908372 C 73.073579,33.698059 73.17895,33.385799 73.236059,33.10025 C 73.302817,32.76646 73.375147,32.688267 73.539105,32.393143 C 73.673971,32.150385 73.834302,31.899841 73.943166,31.736544 C 74.082758,31.527157 74.305629,31.426817 74.49875,31.281975 C 74.774101,31.075462 74.858434,30.89977 75.054334,30.675884 C 75.234338,30.470165 75.368202,30.131125 75.458395,29.968777 C 75.591538,29.729119 75.683248,29.406645 75.761441,29.211163 C 75.93694,28.772414 75.670475,29.029231 75.811948,29.312178 C 75.896611,29.481504 75.894244,29.88259 75.912964,30.069792 C 75.944178,30.381933 76.007244,30.591704 76.064487,30.877914 C 76.12073,31.159131 76.136186,31.44339 76.165502,31.736544 C 76.189571,31.977231 76.242952,32.258509 76.266517,32.494158 C 76.291192,32.740908 76.266517,33.003567 76.266517,33.251773 C 76.266517,33.539908 76.244165,33.778341 76.21601,34.059895 C 76.18288,34.391189 76.053414,34.719731 75.963471,35.01954 C 75.869916,35.331389 75.821512,35.678827 75.761441,35.979185 C 75.704695,36.262914 75.5575,36.43853 75.458395,36.686291 C 75.382742,36.875425 75.178107,36.999405 75.054334,37.14086 C 74.965766,37.242081 74.670833,37.33261 74.549258,37.393398 C 74.438193,37.448931 74.443556,37.419824 74.347227,37.443906"
         style="opacity:1;fill:none;fill-opacity:1;fill-rule:evenodd;stroke:#000000;stroke-width:0.69999999;stroke-linecap:round;stroke-linejoin:round;marker:none;marker-start:none;marker-mid:none;marker-end:none;stroke-miterlimit:4;stroke-dasharray:none;stroke-dashoffset:0;stroke-opacity:1;visibility:visible;display:inline;overflow:visible;enable-background:accumulate" />
      <path
         id="path3194"
         d="M 70.967653,34.005506 C 70.945073,33.768314 70.684964,33.565945 70.479847,33.359242 C 70.240075,33.117619 70.136616,33.092281 69.837087,32.936517 C 69.590705,32.808391 69.318786,32.687816 69.137916,32.611634 C 68.905995,32.513951 68.664745,32.553163 68.423767,32.538844 C 68.080186,32.51843 67.912943,32.41838 67.626056,32.339658 C 67.362447,32.267322 67.063801,32.058328 66.899031,31.972642 C 66.655797,31.846152 66.401451,31.627728 66.228417,31.507784 C 65.840052,31.238577 66.203965,31.305853 66.241994,31.619904 C 66.264752,31.807843 66.487924,32.141115 66.575549,32.307598 C 66.721654,32.585194 66.784734,32.794961 66.894826,33.065281 C 67.003,33.330884 67.146874,33.576531 67.284092,33.83724 C 67.396751,34.05129 67.507346,34.315365 67.617647,34.524934 C 67.733146,34.744376 67.898584,34.949873 68.035469,35.156922 C 68.194373,35.397278 68.344513,35.583845 68.523275,35.803185 C 68.733618,36.061272 69.022804,36.263935 69.263176,36.464425 C 69.513202,36.672969 69.745189,36.936099 69.960944,37.153523 C 70.164755,37.358908 70.384393,37.424226 70.603705,37.576247 C 70.771119,37.692296 71.010195,37.682862 71.191455,37.7326 C 71.321159,37.768192 71.617113,37.681056 71.752052,37.664716 C 71.875327,37.649789 71.8548,37.628466 71.948437,37.595429"
         style="opacity:1;fill:none;fill-opacity:1;fill-rule:evenodd;stroke:#000000;stroke-width:0.69999999;stroke-linecap:round;stroke-linejoin:round;marker:none;marker-start:none;marker-mid:none;marker-end:none;stroke-miterlimit:4;stroke-dasharray:none;stroke-dashoffset:0;stroke-opacity:1;visibility:visible;display:inline;overflow:visible;enable-background:accumulate" />
      <path
         id="path3196"
         d="M 69.818685,22.747502 C 69.485516,22.716694 69.212593,22.588725 69.212593,22.463313 C 69.212593,22.359915 68.968909,22.193641 68.76553,22.158266 C 68.271843,22.072393 67.156892,21.213511 66.564953,20.463091 C 66.214824,20.019214 66.194833,19.983195 65.782741,19.053123 L 65.479271,18.368201 L 65.393762,17.411626 L 65.308258,16.455049 L 65.439825,15.933736 C 65.621708,15.213042 65.843739,14.831426 66.268074,14.510196 C 66.451326,14.371471 66.632381,14.257967 66.670418,14.257967 C 66.708455,14.257967 66.858483,14.195464 67.003814,14.119071 C 67.23526,13.99741 67.324456,13.980175 67.722618,13.980175 L 68.177187,13.980175 L 68.893991,14.396767 C 69.332821,14.651806 69.710346,14.83471 69.8675,14.868414 C 70.19726,14.939135 71.73003,14.898896 71.886002,14.815422 C 71.947849,14.782323 72.106857,14.723047 72.239359,14.683699 C 72.37186,14.644351 72.773507,14.472713 73.131904,14.302283 L 73.783533,13.99241 L 74.107166,14.046259 C 74.404712,14.095769 74.454906,14.123776 74.729834,14.393695 C 74.894302,14.555168 75.070301,14.767202 75.12094,14.864883 C 75.200914,15.019134 75.380731,15.998147 75.440855,16.606571 C 75.475246,16.954652 75.037769,19.547866 74.870372,19.98815 C 74.802161,20.167557 73.670401,21.817276 73.512727,21.96713 C 73.369103,22.10363 72.904776,22.355252 72.574017,22.475819 C 72.461431,22.516857 72.107943,22.570206 71.788482,22.594369 C 71.469021,22.618532 71.025817,22.672076 70.803583,22.713353 C 70.373779,22.793186 70.329347,22.794725 69.818685,22.747503 L 69.818685,22.747502 z"
         style="opacity:1;fill:#dd0038;fill-opacity:1;fill-rule:nonzero;stroke:none;stroke-width:0.40799999;stroke-linecap:round;stroke-linejoin:round;marker:none;marker-start:none;marker-mid:none;marker-end:none;stroke-miterlimit:4;stroke-dasharray:none;stroke-dashoffset:0;stroke-opacity:0.98983047;visibility:visible;display:inline;overflow:visible;enable-background:accumulate" />
      <path
         id="path3198"
         d="M 74.919955,21.695045 C 74.919955,21.674117 75.059083,21.463879 75.229122,21.227849 C 75.674211,20.610044 75.814874,20.27899 75.984817,19.449291 C 76.208809,18.355678 76.384691,17.161696 76.384545,16.735641 C 76.384474,16.525758 76.327779,15.992699 76.258559,15.551068 C 76.14376,14.818667 76.070539,14.572482 75.841941,14.150358 C 75.832456,14.132842 75.909172,14.102663 76.01242,14.083293 C 76.306854,14.028058 77.15172,13.580681 77.484328,13.303883 C 78.009956,12.866451 78.302345,12.704509 78.518992,12.730824 C 78.645165,12.74615 78.752726,12.725069 78.839953,12.667916 C 79.024058,12.547281 79.24267,12.604068 79.503896,12.840388 C 79.693815,13.012201 79.731312,13.08422 79.824948,13.45704 C 79.980961,14.078203 79.943024,14.611558 79.704851,15.145579 C 79.606649,15.365762 79.458687,15.709146 79.376051,15.908656 C 79.233463,16.2529 79.051686,16.586393 78.641261,17.256736 C 78.541382,17.41987 78.39887,17.73588 78.324573,17.958975 C 78.209042,18.305888 78.140938,18.416964 77.854095,18.726323 C 77.669631,18.925269 77.417204,19.257021 77.293142,19.46355 C 76.987086,19.973069 75.66071,21.35442 75.266437,21.57426 C 74.967786,21.740786 74.919955,21.757459 74.919955,21.695045 L 74.919955,21.695045 z"
         style="opacity:1;fill:#dd0038;fill-opacity:1;fill-rule:nonzero;stroke:none;stroke-width:0.40799999;stroke-linecap:round;stroke-linejoin:round;marker:none;marker-start:none;marker-mid:none;marker-end:none;stroke-miterlimit:4;stroke-dasharray:none;stroke-dashoffset:0;stroke-opacity:0.98983047;visibility:visible;display:inline;overflow:visible;enable-background:accumulate" />
      <path
         id="path3200"
         d="M 67.091273,22.965939 C 66.910708,22.92616 66.562852,22.872397 66.318264,22.846465 C 65.924395,22.804706 65.835446,22.775249 65.540209,22.588787 C 65.356866,22.472996 65.049007,22.30261 64.856078,22.210151 C 64.535112,22.056334 63.835652,21.513488 63.135031,20.874466 C 62.328631,20.138966 61.499195,18.764074 61.201937,17.670123 C 61.133565,17.418519 60.978037,16.621724 60.856313,15.899465 C 60.684325,14.878941 60.641191,14.51039 60.662778,14.245817 C 60.678057,14.05857 60.715872,13.885118 60.746818,13.860368 C 60.777759,13.835618 60.882623,13.804774 60.97985,13.791826 C 61.077077,13.778877 61.194967,13.751575 61.241823,13.731154 C 61.304003,13.704057 61.379057,13.751695 61.519615,13.907471 C 62.185603,14.64556 62.208741,14.657063 63.057421,14.671932 C 63.574341,14.680989 63.586867,14.678399 64.04334,14.468089 C 64.37426,14.315618 64.600636,14.246205 64.839744,14.223877 L 65.173801,14.192682 L 64.941421,14.572986 C 64.779261,14.838366 64.663008,15.119148 64.556714,15.502139 C 64.423152,15.983348 64.404802,16.128794 64.407762,16.682333 C 64.413076,17.676101 64.531314,18.577883 64.710237,18.989236 C 65.380039,20.529115 65.456417,20.664659 66.0259,21.324067 C 66.397035,21.753803 67.261347,22.487714 67.710663,22.75465 L 68.072242,22.96946 L 67.872176,23.004963 C 67.59149,23.05478 67.466105,23.048514 67.091273,22.965939 L 67.091273,22.965939 z"
         style="opacity:1;fill:#dd0038;fill-opacity:1;fill-rule:nonzero;stroke:none;stroke-width:0.40799999;stroke-linecap:round;stroke-linejoin:round;marker:none;marker-start:none;marker-mid:none;marker-end:none;stroke-miterlimit:4;stroke-dasharray:none;stroke-dashoffset:0;stroke-opacity:0.98983047;visibility:visible;display:inline;overflow:visible;enable-background:accumulate" />
      <path
         id="path3202"
         d="M 62.73403,13.71662 C 62.635798,13.701779 62.53054,13.611135 62.380472,13.412169 C 62.262936,13.256343 62.071082,13.068095 61.954117,12.993839 L 61.741454,12.858828 L 61.87836,12.73499 C 62.199548,12.444447 62.432353,12.330753 62.800832,12.284485 C 63.135147,12.242507 63.23543,12.255134 64.038036,12.440263 C 64.518409,12.551066 64.972932,12.641723 65.048088,12.641723 C 65.123243,12.641723 65.389151,12.593731 65.638992,12.535075 C 65.941159,12.464135 66.195283,12.435809 66.398,12.450472 C 66.693768,12.471866 66.70988,12.480596 66.944346,12.746523 C 67.219719,13.058833 67.251715,13.01612 66.586197,13.224546 C 66.190252,13.348547 66.130608,13.354677 65.818854,13.303406 C 65.07619,13.181268 64.389483,13.263701 63.749678,13.551791 C 63.309691,13.749906 63.138334,13.777715 62.734025,13.716621 L 62.73403,13.71662 z"
         style="opacity:1;fill:#b20038;fill-opacity:1;fill-rule:nonzero;stroke:none;stroke-width:0.40799999;stroke-linecap:round;stroke-linejoin:round;marker:none;marker-start:none;marker-mid:none;marker-end:none;stroke-miterlimit:4;stroke-dasharray:none;stroke-dashoffset:0;stroke-opacity:0.98983047;visibility:visible;display:inline;overflow:visible;enable-background:accumulate" />
      <path
         id="path3204"
         d="M 69.465131,13.615761 C 69.145671,13.430033 68.851408,13.231492 68.811214,13.174556 C 68.711492,13.033296 68.464611,12.791249 68.260979,12.635097 L 68.092233,12.505698 L 68.305294,12.34901 C 68.436589,12.252457 68.650054,12.162369 68.86151,12.114275 C 69.173248,12.04337 69.240696,12.043678 69.598315,12.117634 C 70.151515,12.232039 70.569374,12.189884 71.357778,11.940138 C 71.718145,11.825984 72.025454,11.732585 72.040692,11.732585 C 72.05593,11.732585 71.94842,11.97732 71.801776,12.276439 C 71.579078,12.730696 71.52112,12.908769 71.449965,13.357339 L 71.364774,13.894385 L 71.185194,13.924097 C 71.086426,13.940439 70.789694,13.953727 70.525791,13.953627 L 70.045969,13.953446 L 69.465131,13.615761 z"
         style="opacity:1;fill:#b20038;fill-opacity:1;fill-rule:nonzero;stroke:none;stroke-width:0.40799999;stroke-linecap:round;stroke-linejoin:round;marker:none;marker-start:none;marker-mid:none;marker-end:none;stroke-miterlimit:4;stroke-dasharray:none;stroke-dashoffset:0;stroke-opacity:0.98983047;visibility:visible;display:inline;overflow:visible;enable-background:accumulate" />
      <path
         id="path3206"
         d="M 72.421792,13.336203 C 72.469184,13.054478 72.637717,12.679164 72.946097,12.168624 C 73.237071,11.686903 73.289513,11.635622 73.641865,11.488311 C 73.876265,11.390312 73.941642,11.383913 74.254734,11.428317 C 74.486084,11.461128 74.74883,11.548332 75.027748,11.684877 C 75.405904,11.870003 75.479463,11.889161 75.728077,11.86726 C 76.004935,11.842872 76.347801,11.714996 76.906097,11.427906 C 77.198056,11.277775 77.293813,11.271568 77.293813,11.402777 C 77.293813,11.440337 77.367681,11.53313 77.457963,11.608984 C 77.78448,11.883318 77.784677,11.908293 77.462009,12.114704 C 77.303152,12.216324 77.066706,12.391177 76.936578,12.503268 C 76.806445,12.61536 76.509814,12.806815 76.277393,12.928725 L 75.854811,13.150379 L 74.970695,13.114364 C 73.485367,13.053858 73.547193,13.047668 72.970083,13.314696 C 72.689356,13.444587 72.443031,13.55086 72.422686,13.55086 C 72.402342,13.55086 72.401943,13.454264 72.421797,13.336203 L 72.421792,13.336203 z"
         style="opacity:1;fill:#b20038;fill-opacity:1;fill-rule:nonzero;stroke:none;stroke-width:0.40799999;stroke-linecap:round;stroke-linejoin:round;marker:none;marker-start:none;marker-mid:none;marker-end:none;stroke-miterlimit:4;stroke-dasharray:none;stroke-dashoffset:0;stroke-opacity:0.98983047;visibility:visible;display:inline;overflow:visible;enable-background:accumulate" />
      <path
         id="path3208"
         d="M 74.252583,40.813887 C 74.094049,40.528306 73.635991,39.487789 73.234677,38.501628 C 72.833364,37.515466 72.426606,36.526699 72.330767,36.304366 C 72.113857,35.80114 71.51263,33.976548 71.440434,33.602388 C 71.410953,33.449602 71.351581,33.047211 71.308498,32.708184 C 71.221327,32.0222 71.100225,31.34228 70.909513,30.468049 C 70.75096,29.741238 70.59977,28.278138 70.52619,26.758604 C 70.495255,26.119683 70.448808,25.392373 70.422983,25.14236 C 70.397154,24.892348 70.375627,24.46619 70.375142,24.195342 L 70.374269,23.702893 L 70.572168,23.702893 C 70.681011,23.702893 70.806018,23.689097 70.84996,23.672235 C 70.920519,23.645159 70.929873,23.726276 70.930014,24.366715 C 70.930105,24.777547 70.96248,25.277936 71.004705,25.521168 C 71.045692,25.757291 71.101886,26.382323 71.129575,26.910127 C 71.209599,28.435694 71.420398,29.992819 71.795998,31.832836 C 72.000235,32.833355 72.109322,33.237022 72.369254,33.954156 C 72.545819,34.441274 72.747314,35.010288 72.817025,35.218632 C 72.88674,35.426976 73.027879,35.824724 73.130667,36.102516 C 73.23346,36.380307 73.382882,36.800783 73.462714,37.036907 C 73.59965,37.441897 74.181816,38.590602 74.839905,39.754304 C 75.095671,40.206576 75.124071,40.282534 75.057098,40.335142 C 74.986489,40.390606 74.69106,40.943298 74.585216,41.217948 C 74.545603,41.320721 74.509788,41.277214 74.252583,40.813887 z"
         style="opacity:1;fill:#008000;fill-opacity:1;fill-rule:nonzero;stroke:none;stroke-width:0.40799999;stroke-linecap:round;stroke-linejoin:round;marker:none;marker-start:none;marker-mid:none;marker-end:none;stroke-miterlimit:4;stroke-dasharray:none;stroke-dashoffset:0;stroke-opacity:0.98983047;visibility:visible;display:inline;overflow:visible;enable-background:accumulate" />
      <path
         id="path3210"
         d="M 74.150194,36.69598 C 73.831586,35.758002 73.707378,35.414883 73.637546,35.279849 C 73.596564,35.200589 73.509964,34.944154 73.445107,34.709991 L 73.327182,34.284241 L 73.438395,34.16623 C 73.530137,34.068885 73.548491,33.993714 73.543223,33.736917 C 73.539708,33.5657 73.574326,33.300605 73.620146,33.147819 C 73.739162,32.750987 74.199135,32.00201 74.43886,31.814704 C 74.776458,31.550918 75.310894,31.000193 75.464852,30.757426 L 75.610702,30.527434 L 75.668039,30.840101 C 75.802333,31.572513 75.854215,32.222794 75.852154,33.147819 C 75.850023,34.108159 75.845972,34.145629 75.689944,34.65047 C 75.601929,34.935233 75.496065,35.346681 75.454689,35.564797 C 75.363488,36.04559 75.113339,36.588644 74.900626,36.767629 C 74.780008,36.869122 74.366134,37.087414 74.294322,37.087414 C 74.288175,37.087414 74.223324,36.911269 74.150194,36.69598 z"
         style="opacity:1;fill:#005e00;fill-opacity:1;fill-rule:nonzero;stroke:none;stroke-width:0.40799999;stroke-linecap:round;stroke-linejoin:round;marker:none;marker-start:none;marker-mid:none;marker-end:none;stroke-miterlimit:4;stroke-dasharray:none;stroke-dashoffset:0;stroke-opacity:0.98983047;visibility:visible;display:inline;overflow:visible;enable-background:accumulate" />
      <path
         id="path3212"
         d="M 70.728347,37.201056 C 70.247843,36.956035 68.780758,35.56223 68.344948,34.936714 C 68.056706,34.522996 67.513279,33.509627 67.240533,32.877228 C 67.116022,32.588528 67.10588,32.53736 67.179601,32.569831 C 67.582985,32.747499 68.03768,32.864502 68.45659,32.898434 C 68.886738,32.933276 68.99435,32.963986 69.466742,33.186714 C 70.043363,33.458582 70.423493,33.757431 70.578057,34.060399 C 70.632256,34.166642 70.711008,34.272823 70.753056,34.296355 C 70.795103,34.319886 70.978067,34.77678 71.159632,35.311673 C 71.341202,35.846567 71.579658,36.491484 71.689538,36.744824 C 71.799417,36.998164 71.883679,37.209604 71.876785,37.214691 C 71.798255,37.272619 71.467132,37.339952 71.260799,37.339952 C 71.076789,37.339952 70.921064,37.299331 70.728347,37.201056 z"
         style="opacity:1;fill:#005e00;fill-opacity:1;fill-rule:nonzero;stroke:none;stroke-width:0.40799999;stroke-linecap:round;stroke-linejoin:round;marker:none;marker-start:none;marker-mid:none;marker-end:none;stroke-miterlimit:4;stroke-dasharray:none;stroke-dashoffset:0;stroke-opacity:0.98983047;visibility:visible;display:inline;overflow:visible;enable-background:accumulate" />
      <path
         id="path3214"
         d="M 78.67476,11.559445 C 78.632493,11.494936 78.632629,11.490642 78.678023,11.457451 C 78.720424,11.426446 78.732657,11.431537 78.794324,11.505855 C 78.881715,11.611172 78.881382,11.626789 78.791743,11.626789 C 78.740683,11.626789 78.705686,11.606643 78.67476,11.559445 z"
         style="opacity:1;fill:#b20038;fill-opacity:1;fill-rule:nonzero;stroke:none;stroke-width:0.40799999;stroke-linecap:round;stroke-linejoin:round;marker:none;marker-start:none;marker-mid:none;marker-end:none;stroke-miterlimit:4;stroke-dasharray:none;stroke-dashoffset:0;stroke-opacity:0.98983047;visibility:visible;display:inline;overflow:visible;enable-background:accumulate" />
    </g>
    <path
       style="opacity:1;fill:#008000;fill-opacity:1;fill-rule:nonzero;stroke:none;stroke-width:0.40799998999999998;stroke-linecap:round;stroke-linejoin:round;marker:none;marker-start:none;marker-mid:none;marker-end:none;stroke-miterlimit:4;stroke-dasharray:none;stroke-dashoffset:0;stroke-opacity:0.98983047000000002;visibility:visible;display:inline;overflow:visible;enable-background:accumulate"
       d="M 32.82371,38.957552 C 32.676748,38.644833 32.651721,38.379493 32.74418,38.114274 C 32.784682,37.998085 32.812967,37.969581 32.839357,38.018349 C 32.908648,38.146384 32.999112,38.792524 32.979894,39.022126 L 32.960868,39.249411 L 32.82371,38.957552 z"
       id="path3250" />
  </g>
</svg>
