<?xml version="1.0" encoding="UTF-8" standalone="no"?>
<!-- Created with Inkscape (http://www.inkscape.org/) -->
<svg
   xmlns:dc="http://purl.org/dc/elements/1.1/"
   xmlns:cc="http://creativecommons.org/ns#"
   xmlns:rdf="http://www.w3.org/1999/02/22-rdf-syntax-ns#"
   xmlns:svg="http://www.w3.org/2000/svg"
   xmlns="http://www.w3.org/2000/svg"
   xmlns:sodipodi="http://sodipodi.sourceforge.net/DTD/sodipodi-0.dtd"
   xmlns:inkscape="http://www.inkscape.org/namespaces/inkscape"
   width="48px"
   height="48px"
   id="svg2383"
   sodipodi:version="0.32"
   inkscape:version="0.46"
   sodipodi:docname="quadrat_sonne.svg"
   inkscape:output_extension="org.inkscape.output.svg.inkscape"
   inkscape:export-filename="/home/stefan/workspace/FallingBlocks/res_original/quadrat_sonne.png"
   inkscape:export-xdpi="40.158451"
   inkscape:export-ydpi="40.158451">
  <defs
     id="defs2385">
    <inkscape:perspective
       sodipodi:type="inkscape:persp3d"
       inkscape:vp_x="0 : 24 : 1"
       inkscape:vp_y="0 : 1000 : 0"
       inkscape:vp_z="48 : 24 : 1"
       inkscape:persp3d-origin="24 : 16 : 1"
       id="perspective2391" />
    <filter
       inkscape:collect="always"
       id="filter3586">
      <feGaussianBlur
         inkscape:collect="always"
         stdDeviation="0.61495433"
         id="feGaussianBlur3588" />
    </filter>
    <filter
       inkscape:collect="always"
       id="filter3626">
      <feGaussianBlur
         inkscape:collect="always"
         stdDeviation="0.7037422"
         id="feGaussianBlur3628" />
    </filter>
    <filter
       inkscape:collect="always"
       id="filter3716"
       x="-0.17973487"
       width="1.3594697"
       y="-0.18026591"
       height="1.3605318">
      <feGaussianBlur
         inkscape:collect="always"
         stdDeviation="1.2443988"
         id="feGaussianBlur3718" />
    </filter>
  </defs>
  <sodipodi:namedview
     id="base"
     pagecolor="#ffffff"
     bordercolor="#666666"
     borderopacity="1.0"
     inkscape:pageopacity="0.0"
     inkscape:pageshadow="2"
     inkscape:zoom="7.0000002"
     inkscape:cx="20.55976"
     inkscape:cy="22.027585"
     inkscape:current-layer="layer1"
     showgrid="true"
     inkscape:grid-bbox="true"
     inkscape:document-units="px"
     inkscape:window-width="1440"
     inkscape:window-height="839"
     inkscape:window-x="0"
     inkscape:window-y="34" />
  <metadata
     id="metadata2388">
    <rdf:RDF>
      <cc:Work
         rdf:about="">
        <dc:format>image/svg+xml</dc:format>
        <dc:type
           rdf:resource="http://purl.org/dc/dcmitype/StillImage" />
      </cc:Work>
    </rdf:RDF>
  </metadata>
  <g
     id="layer1"
     inkscape:label="Layer 1"
     inkscape:groupmode="layer">
    <g
       id="g3177"
       transform="translate(-0.8571425,-0.7142858)">
      <path
         sodipodi:nodetypes="csssssssssssssssssssssssssssssssssssssssssssssssssssccssssssssssssssssssssc"
         id="path2395"
         d="M 2.5714286,1.8571428 C 2.8196532,2.4777043 3.9138442,1.5947249 4.5714286,1.7142857 C 5.5555586,1.8932184 6.2530868,2.2883596 7.2142857,2 C 8.3025798,1.6735118 9.3352687,2.1583605 10.428571,2.3571428 C 11.239123,2.5045158 11.729679,2.302525 12.5,2.0714285 C 13.354464,1.8150894 14.685313,2.5350414 15.5,2.7857143 C 15.94858,2.9237388 17.399472,2.0658727 17.857143,1.9285714 C 18.986579,1.5897406 20.792649,2.2955097 21.857143,2.4285714 C 23.193756,2.595648 23.108419,2.3925091 24.285714,2.0714285 C 25.276174,1.8013031 26.341895,2.5 27.428571,2.5 C 28.022587,2.5 27.856119,2.3705952 28.357143,2.1428571 C 28.922368,1.8859366 29.603424,2.1746485 30.214286,2.2857143 C 30.371429,2.3142857 30.268852,1.8571428 30.428571,1.8571428 C 30.997875,1.8571428 31.334349,2.8715866 31.357143,2.9285714 C 31.597806,3.5302281 31.944449,1.8730603 31.928571,1.7142857 C 31.831177,0.74034306 33.89735,2.1205299 34.857143,1.9285714 C 35.948113,1.7103775 36.404426,1.7713278 37.642857,2.1428571 C 38.218176,2.3154526 39.004237,1.9044088 39.571429,1.8571428 C 40.354594,1.791879 40.806052,1.6897819 41.642857,1.8571428 C 42.722105,2.0729924 42.479472,2.4955317 43.5,1.9285714 C 44.541959,1.3497052 44.973796,2.5242617 45.357143,3.2142857 C 45.806531,4.0231847 45.714286,4.400805 45.714286,5.3571428 C 45.714286,6.3048177 46.130537,7.0073396 46.214286,7.9285714 C 46.270731,8.549467 45.591916,9.6341818 45.357143,10.142857 C 45.101197,10.697406 45.516226,11.876543 45.571429,12.428571 C 45.671015,13.424435 45.80279,13.849687 46.714286,14.214286 C 47.449881,14.508524 46.756169,15.546753 46.642857,16 C 46.45085,16.76803 46.432691,17.557698 46.214286,18.285714 C 45.981165,19.062782 46.028925,19.500883 46.285714,20.142857 C 46.540373,20.779505 46.424914,21.536579 46.357143,22.214286 C 46.273956,23.04615 45.938082,23.825442 45.714286,24.571429 C 45.674337,24.704591 46.723372,26.271412 46.785714,26.5 C 46.980286,27.213431 46.338914,28.060762 46.142857,28.714286 C 45.916709,29.468113 46.309006,30.415371 46.571429,31.071429 C 46.828157,31.713249 46.849875,32.429822 46.785714,33.071429 C 46.73851,33.543476 45.902973,33.5 45.428571,33.5 C 44.63282,33.5 46.642913,34.614432 46.928571,35.357143 C 47.2543,36.204037 46.357143,36.537008 46.357143,37.357143 C 46.357143,38.240405 47.17676,39.66063 47.428571,40.5 C 47.670738,41.307222 47.439967,41.629834 46.928571,42.214286 C 46.561842,42.633405 48.303248,45.512179 48.357143,45.714286 C 48.529027,46.358853 47.153569,46.355105 46.714286,46.857143 C 45.936819,47.745676 43.19617,45.922533 42.142857,45.571429 C 41.35255,45.307993 40.343982,45.357143 39.5,45.357143 C 38.510399,45.357143 37.463605,45.896228 36.5,46.071429 C 35.086406,46.328446 33.566814,45.923284 32.071429,45.571429 C 31.339344,45.399173 30.342513,45.642857 29.571429,45.642857 C 28.815562,45.642857 27.994448,46.092423 27.285714,46.285714 C 26.543285,46.488195 26.114316,46.780932 25.571429,47.142857 C 24.568654,47.811374 22.207467,47.123295 21.142857,46.857143 C 20.048763,46.583619 18.98227,46.001658 17.928571,45.714286 C 16.994698,45.459593 16.473264,45.975171 15.785714,46.357143 C 15.068922,46.755361 11.551335,47.714286 13.214286,46.571429 C 9.03856,46.089136 10.258932,46.356622 10.357143,46.357143 C 9.8310447,45.896807 7.0975268,46.090275 7.2857143,46.285714 C 8.2558954,47.29328 5.7107694,45.741538 5,46 C 3.9312719,46.388628 3.7531291,45.668537 3.4285714,44.857143 C 3.2033532,44.294097 3.2857143,43.627739 3.2857143,43 C 3.2857143,42.193268 3.2963578,41.41036 3.1428571,40.642857 C 2.9865072,39.861107 2.7142857,39.429955 2.7142857,38.5 C 2.7142857,37.34069 2.4891676,37.769126 3.4285714,37.142857 C 4.5826795,36.373452 4.078275,35.229941 3.2857143,35.071429 C 2.5406346,34.922413 2.6428571,33.637091 2.6428571,33.071429 C 2.6428571,32.2776 2.55379,31.604957 2.6428571,30.714286 C 2.7167433,29.975424 2.6513509,29.400259 2.8571429,28.714286 C 3.257939,27.378299 3.3097681,27.000733 2.8571429,25.642857 C 2.5529177,24.730182 2.1133898,24.676804 2.2857143,23.642857 C 2.3911187,23.010431 3.2048518,22.090296 3.5,21.5 C 3.940815,20.61837 3.2142857,19.356331 3.2142857,18.428571 C 3.2142857,17.446088 3.5297309,16.367177 3.7857143,15.428571 C 3.9815562,14.710484 3.0542082,12.953281 2.8571429,12.214286 C 2.4682408,10.755903 1.5911403,9.7914372 2,8.4285714 C 2.2701141,7.528191 2.4758014,6.456272 2.5714286,5.5 C 2.6045766,5.1685199 1.7857143,4.5328856 1.7857143,3.8571428 C 1.7857143,2.9527696 2.4041228,2.0722502 2.5714286,1.8571428 z"
         style="opacity:1;fill:none;fill-opacity:1;fill-rule:evenodd;stroke:#000000;stroke-width:1;stroke-linecap:round;stroke-linejoin:round;marker:none;marker-start:none;marker-mid:none;marker-end:none;stroke-miterlimit:4;stroke-dasharray:none;stroke-dashoffset:0;stroke-opacity:1;visibility:visible;display:inline;overflow:visible;enable-background:accumulate" />
      <path
         sodipodi:nodetypes="cssssssssssssssssssssssssssssssssssssssssssssssssssssssssssssssssc"
         id="path2397"
         d="M 5.9285714,5.1428571 C 6.4613284,5.2276874 7.396502,5.1310494 8.0714286,4.9285714 C 8.8584022,4.6924793 9.8737439,4.7289573 10.642857,4.8571428 C 11.248419,4.9580698 11.903086,4.9457351 12.5,5 C 13.440531,5.0855028 14.627454,5.4445786 15.571429,5.7142857 C 16.296736,5.9215163 17.040959,5.4285714 17.785714,5.4285714 C 18.904762,5.4285714 20.02381,5.4285714 21.142857,5.4285714 C 21.746903,5.4285714 22.367321,4.8408215 23,4.7142857 C 24.147777,4.4847303 25.977038,5.1716827 27.071429,5.5 C 28.031543,5.7880344 29.151864,5.674068 29.928571,5.2857143 C 30.745458,4.877271 31.520114,5.0325943 32.428571,5.2142857 C 33.268694,5.3823102 34.221543,5.2438248 35.071429,5.3571428 C 35.440083,5.4062967 34.666596,4.7063022 34.357143,4.5 C 33.297501,3.7935719 36.78949,5.2876023 37.928571,5.8571428 C 39.025435,6.4055746 38.801533,7.05561 39.642857,6.2142857 C 40.183094,5.6740486 40.113165,5.5922968 41.214286,6.1428571 C 42.521656,6.796542 43.092582,7.0079686 42.642857,8.3571428 C 42.416085,9.0374579 42.428571,10.006941 42.428571,10.714286 C 42.428571,11.421153 42.178006,11.990167 42,12.642857 C 41.824813,13.285211 42,14.205651 42,14.928571 C 42,15.761905 42,16.595238 42,17.428571 C 42,18.371738 42.60149,19.650305 42.785714,20.571429 C 43.006309,21.674402 42.865948,22.350787 42.5,23.357143 C 42.23605,24.083006 42.360197,24.962171 42.428571,25.714286 C 42.510211,26.612315 42.398206,27.491031 42.571429,28.357143 C 42.709633,29.048166 41.549868,29.169839 41.642857,30.285714 C 41.693169,30.889456 42,31.635563 42,32.428571 C 42,33.271269 42.563469,34.256531 42.785714,35.071429 C 42.930346,35.601745 41.724656,35.36728 41.214286,35.571429 C 40.692552,35.780122 42.571429,36.009504 42.571429,36.571429 C 42.571429,37.229394 42.785714,37.767123 42.785714,38.5 C 42.785714,39.380147 42.390577,39.460486 42.928571,40.357143 C 43.428314,41.190047 43.001885,41.569005 42.5,42.214286 C 42.199768,42.600298 42.142857,43.195057 42.142857,43.5 C 42.142857,44.261905 40.619048,43.5 39.857143,43.5 C 39.125681,43.5 38.511696,42.966815 37.928571,42.642857 C 37.292438,42.28945 36.894757,43.42224 36.785714,43.785714 C 36.577112,44.481057 34.103998,43.663657 33.642857,43.571429 C 32.799728,43.402803 31.850948,43.644547 31.071429,43.857143 C 30.230462,44.086498 29.425207,43.856531 28.642857,43.714286 C 27.493127,43.505244 26.416331,42.823675 25.428571,42.428571 C 24.690868,42.13349 22.642554,43.1477 21.857143,43.357143 C 21.195011,43.533711 20.21628,42.785714 19.428571,42.785714 C 18.650158,42.785714 18.084142,43.015557 17.214286,42.928571 C 16.49204,42.856347 15.79507,42.591625 15.142857,42.428571 C 14.084929,42.164089 13.218375,42.427695 12.214286,42.642857 C 11.0267,42.89734 9.4967428,41.974019 8.5714286,41.357143 C 7.4887994,40.63539 7.6591716,40.338498 8.1428571,39.785714 C 8.6862088,39.164741 6.6533472,38.84156 6.3571429,38.071429 C 6.2341054,37.751531 6.5,36.170632 6.5,35.714286 C 6.5,35.050249 6.7142857,34.474125 6.7142857,33.785714 C 6.7142857,33.013173 6.0390042,32.70494 5.5,32.285714 C 4.9317002,31.843703 5.9847333,31.169937 6.1428571,30.642857 C 6.2461356,30.298596 6.1066464,29.252482 6.2142857,28.714286 C 6.4592274,27.489578 5.3774904,28.153243 5.7857143,26.928571 C 6.2526373,25.527802 7.1496587,24.19048 7.5714286,22.714286 C 7.6650811,22.386502 6.9693806,22.383671 6.6428571,22.285714 C 6.3132962,22.186846 7.0880416,20.235875 7.1428571,20.071429 C 7.3049327,19.585202 6.5714286,18.640577 6.5714286,18.214286 C 6.5714286,16.905757 5.7586787,16.689985 6.2857143,15.214286 C 6.8791601,13.552637 8.5249928,13.214286 6.7142857,13.214286 C 6.0667294,13.214286 6.8571429,12.598672 6.8571429,11.071429 C 6.8571429,10.547041 7.3193095,9.6772105 7.5,9.2857143 C 7.8818949,8.4582753 5.2142857,8.6970314 5.2142857,7.7857143 C 5.2142857,7.0779106 5.6859964,6.5664786 6.2142857,6.2142857 C 6.5577007,5.9853424 6.045421,5.3960311 5.9285714,5.1428571 z"
         style="opacity:1;fill:none;fill-opacity:1;fill-rule:evenodd;stroke:#000000;stroke-width:1;stroke-linecap:round;stroke-linejoin:round;marker:none;marker-start:none;marker-mid:none;marker-end:none;stroke-miterlimit:4;stroke-dasharray:none;stroke-dashoffset:0;stroke-opacity:1;visibility:visible;display:inline;overflow:visible;enable-background:accumulate" />
      <path
         id="path2399"
         d="M 2.4285714,1.7857143 C 2.5095862,2.4609671 2.690191,2.4427716 3.3571429,2.6428571 C 3.6064626,2.717653 4.1514704,3.6950366 4.5,4 C 4.9628594,4.405002 5.1304145,4.6366358 5.7142857,4.9285714 C 6.3364843,5.2396707 6.1284951,4.8567614 6.2857143,5.6428571"
         style="opacity:1;fill:none;fill-opacity:1;fill-rule:evenodd;stroke:#000000;stroke-width:1;stroke-linecap:round;stroke-linejoin:round;marker:none;marker-start:none;marker-mid:none;marker-end:none;stroke-miterlimit:4;stroke-dasharray:none;stroke-dashoffset:0;stroke-opacity:1;visibility:visible;display:inline;overflow:visible;enable-background:accumulate" />
      <path
         id="path2401"
         d="M 44.285714,2 C 44.317416,2.015851 43.806979,2.9624562 43.5,3.3571428 C 43.01941,3.975044 43.083492,5.2555546 42.785714,6 C 42.650997,6.3367931 42.621286,6.6029049 42.571429,6.7857143"
         style="opacity:1;fill:none;fill-opacity:1;fill-rule:evenodd;stroke:#000000;stroke-width:1;stroke-linecap:round;stroke-linejoin:round;marker:none;marker-start:none;marker-mid:none;marker-end:none;stroke-miterlimit:4;stroke-dasharray:none;stroke-dashoffset:0;stroke-opacity:1;visibility:visible;display:inline;overflow:visible;enable-background:accumulate" />
      <path
         id="path2403"
         d="M 42.142857,43.928571 C 41.955277,44.397523 43.159082,43.569153 43.642857,43.714286 C 44.241943,43.894011 44.779438,44.251535 45.428571,44.428571 C 45.919863,44.56256 46.468812,44.998546 46.857143,45.214286 C 47.518687,45.58181 47.930114,45.542799 48.285714,46"
         style="opacity:1;fill:none;fill-opacity:1;fill-rule:evenodd;stroke:#000000;stroke-width:1;stroke-linecap:round;stroke-linejoin:round;marker:none;marker-start:none;marker-mid:none;marker-end:none;stroke-miterlimit:4;stroke-dasharray:none;stroke-dashoffset:0;stroke-opacity:1;visibility:visible;display:inline;overflow:visible;enable-background:accumulate" />
      <path
         id="path2405"
         d="M 8.3571429,41.357143 C 8.9358116,41.678625 7.3365093,42.204232 6.7857143,42.571429 C 6.3480852,42.863181 6.3267929,43.978543 6.2142857,44.428571 C 6.1672544,44.616697 5.0649839,45.266917 4.8571429,45.428571 C 4.6379679,45.599041 4.3809524,45.714286 4.1428571,45.857143"
         style="opacity:1;fill:none;fill-opacity:1;fill-rule:evenodd;stroke:#000000;stroke-width:1;stroke-linecap:round;stroke-linejoin:round;marker:none;marker-start:none;marker-mid:none;marker-end:none;stroke-miterlimit:4;stroke-dasharray:none;stroke-dashoffset:0;stroke-opacity:1;visibility:visible;display:inline;overflow:visible;enable-background:accumulate" />
    </g>
    <path
       style="opacity:1;fill:#ffee00;fill-opacity:1;fill-rule:nonzero;stroke:none;stroke-width:0.40799998999999998;stroke-linecap:round;stroke-linejoin:round;marker:none;marker-start:none;marker-mid:none;marker-end:none;stroke-miterlimit:4;stroke-dasharray:none;stroke-dashoffset:0;stroke-opacity:0.98983047000000002;visibility:visible;display:inline;overflow:visible;enable-background:accumulate"
       d="M 26.960931,41.919112 C 24.10396,40.896697 24.003445,40.887706 22.264331,41.498954 C 21.379388,41.809989 20.582645,41.99172 20.493731,41.90282 C 20.251017,41.660069 15.093674,41.185129 12.331188,41.151123 C 9.4186167,41.115277 7.8422453,40.421283 7.9868167,39.238549 C 8.0471595,38.744743 7.7881024,38.307186 7.0715024,37.692654 L 6.0719881,36.835512 L 6.3238167,34.849672 C 6.5814738,32.818474 6.386931,31.943446 5.5707024,31.461657 C 5.2431024,31.26828 5.2498738,31.129943 5.6124167,30.612369 C 6.0904738,29.929823 6.2079595,27.258232 5.7791024,26.821226 C 5.6137024,26.652669 5.8302738,25.808134 6.350531,24.592952 C 7.2140738,22.575954 7.4217595,21.264083 6.8775024,21.264083 C 6.6745595,21.264083 6.631931,20.87784 6.7546738,20.151372 C 6.8734453,19.44824 6.777531,18.482617 6.4940738,17.528086 C 5.9078167,15.553974 5.9360167,14.70596 6.6169024,13.835512 C 7.2743881,12.994954 7.3448167,12.240663 6.7956167,11.921137 C 6.4647881,11.728657 6.4627881,11.467572 6.7830167,10.264083 C 7.3569595,8.106983 7.3048453,7.8550373 6.188331,7.3885259 C 5.090931,6.9300002 4.9687881,6.6591202 5.6169024,6.1212259 C 5.8526167,5.9256002 6.0454738,5.6004945 6.0454738,5.3987659 C 6.0454738,4.5959659 9.6090453,4.5475745 13.331188,5.2998402 C 14.707388,5.5779859 19.949102,5.2959487 22.258074,4.8195373 C 22.827502,4.7020459 23.897302,4.8211059 25.03196,5.1282487 C 26.310245,5.4742602 27.256502,5.5638202 28.105074,5.4190945 C 28.779445,5.304083 30.731131,5.1900116 32.442188,5.165603 C 35.190731,5.1263945 35.68516,5.1961259 36.685645,5.764083 C 37.972417,6.4945516 38.399874,6.5473145 39.164188,6.070003 C 39.597245,5.7995487 39.852674,5.830663 40.458531,6.2276459 C 41.17736,6.6986345 41.205045,6.8066773 41.039245,8.4931545 C 40.943502,9.467163 40.755731,10.842654 40.622017,11.549797 C 40.363902,12.914806 40.689902,18.093237 41.14936,19.92674 C 41.316931,20.595549 41.322102,21.369037 41.162702,21.924854 C 41.019645,22.423646 40.902617,23.937834 40.902617,25.289729 C 40.902617,26.853683 40.753045,28.049469 40.491417,28.577329 C 40.136245,29.293886 40.134445,29.690029 40.478274,31.484372 C 40.697188,32.626963 40.948417,33.678483 41.03656,33.821089 C 41.124731,33.963694 40.905617,34.121706 40.549702,34.172229 C 39.623274,34.303732 39.538417,35.357223 40.421845,35.759746 C 41.042874,36.042706 41.124131,36.291934 41.253702,38.310906 C 41.44456,41.284666 40.934188,42.520054 39.630617,42.2397 C 39.151645,42.136686 38.392331,41.864569 37.943274,41.634994 C 36.946102,41.125206 35.86096,41.352312 35.616702,42.121889 C 35.406817,42.783109 35.290045,42.798434 33.635645,42.381857 C 32.805074,42.172712 31.824902,42.158314 30.638874,42.33782 C 29.088902,42.57242 28.645445,42.521929 26.960931,41.919106 L 26.960931,41.919112 z"
       id="path3781" />
    <path
       style="opacity:1;fill:#ffff00;fill-opacity:1;fill-rule:nonzero;stroke:none;stroke-width:0.40799998999999998;stroke-linecap:round;stroke-linejoin:round;marker:none;marker-start:none;marker-mid:none;marker-end:none;stroke-miterlimit:4;stroke-dasharray:none;stroke-dashoffset:0;stroke-opacity:0.98983047000000002;visibility:visible;display:inline;overflow:visible;enable-background:accumulate"
       d="M 21.940527,45.959021 C 20.746506,45.708026 19.672573,45.380367 18.307119,44.850456 C 16.730332,44.238529 16.386031,44.246335 15.020214,44.924985 C 14.439003,45.213781 13.724259,45.505248 13.431911,45.572693 C 12.952048,45.683398 12.887378,45.677574 12.766907,45.512822 C 12.479014,45.119099 6.6320086,44.682563 6.2210583,45.024107 C 6.1056989,45.119987 5.9512567,45.10759 5.4924252,44.965623 L 4.9101733,44.785471 L 5.2571708,44.547711 C 5.7265078,44.226117 5.8386752,44.020086 6.0254928,43.136515 L 6.1852888,42.380742 L 7.0439185,41.91544 L 7.9025482,41.450142 L 8.7402475,41.879945 C 9.9427633,42.496936 10.686912,42.612228 11.908126,42.370748 C 13.161614,42.122886 13.765282,42.144067 14.973616,42.478308 C 15.921846,42.740598 16.067359,42.754005 17.347353,42.696974 C 18.664824,42.638271 18.742596,42.646357 19.646662,42.935954 C 20.161315,43.100807 20.663553,43.235691 20.76277,43.235691 C 20.861987,43.235691 21.611712,43.008407 22.428835,42.730615 C 23.245957,42.452823 24.002763,42.225538 24.110628,42.225538 C 24.218482,42.225538 24.871262,42.476198 25.561257,42.782559 C 27.70866,43.736027 29.104529,43.923212 31.091196,43.524124 L 32.169655,43.307481 L 33.346584,43.575853 C 34.72827,43.890926 35.722048,43.937892 36.077602,43.704926 C 36.211043,43.617486 36.437125,43.290626 36.579981,42.978569 L 36.839742,42.411193 L 37.119372,42.608217 C 37.70526,43.021037 38.247702,43.210618 39.469815,43.429685 C 40.164295,43.554176 40.811439,43.697822 40.907909,43.748904 C 41.17269,43.889107 41.742062,43.860594 42.180489,43.685172 C 42.56568,43.531042 42.58852,43.535213 43.621997,43.94841 C 44.585894,44.333794 46.126145,45.135939 46.132761,45.255996 C 46.13661,45.325827 45.52467,45.691538 45.278192,45.76671 C 44.981985,45.857049 44.266363,45.621826 42.936891,44.997143 C 41.283696,44.220351 40.967346,44.144967 39.315201,44.134096 C 37.981163,44.125321 37.835388,44.144673 36.646681,44.488373 C 35.039225,44.95315 34.399799,44.96023 32.355553,44.535877 C 30.849961,44.223334 30.817263,44.221043 29.418797,44.329802 C 28.20316,44.424339 27.832272,44.497855 26.77738,44.853355 C 26.102426,45.080821 25.300022,45.417565 24.994269,45.601678 C 23.946781,46.232454 23.493576,46.285483 21.940527,45.959019 L 21.940527,45.959021 z"
       id="path3783" />
    <path
       style="opacity:1;fill:#ffff00;fill-opacity:1;fill-rule:nonzero;stroke:none;stroke-width:0.40799998999999998;stroke-linecap:round;stroke-linejoin:round;marker:none;marker-start:none;marker-mid:none;marker-end:none;stroke-miterlimit:4;stroke-dasharray:none;stroke-dashoffset:0;stroke-opacity:0.98983047000000002;visibility:visible;display:inline;overflow:visible;enable-background:accumulate"
       d="M 3.1885198,44.176161 C 3.1239205,44.020032 3.0353402,43.051338 2.9916714,42.023508 C 2.9289207,40.54612 2.858604,39.94316 2.6559472,39.144573 C 2.5149602,38.588989 2.3990654,37.924541 2.3984088,37.668022 C 2.3973077,37.236879 2.4271375,37.181819 2.7931057,36.939636 C 3.7105868,36.332474 4.0116325,35.467976 3.5906413,34.649394 C 3.4194508,34.316522 3.2419771,34.140738 2.9277186,33.992795 C 2.6536339,33.863762 2.4711397,33.699518 2.4226423,33.538226 C 2.3808826,33.39933 2.3504467,32.285637 2.3550025,31.063353 C 2.3623867,29.085213 2.3886002,28.746669 2.5934591,27.982387 C 2.9784182,26.546254 2.8668468,25.369585 2.2257333,24.104408 C 1.8544214,23.371671 1.9311627,22.962668 2.6538258,21.822709 C 3.377388,20.681347 3.4312089,20.312748 3.1061317,18.72544 C 2.8540482,17.494595 2.8702005,17.1888 3.2708472,15.608019 C 3.4425933,14.930334 3.5081017,14.458534 3.4698675,14.174525 C 3.4385224,13.941688 3.0650387,12.805267 2.6399059,11.649144 C 1.4658561,8.4563812 1.5009791,8.643712 1.8180761,7.2668832 C 2.3708013,4.8668718 2.3652051,4.5785693 1.7481837,3.6705502 C 1.4585426,3.2443093 1.4438954,3.1442506 1.5926707,2.6086082 C 1.6911909,2.2538749 1.7097979,2.2408712 1.9827916,2.3360346 C 2.1404461,2.390996 2.4068132,2.6268091 2.5746905,2.8600614 C 2.9884894,3.4349826 3.8712415,4.2908122 4.2743631,4.5079081 C 4.455837,4.6056403 4.6542511,4.7951965 4.7152845,4.9291447 C 4.8120976,5.1416545 4.7862276,5.2132602 4.5121833,5.4911128 C 4.1131932,5.8956405 3.9353458,6.2368286 3.8520991,6.757439 C 3.7192842,7.5879985 4.1147388,8.0126748 5.3266592,8.3409753 C 5.6877887,8.4388026 5.9952084,8.5272939 6.0098253,8.5376238 C 6.0244422,8.5479536 5.9239018,8.8107407 5.7864301,9.121597 C 5.6489483,9.4324543 5.488627,10.041744 5.4301392,10.475576 C 5.3716615,10.909409 5.2638277,11.486834 5.1905007,11.758744 C 5.0248559,12.373059 5.0811719,12.695955 5.3891674,12.89776 L 5.6278058,13.054122 L 5.4095927,13.360559 C 4.7478519,14.2899 4.5687114,15.401857 4.913335,16.440993 C 5.0193506,16.760674 5.134215,17.219691 5.1685804,17.46103 C 5.2029458,17.702369 5.3478724,18.177356 5.4906372,18.516557 L 5.7502161,19.133288 L 5.4672522,20.04756 C 5.3116382,20.550406 5.183268,21.12866 5.1820154,21.332566 C 5.17949,21.74215 5.448726,22.123503 5.7404176,22.123503 C 5.839655,22.123503 5.9475191,22.166699 5.9801571,22.219494 C 6.012775,22.27229 5.8047341,22.829136 5.5178305,23.456931 C 4.2104103,26.317784 4.0940104,26.793326 4.5643374,27.352281 C 4.801299,27.633897 4.8101783,27.694519 4.7668326,28.73483 C 4.7231334,29.783414 4.7089206,29.839962 4.3748732,30.295038 C 3.7423258,31.156733 3.7957225,31.65882 4.5797625,32.221877 C 5.2929908,32.734075 5.360671,32.892483 5.2368566,33.75968 C 5.0371494,35.158448 4.8981424,36.887716 4.9527108,37.294569 C 5.0186738,37.786342 5.3886219,38.207532 6.0518679,38.54598 C 6.6400393,38.846114 6.6747885,38.902982 6.4884255,39.260328 C 6.2753136,39.668931 6.2996381,39.920238 6.59434,40.354502 C 6.7359836,40.563227 6.8382615,40.745927 6.8216243,40.760508 C 6.8049871,40.775089 6.5413676,40.911145 6.2357965,41.062854 C 5.9302253,41.214565 5.5765103,41.433846 5.4497665,41.550151 C 5.2293512,41.752414 5.0070469,42.371987 4.8797172,43.138923 C 4.8294621,43.441665 4.7232546,43.559661 4.1896012,43.905707 C 3.8427148,44.130649 3.5019903,44.347392 3.4324312,44.387361 C 3.3510634,44.434129 3.2641095,44.358848 3.1885198,44.17616 L 3.1885198,44.176161 z"
       id="path3785" />
    <path
       style="opacity:1;fill:#ffe500;fill-opacity:1;fill-rule:nonzero;stroke:none;stroke-width:0.40799998999999998;stroke-linecap:round;stroke-linejoin:round;marker:none;marker-start:none;marker-mid:none;marker-end:none;stroke-miterlimit:4;stroke-dasharray:none;stroke-dashoffset:0;stroke-opacity:0.98983047000000002;visibility:visible;display:inline;overflow:visible;enable-background:accumulate"
       d="M 37.794406,4.9482649 C 37.340535,4.6310265 34.965454,3.5538382 34.010648,3.2321884 C 33.657771,3.1133107 33.301086,3.0548289 33.154038,3.0917378 C 32.885479,3.1591362 32.741735,3.4942846 32.832497,3.841363 C 32.898541,4.0938849 32.685873,4.1002691 31.27366,3.8881583 C 30.138662,3.7176839 29.878215,3.7407265 28.721913,4.1139082 C 28.03707,4.3349326 27.808059,4.3631411 27.105669,4.3129901 C 26.64906,4.2803894 25.930508,4.137673 25.480101,3.9901301 C 24.342033,3.6173243 23.403743,3.4356806 22.616066,3.4356806 C 22.048967,3.4356806 21.817208,3.4935523 21.200227,3.789234 L 20.462482,4.1427874 L 18.627186,4.1445411 C 17.396921,4.1457169 16.558798,4.1956689 16.084824,4.2960639 C 15.123088,4.4997753 14.979525,4.4905547 13.669479,4.1409388 C 11.90953,3.6712573 8.326297,3.3894399 7.2964566,3.6397102 C 6.3892588,3.860176 5.6143304,3.9293321 5.3427812,3.8140636 C 4.8105318,3.5881268 4.0807673,2.9687184 3.5925606,2.3284838 C 3.1236276,1.7135191 3.1070005,1.6713815 3.3044853,1.5983293 C 3.429421,1.5521138 3.849503,1.6012234 4.344599,1.7199194 C 5.2919503,1.9470421 5.903931,1.9701816 6.6160381,1.8058056 C 7.0415547,1.7075854 7.2705967,1.7247631 8.2147358,1.9257147 C 9.7632592,2.2553033 10.38322,2.2776761 11.301631,2.0371214 C 12.179191,1.8072683 12.375584,1.8310705 13.722067,2.3304667 C 14.757847,2.7146287 15.042377,2.6923326 16.328897,2.1261906 C 17.468228,1.6248186 17.729201,1.6168424 19.755436,2.0214671 C 21.602308,2.3902738 21.907606,2.3946063 23.018531,2.0677715 L 23.891354,1.8109836 L 25.006289,2.0677482 C 26.385976,2.3854887 26.97737,2.3957407 27.44602,2.1100423 C 27.749662,1.9249359 27.878133,1.9068713 28.405665,1.975088 C 28.740652,2.0184063 29.182856,2.0590912 29.388341,2.0655006 C 29.695983,2.0750971 29.803554,2.1391175 29.997675,2.4281181 C 30.184766,2.7066465 30.310489,2.7855263 30.606828,2.8103053 C 30.934935,2.83774 31.004494,2.8016513 31.18012,2.5128518 C 31.290054,2.3320789 31.434314,1.9722696 31.500691,1.7132746 L 31.621374,1.2423718 L 32.085822,1.3847235 C 33.359584,1.7751262 33.572454,1.804654 34.382727,1.7033397 C 35.077894,1.6164161 35.292632,1.6323028 36.108775,1.831021 C 36.955323,2.0371396 37.099058,2.0461754 37.674511,1.9294392 C 38.973638,1.6659045 39.231742,1.6293077 39.832803,1.6234276 C 40.200155,1.6198355 40.685099,1.6988648 41.035552,1.8194366 C 41.358518,1.9305534 41.774751,2.0214671 41.960508,2.0214671 C 42.146255,2.0214671 42.298242,2.0415974 42.298242,2.0662007 C 42.298242,2.090804 42.20645,2.2665079 42.094262,2.4566529 C 41.982075,2.646799 41.779438,3.3369059 41.643966,3.9902251 C 41.508495,4.6435433 41.380195,5.1955209 41.358871,5.2168412 C 41.337557,5.2381605 40.974963,5.096134 40.553103,4.9012261 C 39.499928,4.4146296 39.080927,4.4354286 38.459663,5.0051486 L 38.207124,5.2367321 L 37.794406,4.9482649 z"
       id="path3787" />
    <path
       style="opacity:1;fill:#ffe500;fill-opacity:1;fill-rule:nonzero;stroke:none;stroke-width:0.40799998999999998;stroke-linecap:round;stroke-linejoin:round;marker:none;marker-start:none;marker-mid:none;marker-end:none;stroke-miterlimit:4;stroke-dasharray:none;stroke-dashoffset:0;stroke-opacity:0.98983047000000002;visibility:visible;display:inline;overflow:visible;enable-background:accumulate"
       d="M 45.764591,43.686203 C 45.536337,43.550088 44.788036,43.208371 44.101698,42.926834 C 43.008642,42.478458 42.794298,42.422428 42.374004,42.475245 C 41.950002,42.528527 41.894181,42.513396 41.894181,42.345189 C 41.894181,42.240492 42.025764,41.973195 42.18658,41.75119 C 42.862817,40.817653 42.966024,40.216143 42.590419,39.397111 C 42.419622,39.024674 42.393075,38.823907 42.443472,38.285943 C 42.507647,37.600778 42.292111,35.710146 42.113415,35.390836 C 42.037077,35.254428 42.070907,35.144166 42.256907,34.923122 C 42.390752,34.764046 42.500273,34.562445 42.500273,34.475121 C 42.500273,34.387796 42.321466,33.766251 42.102929,33.093911 C 41.740689,31.979468 41.542062,30.98895 41.415167,29.664093 C 41.37174,29.21089 41.395176,29.146218 41.726203,28.805464 C 42.257957,28.258065 42.296636,28.075591 42.1925,26.604914 C 42.014935,24.097331 42.037795,23.265144 42.307303,22.426548 C 42.685727,21.24902 42.642038,20.188271 42.151275,18.638476 L 41.767417,17.426293 L 41.690009,14.910567 C 41.618561,12.589371 41.627622,12.34333 41.807126,11.72859 C 41.919102,11.345134 42.039694,10.483497 42.091232,9.6986264 C 42.140487,8.9485882 42.259382,8.0233551 42.355447,7.6425528 C 42.498343,7.0761411 42.509778,6.8620666 42.418309,6.465809 C 42.341739,6.1340789 42.338224,5.8747657 42.407177,5.6429488 C 42.462554,5.4567827 42.60047,4.8502286 42.713668,4.2950528 C 42.864655,3.5545675 43.016824,3.1254052 43.284848,2.6841938 L 43.65021,2.082746 L 43.984379,2.7824605 C 44.278434,3.3981828 44.318547,3.581484 44.318547,4.3094717 C 44.318547,4.8522176 44.408289,5.5091733 44.57947,6.2194944 C 44.835139,7.2804121 44.836867,7.3116026 44.6651,7.7680623 C 44.568691,8.0242753 44.360358,8.4789531 44.202147,8.7784552 C 43.858534,9.4289177 43.829149,10.05755 44.076899,11.45768 C 44.353529,13.021061 44.501072,13.291457 45.433422,13.943717 C 45.648817,14.09441 45.649858,14.10625 45.482223,14.499301 C 45.388006,14.720189 45.154994,15.716259 44.964399,16.712793 L 44.617866,18.524674 L 44.831372,19.33919 C 45.105476,20.384922 45.037523,21.465626 44.614663,22.785709 C 44.451797,23.294146 44.318547,23.797767 44.318547,23.904873 C 44.318547,24.011982 44.571378,24.542161 44.880394,25.083055 C 45.501032,26.169392 45.495729,26.080177 45.006764,27.208536 C 44.590895,28.168233 44.596077,28.853525 45.028685,30.109508 C 45.228968,30.690978 45.36152,31.280249 45.368217,31.618937 L 45.379208,32.174521 L 44.823624,32.226089 C 44.17553,32.286247 44.036998,32.357368 43.908244,32.696023 C 43.775671,33.044721 43.910688,33.252992 44.854858,34.156229 L 45.660929,34.927353 L 45.319134,35.520731 C 44.80632,36.411009 44.842059,36.944514 45.531256,38.687297 C 45.827281,39.435847 46.069475,40.167621 46.069475,40.313462 C 46.069475,40.459304 45.937165,40.752105 45.77544,40.964131 C 45.385814,41.474955 45.408502,41.927034 45.878738,43.022879 C 46.078839,43.489198 46.228402,43.884894 46.211088,43.902208 C 46.193774,43.919519 45.992845,43.82232 45.764591,43.686204 L 45.764591,43.686203 z"
       id="path3789" />
    <g
       id="g3802"
       transform="translate(-44.143667,-9.7984797)">
      <path
         transform="matrix(0.5095453,0.2154049,-0.2398949,0.5815334,16.901059,-1.5365821)"
         id="path3580"
         d="M 101.60993,45.709475 C 101.43128,45.232452 101.29584,43.821179 101.36486,43.155904 C 101.38932,42.920189 101.47069,42.446422 101.54569,42.103089 C 101.82688,40.815845 101.6821,38.757469 101.19773,37.155904 C 100.54972,35.013322 100.50582,34.821266 100.51202,34.155904 C 100.519,33.406896 100.62283,33.098366 101.22344,32.041973 C 101.57733,31.419536 101.61957,31.298218 101.68358,30.720544 C 101.72234,30.370706 101.78689,29.802653 101.82703,29.458204 C 101.91537,28.700146 101.85745,28.529066 101.5238,28.562446 C 101.26946,28.587891 101.26558,28.593496 100.92166,29.430545 C 100.71383,29.936387 100.60723,30.102063 100.38693,30.261651 C 100.13733,30.442458 100.07025,30.457648 99.664768,30.425169 C 99.245598,30.391595 99.204978,30.402111 99.012448,30.594063 C 98.558258,31.046859 97.727528,32.419239 97.295858,33.429863 C 96.884658,34.392589 96.505578,35.144364 96.384508,35.237238 C 96.332078,35.27745 96.047938,35.396534 95.753068,35.501869 C 95.064878,35.747709 94.787108,35.919409 94.650628,36.183317 C 94.590248,36.300084 94.381008,36.991997 94.185658,37.720902 C 93.623038,39.820213 93.380808,40.339176 92.771968,40.749628 C 92.319688,41.054532 92.308848,41.071637 91.792638,42.294511 C 91.325328,43.401546 91.025468,43.773382 90.714338,43.631622 C 90.576048,43.568616 90.538518,43.512276 90.574778,43.422101 C 90.602058,43.354264 90.746808,42.812608 90.896478,42.218421 C 91.090308,41.448889 91.261708,40.955701 91.492228,40.504136 C 91.850838,39.801689 91.937028,39.517549 92.496978,37.191618 C 92.816648,35.863783 92.890428,35.435511 92.921458,34.727332 C 92.996448,33.016679 93.391428,31.916971 94.300328,30.888341 C 95.140218,29.937801 95.464918,29.695003 96.156778,29.500154 C 96.510828,29.400444 96.926348,29.221161 97.154548,29.069643 C 97.575278,28.790287 97.570728,28.797908 98.361778,27.048761 C 98.870178,25.924616 98.912868,25.781641 98.806878,25.558126 C 98.705498,25.344313 98.174058,25.048761 97.890968,25.048761 C 97.775828,25.048761 97.511868,25.188804 97.217638,25.406001 C 96.951468,25.602484 96.609778,25.800368 96.458318,25.845745 C 96.126008,25.945307 95.450858,26.475696 95.143548,26.878617 C 94.999378,27.067632 94.799428,27.536776 94.580558,28.199535 C 94.102628,29.646819 93.910668,29.913799 93.127258,30.220812 C 92.885048,30.315737 92.500968,30.521223 92.273748,30.677451 C 91.872388,30.953415 91.839268,30.962681 91.110628,31.002934 C 90.144678,31.056294 89.875578,31.137491 89.590928,31.461465 C 89.464258,31.605631 89.161718,31.919191 88.918608,32.158272 C 88.517068,32.553159 88.411188,32.614809 87.762378,32.831506 C 87.116408,33.047251 87.005058,33.064456 86.597248,33.011537 C 86.349248,32.979356 86.027778,32.955164 85.882868,32.957776 L 85.619398,32.962526 L 85.882868,32.523501 C 86.040708,32.260501 86.509278,31.726488 87.051548,31.191618 C 87.549408,30.700546 88.248508,29.954361 88.605098,29.533429 C 88.961678,29.112496 89.314538,28.735396 89.389208,28.695431 C 89.463898,28.655464 89.829918,28.512387 90.202608,28.377479 C 91.083368,28.058657 91.294278,27.947062 91.682058,27.59471 C 92.194258,27.129289 92.250588,27.028681 92.680758,25.81099 C 93.212408,24.30605 93.440308,23.842091 93.748548,23.637114 C 93.972478,23.488207 94.046408,23.478006 94.605688,23.518846 C 95.133348,23.557377 95.275508,23.5417 95.636428,23.405189 C 96.331868,23.142149 96.917268,22.383778 97.020818,21.611743 C 97.053408,21.368744 97.029528,21.296485 96.857158,21.116565 C 96.611308,20.859953 96.403518,20.849041 95.457778,21.043066 C 95.090058,21.118504 94.560928,21.202546 94.281938,21.229822 C 93.719878,21.284774 93.609158,21.248779 93.157288,20.864211 C 92.849708,20.602444 92.319018,20.334767 91.682528,20.120351 C 91.336308,20.003714 91.059948,19.976031 90.201608,19.972009 C 89.007838,19.966416 88.316648,20.086225 87.055488,20.517347 L 86.321778,20.768165 L 85.805488,20.618363 C 85.521528,20.535969 84.998608,20.343066 84.643448,20.189686 C 83.742698,19.800691 83.381038,19.736204 82.074908,19.73168 C 80.829208,19.727368 81.108908,19.675356 78.263438,20.440419 C 77.455868,20.657552 77.280458,20.661204 76.682058,20.473336 C 76.426698,20.393168 76.012308,20.287694 75.761178,20.238954 L 75.304588,20.150336 L 76.082608,19.849368 C 76.510518,19.683837 77.262408,19.432929 77.753478,19.291796 C 78.583688,19.053196 78.719008,19.034641 79.682058,19.027385 C 80.251698,19.023093 81.007058,19.031386 81.360628,19.045814 C 82.156108,19.078276 83.139678,18.838607 84.210238,18.351443 L 84.916998,18.029831 L 86.138818,18.069316 C 86.810808,18.091035 87.873488,18.177359 88.500328,18.261149 C 89.137108,18.346269 89.767488,18.393958 89.928898,18.369221 C 90.087778,18.344871 90.844558,18.142736 91.610628,17.920034 C 92.947438,17.531413 93.035098,17.515416 93.789198,17.522469 C 94.221338,17.526513 94.959288,17.582295 95.429088,17.646432 C 95.971458,17.720481 96.782218,17.763046 97.650158,17.763046 C 98.883678,17.763046 99.028588,17.7503 99.135268,17.632422 C 99.349078,17.39616 99.282658,17.095029 98.914198,16.630207 C 98.727588,16.394798 98.488608,16.091644 98.383118,15.95653 C 98.264008,15.803971 97.952708,15.588752 97.561688,15.388646 C 96.880888,15.040238 96.656768,14.959753 96.012318,14.83223 L 95.592598,14.749174 L 95.637378,14.368057 C 95.695628,13.872502 95.606668,13.657513 95.272928,13.487253 C 95.103558,13.400846 94.954568,13.251304 94.878118,13.090986 C 94.721278,12.762091 94.424658,12.583758 93.856008,12.47646 C 93.183078,12.349489 93.178378,12.342455 93.272768,11.603731 C 93.351198,10.989887 93.349708,10.977159 93.177958,10.790289 C 92.972938,10.567213 92.254278,10.222186 91.110628,9.7977546 C 90.658838,9.6300896 89.823128,9.2561746 89.253478,8.9668326 C 88.683838,8.6774896 87.935028,8.3346076 87.589478,8.2048696 C 87.243908,8.0751336 86.770858,7.8574426 86.538248,7.7211126 C 85.999408,7.4053026 84.847608,6.5445876 84.275988,6.0305676 L 83.834208,5.6333026 L 84.597418,5.5731746 C 85.772748,5.4805776 87.346508,5.5161636 88.065798,5.6516006 C 89.714998,5.9621326 90.675428,6.5711176 91.291868,7.6971846 C 91.597458,8.2554106 92.296638,8.9211626 92.856148,9.1866826 C 93.237648,9.3677276 94.470028,9.6019156 95.342858,9.6592276 C 96.130318,9.7109346 96.070378,9.6696476 96.634258,10.548761 C 96.874158,10.922786 97.003808,11.047761 97.301128,11.191618 C 97.504128,11.289832 97.850058,11.541136 98.069878,11.75007 C 98.292278,11.961464 98.667148,12.220551 98.915078,12.334221 C 99.196788,12.46338 99.413158,12.619336 99.503478,12.758356 C 99.585868,12.885154 99.770208,13.025727 99.938978,13.090448 C 100.20631,13.192971 100.25563,13.192638 100.50943,13.086594 C 100.66223,13.02275 100.8626,12.899726 100.95469,12.813209 C 101.11767,12.660106 101.12478,12.659511 101.2209,12.790961 C 101.30908,12.911554 101.38955,12.922033 101.97236,12.888803 C 102.46862,12.860506 102.67042,12.817881 102.81428,12.710967 C 103.13928,12.469419 103.08208,12.087985 102.71216,12.030141 C 102.63668,12.018338 102.39819,11.821344 102.1822,11.592377 C 101.96621,11.363411 101.64175,11.10121 101.46118,11.009709 L 101.13288,10.843345 L 101.08708,10.094932 C 101.03048,9.1698746 100.81338,8.4515356 100.37709,7.7458206 C 99.819628,6.8440906 99.803698,6.7966306 99.756878,5.8972826 L 99.713678,5.0672326 L 99.394298,4.6650496 C 99.218628,4.4438506 98.970108,4.0950206 98.842028,3.8898726 L 98.609138,3.5168766 L 98.627738,2.3721046 L 98.646338,1.2273326 L 98.120848,0.12018956 C 97.831828,-0.48873924 97.413968,-1.3721184 97.192278,-1.8428756 C 96.970578,-2.3136327 96.683658,-2.816932 96.554668,-2.9613184 L 96.320128,-3.2238399 L 96.768958,-3.1858891 C 97.196518,-3.1497356 97.797168,-2.9068041 97.968028,-2.700917 C 98.006108,-2.655037 98.100458,-2.3033777 98.177688,-1.9194534 C 98.369808,-0.96444274 98.639018,-0.51422064 99.255068,-0.11772494 C 99.509558,0.046065557 99.799318,0.24373756 99.898998,0.32154756 C 100.14526,0.51379356 100.75774,1.6378326 101.15548,2.6274896 C 101.33543,3.0752596 101.52678,3.5269426 101.58068,3.6312296 C 101.76025,3.9786786 102.68461,5.0781096 103.2229,5.5844746 C 103.82183,6.1478856 103.7541,5.9594096 104.04033,7.8594066 C 104.20022,8.9207716 104.35533,9.4170356 104.66878,9.8701896 C 104.83185,10.105937 104.91363,10.159833 105.13636,10.17837 C 105.28483,10.190725 105.45463,10.160734 105.51369,10.11172 C 105.69653,9.9599786 105.89634,9.4957106 105.89634,9.2226306 C 105.89634,8.7207246 105.52766,7.4789946 105.09588,6.5266726 C 104.82447,5.9280326 104.81189,5.8689996 104.83719,5.3123876 C 104.86187,4.7695166 104.88422,4.6969566 105.1472,4.3060476 C 105.40946,3.9161846 105.42966,3.8509796 105.41802,3.4318256 C 105.40098,2.8188006 105.15296,1.9526306 104.88047,1.5545296 C 104.26192,0.65085556 104.18228,0.49954256 104.07253,0.019393557 C 103.90027,-0.73427844 103.92568,-1.090367 104.23863,-2.308382 C 104.47566,-3.2309077 104.53097,-3.5822756 104.57028,-4.4155249 C 104.62388,-5.5513913 104.53963,-6.4892341 104.32018,-7.1997463 L 104.1721,-7.6791691 L 104.34224,-7.9402034 C 104.4358,-8.0837734 104.60653,-8.4196106 104.72161,-8.6865091 L 104.93085,-9.1717785 L 105.0616,-8.8650806 C 105.18939,-8.5653284 106.08633,-5.409462 106.24502,-4.7012391 C 106.28903,-4.5048106 106.3728,-3.8098334 106.43117,-3.1568463 C 106.48955,-2.5038577 106.58482,-1.7485013 106.64289,-1.4782749 C 107.06471,0.48442656 107.19511,0.95659056 107.40985,1.2987606 C 107.913,2.1005236 107.97651,2.2651166 108.20012,3.3467966 C 108.41623,4.3921976 108.4264,4.5157776 108.42553,6.0844746 C 108.42503,6.9880466 108.39747,8.2189056 108.36428,8.8197176 L 108.30394,9.9121046 L 108.63708,10.22234 C 109.22121,10.766308 109.51741,10.699499 109.89084,9.9395526 C 110.12661,9.4597446 110.13742,9.4013156 110.18763,8.3344746 C 110.26888,6.6082126 110.3909,6.1228256 110.90256,5.4904736 C 111.36427,4.9198526 111.42044,4.6898506 111.37887,3.5401266 C 111.35242,2.8085676 111.30854,2.4855436 111.19175,2.1625786 C 111.10785,1.9305366 111.0392,1.6686246 111.0392,1.5805536 C 111.0392,1.3076786 111.64862,0.18591856 112.41417,-0.95036274 C 112.81686,-1.5480684 113.21612,-2.1543884 113.3014,-2.2977413 C 113.56958,-2.748537 113.70832,-3.5874449 113.71876,-4.8215106 C 113.72807,-5.9218506 113.7318,-5.9471627 113.92842,-6.244272 C 114.18547,-6.632702 115.62369,-8.5525999 115.90274,-8.8798106 L 116.11593,-9.1298107 L 116.07098,-8.4869534 C 116.04625,-8.133382 115.99802,-7.6932091 115.96378,-7.508792 C 115.92955,-7.3243741 115.86423,-6.681517 115.81863,-6.0802206 C 115.73916,-5.0324941 115.74366,-4.9337327 115.92675,-3.7093099 C 116.03183,-3.0066063 116.13665,-2.1221913 116.15969,-1.7439449 C 116.19888,-1.1007356 116.18438,-0.99480634 115.93575,-0.10729494 C 115.78954,0.41461656 115.61071,1.1694876 115.53835,1.5701976 C 115.37534,2.4728396 115.34965,2.5398776 114.90663,3.2185176 C 114.4133,3.9742426 114.09247,4.8120626 114.05535,5.4416176 C 114.03201,5.8374056 114.06683,6.0830486 114.22241,6.6201896 C 114.63673,8.0506026 114.38794,8.7257726 113.2379,9.2920926 C 112.83754,9.4892376 112.7671,9.5572346 112.58416,9.9231296 C 112.38186,10.32776 112.37982,10.344245 112.43097,11.162789 C 112.49138,12.1296 112.56202,12.255161 113.05705,12.275549 C 113.99842,12.314319 114.57118,12.060886 115.08401,11.378668 C 115.53473,10.779081 115.66151,10.505921 115.83125,9.7686976 C 115.92515,9.3608776 116.06926,8.9797546 116.22991,8.7143776 C 116.36829,8.4857896 116.58798,8.0884476 116.7181,7.8313976 C 117.06843,7.1393246 117.63772,6.5018946 118.12539,6.2556496 C 118.34958,6.1424456 118.64698,5.9497676 118.78626,5.8274726 C 119.0287,5.6146046 119.97553,4.0307076 120.57542,2.8344746 C 121.11278,1.7629256 121.23922,1.6163566 121.92093,1.2746896 C 122.30632,1.0815376 122.61941,0.86740556 122.7525,0.70593956 C 122.8699,0.56350956 123.16726,-0.0018994429 123.4133,-0.55052284 L 123.86063,-1.5480213 L 123.92242,-1.0226091 C 123.99861,-0.37469704 123.87988,0.22793756 123.45993,1.3248176 C 123.29995,1.7426296 122.99493,2.5772666 122.78207,3.1795676 C 122.26713,4.6366596 122.13367,4.8924376 121.331,5.9607126 C 120.04576,7.6712196 119.84285,7.8963666 119.5139,7.9769346 C 119.01067,8.1001896 118.62495,8.3380176 118.28731,8.7332306 C 117.80549,9.2972066 117.75442,9.4306416 117.75393,10.126865 C 117.7533,10.995995 117.58334,11.451395 117.05211,12.00732 C 116.82386,12.246184 116.50493,12.637291 116.34337,12.876449 C 116.0937,13.246037 115.98483,13.339379 115.61776,13.498574 C 115.1565,13.698617 114.89382,14.013571 114.6376,14.673761 C 114.53678,14.933549 114.49006,14.977332 114.31368,14.977332 C 114.16458,14.977332 114.08563,15.025467 114.02828,15.151349 C 113.91916,15.390844 113.99315,15.536808 114.2856,15.659006 C 114.42223,15.716091 114.62904,15.855686 114.74518,15.969214 C 115.16996,16.384453 115.44925,16.546539 115.93588,16.660231 C 116.59465,16.814141 116.986,16.766666 117.64731,16.452607 C 118.29347,16.145752 118.4804,15.998371 118.97057,15.409377 C 119.53453,14.731706 119.78307,14.647709 121.3667,14.599561 C 122.88527,14.553392 123.4484,14.440178 124.77545,13.914264 C 126.25148,13.329308 126.76605,13.031406 127.25955,12.476133 C 127.90858,11.745849 128.50573,11.464278 129.68205,11.333843 C 130.16178,11.280649 130.48992,11.198271 130.80187,11.052718 C 131.46963,10.741144 132.18878,10.305092 132.63687,9.9400726 C 132.85815,9.7598206 133.0392,9.6285826 133.0392,9.6484356 C 133.0392,9.7009656 132.5732,10.965111 132.43445,11.288988 C 132.16248,11.923847 131.96244,12.120871 130.82405,12.875162 C 130.21175,13.280866 129.62289,13.646219 129.51548,13.687054 C 129.40808,13.727891 128.9918,13.827968 128.59041,13.909449 C 128.18469,13.991811 127.72848,14.134706 127.56305,14.231246 C 127.1381,14.479226 126.80199,14.905217 126.6533,15.384275 C 126.47695,15.952436 125.86775,17.003051 125.57446,17.2448 C 124.45401,18.168369 122.94478,18.566509 120.65492,18.542586 L 119.50348,18.530555 L 118.00348,19.116902 C 117.17113,19.442264 116.44785,19.767765 116.37848,19.848201 C 116.1898,20.067005 116.22608,20.443956 116.48563,20.961341 C 116.7527,21.49373 116.97977,21.670668 117.70253,21.909572 C 118.38744,22.13597 118.56903,22.068146 119.4376,21.261518 C 120.18058,20.571529 120.29087,20.518467 121.14634,20.439355 C 121.84983,20.374299 124.07711,20.74734 125.01738,21.087706 C 125.93204,21.418799 126.23291,21.413333 127.20235,21.048015 C 128.9694,20.38213 130.5243,20.196273 131.43205,20.542439 C 132.50618,20.952043 132.90663,21.073621 133.74689,21.2452 C 134.51527,21.402106 134.8337,21.428967 135.93205,21.429548 C 137.39915,21.430324 138.29316,21.282214 139.09974,20.904769 C 139.35025,20.787534 139.64002,20.691644 139.74365,20.691674 C 139.96736,20.691741 140.70042,21.027674 141.14634,21.334475 C 141.68428,21.704589 142.33213,21.976961 142.68205,21.980136 L 143.00348,21.983052 L 142.7983,22.094201 C 142.68545,22.155331 142.2676,22.237861 141.86973,22.2776 C 141.16359,22.34813 141.11265,22.342859 139.73302,22.056449 C 138.15802,21.72948 137.29743,21.680069 136.41887,21.866159 C 135.86789,21.982863 134.12923,22.50755 133.32718,22.799159 C 132.84263,22.975335 132.69534,22.994023 131.72004,23.003078 C 130.8066,23.011561 130.54505,22.987764 129.96777,22.843665 C 128.5697,22.494686 126.89378,22.674726 125.83992,23.287111 C 124.9575,23.799871 124.72381,23.858546 123.5392,23.864758 C 122.86549,23.868291 122.20941,23.824617 121.66215,23.739806 L 120.82081,23.609425 L 120.055,23.833686 C 119.63381,23.957033 119.20005,24.121692 119.09108,24.199597 L 118.89297,24.341241 L 117.38511,24.123572 C 115.60977,23.867289 115.32079,23.855998 115.15741,24.036528 C 114.86055,24.364551 115.1795,25.249851 115.73131,25.629508 C 115.90772,25.750878 116.42683,26.015759 116.8849,26.218137 C 117.34299,26.420515 117.75584,26.610434 117.80237,26.640178 C 117.9386,26.727264 118.11063,27.427713 118.11063,27.895353 C 118.11063,28.556908 118.41658,29.448508 118.75426,29.770986 C 119.12335,30.123461 120.57739,31.116288 121.80443,31.853661 C 122.59855,32.330876 123.01501,32.528852 123.71663,32.762665 C 124.71678,33.095964 124.6484,33.032276 125.02995,33.986049 C 125.40556,34.924992 125.75868,35.473338 126.46052,36.20751 C 127.5145,37.310058 128.16659,37.689544 129.1974,37.800276 C 129.56338,37.839589 129.67816,37.898249 130.30748,38.367579 C 131.1314,38.982049 131.20928,39.06475 131.14743,39.259619 C 131.092,39.434212 130.99179,39.439042 130.3268,39.299159 C 129.69723,39.166725 129.63477,39.134128 128.54837,38.371064 C 127.10723,37.358837 126.66144,37.182344 125.3009,37.085319 C 124.11583,37.000807 123.09003,36.582046 122.34391,35.878197 C 121.94287,35.499874 121.79838,35.303866 121.63905,34.921974 C 121.38477,34.312542 121.3005,34.174427 120.88449,33.685251 C 120.36105,33.069768 119.49418,32.670432 118.17214,32.435768 C 117.29628,32.280303 116.748,32.00781 116.08873,31.400336 C 115.39707,30.763015 114.96415,29.965514 114.75314,28.939944 C 114.58844,28.139486 114.44788,27.791672 114.08488,27.286411 C 113.65413,26.686851 113.30013,26.633436 112.45258,27.040127 C 112.11703,27.201142 111.92649,27.354844 111.69895,27.648049 C 111.30699,28.153139 111.27089,28.35 111.46388,28.92992 C 111.6382,29.453794 111.81885,29.665044 112.34948,29.965565 C 112.7838,30.211544 112.92429,30.355826 113.0707,30.706236 C 113.17755,30.961955 113.17543,30.971015 112.92073,31.346479 C 112.77863,31.555949 112.43033,32.016618 112.1467,32.370189 C 110.65625,34.228207 110.63605,34.296191 111.14958,35.727332 C 111.33283,36.238046 111.5455,36.832689 111.62215,37.048761 C 111.69881,37.264832 111.7804,37.657949 111.80346,37.922353 C 111.85288,38.48885 111.75148,38.813185 111.28213,39.589989 C 111.11413,39.868022 110.95647,40.176069 110.93175,40.274537 C 110.84214,40.631563 111.30814,41.734711 111.87175,42.499791 C 112.18844,42.929677 112.196,42.952136 112.15165,43.330724 C 112.09145,43.844605 111.81923,44.223605 111.5575,44.157918 C 111.31201,44.096302 110.56237,43.579549 110.43664,43.385266 C 110.26488,43.119844 110.10497,42.274979 110.04173,41.298761 C 109.98536,40.428541 109.9547,40.291139 109.55393,39.112246 C 109.31871,38.420379 109.08598,37.777521 109.03675,37.683675 C 108.9038,37.430265 108.06453,36.353197 107.66543,35.923815 C 107.47375,35.717597 107.25339,35.405232 107.17573,35.229676 C 106.99466,34.82034 106.68451,32.768606 106.68313,31.970941 C 106.6821,31.38535 106.69019,31.3537 106.86063,31.276043 C 107.05008,31.189722 107.10395,30.927801 106.96155,30.785394 C 106.90563,30.729476 106.90563,30.694309 106.96155,30.65975 C 107.08941,30.580731 107.0495,30.278208 106.89185,30.131331 C 106.8108,30.055824 106.69026,29.894745 106.62399,29.773371 C 106.55771,29.651999 106.35884,29.402791 106.18205,29.21958 C 106.00527,29.036367 105.81241,28.789298 105.75348,28.670535 C 105.59585,28.352841 105.43603,28.275426 105.20719,28.405904 C 105.0626,28.488343 104.93808,28.718907 104.66711,29.405904 C 104.47342,29.896975 104.26953,30.507689 104.21403,30.763046 C 104.0797,31.381008 104.08188,33.627015 104.21777,34.620189 C 104.37403,35.762302 104.35922,36.018806 104.10965,36.492267 C 103.79424,37.090621 103.34414,38.273131 103.13657,39.048761 C 102.97673,39.646036 102.94706,39.949827 102.88899,41.584475 C 102.80324,43.998239 102.64265,44.858905 102.13579,45.621154 C 101.95328,45.895625 101.7949,46.120189 101.78385,46.120189 C 101.7728,46.120189 101.69453,45.935368 101.60993,45.709475 z"
         style="fill:#ffcc00;fill-opacity:1;fill-rule:nonzero;stroke:none;stroke-width:0.40799999;stroke-linecap:round;stroke-linejoin:round;marker:none;marker-start:none;marker-mid:none;marker-end:none;stroke-miterlimit:4;stroke-dasharray:none;stroke-dashoffset:0;stroke-opacity:0.98983047;visibility:visible;display:inline;overflow:visible;filter:url(#filter3586);enable-background:accumulate" />
      <path
         transform="matrix(0.5095453,0.2154049,-0.2398949,0.5815334,16.901059,-1.5365821)"
         id="path3616"
         d="M 103.25987,38.786051 C 103.10522,38.064943 103.12401,37.222855 103.3153,36.301697 C 103.55125,35.165512 103.45059,33.641093 103.03944,32.124013 C 102.86628,31.485091 102.70234,30.643151 102.67513,30.253033 C 102.62726,29.566728 102.64027,29.515963 103.07654,28.687296 C 103.4667,27.946226 103.5431,27.697281 103.64375,26.839153 C 103.70773,26.293712 103.73387,25.805051 103.70185,25.753239 C 103.66983,25.701428 103.55585,25.659037 103.44857,25.659037 C 103.3068,25.659037 103.17387,25.83467 102.96201,26.301914 C 102.62778,27.039049 102.53689,27.117276 102.0442,27.09184 C 101.84706,27.081664 101.6379,27.107408 101.5794,27.149054 C 101.30689,27.343067 100.81856,28.13308 100.17053,29.428293 L 99.463424,30.841587 L 98.870764,31.058501 C 98.168654,31.315468 98.120074,31.391112 97.708654,32.868084 C 97.322334,34.25496 97.043124,34.826038 96.633124,35.067945 C 96.384834,35.214441 96.230254,35.445353 95.981974,36.040633 C 95.802914,36.469955 95.561834,36.9235 95.446244,37.048507 C 95.201704,37.312968 94.915374,37.357261 95.007824,37.116327 C 95.041484,37.028623 95.163124,36.585418 95.278144,36.131428 C 95.393174,35.67744 95.580924,35.146894 95.695374,34.95244 C 95.944994,34.528349 95.978494,34.422247 96.488264,32.440973 C 96.707864,31.58747 96.887534,30.653792 96.887534,30.36613 C 96.887534,29.141849 97.377934,28.03481 98.335464,27.097529 C 98.828044,26.615364 99.075164,26.454738 99.516744,26.329671 C 99.852144,26.234676 100.17965,26.059105 100.33686,25.890025 C 100.57981,25.628741 101.53424,23.676285 101.53424,23.440582 C 101.53424,23.039858 100.5956,22.753543 100.33021,23.073314 C 100.26554,23.151243 99.974684,23.327666 99.683854,23.465364 C 98.918034,23.827964 98.480614,24.363923 98.156694,25.336573 C 97.825654,26.330591 97.602414,26.629744 96.998484,26.888597 C 96.743014,26.998099 96.465804,27.147352 96.382464,27.22027 C 96.299124,27.293188 95.872574,27.385299 95.434564,27.424963 L 94.638194,27.497078 L 94.070864,28.068507 C 93.395484,28.748752 92.676174,29.0345 91.905194,28.928824 L 91.437154,28.864674 L 91.611714,28.561015 C 91.707714,28.394003 92.172704,27.865927 92.645014,27.387512 C 93.117334,26.909098 93.691174,26.31311 93.920224,26.063098 C 94.236144,25.718264 94.502174,25.55006 95.022234,25.366326 C 95.826934,25.082034 96.423574,24.585761 96.591094,24.061382 C 96.877194,23.165831 97.419634,21.957833 97.607364,21.798168 C 97.761644,21.666953 97.918204,21.638948 98.246154,21.683898 C 99.099784,21.800903 99.869534,21.282131 100.12943,20.414669 C 100.23271,20.069952 100.22542,19.992133 100.07581,19.842524 C 99.868924,19.635636 99.633284,19.626611 98.507784,19.782475 L 97.653164,19.900827 L 97.267804,19.591145 C 96.504384,18.977643 96.046444,18.839377 94.816724,18.851091 C 93.938894,18.859453 93.527334,18.915536 92.856844,19.118166 C 92.012764,19.37326 92.005334,19.373669 91.493144,19.193298 C 91.209894,19.09355 90.766614,18.916361 90.508084,18.799545 C 90.205444,18.662796 89.719044,18.564508 89.142404,18.523578 C 88.328644,18.465815 88.109924,18.494002 86.749244,18.831982 C 85.135834,19.232737 85.220564,19.233063 84.058604,18.821692 C 83.849194,18.747556 84.610044,18.427674 85.616034,18.166909 C 86.275684,17.995921 86.620864,17.966687 87.489234,18.00826 C 88.762034,18.069195 89.413564,17.967603 90.415784,17.551938 L 91.166634,17.24053 L 92.436094,17.37048 C 94.941064,17.6269 94.863904,17.628925 96.230524,17.270894 L 97.492074,16.940391 L 98.834514,17.107581 C 99.572864,17.199535 100.51871,17.27477 100.93641,17.27477 C 102.0727,17.27477 102.19316,17.04807 101.53056,16.156593 C 101.09497,15.570536 100.41306,15.129131 99.644174,14.935521 C 99.228354,14.830816 99.210884,14.810851 99.210884,14.440079 C 99.210884,14.161238 99.151434,14.012095 98.997224,13.904081 C 98.879704,13.821771 98.701894,13.620132 98.602074,13.455997 C 98.463824,13.228649 98.296784,13.127869 97.900764,13.032868 L 97.380944,12.908163 L 97.447274,12.377294 C 97.530144,11.713989 97.387164,11.556867 96.290554,11.106199 C 95.868854,10.932894 95.191894,10.614079 94.786184,10.397719 C 94.380484,10.181359 93.721354,9.8618452 93.321464,9.6876872 C 92.532634,9.3441392 91.672344,8.7658182 90.877134,8.0444992 L 90.372054,7.5863602 L 91.230684,7.5687972 C 92.915584,7.5343342 93.972324,7.6789012 94.694454,8.0426572 C 95.152484,8.2733722 95.659004,8.7739022 95.891954,9.2259762 C 96.001344,9.4382652 96.295484,9.8080412 96.545604,10.047699 C 97.054784,10.535576 97.712764,10.771827 98.860994,10.879051 L 99.536484,10.94213 L 99.880024,11.479174 C 100.06897,11.77455 100.32527,12.070005 100.44958,12.135744 C 100.5739,12.201481 100.8752,12.430061 101.11914,12.643698 C 101.36309,12.857336 101.62117,13.032129 101.69265,13.032129 C 101.76413,13.032129 101.90633,13.138552 102.00865,13.268625 C 102.38361,13.745309 102.76289,13.809603 103.1657,13.464763 C 103.27837,13.368311 103.35405,13.356965 103.39906,13.429779 C 103.47797,13.557462 104.54865,13.461161 104.74147,13.309038 C 104.93139,13.159204 104.89331,12.918887 104.67041,12.860598 C 104.56188,12.832216 104.40163,12.699947 104.3143,12.566663 C 104.22698,12.433381 103.98087,12.214079 103.76741,12.079327 L 103.3793,11.834324 L 103.33232,11.022737 C 103.29141,10.316 103.23095,10.106935 102.86436,9.4044382 C 102.51168,8.7286112 102.44333,8.5026522 102.44313,8.0117532 C 102.44292,7.4940952 102.39544,7.3559322 102.03589,6.8266182 L 101.62888,6.2274512 L 101.65235,5.3083462 L 101.67581,4.3892402 L 100.98972,2.8265472 C 100.61237,1.9670652 100.26232,1.2206682 100.21182,1.1678882 C 99.931144,0.87448022 100.38134,0.81455322 100.83831,1.0844942 C 101.10489,1.2419642 101.32986,1.7028732 101.33164,2.0951832 C 101.33341,2.4862382 101.69381,3.0547372 102.14579,3.3794542 C 102.75592,3.8177862 102.86359,3.9824232 103.41889,5.3261432 C 103.86989,6.4174972 104.41269,7.2564722 105.05045,7.8479782 C 105.37941,8.1530722 105.40547,8.2289532 105.57092,9.3632072 C 105.7876,10.848654 106.0419,11.415885 106.4912,11.415885 C 106.7458,11.415885 106.82229,11.356155 106.94561,11.061023 C 107.07652,10.747721 107.0758,10.628191 106.93948,10.040422 C 106.85457,9.6742662 106.67188,9.0917132 106.53352,8.7458612 C 106.21191,7.9419552 106.20342,7.3005402 106.50924,6.9109332 C 106.69096,6.6794122 106.73472,6.4995202 106.72754,6.0134272 C 106.71845,5.3978362 106.55676,4.9508542 106.03445,4.0973792 C 105.64423,3.4597512 105.61857,2.9031722 105.92641,1.7540812 C 106.1386,0.96198522 106.19545,0.51128522 106.20486,-0.45340678 C 106.21135,-1.1201078 106.16315,-1.8523408 106.09774,-2.0805918 C 105.98851,-2.4617878 106.00234,-2.5422088 106.26749,-3.0678718 L 106.55616,-3.6401488 L 106.98569,-1.9963948 C 107.26756,-0.91768178 107.46064,0.10204322 107.54736,0.97007022 C 107.73804,2.8785462 107.97813,3.9943452 108.35181,4.7086242 C 108.58771,5.1595622 108.72285,5.6270402 108.85534,6.4505622 C 109.03639,7.5758572 109.03564,7.9961332 108.84835,10.411071 L 108.78134,11.275041 L 109.10514,11.547494 C 109.28322,11.697342 109.48658,11.819946 109.55704,11.819946 C 109.94251,11.819946 110.32147,10.879113 110.32503,9.9132102 C 110.32844,8.9895422 110.47785,8.4220172 110.87353,7.8298442 C 111.30748,7.1803712 111.41032,6.3339122 111.17113,5.3801692 L 111.00895,4.7335202 L 111.27924,4.2108692 C 111.4279,3.9234112 111.84952,3.2369202 112.21617,2.6853342 C 112.97232,1.5478152 113.14554,1.0042622 113.15199,-0.25137678 L 113.15614,-1.0594988 L 114.0627,-2.2636468 C 114.56131,-2.9259278 114.96926,-3.4241278 114.96926,-3.3707578 C 114.96926,-3.3173888 114.89596,-2.7527918 114.80637,-2.1161018 C 114.64232,-0.95036078 114.65416,-0.051058784 114.85745,1.7689282 C 114.93298,2.4450662 114.91574,2.7007862 114.75192,3.3346652 C 114.64424,3.7513532 114.48827,4.4104772 114.40534,4.7993862 C 114.31034,5.2447932 114.10494,5.7541692 113.85033,6.1757092 C 113.62801,6.5437762 113.37382,7.0991152 113.28543,7.4097942 C 113.13798,7.9281322 113.1383,8.0286572 113.28939,8.6301212 C 113.37994,8.9906232 113.45404,9.4432112 113.45404,9.6358742 C 113.45404,10.06455 113.08707,10.533199 112.52812,10.818353 C 112.02959,11.072685 111.92337,11.352857 111.96012,12.316556 L 111.98931,13.082314 L 112.41766,13.172382 C 112.78146,13.248882 112.91708,13.225871 113.31776,13.019677 C 113.88685,12.726815 114.41571,12.008755 114.51578,11.393088 C 114.58918,10.941443 115.22576,9.6838492 115.66984,9.1131532 C 115.81233,8.9300382 116.15917,8.6473932 116.4406,8.4850542 C 116.89694,8.2218212 117.02147,8.0666102 117.59171,7.0502232 C 118.71505,5.0479922 118.73275,5.0239262 119.32096,4.6983712 C 119.81561,4.4245962 119.90997,4.3136392 120.29782,3.5496222 L 120.72713,2.7039202 L 120.72713,3.2708792 C 120.72713,3.6813332 120.61998,4.1239162 120.33895,4.8741962 C 120.12545,5.4441942 119.84731,6.1942682 119.72086,6.5410312 C 119.44399,7.3003232 119.09727,7.8615852 118.22228,8.9668982 C 117.69801,9.6291622 117.48485,9.8216942 117.18714,9.9018592 C 116.95375,9.9647032 116.65502,10.173353 116.39581,10.454554 C 116.0438,10.836445 115.97933,10.973027 115.97885,11.337867 C 115.97798,12.001458 115.79177,12.542648 115.43064,12.931114 C 115.24987,13.125568 115.00009,13.433432 114.87558,13.615254 C 114.75108,13.797076 114.4792,14.032573 114.2714,14.138581 C 114.02462,14.264473 113.80979,14.489302 113.65196,14.786828 C 113.51904,15.037357 113.32923,15.263538 113.23015,15.289451 C 112.96952,15.357607 113.00209,15.746231 113.27726,15.851464 C 113.40227,15.89927 113.59546,16.04079 113.70657,16.165951 C 114.407,16.954904 116.01612,16.764192 116.74729,15.805567 C 117.18577,15.230704 117.50697,15.111664 118.65632,15.098058 C 119.85214,15.083901 120.85219,14.835495 122.08806,14.245636 C 122.63166,13.986194 123.00944,13.730187 123.18139,13.504753 C 123.52239,13.057673 124.15067,12.769108 125.05633,12.643602 C 125.77596,12.543878 126.33227,12.296091 127.07248,11.745592 C 127.25669,11.608591 127.42414,11.513233 127.4446,11.533687 C 127.52002,11.609106 126.88714,12.970649 126.66847,13.203411 C 126.26507,13.632814 124.9035,14.437872 124.39855,14.545545 C 124.12936,14.602946 123.81034,14.672282 123.68962,14.699621 C 123.26808,14.795084 122.82857,15.286896 122.4787,16.054645 C 122.28718,16.474893 122.03342,16.922063 121.91478,17.048355 C 121.25556,17.750061 120.02589,18.1131 118.35328,18.099825 C 117.26895,18.09122 117.21218,18.102267 116.00265,18.557228 C 114.9519,18.952473 114.75367,19.061402 114.70063,19.272734 C 114.59902,19.677563 114.99354,20.362984 115.46725,20.604653 C 116.11635,20.9358 116.38503,20.880825 117.10776,20.268982 C 117.58439,19.865478 117.85795,19.710631 118.18224,19.660778 C 118.72171,19.577846 120.2188,19.826592 121.1893,20.160411 C 122.10238,20.474478 122.24192,20.470226 123.36444,20.094147 C 123.87929,19.921655 124.61612,19.75817 125.01169,19.728662 C 125.62088,19.683216 125.82005,19.713051 126.35003,19.929128 C 127.58803,20.433876 128.25777,20.55698 129.768,20.557386 C 131.01391,20.55772 131.26356,20.528422 131.86579,20.311192 L 132.54937,20.064617 L 132.97696,20.291149 C 133.21213,20.415744 133.63183,20.650648 133.90962,20.813158 C 134.18742,20.975667 134.52834,21.112574 134.66724,21.117394 L 134.91978,21.126156 L 134.66724,21.228811 C 134.31552,21.371778 133.18616,21.282495 131.99034,21.017181 C 130.75254,20.742561 130.24325,20.783282 128.61454,21.287087 C 126.93048,21.808013 126.24906,21.870424 125.1213,21.607031 C 123.85855,21.312111 122.97094,21.388359 121.93932,21.880378 C 121.00897,22.3241 120.40855,22.396271 119.09442,22.222338 C 118.04737,22.083755 117.33653,22.162988 116.83805,22.473842 C 116.67343,22.576496 116.4008,22.561805 115.36592,22.394514 C 114.66737,22.28159 114.01962,22.218449 113.92645,22.254196 C 113.69256,22.343949 113.7076,22.899753 113.9549,23.305322 C 114.09558,23.53606 114.39544,23.746363 115.00311,24.040496 C 115.91395,24.481364 115.97942,24.572585 115.97942,25.400791 C 115.97942,25.578215 116.04949,25.959356 116.13514,26.247767 C 116.2621,26.675259 116.38808,26.849177 116.817,27.18903 C 117.86851,28.022204 119.38022,28.965308 120.10631,29.241126 C 120.76066,29.48969 120.86713,29.566938 120.99965,29.889277 C 121.80663,31.852127 122.86321,33.008093 124.05731,33.234549 C 124.78732,33.37299 125.99173,34.303285 125.68577,34.492376 C 125.46564,34.628424 124.56191,34.247594 123.85848,33.722359 C 122.81111,32.940301 122.38095,32.746828 121.46056,32.643856 C 119.98072,32.478293 119.11519,31.919384 118.57446,30.780186 C 118.12613,29.835661 117.6197,29.373531 116.73278,29.099586 C 116.36229,28.985154 115.98439,28.890527 115.89302,28.889306 C 115.57295,28.885034 114.91476,28.504362 114.47395,28.068574 C 113.96133,27.561794 113.58485,26.824122 113.49383,26.148155 C 113.40131,25.460983 112.95408,24.622804 112.61663,24.504129 C 112.10287,24.323451 111.29293,24.754679 110.96611,25.382897 C 110.85094,25.604286 110.84355,25.74705 110.93053,26.070079 C 111.04447,26.493211 111.15499,26.628678 111.77308,27.10281 C 112.0041,27.28002 112.14084,27.469668 112.14084,27.612871 C 112.14084,27.742644 111.77101,28.329317 111.28221,28.974957 C 110.26756,30.315166 110.2696,30.303234 110.77713,31.921982 C 110.97159,32.542186 111.13069,33.156257 111.13069,33.286585 C 111.13069,33.416917 110.97159,33.828781 110.77713,34.201845 C 110.58268,34.574907 110.42358,34.98054 110.42358,35.103249 C 110.42358,35.451979 110.62337,35.961679 111.00764,36.593286 C 111.35193,37.159184 111.357,37.182817 111.21355,37.552931 C 111.04304,37.992845 110.88222,38.014538 110.37385,37.666201 C 109.97981,37.396195 109.86892,37.039959 109.76497,35.710054 C 109.64407,34.163416 109.05413,32.713845 108.0662,31.53595 C 107.63296,31.019402 107.54868,30.73069 107.38556,29.204059 C 107.27426,28.162349 107.2784,28.040208 107.4288,27.930232 C 107.61246,27.795941 107.66863,26.972235 107.49414,26.972235 C 107.43858,26.972235 107.39312,26.912232 107.39312,26.838895 C 107.39312,26.765559 107.24203,26.526909 107.05738,26.308565 C 106.87271,26.090221 106.69232,25.832025 106.65649,25.734798 C 106.58106,25.530134 106.25072,25.499705 106.10815,25.68429 C 106.05451,25.753738 105.88838,26.121537 105.73897,26.501621 C 105.36931,27.441984 105.23682,28.876091 105.38212,30.364163 C 105.49096,31.478818 105.48958,31.493565 105.22799,32.009789 C 105.08281,32.296278 104.82547,32.944258 104.65612,33.44974 C 104.39159,34.23932 104.33543,34.598474 104.25752,35.999071 C 104.20764,36.895718 104.11775,37.8339 104.05776,38.083913 C 103.96292,38.479146 103.52633,39.296096 103.40996,39.296096 C 103.38757,39.296096 103.32003,39.066574 103.25987,38.786048 L 103.25987,38.786051 z"
         style="fill:#ff9a2a;fill-opacity:1;fill-rule:nonzero;stroke:none;stroke-width:0.40799999;stroke-linecap:round;stroke-linejoin:round;marker:none;marker-start:none;marker-mid:none;marker-end:none;stroke-miterlimit:4;stroke-dasharray:none;stroke-dashoffset:0;stroke-opacity:0.98983047;visibility:visible;display:inline;overflow:visible;filter:url(#filter3626);enable-background:accumulate" />
      <g
         transform="matrix(0.5095453,0.2154049,-0.2398949,0.5815334,16.901059,-1.5365821)"
         id="g3590">
        <path
           style="opacity:1;fill:none;fill-opacity:1;fill-rule:evenodd;stroke:#000000;stroke-width:0.62643981;stroke-linecap:round;stroke-linejoin:round;marker:none;marker-start:none;marker-mid:none;marker-end:none;stroke-miterlimit:4;stroke-dasharray:none;stroke-dashoffset:0;stroke-opacity:1;visibility:visible;display:inline;overflow:visible;enable-background:accumulate"
           d="M 114.71997,14.912986 C 115.19237,14.930041 115.41033,15.39966 115.78037,15.660529 C 116.13096,15.907665 116.29099,15.884043 116.84081,16.000322 C 117.35737,16.109562 117.88299,15.712974 118.19043,15.59257 C 118.69282,15.39582 119.00019,14.891271 119.25085,14.573194 C 119.55838,14.182988 119.91086,14.088187 120.40768,13.893607 C 120.70358,13.777724 121.6024,13.893607 121.95011,13.893607 C 122.51471,13.893607 122.94731,13.766603 123.49255,13.689732 C 124.0553,13.610388 124.73721,13.284994 125.32419,13.078106 C 125.86221,12.888461 126.30256,12.618298 126.77021,12.39852 C 127.18307,12.204486 127.43971,11.723928 127.73421,11.447102 C 128.05208,11.148331 128.35332,11.042884 128.79465,10.835475 C 129.26183,10.615912 129.79179,10.602081 130.33709,10.56364 C 130.8753,10.525698 131.43173,10.117154 131.7831,9.9520144 C 132.27742,9.7197085 132.75481,9.3050741 133.13273,9.0005955 C 133.45517,8.7408225 133.70264,8.2366696 133.90394,7.9812179 C 134.06687,7.7744775 134.09676,7.5281613 134.19316,7.3016328 C 134.36039,6.9086748 134.10447,8.1212432 134.00035,8.524886 C 133.90041,8.9123084 133.81646,9.240993 133.71115,9.6122227 C 133.61266,9.959366 133.42793,10.270671 133.32553,10.6316 C 133.21856,11.008651 133.01185,11.354341 132.84353,11.650977 C 132.62425,12.037413 132.11065,12.303544 131.68671,12.602396 C 131.26865,12.897107 130.74401,13.198994 130.33709,13.485856 C 129.98727,13.732456 129.29711,13.787344 128.79465,13.893607 C 128.09173,14.042266 128.03463,14.200225 127.63783,14.573194 C 127.41245,14.785013 127.31718,15.444094 127.15582,15.728487 C 126.96303,16.068232 126.77015,16.408198 126.57741,16.747864 C 126.32599,17.190935 125.63578,17.479624 125.22777,17.767242 C 124.74114,18.1103 124.10292,18.181827 123.49255,18.31091 C 122.92386,18.431178 122.45618,18.472315 121.8537,18.514787 C 121.36248,18.549415 120.89693,18.481318 120.40768,18.446828 C 119.98103,18.41675 119.57968,18.657838 119.25085,18.786619 C 118.82433,18.953662 118.48614,19.078555 118.19043,19.194372 C 117.74221,19.369918 117.38587,19.501918 117.13002,19.602123 C 116.74005,19.754843 117.26008,20.474063 117.32282,20.621499 C 117.49175,21.018464 118.1273,21.11284 118.38324,21.233127 C 118.90323,21.477514 119.39323,20.75952 119.54006,20.621499 C 119.85716,20.323448 120.05056,20.151964 120.31127,19.941915 C 120.58768,19.719221 121.28794,19.748955 121.6609,19.67008 C 122.04424,19.589013 122.72268,19.778911 123.10693,19.805998 C 123.63986,19.843566 124.12786,20.004307 124.64937,20.077832 C 125.15456,20.14906 125.69447,20.440489 126.09539,20.553541 C 126.75429,20.739334 127.10758,20.434629 127.54142,20.281708 C 128.20127,20.049124 128.7083,19.878629 129.37305,19.73804 C 129.98826,19.607933 130.3526,19.602123 131.01191,19.602123 C 131.61704,19.602123 132.30899,19.936444 132.84353,20.14579 C 133.50028,20.403 134.21653,20.463346 134.96437,20.621499 C 135.58359,20.752456 136.4242,20.689459 137.08522,20.689459 C 137.66414,20.689459 138.19944,20.528569 138.72404,20.417624 C 139.14916,20.327719 139.53255,20.078329 139.88086,19.941915 C 140.30561,19.77557 141.03512,20.235399 141.32689,20.349665 C 141.52552,20.427456 141.64825,20.576194 141.80891,20.689459 C 142.06016,20.866593 142.1408,20.864933 142.58011,21.09721 C 143.1791,21.413889 143.5368,21.079614 143.92974,21.029252 C 145.29565,20.85418 143.7,20.867292 144.31537,21.301085 C 144.50761,21.436615 143.50842,21.931774 143.44773,21.980671 C 143.14744,22.222604 142.40761,22.195275 142.0017,22.252503 C 141.37619,22.340696 141.04457,22.199592 140.65208,22.116587 C 140.06943,21.993365 139.56528,21.893541 139.01325,21.776795 C 138.39174,21.645354 138.08996,21.66519 137.47082,21.708836 C 136.86793,21.751336 136.24212,21.973756 135.73559,22.116587 C 135.00694,22.32205 134.34196,22.513181 133.71115,22.796172 C 133.24794,23.003974 132.39755,22.927011 131.87951,23.000048 C 131.24523,23.089473 130.89634,22.89406 130.43348,22.796172 C 129.95566,22.695123 129.7324,22.638015 129.08383,22.592297 C 128.47922,22.549672 127.8788,22.728217 127.34862,22.796172 C 126.89746,22.853996 126.49807,23.171909 126.1918,23.33984 C 125.62442,23.650925 125.33281,23.727951 124.64937,23.815549 C 124.06514,23.890432 123.57361,23.848449 123.10693,23.815549 C 122.56843,23.777588 122.19892,23.687528 121.6609,23.611674 C 120.96629,23.513742 120.92104,23.706984 120.40768,23.815549 C 118.16146,24.29059 122.22902,24.673058 115.97319,23.815549 C 115.56193,23.759176 115.86611,24.440821 116.06959,24.699011 C 116.31438,25.00962 116.63173,25.090288 117.0336,25.310637 C 117.4504,25.539162 117.89433,25.669841 118.28683,25.854305 C 118.73487,26.064865 118.63748,26.361111 118.76885,26.669807 C 118.90709,26.994656 118.86525,27.342055 118.86525,27.689185 C 118.86525,28.08567 119.06664,28.466974 119.15445,28.77652 C 119.26934,29.18147 120.0386,29.566507 120.40768,29.863857 C 120.90962,30.268249 121.35222,30.505941 121.8537,30.815276 C 122.37056,31.134087 122.74635,31.348891 123.20333,31.630779 C 123.60833,31.880592 124.45425,32.052727 124.93857,32.242404 C 125.48874,32.457874 125.54292,32.898436 125.70977,33.329741 C 125.88351,33.778777 126.0281,34.09459 126.28819,34.552994 C 126.54412,35.004039 126.86364,35.297406 127.25222,35.708289 C 127.70864,36.190926 127.95765,36.389777 128.50544,36.727666 C 128.98561,37.023849 129.33344,37.023892 129.95146,37.067458 C 130.29662,37.09179 130.72621,37.570824 131.01191,37.747044 C 131.44134,38.011939 131.61873,38.16369 131.87951,38.494588 C 132.17495,38.869477 131.8123,39.01567 131.7831,39.242132 C 131.74145,39.565174 130.45572,39.190899 130.33709,39.174173 C 129.82755,39.102334 129.43673,38.712249 129.08383,38.494588 C 128.66753,38.237791 128.35533,37.981015 128.02343,37.747044 C 127.63519,37.473359 127.42254,37.419344 126.96301,37.203376 C 126.61065,37.037782 125.59458,37.058869 125.13136,36.9995 C 124.49107,36.91743 124.03601,36.647395 123.49255,36.455833 C 122.98711,36.277681 122.58267,35.781046 122.23933,35.504413 C 121.83973,35.18249 121.72003,34.646611 121.56451,34.28116 C 121.38776,33.865851 121.08404,33.56923 120.79329,33.261783 C 120.44542,32.893949 120.00559,32.802272 119.44365,32.582198 C 118.94445,32.386684 118.32602,32.389372 117.80483,32.242404 C 116.9756,32.008577 116.51789,31.499121 115.97319,31.019151 C 115.49801,30.600435 115.36054,30.109341 115.10557,29.659981 C 114.85736,29.222532 114.83782,28.553868 114.71997,28.096936 C 114.59145,27.598624 114.26592,27.153803 114.04516,26.873682 C 113.70998,26.4484 113.03668,26.978226 112.88832,27.0096 C 112.60313,27.069916 112.31275,27.595916 112.21352,27.689185 C 111.91181,27.972782 112.23006,28.427066 112.30991,28.708562 C 112.41171,29.067308 112.92008,29.206655 113.17753,29.388148 C 113.63562,29.711077 113.64402,29.782065 113.85235,30.271608 C 114.06369,30.768236 113.73,30.928973 113.56314,31.223028 C 113.2785,31.72467 112.88428,32.098037 112.50271,32.582198 C 112.17727,32.995181 111.9221,33.400823 111.6351,33.805449 C 111.40784,34.125876 111.72844,34.643036 111.82791,35.028704 C 111.95936,35.538371 112.11084,35.852083 112.30991,36.319915 C 112.47365,36.70466 112.5377,37.110221 112.59912,37.543169 C 112.66973,38.040983 112.48607,38.420419 112.30991,38.834381 C 112.15789,39.191618 111.90864,39.473629 111.73151,39.7858 C 111.53384,40.134153 111.93204,40.696511 112.02071,41.009052 C 112.12575,41.379255 112.56509,41.844517 112.79193,42.164347 C 112.99894,42.456211 112.88832,42.922731 112.88832,43.251683 C 112.88832,43.528309 112.46403,43.917859 112.30991,44.135143 C 112.09421,44.439279 111.02546,43.631676 110.96028,43.591475 C 110.34907,43.214457 110.43927,42.978222 110.28548,42.436182 C 110.12293,41.863282 110.09267,41.285001 110.09267,40.66926 C 110.09267,39.735972 109.54956,38.835371 109.32146,37.950919 C 109.18037,37.403877 108.92134,37.130594 108.55024,36.659708 C 108.23185,36.255701 108.07998,36.013819 107.68262,35.640331 C 106.93922,34.941575 106.9873,33.568365 106.815,32.718115 C 106.69833,32.142357 106.71861,31.546706 106.71861,30.951193 C 106.71861,30.606517 106.96956,30.237074 107.10422,29.999773"
           id="path3180"
           sodipodi:nodetypes="cssssssssssssssssssssssssssssssssssssssssssssssssssssssssssssssssssssssssssssssssssssssssssssssssssssssssssssssssssssssssssssssssss" />
        <path
           style="opacity:1;fill:none;fill-opacity:1;fill-rule:evenodd;stroke:#000000;stroke-width:0.59276587;stroke-linecap:round;stroke-linejoin:round;marker:none;marker-start:none;marker-mid:none;marker-end:none;stroke-miterlimit:4;stroke-dasharray:none;stroke-dashoffset:0;stroke-opacity:1;visibility:visible;display:inline;overflow:visible;enable-background:accumulate"
           d="M 97.147758,21.058687 C 97.106988,21.169762 96.964532,21.749569 96.841151,21.894011 C 96.658695,22.107616 96.456189,22.497248 96.084242,22.621338 C 95.837818,22.70355 95.465515,22.885385 95.160321,22.829616 C 94.853493,22.773549 94.489644,22.628151 94.250388,22.783331 C 93.958169,22.972863 93.733008,22.947562 93.49814,23.425804 C 93.236776,23.957997 93.030401,24.470955 92.819935,25.093146 C 92.666834,25.545744 92.476394,26.384931 92.14639,26.675633 C 91.837768,26.9475 91.641261,27.243992 91.194495,27.393041 C 90.907729,27.488711 90.727011,27.582323 90.395901,27.692789 C 90.052111,27.807484 89.627617,27.921373 89.32334,28.233876 C 88.974151,28.592502 88.693123,28.971675 88.348132,29.375557 C 88.01183,29.769269 87.736532,30.104456 87.377588,30.432385 C 87.065736,30.71729 86.783282,30.84201 86.486024,31.237956 C 86.247292,31.555945 85.97887,31.957704 85.775459,32.308007 C 85.578928,32.646464 84.954357,33.527972 85.25988,33.387978 C 85.371315,33.336918 85.482748,33.285859 85.594182,33.234799 C 85.839835,33.122238 86.140731,32.803289 86.397437,32.850198 C 86.742734,32.913294 87.084801,33.015476 87.432699,32.987949 C 87.840131,32.955713 88.043465,32.800847 88.361282,32.694816 C 88.607613,32.612635 88.962305,32.59798 89.159875,32.395069 C 89.347178,32.202706 89.691933,31.930978 89.916785,31.667744 C 90.109238,31.442437 90.281398,31.088839 90.604037,31.021964 C 90.905902,30.959398 91.1435,30.928589 91.523296,30.89854 C 91.873644,30.87082 92.270638,30.977543 92.572545,30.781728 C 92.869376,30.589206 93.124802,30.346699 93.385126,30.227418 C 93.609441,30.124634 94.042183,30.06642 94.253377,29.846122 C 94.619105,29.464623 94.876153,29.332575 95.107918,28.528117 C 95.289247,27.898725 95.563515,26.791252 96.004423,26.446418 C 96.272692,26.236604 96.536184,25.925186 96.821666,25.807253 C 96.991688,25.737016 97.391466,25.64849 97.555263,25.504201 C 97.620982,25.446307 98.230959,24.894117 98.302848,24.946584 C 98.511728,25.099028 99.035581,25.114877 98.929489,25.403918 C 98.840296,25.646914 98.690501,26.04127 98.553226,26.320791 C 98.403194,26.626287 98.298184,26.855183 98.111967,27.234359 C 97.961774,27.540182 97.809724,28.094131 97.601051,28.229474 C 97.36734,28.381057 97.149314,28.580101 96.793133,28.698929 C 96.477842,28.804117 95.943191,28.849351 95.664901,29.067001 C 95.23167,29.405831 94.947636,29.723585 94.564365,30.117217 C 94.198107,30.493375 93.958105,30.778944 93.719149,31.265512 C 93.504762,31.702048 93.294765,32.098635 93.189583,32.600047 C 93.080974,33.117789 93.002296,33.636175 92.971004,34.205677 C 92.955433,34.48907 93.011287,34.997828 92.90573,35.393646 C 92.738945,36.019065 92.585534,36.661709 92.408523,37.325471 C 92.227262,38.005172 92.122719,38.858375 91.832332,39.508555 C 91.633062,39.954723 91.265345,40.42423 91.168114,40.921332 C 91.101072,41.264087 90.926158,41.886871 90.828871,42.35064 C 90.787218,42.549208 90.373549,43.381627 90.76826,43.453753 C 91.026986,43.501031 91.221484,43.899035 91.613197,43.496732 C 91.894723,43.207597 92.01123,43.153495 92.244779,42.677938 C 92.368266,42.426496 92.523978,41.943638 92.695364,41.594662 C 92.828018,41.324548 92.889575,40.955518 93.131959,40.765951 C 93.302121,40.632867 93.680661,40.51508 93.879544,40.208333 C 94.046239,39.951232 94.178111,39.755672 94.31614,39.379621 C 94.437706,39.048424 94.612329,38.656582 94.706391,38.208183 C 94.791276,37.803524 94.916105,37.36581 95.036309,36.948585 C 95.128105,36.629959 95.250107,35.827422 95.561212,35.698905 C 95.78433,35.606734 96.046851,35.509469 96.29481,35.395851 C 96.587757,35.261621 97.051059,35.265327 97.237381,34.848153 C 97.380102,34.528597 97.649133,34.087126 97.82728,33.601779 C 98.130952,32.774441 98.455022,32.143194 98.923431,31.445144 C 99.098201,31.184692 99.595168,30.248006 99.898636,30.303462 C 100.21691,30.361618 100.52388,30.519788 100.81323,30.264891 C 101.15395,29.964769 101.02549,30.29997 101.36117,29.78221 C 101.6033,29.408777 102.01402,28.059243 101.95108,28.535836 C 101.91232,28.845869 101.87569,29.156278 101.83479,29.465934 C 101.78693,29.828381 101.78874,30.727817 101.62088,30.98671 C 101.38274,31.354017 101.22061,31.620883 101.04497,31.97852 C 100.74525,32.588802 100.53494,33.014775 100.55242,33.825488 C 100.56798,34.547215 100.67269,34.795333 100.85848,35.372714 C 101.02906,35.902881 101.10969,36.416995 101.29451,36.92655 C 101.47678,37.429044 101.51517,37.644224 101.61454,38.21921 C 101.70805,38.760285 101.76867,39.345275 101.78128,39.92953 C 101.79133,40.395878 101.80783,40.804979 101.70668,41.287209 C 101.62415,41.68069 101.46317,42.160467 101.44176,42.550113 C 101.41401,43.055115 101.39147,43.228339 101.44148,43.741387 C 101.48039,44.140538 101.45019,44.662563 101.56653,45.024129 C 101.59875,45.124272 101.95788,46.750443 102.49482,45.922268 C 102.62162,45.717546 102.71422,45.558021 102.85244,45.344815 C 103.11823,44.93488 103.21587,44.971055 103.29837,44.346392 C 103.36856,43.81483 103.59835,43.204081 103.5866,42.659214 C 103.57545,42.141824 103.577,41.647792 103.60553,41.12852 C 103.63219,40.643326 103.56716,39.888255 103.69878,39.431423 C 103.83056,38.973997 103.92964,38.319196 104.10768,37.920567 C 104.25909,37.581557 104.43405,36.99978 104.63724,36.586032 C 104.81572,36.222601 105.14491,35.822925 105.09715,35.333044 C 105.03789,34.725064 104.9291,34.139915 104.87008,33.534562 C 104.81547,32.974326 104.79984,32.440439 104.83334,31.830853 C 104.86106,31.326303 104.82696,30.657723 104.98693,30.221916 C 105.14783,29.78352 105.23171,29.406956 105.44682,28.96893 C 105.71072,28.431625 105.74361,27.850512 105.92045,28.652652 C 106.15171,28.8322 106.35815,29.029406 106.55116,29.241643 C 106.74466,29.454418 106.79549,29.65252 106.87963,29.922342 C 106.93509,30.100208 106.97502,30.254253 107.00596,30.432866 C 107.0247,30.541065 107.07902,30.53128 107.1323,30.603041"
           id="path3182" />
        <path
           style="opacity:1;fill:none;fill-opacity:1;fill-rule:evenodd;stroke:#000000;stroke-width:0.60399997;stroke-linecap:round;stroke-linejoin:round;marker:none;marker-start:none;marker-mid:none;marker-end:none;stroke-miterlimit:4;stroke-dasharray:none;stroke-dashoffset:0;stroke-opacity:1;visibility:visible;display:inline;overflow:visible;enable-background:accumulate"
           d="M 96.968369,20.861909 C 96.5737,20.765622 95.858675,21.005676 95.564448,21.059514 C 95.047578,21.15409 94.730478,21.163074 94.268522,21.19125 C 93.756286,21.222493 93.523865,20.832146 93.188585,20.598436 C 92.720688,20.272286 92.413285,20.217317 91.892659,20.005622 C 91.458302,19.829005 90.672643,19.904863 90.164758,19.873885 C 89.70006,19.845542 88.970441,20.059484 88.54485,20.137358 C 87.925585,20.25067 87.591556,20.445743 87.140931,20.598436 C 86.524812,20.807206 86.524773,20.591083 85.845004,20.4667 C 85.465962,20.397343 84.865845,20.068557 84.549078,19.939753 C 83.896001,19.674201 83.31694,19.660411 82.497195,19.610413 C 81.722323,19.56315 80.996668,19.793516 80.33732,19.939753 C 79.7927,20.060545 79.285497,20.227587 78.933399,20.334963 C 78.403241,20.496642 78.274043,20.481958 77.637473,20.598436 C 77.616296,20.602311 76.500237,20.241943 76.341547,20.203227 C 75.837856,20.08034 75.287894,20.040159 74.72164,20.005622 C 73.77509,19.947889 74.763099,19.769203 75.153615,19.610413 C 75.711114,19.383724 76.236174,19.170226 76.773523,18.95173 C 77.232507,18.765099 77.727282,18.679781 78.285437,18.490652 C 78.916366,18.276863 79.49941,18.271699 80.229325,18.22718 C 80.814753,18.191473 81.288342,18.324706 81.849233,18.358916 C 82.224676,18.381815 83.023951,18.138188 83.46914,18.029575 C 84.086088,17.879058 84.434041,17.645025 84.87306,17.436761 C 85.416197,17.179103 86.005937,17.305024 86.600961,17.305024 C 87.179725,17.305024 87.692806,17.372344 88.220868,17.436761 C 88.782256,17.505242 89.286049,17.566697 89.840776,17.634365 C 90.409955,17.703796 91.095649,17.420429 91.568677,17.305024 C 92.148021,17.163681 92.655815,17.006421 93.188585,16.843946 C 93.735975,16.677012 94.116141,16.742436 94.700498,16.778078 C 95.329929,16.816468 95.769441,16.908473 96.320405,16.975683 C 96.905756,17.047086 97.51343,17.041551 98.1563,17.041551 C 98.480282,17.041551 98.804263,17.041551 99.128244,17.041551 C 99.800742,17.041551 98.781516,16.248797 98.588275,15.855922 C 98.413699,15.500992 97.855768,15.31679 97.508336,15.131372 C 96.992827,14.856251 96.452558,14.773517 95.88843,14.670294 C 95.371194,14.575652 95.983991,13.478765 95.590802,13.406821 C 95.142853,13.324856 95.008074,12.917039 94.906274,12.710072 C 94.69818,12.286998 93.367686,12.469272 93.296578,12.035564 C 93.229976,11.629344 93.343842,11.191514 93.404572,10.784068 C 93.449589,10.482034 92.725034,10.281438 92.432628,10.125385 C 91.948215,9.8668615 91.157801,9.6509308 90.704725,9.4667029 C 90.174478,9.2510944 89.721944,8.9586731 89.192812,8.6762839 C 88.5852,8.3520099 87.899411,8.1944476 87.248924,7.885865 C 86.743273,7.6459909 86.320931,7.3519165 85.952997,7.095446 C 85.640108,6.8773434 85.391551,6.647626 85.089048,6.4367635 C 84.752215,6.201971 84.369805,5.8116711 84.117104,5.5804764 C 83.824523,5.3127981 83.161558,5.2890703 82.821177,5.1852668 C 82.794448,5.1771157 83.910696,4.9595618 84.117104,4.9217938 C 84.605683,4.8323945 85.273025,4.8466567 85.73701,4.7900574 C 86.368181,4.7130639 86.960694,4.752717 87.572905,4.7900574 C 88.442262,4.8430817 89.080694,4.9935831 89.840776,5.2511351 C 90.638363,5.521396 90.984534,5.8694039 91.460682,6.305027 C 91.763556,6.5821221 91.910381,7.0263709 92.108646,7.358919 C 92.328388,7.7274902 92.769035,7.9960352 93.08059,8.2810744 C 93.462229,8.630231 93.875364,8.5893193 94.376516,8.7421521 C 94.92178,8.9084377 95.700436,8.9019433 96.320405,8.9397569 C 97.114377,8.9881833 97.234023,10.38249 97.873989,10.488944 C 98.436193,10.582463 98.887663,11.416203 99.309369,11.565077 C 100.6927,12.053432 99.889571,11.726284 100.06533,12.009474 C 100.73313,13.085487 101.24356,11.760777 101.53897,11.910244 C 102.63447,12.464514 103.56478,11.825 102.90633,11.959431"
           id="path3186"
           sodipodi:nodetypes="cssssssssssssssssssssssssssssssssssssssssssssssssssssssssssss" />
        <path
           style="opacity:1;fill:none;fill-opacity:1;fill-rule:evenodd;stroke:#000000;stroke-width:0.60399997;stroke-linecap:round;stroke-linejoin:round;marker:none;marker-start:none;marker-mid:none;marker-end:none;stroke-miterlimit:4;stroke-dasharray:none;stroke-dashoffset:0;stroke-opacity:1;visibility:visible;display:inline;overflow:visible;enable-background:accumulate"
           d="M 101.84087,12.098231 C 101.86759,12.386703 102.34827,11.955569 102.60197,11.884238 C 102.80077,11.828341 102.26443,11.327703 102.22005,11.273892 C 102.00429,11.012332 101.71951,10.93712 101.39306,10.77652 C 101.03388,10.599819 101.15924,9.9968203 101.15858,9.6502877 C 101.15783,9.2549516 101.10106,8.9689359 100.99522,8.5892155 C 100.85825,8.0978017 100.74175,7.9047205 100.50924,7.5580266 C 100.28024,7.2165587 100.14938,6.9944733 99.965332,6.603951 C 99.774492,6.1990245 99.834412,5.6329983 99.833552,5.1812193 C 99.832632,4.7011225 99.733312,4.7655552 99.431862,4.3574633 C 99.136522,3.9576551 98.983152,3.8340185 98.752312,3.3442044 C 98.537368,2.8881253 98.741572,1.9400309 98.774562,1.4767231 C 98.809642,0.98394939 98.544652,0.58880189 98.40445,0.29130769 C 98.201275,-0.13980401 97.985466,-0.48946071 97.840769,-0.8761778 C 97.69308,-1.2708899 97.523495,-1.6065499 97.348201,-1.9785032 C 97.143771,-2.4122783 97.095068,-2.5769744 96.868812,-2.9385556 C 96.610327,-3.3516398 96.344038,-3.4230394 96.028641,-3.5782017 C 95.458674,-3.8586013 96.354552,-3.8283084 96.453946,-3.9045846 C 96.586692,-4.0064545 97.214067,-3.9032458 97.428386,-3.9230977 C 97.789998,-3.956593 98.205051,-3.6013618 98.513474,-3.4496314 C 98.836422,-3.2907547 98.905832,-2.4422031 98.961282,-2.1279194 C 99.054312,-1.6006594 99.232652,-1.4396955 99.447262,-1.0967305 C 99.593322,-0.8633142 100.20341,-0.6313754 100.4876,-0.40387791 C 100.91993,-0.057785205 101.11865,0.52431599 101.40025,1.0182708 C 101.75199,1.6352517 101.94362,2.3427074 102.22998,2.9503286 C 102.42569,3.3656181 102.7457,3.6484937 102.97404,3.9576114 C 103.24709,4.3272495 103.51851,4.6042973 103.70494,4.8226202 C 103.90479,5.0566647 104.16432,5.0719021 104.41606,5.47422 C 104.63681,5.8269947 104.63821,6.4673906 104.67689,6.8849984 C 104.72008,7.3511945 104.8599,7.910308 104.94432,8.3669134 C 105.0253,8.8049006 105.22739,8.9961148 105.35259,9.2618055 C 105.64036,9.872412 105.91841,9.0663367 105.92013,9.0657422 C 106.11631,8.9979692 105.83159,8.089917 105.82788,8.0698298 C 105.74597,7.6268146 105.58437,7.3386596 105.45776,6.8844156 C 105.35544,6.5173023 105.11494,6.2358013 104.97179,5.853226 C 104.81871,5.4441079 104.90528,4.8183308 104.90453,4.4245175 C 104.90396,4.1284001 105.29246,3.6912136 105.40617,3.5170883 C 105.64599,3.1498359 105.40628,2.470228 105.33891,2.0883798 C 105.24714,1.5682643 104.86232,1.132122 104.56189,0.72541499 C 104.18783,0.21904469 104.14187,-0.23295551 104.02319,-0.8748664 C 103.92067,-1.4294127 104.07773,-1.9024187 104.20744,-2.3986181 C 104.32919,-2.8643875 104.47605,-3.244005 104.54709,-3.6497771 C 104.64174,-4.190435 104.60732,-4.7794761 104.65363,-5.3098253 C 104.69338,-5.7650303 104.6314,-6.2524041 104.58637,-6.7385338 C 104.54533,-7.1816545 104.42103,-7.4746845 104.28737,-7.8587895 C 104.1423,-8.2756615 104.49245,-8.5359015 104.59543,-8.7482865 C 104.77536,-9.1193205 104.91408,-9.4361385 105.02596,-9.7208768 C 105.1501,-10.036769 104.98267,-10.487473 104.92713,-10.787925 C 104.77675,-11.601263 104.87404,-10.783008 105.18522,-10.811832 C 105.32517,-10.824796 105.77018,-9.4272105 105.85295,-9.2235035 C 106.00611,-8.8466345 106.10629,-8.4095705 106.22966,-7.9669525 C 106.45061,-7.1742195 106.67851,-6.3565316 106.91194,-5.5190077 C 107.136,-4.7151479 107.1424,-3.7336284 107.22027,-2.8929306 C 107.30978,-1.9265268 107.65403,-0.9448627 107.81305,-0.0062139055 C 107.90581,0.54135609 108.2094,0.84539199 108.44784,1.2264311 C 108.73223,1.6809398 108.82006,2.2457832 108.91541,2.7615535 C 109.01209,3.2844452 109.09535,3.8057407 109.18942,4.3146051 C 109.26341,4.714745 109.19772,5.1067608 109.23692,5.5299037 C 109.2727,5.9162035 109.21582,6.3478428 109.21989,6.7511791 C 109.22418,7.1760175 109.11557,7.6527033 109.08041,8.0555435 C 109.05466,8.3502893 109.04574,9.0389535 109.0436,9.06341 C 108.99576,9.6113847 109.42445,9.6015777 109.56775,9.8040757 C 109.77073,10.090901 110.1256,9.0772618 110.14709,9.0329429 C 110.29866,8.7203608 110.24239,8.246478 110.24182,7.9479649 C 110.24101,7.5208563 110.28838,7.1214898 110.32338,6.720712 C 110.37291,6.1534267 110.45092,5.9214243 110.65643,5.3984174 C 110.77972,5.0846318 111.17322,4.7462939 111.35165,4.4730581 C 111.53055,4.1990889 111.43985,3.316193 111.47136,2.9552839 C 111.51578,2.4466676 111.2695,1.9935684 111.14601,1.5504813 C 110.93657,0.79908219 111.62491,-0.066988905 111.86484,-0.52501601 C 112.05923,-0.8961212 112.32081,-1.2464714 112.54686,-1.5926476 C 112.80747,-1.9917219 112.98167,-2.3042959 113.29342,-2.6662568 C 113.69092,-3.1277768 113.71382,-4.1248798 113.81869,-4.7238249 C 113.89878,-5.1813664 113.75079,-5.8716497 113.74484,-6.2236699 C 113.73632,-6.7265951 115.27743,-8.3963425 115.57895,-8.9047035 C 115.97786,-9.5772305 116.31851,-9.8091728 116.74423,-10.375831 C 116.83583,-10.497759 116.84692,-10.672331 116.89826,-10.820581 C 117.06062,-11.289388 116.8421,-9.8135028 116.84306,-9.3087825 C 116.84415,-8.7413075 116.76973,-8.2010055 116.672,-7.6427565 C 116.56669,-7.0412295 116.55767,-6.4462805 116.51412,-5.8344597 C 116.47364,-5.2660016 116.56505,-4.7425264 116.66567,-4.1983183 C 116.80211,-3.4603229 116.87005,-2.6943059 116.94104,-1.9279232 C 117.00278,-1.2613736 116.65164,-0.43543351 116.4869,0.19480389 C 116.32742,0.80488509 116.2464,1.3872256 116.13544,2.021032 C 116.05814,2.4625958 115.53524,3.0046331 115.35072,3.3851634 C 115.08795,3.9270633 114.93641,4.2475548 114.77275,4.8736379 C 114.64873,5.3480334 114.9451,6.0379899 115.04676,6.4266902 C 115.18633,6.9603572 115.21426,7.1471187 115.16536,7.7071489 C 115.12236,8.1996727 114.69642,8.5273683 114.48333,8.7747805 C 114.28311,9.0072514 114.06808,9.0597668 113.742,9.2021838 C 113.25799,9.4135758 113.34344,9.6004834 113.16266,9.9733156 C 113.0876,10.128103 113.19673,10.919789 113.19696,11.046342 C 113.19825,11.721102 113.1673,11.47855 113.83039,11.561644 C 114.19162,11.606908 114.44016,11.384141 114.71396,11.264561 C 115.02749,11.127622 115.32709,10.572376 115.53821,10.327249 C 115.80722,10.01491 115.89944,9.2317533 115.98714,8.8507272 C 116.10703,8.3297986 116.59841,7.8225132 116.81661,7.2672095 C 117.05781,6.6533764 117.50286,6.2148011 117.91736,5.8020581 C 118.09142,5.628744 118.60764,5.4635262 118.84568,5.2855882 C 119.22422,5.0026163 119.35996,4.6393482 119.65017,4.1348667 C 120.01967,3.4925328 120.44121,2.7577002 120.76272,2.0946458 C 120.97348,1.659996 121.14735,1.3896109 121.38023,1.0329909 C 121.55404,0.76683099 122.48188,0.46898579 122.74044,0.26127529 C 123.12024,-0.043842705 123.50443,-1.1448384 123.73713,-1.6247198 C 124.0696,-2.3103742 124.29473,-2.7067694 124.41779,-3.409694 C 124.52279,-4.0094622 124.55947,-3.2851863 124.59295,-2.9236903 C 124.64343,-2.3787467 124.62815,-1.8412766 124.67999,-1.281573 C 124.7293,-0.7492704 124.66003,-0.43446471 124.5405,0.022792295 C 124.38282,0.62597899 124.14898,1.1422428 123.91778,1.7306532 C 123.66096,2.3842102 123.4394,3.1118676 123.19894,3.8061514 C 122.90615,4.6515628 122.36168,5.3201323 121.84147,6.0125521 C 121.40995,6.5869418 121.06252,7.0367052 120.61827,7.5607935 C 120.32246,7.9097587 120.0025,7.8894661 119.61884,8.0121025 C 119.27118,8.1232349 118.98109,8.5162168 118.65895,8.8902311 C 118.39747,9.1938292 118.49893,9.5833967 118.49969,9.9811867 C 118.50064,10.48302 118.39675,10.788154 118.22457,11.226369 C 118.09736,11.550094 117.56155,11.976481 117.40032,12.16368 C 117.15541,12.448035 116.96654,12.781521 116.76963,13.083063 C 116.65939,13.251887 116.07825,13.44424 115.89925,13.522419 C 115.74564,13.589508 115.54636,14.051214 115.44236,14.210461 C 115.16962,14.628125 115.3747,14.59696 115.31468,14.939757 C 115.30892,14.972686 115.36209,14.983197 115.3858,15.004917"
           id="path3192" />
      </g>
      <g
         transform="matrix(0.9852488,0,0,1.0431143,44.122482,7.325772)"
         id="g3763">
        <path
           style="fill:#ffbc00;fill-opacity:1;fill-rule:nonzero;stroke:none;stroke-width:0.40799999;stroke-linecap:round;stroke-linejoin:round;marker:none;marker-start:none;marker-mid:none;marker-end:none;stroke-miterlimit:4;stroke-dasharray:none;stroke-dashoffset:0;stroke-opacity:0.98983047;visibility:visible;display:inline;overflow:visible;enable-background:accumulate"
           d="M 19.658396,29.766061 C 19.081491,29.39702 18.638541,29.01084 18.246452,28.535084 C 16.202668,26.055174 16.611526,22.312057 19.176145,20.023638 C 20.611233,18.743114 22.497208,18.129515 24.376218,18.331813 C 24.749506,18.372002 25.025471,18.454294 25.801756,18.756906 C 26.680024,19.099273 26.801763,19.162359 27.190747,19.47667 C 28.882135,20.843376 29.642489,22.932701 29.256576,25.153249 C 29.176968,25.6113 29.10324,25.820716 28.746107,26.603235 C 28.314845,27.548185 28.140893,27.816502 27.543113,28.458895 C 26.158675,29.946635 24.024032,30.752398 22.016378,30.545065 C 21.272188,30.468212 20.204746,30.11556 19.658396,29.766061 z"
           id="path3630" />
        <path
           style="fill:#ff7f2a;fill-opacity:1;fill-rule:evenodd;stroke:none;stroke-width:0.1;stroke-linecap:butt;stroke-linejoin:miter;marker:none;marker-start:none;marker-mid:none;marker-end:none;stroke-miterlimit:4;stroke-dasharray:none;stroke-dashoffset:0;stroke-opacity:1;visibility:visible;display:inline;overflow:visible;filter:url(#filter3716);enable-background:accumulate"
           d="M 162,-11 C 162.02387,-12.400226 162.65087,-14.158881 163.42857,-15.714286 C 164.31347,-17.48409 164.71429,-15.241633 164.71429,-14.571429 C 164.71429,-13.756027 165.51617,-14.901622 166.57143,-13.142857 C 167.7541,-11.17174 163.31929,-9.5176428 166.71429,-9.8571428 C 168.03057,-9.9887712 168.70712,-9.2910892 169.28571,-8.8571428 C 169.95969,-8.3516627 170.34947,-7.4262094 171.14286,-7.1428571 C 172.83541,-6.5383753 171.01697,-4.7156999 170.57143,-4.1428571 C 169.8068,-3.1597686 168.0543,-3.2482874 167,-3.1428571 C 166.09848,-3.0527053 167.49132,-1.2648922 167.14286,-0.4285714 C 166.45062,1.2328045 164.2201,-0.92275278 163.57143,-1.5714285 C 162.29803,-2.8448287 162.5247,-4.0191548 161.85714,-1.5714285 C 161.46668,-0.13971456 159.82834,-1.0972343 159,-1.4285714 C 157.63906,-1.9729492 158.52205,-2.5194966 157.14286,-3.2857143 C 155.0794,-4.4320814 155.16549,-5.4596844 155.28571,-7.1428571 C 155.33297,-7.8044282 156.56307,-7.535037 157.14286,-7.8571428 C 158.4252,-8.5695543 156.40527,-10.699574 156.14286,-12.142857 C 155.87976,-13.589912 159.82646,-11.846118 160.14286,-11.714286 C 161.28489,-11.238438 160.00631,-11.031573 160.28571,-12.428571 C 160.43159,-13.15796 161.50582,-11.555948 162,-11 z"
           id="path3646"
           transform="matrix(0.4334585,0.168722,-0.2061026,0.4600324,-49.135439,0.1007496)" />
        <path
           sodipodi:type="arc"
           style="fill:none;fill-opacity:1;fill-rule:evenodd;stroke:#000000;stroke-width:1.10000002;stroke-linecap:round;stroke-linejoin:round;marker:none;marker-start:none;marker-mid:none;marker-end:none;stroke-miterlimit:4;stroke-dasharray:none;stroke-dashoffset:0;stroke-opacity:1;visibility:visible;display:inline;overflow:visible;enable-background:accumulate"
           id="path2398"
           sodipodi:cx="-55"
           sodipodi:cy="10.714286"
           sodipodi:rx="22.142857"
           sodipodi:ry="21.285715"
           d="M -32.857143,10.714286 A 22.142857,21.285715 0 1 1 -77.142857,10.714286 A 22.142857,21.285715 0 1 1 -32.857143,10.714286 z"
           transform="matrix(0.2577058,0.1003109,-0.1241028,0.2770042,38.578214,26.985044)" />
      </g>
    </g>
  </g>
</svg>
