<?xml version="1.0" encoding="UTF-8" standalone="no"?>
<!-- Created with Inkscape (http://www.inkscape.org/) -->
<svg
   xmlns:dc="http://purl.org/dc/elements/1.1/"
   xmlns:cc="http://creativecommons.org/ns#"
   xmlns:rdf="http://www.w3.org/1999/02/22-rdf-syntax-ns#"
   xmlns:svg="http://www.w3.org/2000/svg"
   xmlns="http://www.w3.org/2000/svg"
   xmlns:sodipodi="http://sodipodi.sourceforge.net/DTD/sodipodi-0.dtd"
   xmlns:inkscape="http://www.inkscape.org/namespaces/inkscape"
   width="48px"
   height="48px"
   id="svg2383"
   sodipodi:version="0.32"
   inkscape:version="0.46"
   sodipodi:docname="quadrat_tornado.svg"
   inkscape:output_extension="org.inkscape.output.svg.inkscape"
   inkscape:export-filename="/home/stefan/workspace/FallingBlocks/res_original/quadrat_tornado.png"
   inkscape:export-xdpi="61.193829"
   inkscape:export-ydpi="61.193829">
  <defs
     id="defs2385">
    <inkscape:perspective
       sodipodi:type="inkscape:persp3d"
       inkscape:vp_x="0 : 24 : 1"
       inkscape:vp_y="0 : 1000 : 0"
       inkscape:vp_z="48 : 24 : 1"
       inkscape:persp3d-origin="24 : 16 : 1"
       id="perspective2391" />
    <filter
       inkscape:collect="always"
       id="filter3236"
       x="-0.056423986"
       width="1.112848"
       y="-0.25151461"
       height="1.5030292">
      <feGaussianBlur
         inkscape:collect="always"
         stdDeviation="0.35004549"
         id="feGaussianBlur3238" />
    </filter>
    <filter
       inkscape:collect="always"
       id="filter3288"
       x="-0.093680761"
       width="1.1873615"
       y="-0.34040224"
       height="1.6808045">
      <feGaussianBlur
         inkscape:collect="always"
         stdDeviation="0.56685728"
         id="feGaussianBlur3290" />
    </filter>
  </defs>
  <sodipodi:namedview
     id="base"
     pagecolor="#ffffff"
     bordercolor="#666666"
     borderopacity="1.0"
     inkscape:pageopacity="0.0"
     inkscape:pageshadow="2"
     inkscape:zoom="4.9497475"
     inkscape:cx="68.417216"
     inkscape:cy="14.124691"
     inkscape:current-layer="g3184"
     showgrid="true"
     inkscape:grid-bbox="true"
     inkscape:document-units="px"
     inkscape:window-width="1440"
     inkscape:window-height="839"
     inkscape:window-x="0"
     inkscape:window-y="34" />
  <metadata
     id="metadata2388">
    <rdf:RDF>
      <cc:Work
         rdf:about="">
        <dc:format>image/svg+xml</dc:format>
        <dc:type
           rdf:resource="http://purl.org/dc/dcmitype/StillImage" />
      </cc:Work>
    </rdf:RDF>
  </metadata>
  <g
     id="layer1"
     inkscape:label="Layer 1"
     inkscape:groupmode="layer">
    <g
       id="g3177"
       transform="translate(-0.8571425,-0.7142858)">
      <path
         sodipodi:nodetypes="csssssssssssssssssssssssssssssssssssssssssssssssssssccssssssssssssssssssssc"
         id="path2395"
         d="M 2.5714286,1.8571428 C 2.8196532,2.4777043 3.9138442,1.5947249 4.5714286,1.7142857 C 5.5555586,1.8932184 6.2530868,2.2883596 7.2142857,2 C 8.3025798,1.6735118 9.3352687,2.1583605 10.428571,2.3571428 C 11.239123,2.5045158 11.729679,2.302525 12.5,2.0714285 C 13.354464,1.8150894 14.685313,2.5350414 15.5,2.7857143 C 15.94858,2.9237388 17.399472,2.0658727 17.857143,1.9285714 C 18.986579,1.5897406 20.792649,2.2955097 21.857143,2.4285714 C 23.193756,2.595648 23.108419,2.3925091 24.285714,2.0714285 C 25.276174,1.8013031 26.341895,2.5 27.428571,2.5 C 28.022587,2.5 27.856119,2.3705952 28.357143,2.1428571 C 28.922368,1.8859366 29.603424,2.1746485 30.214286,2.2857143 C 30.371429,2.3142857 30.268852,1.8571428 30.428571,1.8571428 C 30.997875,1.8571428 31.334349,2.8715866 31.357143,2.9285714 C 31.597806,3.5302281 31.944449,1.8730603 31.928571,1.7142857 C 31.831177,0.74034306 33.89735,2.1205299 34.857143,1.9285714 C 35.948113,1.7103775 36.404426,1.7713278 37.642857,2.1428571 C 38.218176,2.3154526 39.004237,1.9044088 39.571429,1.8571428 C 40.354594,1.791879 40.806052,1.6897819 41.642857,1.8571428 C 42.722105,2.0729924 42.479472,2.4955317 43.5,1.9285714 C 44.541959,1.3497052 44.973796,2.5242617 45.357143,3.2142857 C 45.806531,4.0231847 45.714286,4.400805 45.714286,5.3571428 C 45.714286,6.3048177 46.130537,7.0073396 46.214286,7.9285714 C 46.270731,8.549467 45.591916,9.6341818 45.357143,10.142857 C 45.101197,10.697406 45.516226,11.876543 45.571429,12.428571 C 45.671015,13.424435 45.80279,13.849687 46.714286,14.214286 C 47.449881,14.508524 46.756169,15.546753 46.642857,16 C 46.45085,16.76803 46.432691,17.557698 46.214286,18.285714 C 45.981165,19.062782 46.028925,19.500883 46.285714,20.142857 C 46.540373,20.779505 46.424914,21.536579 46.357143,22.214286 C 46.273956,23.04615 45.938082,23.825442 45.714286,24.571429 C 45.674337,24.704591 46.723372,26.271412 46.785714,26.5 C 46.980286,27.213431 46.338914,28.060762 46.142857,28.714286 C 45.916709,29.468113 46.309006,30.415371 46.571429,31.071429 C 46.828157,31.713249 46.849875,32.429822 46.785714,33.071429 C 46.73851,33.543476 45.902973,33.5 45.428571,33.5 C 44.63282,33.5 46.642913,34.614432 46.928571,35.357143 C 47.2543,36.204037 46.357143,36.537008 46.357143,37.357143 C 46.357143,38.240405 47.17676,39.66063 47.428571,40.5 C 47.670738,41.307222 47.439967,41.629834 46.928571,42.214286 C 46.561842,42.633405 48.303248,45.512179 48.357143,45.714286 C 48.529027,46.358853 47.153569,46.355105 46.714286,46.857143 C 45.936819,47.745676 43.19617,45.922533 42.142857,45.571429 C 41.35255,45.307993 40.343982,45.357143 39.5,45.357143 C 38.510399,45.357143 37.463605,45.896228 36.5,46.071429 C 35.086406,46.328446 33.566814,45.923284 32.071429,45.571429 C 31.339344,45.399173 30.342513,45.642857 29.571429,45.642857 C 28.815562,45.642857 27.994448,46.092423 27.285714,46.285714 C 26.543285,46.488195 26.114316,46.780932 25.571429,47.142857 C 24.568654,47.811374 22.207467,47.123295 21.142857,46.857143 C 20.048763,46.583619 18.98227,46.001658 17.928571,45.714286 C 16.994698,45.459593 16.473264,45.975171 15.785714,46.357143 C 15.068922,46.755361 11.551335,47.714286 13.214286,46.571429 C 9.03856,46.089136 10.258932,46.356622 10.357143,46.357143 C 9.8310447,45.896807 7.0975268,46.090275 7.2857143,46.285714 C 8.2558954,47.29328 5.7107694,45.741538 5,46 C 3.9312719,46.388628 3.7531291,45.668537 3.4285714,44.857143 C 3.2033532,44.294097 3.2857143,43.627739 3.2857143,43 C 3.2857143,42.193268 3.2963578,41.41036 3.1428571,40.642857 C 2.9865072,39.861107 2.7142857,39.429955 2.7142857,38.5 C 2.7142857,37.34069 2.4891676,37.769126 3.4285714,37.142857 C 4.5826795,36.373452 4.078275,35.229941 3.2857143,35.071429 C 2.5406346,34.922413 2.6428571,33.637091 2.6428571,33.071429 C 2.6428571,32.2776 2.55379,31.604957 2.6428571,30.714286 C 2.7167433,29.975424 2.6513509,29.400259 2.8571429,28.714286 C 3.257939,27.378299 3.3097681,27.000733 2.8571429,25.642857 C 2.5529177,24.730182 2.1133898,24.676804 2.2857143,23.642857 C 2.3911187,23.010431 3.2048518,22.090296 3.5,21.5 C 3.940815,20.61837 3.2142857,19.356331 3.2142857,18.428571 C 3.2142857,17.446088 3.5297309,16.367177 3.7857143,15.428571 C 3.9815562,14.710484 3.0542082,12.953281 2.8571429,12.214286 C 2.4682408,10.755903 1.5911403,9.7914372 2,8.4285714 C 2.2701141,7.528191 2.4758014,6.456272 2.5714286,5.5 C 2.6045766,5.1685199 1.7857143,4.5328856 1.7857143,3.8571428 C 1.7857143,2.9527696 2.4041228,2.0722502 2.5714286,1.8571428 z"
         style="opacity:1;fill:none;fill-opacity:1;fill-rule:evenodd;stroke:#000000;stroke-width:1;stroke-linecap:round;stroke-linejoin:round;marker:none;marker-start:none;marker-mid:none;marker-end:none;stroke-miterlimit:4;stroke-dasharray:none;stroke-dashoffset:0;stroke-opacity:1;visibility:visible;display:inline;overflow:visible;enable-background:accumulate" />
      <path
         sodipodi:nodetypes="cssssssssssssssssssssssssssssssssssssssssssssssssssssssssssssssssc"
         id="path2397"
         d="M 5.9285714,5.1428571 C 6.4613284,5.2276874 7.396502,5.1310494 8.0714286,4.9285714 C 8.8584022,4.6924793 9.8737439,4.7289573 10.642857,4.8571428 C 11.248419,4.9580698 11.903086,4.9457351 12.5,5 C 13.440531,5.0855028 14.627454,5.4445786 15.571429,5.7142857 C 16.296736,5.9215163 17.040959,5.4285714 17.785714,5.4285714 C 18.904762,5.4285714 20.02381,5.4285714 21.142857,5.4285714 C 21.746903,5.4285714 22.367321,4.8408215 23,4.7142857 C 24.147777,4.4847303 25.977038,5.1716827 27.071429,5.5 C 28.031543,5.7880344 29.151864,5.674068 29.928571,5.2857143 C 30.745458,4.877271 31.520114,5.0325943 32.428571,5.2142857 C 33.268694,5.3823102 34.221543,5.2438248 35.071429,5.3571428 C 35.440083,5.4062967 34.666596,4.7063022 34.357143,4.5 C 33.297501,3.7935719 36.78949,5.2876023 37.928571,5.8571428 C 39.025435,6.4055746 38.801533,7.05561 39.642857,6.2142857 C 40.183094,5.6740486 40.113165,5.5922968 41.214286,6.1428571 C 42.521656,6.796542 43.092582,7.0079686 42.642857,8.3571428 C 42.416085,9.0374579 42.428571,10.006941 42.428571,10.714286 C 42.428571,11.421153 42.178006,11.990167 42,12.642857 C 41.824813,13.285211 42,14.205651 42,14.928571 C 42,15.761905 42,16.595238 42,17.428571 C 42,18.371738 42.60149,19.650305 42.785714,20.571429 C 43.006309,21.674402 42.865948,22.350787 42.5,23.357143 C 42.23605,24.083006 42.360197,24.962171 42.428571,25.714286 C 42.510211,26.612315 42.398206,27.491031 42.571429,28.357143 C 42.709633,29.048166 41.549868,29.169839 41.642857,30.285714 C 41.693169,30.889456 42,31.635563 42,32.428571 C 42,33.271269 42.563469,34.256531 42.785714,35.071429 C 42.930346,35.601745 41.724656,35.36728 41.214286,35.571429 C 40.692552,35.780122 42.571429,36.009504 42.571429,36.571429 C 42.571429,37.229394 42.785714,37.767123 42.785714,38.5 C 42.785714,39.380147 42.390577,39.460486 42.928571,40.357143 C 43.428314,41.190047 43.001885,41.569005 42.5,42.214286 C 42.199768,42.600298 42.142857,43.195057 42.142857,43.5 C 42.142857,44.261905 40.619048,43.5 39.857143,43.5 C 39.125681,43.5 38.511696,42.966815 37.928571,42.642857 C 37.292438,42.28945 36.894757,43.42224 36.785714,43.785714 C 36.577112,44.481057 34.103998,43.663657 33.642857,43.571429 C 32.799728,43.402803 31.850948,43.644547 31.071429,43.857143 C 30.230462,44.086498 29.425207,43.856531 28.642857,43.714286 C 27.493127,43.505244 26.416331,42.823675 25.428571,42.428571 C 24.690868,42.13349 22.642554,43.1477 21.857143,43.357143 C 21.195011,43.533711 20.21628,42.785714 19.428571,42.785714 C 18.650158,42.785714 18.084142,43.015557 17.214286,42.928571 C 16.49204,42.856347 15.79507,42.591625 15.142857,42.428571 C 14.084929,42.164089 13.218375,42.427695 12.214286,42.642857 C 11.0267,42.89734 9.4967428,41.974019 8.5714286,41.357143 C 7.4887994,40.63539 7.6591716,40.338498 8.1428571,39.785714 C 8.6862088,39.164741 6.6533472,38.84156 6.3571429,38.071429 C 6.2341054,37.751531 6.5,36.170632 6.5,35.714286 C 6.5,35.050249 6.7142857,34.474125 6.7142857,33.785714 C 6.7142857,33.013173 6.0390042,32.70494 5.5,32.285714 C 4.9317002,31.843703 5.9847333,31.169937 6.1428571,30.642857 C 6.2461356,30.298596 6.1066464,29.252482 6.2142857,28.714286 C 6.4592274,27.489578 5.3774904,28.153243 5.7857143,26.928571 C 6.2526373,25.527802 7.1496587,24.19048 7.5714286,22.714286 C 7.6650811,22.386502 6.9693806,22.383671 6.6428571,22.285714 C 6.3132962,22.186846 7.0880416,20.235875 7.1428571,20.071429 C 7.3049327,19.585202 6.5714286,18.640577 6.5714286,18.214286 C 6.5714286,16.905757 5.7586787,16.689985 6.2857143,15.214286 C 6.8791601,13.552637 8.5249928,13.214286 6.7142857,13.214286 C 6.0667294,13.214286 6.8571429,12.598672 6.8571429,11.071429 C 6.8571429,10.547041 7.3193095,9.6772105 7.5,9.2857143 C 7.8818949,8.4582753 5.2142857,8.6970314 5.2142857,7.7857143 C 5.2142857,7.0779106 5.6859964,6.5664786 6.2142857,6.2142857 C 6.5577007,5.9853424 6.045421,5.3960311 5.9285714,5.1428571 z"
         style="opacity:1;fill:none;fill-opacity:1;fill-rule:evenodd;stroke:#000000;stroke-width:1;stroke-linecap:round;stroke-linejoin:round;marker:none;marker-start:none;marker-mid:none;marker-end:none;stroke-miterlimit:4;stroke-dasharray:none;stroke-dashoffset:0;stroke-opacity:1;visibility:visible;display:inline;overflow:visible;enable-background:accumulate" />
      <path
         id="path2399"
         d="M 2.4285714,1.7857143 C 2.5095862,2.4609671 2.690191,2.4427716 3.3571429,2.6428571 C 3.6064626,2.717653 4.1514704,3.6950366 4.5,4 C 4.9628594,4.405002 5.1304145,4.6366358 5.7142857,4.9285714 C 6.3364843,5.2396707 6.1284951,4.8567614 6.2857143,5.6428571"
         style="opacity:1;fill:none;fill-opacity:1;fill-rule:evenodd;stroke:#000000;stroke-width:1;stroke-linecap:round;stroke-linejoin:round;marker:none;marker-start:none;marker-mid:none;marker-end:none;stroke-miterlimit:4;stroke-dasharray:none;stroke-dashoffset:0;stroke-opacity:1;visibility:visible;display:inline;overflow:visible;enable-background:accumulate" />
      <path
         id="path2401"
         d="M 44.285714,2 C 44.317416,2.015851 43.806979,2.9624562 43.5,3.3571428 C 43.01941,3.975044 43.083492,5.2555546 42.785714,6 C 42.650997,6.3367931 42.621286,6.6029049 42.571429,6.7857143"
         style="opacity:1;fill:none;fill-opacity:1;fill-rule:evenodd;stroke:#000000;stroke-width:1;stroke-linecap:round;stroke-linejoin:round;marker:none;marker-start:none;marker-mid:none;marker-end:none;stroke-miterlimit:4;stroke-dasharray:none;stroke-dashoffset:0;stroke-opacity:1;visibility:visible;display:inline;overflow:visible;enable-background:accumulate" />
      <path
         id="path2403"
         d="M 42.142857,43.928571 C 41.955277,44.397523 43.159082,43.569153 43.642857,43.714286 C 44.241943,43.894011 44.779438,44.251535 45.428571,44.428571 C 45.919863,44.56256 46.468812,44.998546 46.857143,45.214286 C 47.518687,45.58181 47.930114,45.542799 48.285714,46"
         style="opacity:1;fill:none;fill-opacity:1;fill-rule:evenodd;stroke:#000000;stroke-width:1;stroke-linecap:round;stroke-linejoin:round;marker:none;marker-start:none;marker-mid:none;marker-end:none;stroke-miterlimit:4;stroke-dasharray:none;stroke-dashoffset:0;stroke-opacity:1;visibility:visible;display:inline;overflow:visible;enable-background:accumulate" />
      <path
         id="path2405"
         d="M 8.3571429,41.357143 C 8.9358116,41.678625 7.3365093,42.204232 6.7857143,42.571429 C 6.3480852,42.863181 6.3267929,43.978543 6.2142857,44.428571 C 6.1672544,44.616697 5.0649839,45.266917 4.8571429,45.428571 C 4.6379679,45.599041 4.3809524,45.714286 4.1428571,45.857143"
         style="opacity:1;fill:none;fill-opacity:1;fill-rule:evenodd;stroke:#000000;stroke-width:1;stroke-linecap:round;stroke-linejoin:round;marker:none;marker-start:none;marker-mid:none;marker-end:none;stroke-miterlimit:4;stroke-dasharray:none;stroke-dashoffset:0;stroke-opacity:1;visibility:visible;display:inline;overflow:visible;enable-background:accumulate" />
    </g>
    <g
       id="g3184"
       transform="matrix(1.6232858,0,0,0.8575933,-36.598816,0.7084216)">
      <path
         style="opacity:1;fill:#c2dede;fill-opacity:1;fill-rule:nonzero;stroke:none;stroke-width:0.40799998999999998;stroke-linecap:round;stroke-linejoin:round;marker:none;marker-start:none;marker-mid:none;marker-end:none;stroke-miterlimit:4;stroke-dasharray:none;stroke-dashoffset:0;stroke-opacity:0.98983047000000002;visibility:visible;display:inline;overflow:visible;enable-background:accumulate"
         d="M 33.722243,42.539139 C 32.384536,42.221694 31.83434,42.21652 30.52586,42.509078 C 29.623557,42.710819 29.523662,42.719605 28.945262,42.648078 C 27.786184,42.504742 27.321222,42.361809 25.863557,41.70073 C 24.246134,40.967199 24.056019,40.968788 21.938054,41.733555 L 20.762553,42.158014 L 20.009484,41.897581 C 18.989543,41.54486 18.708061,41.510392 17.691867,41.613791 C 16.644904,41.720322 16.210978,41.677174 14.913294,41.337513 C 13.691637,41.017751 13.188507,41.006407 11.86798,41.268851 C 10.995477,41.442255 10.868709,41.451541 10.475123,41.370899 C 9.7465088,41.221612 8.0187916,40.312932 7.6148073,39.866535 C 7.4896988,39.728292 7.4920002,39.71506 7.6910781,39.427791 C 7.9360773,39.074262 7.9555231,38.666218 7.7411895,38.376361 C 7.6640066,38.271982 7.3787159,38.052293 7.1072081,37.888162 C 6.8356988,37.724032 6.4918223,37.515917 6.3430345,37.425689 C 6.1942445,37.335462 6.0554381,37.193612 6.0345709,37.110469 C 5.9947431,36.951777 6.1792538,34.779169 6.2950181,34.043725 C 6.3321195,33.808011 6.3627209,33.392267 6.3630181,33.119848 C 6.3637431,32.455152 6.1883495,32.104087 5.6228545,31.638334 C 5.3820245,31.439983 5.1598902,31.2546 5.1292181,31.226372 C 5.0985466,31.198141 5.1983573,31.016928 5.3510209,30.823672 C 5.5036873,30.630415 5.6717102,30.391939 5.7244095,30.293725 C 5.8412759,30.075924 5.9480102,27.596887 5.8550209,27.260107 C 5.8209273,27.136629 5.6995138,26.946007 5.5852131,26.8365 C 5.4136695,26.672151 5.3872373,26.604282 5.4337845,26.447704 C 5.5372823,26.099561 5.7773573,25.538385 6.3145809,24.388859 C 7.4296973,22.002787 7.4804652,21.470554 6.6172595,21.215679 C 6.2443916,21.105585 6.2434859,21.181135 6.6316895,20.010793 C 6.8623445,19.315425 6.8738909,19.238321 6.7980959,18.899632 C 6.7532988,18.699465 6.6203816,18.332132 6.5027216,18.083339 C 6.3841445,17.832609 6.2567759,17.404602 6.2169588,17.123072 C 6.1774488,16.843717 6.0621345,16.374423 5.9607023,16.080197 C 5.6548331,15.192959 5.8348131,14.554192 6.6715652,13.557253 C 7.1670531,12.966907 7.2711566,12.721449 7.1552902,12.416698 C 7.0738109,12.202397 6.7459245,12.008011 6.4659202,12.008011 C 6.2947345,12.008011 6.2800823,11.988144 6.3210316,11.811582 C 6.3651023,11.621553 6.4503838,11.110638 6.5746016,10.292436 C 6.6075145,10.075654 6.7698916,9.597468 6.9354445,9.2297987 C 7.1753102,8.6970908 7.2280988,8.5087422 7.1953366,8.3025165 C 7.1341981,7.9176694 6.7700552,7.6189551 6.1363388,7.433798 C 4.9971159,7.100943 4.9349859,7.074748 4.9349859,6.9272944 C 4.9349859,6.686413 5.1296859,6.3948544 5.4945345,6.0893858 C 5.8857752,5.7618208 6.0385359,5.4735365 5.9913245,5.1518637 C 5.9615581,4.9490622 5.9735745,4.9365822 6.1985702,4.9365822 C 6.3299323,4.9365822 6.8090809,4.8562251 7.2633423,4.7580108 C 8.2445266,4.5458722 8.3789209,4.542528 10.042129,4.6888608 C 11.818471,4.845148 12.535849,4.9599787 13.613557,5.260543 C 14.867413,5.610233 15.178385,5.6327322 15.9707,5.4310751 C 16.544157,5.2851201 16.841034,5.2630922 18.7207,5.2270201 L 20.827843,5.1865822 L 21.546654,4.8472965 C 22.137252,4.568528 22.336792,4.5080108 22.665369,4.5080108 C 23.234055,4.5080108 23.935897,4.6588901 25.327843,5.0803765 L 26.542129,5.448068 L 27.506414,5.4175351 C 28.410101,5.3889201 28.512672,5.3706037 29.138582,5.1260772 C 29.899962,4.828628 30.287857,4.7992794 31.149272,4.9739494 C 31.731457,5.0920008 34.152922,5.201293 34.462843,5.123508 C 34.56805,5.0971022 34.689179,4.9985715 34.732022,4.9045508 C 34.82375,4.7032322 34.737572,4.6791072 36.037757,5.2701108 C 36.621486,5.5354451 37.175114,5.8421815 37.375957,6.0115387 C 38.0311,6.5639608 38.421843,6.5624872 39.0315,6.0052972 C 39.244793,5.8103608 39.455614,5.650868 39.5,5.650868 C 39.625893,5.650868 40.871607,6.288273 41.13945,6.4897387 C 41.36965,6.6628887 41.377993,6.6855715 41.340214,7.0356315 C 41.318529,7.2365115 41.251757,7.6097965 41.191829,7.8651537 C 41.131893,8.1205108 41.080864,8.5705108 41.078414,8.8651537 C 41.070643,9.8009987 40.955072,10.671757 40.751007,11.33183 L 40.553007,11.972297 L 40.569957,14.293725 C 40.591522,17.246526 40.591686,17.247826 41.187343,19.222297 C 41.53825,20.385472 41.562236,21.164874 41.274179,22.043725 C 41.000936,22.877352 40.913057,23.462199 40.968279,24.079439 C 40.994636,24.374082 41.0437,25.321696 41.0773,26.185247 L 41.138393,27.755339 L 40.82055,28.127374 C 40.64575,28.33199 40.452229,28.620255 40.390507,28.767962 C 40.237407,29.134382 40.2493,29.847128 40.420729,30.579439 C 40.498893,30.913368 40.584479,31.443725 40.610914,31.758011 C 40.651372,32.238974 40.923336,33.221417 41.256036,34.088418 C 41.291972,34.182078 41.215557,34.207997 40.801036,34.242748 C 39.961843,34.313103 39.62575,34.611017 39.797714,35.132082 C 39.870714,35.353273 39.952964,35.414934 40.535872,35.685481 L 41.191872,35.989953 L 41.287057,36.84598 C 41.35105,37.421505 41.362657,37.886729 41.322464,38.265724 C 41.24295,39.015572 41.26405,39.177543 41.510943,39.712459 C 41.626314,39.962407 41.7207,40.239262 41.7207,40.327696 C 41.7207,40.41613 41.559886,40.706335 41.363336,40.972596 C 41.010043,41.451189 40.792129,41.987398 40.792129,42.378118 C 40.792129,42.617275 40.78905,42.617556 40.089743,42.441839 C 39.788557,42.366157 39.349272,42.281619 39.113557,42.253975 C 38.673536,42.202371 38.339872,42.061902 37.60565,41.619175 C 36.940264,41.217959 36.392764,41.275077 35.948643,41.792047 C 35.897229,41.851899 35.757586,42.101761 35.638336,42.347297 L 35.421522,42.793725 L 35.088957,42.789139 C 34.906064,42.786614 34.291036,42.674114 33.722243,42.539137 L 33.722243,42.539139 z"
         id="path3348"
         transform="matrix(0.6160345,0,0,1.1660539,22.546132,-0.8260578)" />
      <path
         style="opacity:1;fill:#ceebeb;fill-opacity:1;fill-rule:nonzero;stroke:none;stroke-width:0.40799998999999998;stroke-linecap:round;stroke-linejoin:round;marker:none;marker-start:none;marker-mid:none;marker-end:none;stroke-miterlimit:4;stroke-dasharray:none;stroke-dashoffset:0;stroke-opacity:0.98983047000000002;visibility:visible;display:inline;overflow:visible;enable-background:accumulate"
         d="M 22.077843,46.007318 C 20.873026,45.760399 19.995732,45.503172 18.792129,45.043928 C 17.310069,44.478436 17.157184,44.437468 16.527192,44.436981 C 16.052819,44.436616 15.962789,44.462571 15.384334,44.766488 C 15.038978,44.947938 14.642731,45.154304 14.503784,45.225084 C 14.364837,45.295865 13.953192,45.442967 13.589017,45.551982 L 12.926877,45.750189 L 12.76795,45.550875 C 12.615363,45.359511 12.562098,45.346177 11.432719,45.216612 C 10.785752,45.14239 10.105828,45.081163 9.9217788,45.080552 C 9.7377273,45.079941 9.4966573,45.044282 9.3860645,45.001312 C 8.8094102,44.777257 6.7006473,44.803815 6.1998973,45.041437 C 5.9817123,45.144973 5.9343388,45.141263 5.4686488,44.984174 C 5.1947795,44.891791 4.9707002,44.799297 4.9707002,44.778634 C 4.9707002,44.757969 5.1123566,44.632379 5.2854923,44.499539 C 5.7467209,44.145654 5.8527895,43.963932 5.9684502,43.329439 C 6.1547881,42.307219 6.0968352,42.385309 7.0434573,41.880926 L 7.8927188,41.428417 L 8.5745645,41.783432 C 9.9697981,42.509876 10.633449,42.615599 12.042129,42.335835 C 13.284839,42.089032 13.644834,42.097632 14.728543,42.400012 C 15.922278,42.73309 16.672158,42.804692 17.740621,42.687609 C 18.657136,42.587177 18.724105,42.595792 19.684986,42.937678 C 20.662352,43.285432 20.924625,43.264851 22.399272,42.724696 C 24.114624,42.096373 24.099576,42.096557 25.404684,42.687847 C 26.740481,43.293042 27.051341,43.39957 28.035337,43.589349 C 29.089587,43.792679 29.875869,43.792389 30.649272,43.58839 C 30.9832,43.50031 31.531562,43.409939 31.867854,43.387565 C 32.398102,43.352285 32.60677,43.377477 33.439286,43.577267 C 34.659279,43.870045 35.45665,43.930845 35.892657,43.764333 C 36.235214,43.633512 36.34185,43.505915 36.529936,43.001819 C 36.597172,42.821627 36.694143,42.616803 36.745443,42.546652 C 36.833514,42.426205 36.8563,42.430218 37.154707,42.618757 C 37.701593,42.964289 38.263993,43.216362 38.587279,43.260842 C 39.31985,43.361637 40.771336,43.671477 40.946007,43.764347 C 41.219372,43.909698 41.519357,43.889384 42.109957,43.685537 L 42.630357,43.505918 L 43.371957,43.819739 C 43.779836,43.992342 44.226714,44.169654 44.365014,44.213769 C 44.503307,44.257882 44.967593,44.502849 45.39675,44.758137 C 45.8259,45.013424 46.227036,45.223002 46.28815,45.223865 C 46.349264,45.224727 46.262457,45.287534 46.09525,45.363433 C 45.928036,45.439334 45.675364,45.589803 45.533757,45.697812 L 45.276286,45.894194 L 44.80255,45.769939 C 44.324343,45.644517 44.015522,45.515995 42.327843,44.740048 C 41.139,44.19345 40.769029,44.118744 39.256414,44.119847 C 38.152057,44.120654 37.9807,44.138259 37.363557,44.314348 C 35.463136,44.856597 35.423157,44.864662 34.635043,44.864912 C 33.88305,44.865152 33.037714,44.737843 31.756414,44.431394 C 31.103576,44.275255 30.393405,44.259256 29.016497,44.369667 C 28.156502,44.438628 27.956129,44.483719 26.836604,44.860219 C 25.478558,45.316934 25.483264,45.314878 24.723787,45.783788 C 24.191972,46.112134 24.190062,46.112664 23.473787,46.129512 C 22.983603,46.14104 22.541514,46.102344 22.077843,46.007318 z"
         id="path3394"
         transform="matrix(0.6160345,0,0,1.1660539,22.546132,-0.8260578)" />
      <path
         style="opacity:1;fill:#ceebeb;fill-opacity:1;fill-rule:nonzero;stroke:none;stroke-width:0.40799998999999998;stroke-linecap:round;stroke-linejoin:round;marker:none;marker-start:none;marker-mid:none;marker-end:none;stroke-miterlimit:4;stroke-dasharray:none;stroke-dashoffset:0;stroke-opacity:0.98983047000000002;visibility:visible;display:inline;overflow:visible;enable-background:accumulate"
         d="M 3.1433381,44.101194 C 2.9960016,43.724047 2.9769923,43.521997 2.9329666,41.865154 C 2.8870623,40.137652 2.8732259,40.001169 2.6646423,39.218483 C 2.5436823,38.764602 2.4226881,38.121743 2.3957645,37.789912 L 2.3468116,37.186582 L 2.6365066,37.023767 C 4.0709823,36.217554 4.1659788,34.528929 2.8109352,33.923165 C 2.6444909,33.84876 2.4697523,33.716874 2.4226231,33.630088 C 2.3013323,33.406734 2.2583366,30.865324 2.3534916,29.543725 C 2.4082459,28.783259 2.4866002,28.275354 2.6234645,27.793725 C 2.9884373,26.509391 2.8754916,25.488988 2.2144845,24.098728 C 1.7942838,23.21494 1.8170916,23.090365 2.6324173,21.816173 C 2.9042659,21.391327 3.1639123,20.934464 3.2094081,20.800924 C 3.3430366,20.408695 3.3053123,19.696973 3.1055823,18.842137 C 2.8312981,17.668221 2.8725888,16.960954 3.3043952,15.436582 C 3.5514045,14.564581 3.5136238,14.070651 3.1158945,12.972297 C 2.9309588,12.461582 2.6836666,11.770511 2.5663581,11.436582 C 2.4490481,11.102654 2.1931173,10.418915 1.9976202,9.9171622 C 1.5275716,8.710763 1.5132845,8.5437222 1.7823945,7.400868 C 2.0425902,6.295873 2.2200166,5.2386208 2.2204131,4.7908022 C 2.2206495,4.5243401 2.1569588,4.3655087 1.8635573,3.900868 C 1.6671288,3.5897972 1.5030088,3.2857551 1.4988459,3.2252194 C 1.4813509,2.9708065 1.5261652,2.6723158 1.6133038,2.4628558 C 1.7043816,2.2439244 1.7121595,2.2408622 1.9761095,2.3199987 C 2.1730716,2.3790508 2.3243488,2.505783 2.5368423,2.7897544 C 3.0202645,3.4357872 3.7311459,4.1479301 4.1874295,4.4432694 C 4.4244895,4.5967094 4.6756795,4.8191437 4.7456338,4.9375665 L 4.8728216,5.1528801 L 4.5347131,5.490993 C 4.1102959,5.915408 3.8549773,6.4575215 3.8452031,6.9550137 C 3.8307866,7.6888072 4.1717116,7.9973615 5.3694073,8.3344994 L 6.0538302,8.5271565 L 5.8142888,9.0812137 C 5.6600388,9.437988 5.5479059,9.8478758 5.4993702,10.232355 C 5.4579145,10.560752 5.3573545,11.086582 5.2759052,11.400868 C 5.0029073,12.454267 5.0266845,12.677837 5.4383302,12.928174 L 5.6468431,13.054977 L 5.4613966,13.299352 C 5.2210431,13.616077 4.9443802,14.209995 4.8205545,14.675059 C 4.6690938,15.243921 4.6979145,15.7282 4.9244531,16.420793 C 5.0365166,16.763407 5.1500309,17.234782 5.1767052,17.468295 C 5.2033788,17.701809 5.3330288,18.135737 5.4648138,18.432581 C 5.5965973,18.729425 5.7192295,19.020511 5.7373281,19.079439 C 5.7554266,19.138368 5.6657395,19.491939 5.5380231,19.865154 C 5.2420166,20.73015 5.1266981,21.337056 5.2055073,21.615154 C 5.2745652,21.85884 5.6585066,22.150868 5.9098345,22.150868 C 6.0022388,22.150868 6.0778431,22.165749 6.0778431,22.183938 C 6.0778431,22.266317 5.7662016,22.990967 5.2933902,24.008011 C 4.3154759,26.111558 4.1690273,26.619862 4.4004081,27.10746 C 4.4686766,27.25133 4.5927795,27.424415 4.6761895,27.492097 C 4.8207473,27.609394 4.8266773,27.665224 4.8029402,28.685093 L 4.7780381,29.755033 L 4.3960452,30.2781 C 3.7386888,31.178227 3.7855316,31.568778 4.6318588,32.244209 C 4.8967923,32.455646 5.1565388,32.68049 5.2090723,32.743864 C 5.3207023,32.87853 5.3123609,33.048157 5.0766409,35.436582 C 4.9791881,36.424029 4.9322866,37.227194 4.9627323,37.387272 C 5.0359023,37.771985 5.4217602,38.164753 6.1125381,38.557672 L 6.7019188,38.892916 L 6.5271316,39.218321 C 6.3048895,39.632072 6.3403259,39.984159 6.6481673,40.420897 C 6.7710945,40.595298 6.8618123,40.745564 6.8497588,40.754824 C 6.8377052,40.764083 6.5259059,40.929302 6.1568723,41.121977 C 5.2797245,41.579944 5.0770066,41.907352 4.8981331,43.154978 C 4.8534181,43.46685 4.8269773,43.497119 4.2682231,43.876016 C 3.9474409,44.093538 3.5995588,44.32648 3.4951473,44.393659 L 3.3053081,44.515806 L 3.1433381,44.101194 z"
         id="path3396"
         transform="matrix(0.6160345,0,0,1.1660539,22.546132,-0.8260578)" />
      <path
         style="opacity:1;fill:#a0b7b7;fill-opacity:1;fill-rule:nonzero;stroke:none;stroke-width:0.40799998999999998;stroke-linecap:round;stroke-linejoin:round;marker:none;marker-start:none;marker-mid:none;marker-end:none;stroke-miterlimit:4;stroke-dasharray:none;stroke-dashoffset:0;stroke-opacity:0.98983047000000002;visibility:visible;display:inline;overflow:visible;enable-background:accumulate"
         d="M 37.913107,5.0423822 C 37.441272,4.6344865 34.081686,3.1692744 33.449836,3.0958222 C 33.198164,3.0665644 33.111822,3.0897187 32.967693,3.2251194 C 32.777779,3.4035337 32.737972,3.7019208 32.870929,3.9503608 C 32.948343,4.0950101 32.93985,4.0967372 32.388789,4.0483594 C 32.080271,4.0212744 31.554629,3.9494008 31.2207,3.8886415 C 30.307466,3.7224751 29.540149,3.7847015 28.827843,4.082693 C 28.290312,4.3075672 28.205569,4.3219772 27.399272,4.3255944 C 26.573862,4.3292972 26.500529,4.3167422 25.418487,3.9864815 C 23.951455,3.5387144 23.269341,3.4133672 22.49989,3.4501551 C 21.947177,3.4765801 21.82228,3.5110844 21.249694,3.795533 L 20.613557,4.1115522 L 18.577843,4.1515744 C 16.762074,4.1872737 16.463196,4.2102051 15.811564,4.3638151 L 15.080999,4.5360322 L 14.132992,4.2768644 C 12.789494,3.9095751 12.192429,3.7988722 11.123099,3.7187937 C 10.607134,3.6801551 9.9286866,3.6169222 9.6154309,3.5782765 C 8.8371895,3.4822651 8.1438459,3.4944051 7.5064145,3.6152022 C 7.2117716,3.6710401 6.6642916,3.770438 6.2897923,3.836088 L 5.6088838,3.955453 L 5.2183638,3.770438 C 4.5586059,3.4578665 3.9263052,2.8533022 3.2111009,1.8512244 L 3.0737102,1.6587244 L 3.3281745,1.5884637 C 3.5296823,1.5328237 3.7315959,1.5542687 4.2983631,1.6915044 C 5.3475102,1.9455422 5.6823873,1.969728 6.3212723,1.8376037 C 7.1085381,1.6747944 7.3671852,1.6900244 8.6086145,1.9722965 C 9.9250845,2.2716315 10.257832,2.2796537 11.226392,2.0354101 C 12.160886,1.7997572 12.417637,1.824073 13.577843,2.2581094 C 14.751939,2.6973422 14.985835,2.688378 16.184986,2.1582008 C 16.656414,1.9497694 17.185157,1.7463794 17.35997,1.7062237 C 17.749564,1.6167287 18.471106,1.7082201 19.769637,2.0117651 C 20.273079,2.1294501 21.009335,2.245588 21.405762,2.2698494 C 22.074738,2.3107915 22.181213,2.2978351 22.887366,2.089558 C 23.305822,1.9661358 23.791134,1.8651537 23.965837,1.8651537 C 24.140542,1.8651537 24.678368,1.9615822 25.161012,2.0794394 C 26.358412,2.3718337 26.977772,2.3718337 27.4707,2.0794394 C 27.888982,1.831323 27.973017,1.8253972 28.764115,1.9882365 C 29.231361,2.084413 29.408157,2.0939244 29.572896,2.0317422 C 29.777381,1.9545587 29.788094,1.9614672 29.929106,2.261458 C 30.123339,2.6746672 30.340264,2.8651537 30.616596,2.8651537 C 31.032382,2.8651537 31.323387,2.4609087 31.510954,1.6227701 C 31.560247,1.4025094 31.608912,1.2222965 31.619099,1.2222965 C 31.629287,1.2222965 32.00185,1.3376644 32.447018,1.4786701 L 33.256414,1.7350444 L 34.337036,1.6871794 C 35.355964,1.642048 35.461979,1.650243 36.194179,1.8307394 C 37.058257,2.043748 37.305414,2.0389237 38.257643,1.7904637 C 38.671086,1.6825865 39.073307,1.6388658 39.7207,1.6314294 C 40.508964,1.6223737 40.663764,1.6411458 41.042129,1.7916694 C 41.335136,1.9082337 41.621879,1.963768 41.948629,1.9672308 L 42.426557,1.9722965 L 42.282814,2.1865822 C 41.995614,2.6147422 41.850393,3.0326065 41.679614,3.9222415 C 41.515557,4.776893 41.383143,5.2937251 41.328236,5.2937251 C 41.3149,5.2937251 40.956907,5.1249751 40.532693,4.9187251 C 39.935843,4.6285408 39.685279,4.5437251 39.424857,4.5437251 C 39.081914,4.5437251 39.065272,4.5524901 38.456979,5.053428 L 38.184986,5.2774158 L 37.913107,5.0423822 z"
         id="path3398"
         transform="matrix(0.6160345,0,0,1.1660539,22.546132,-0.8260578)" />
      <path
         style="opacity:1;fill:#a0b7b7;fill-opacity:1;fill-rule:nonzero;stroke:none;stroke-width:0.40799998999999998;stroke-linecap:round;stroke-linejoin:round;marker:none;marker-start:none;marker-mid:none;marker-end:none;stroke-miterlimit:4;stroke-dasharray:none;stroke-dashoffset:0;stroke-opacity:0.98983047000000002;visibility:visible;display:inline;overflow:visible;enable-background:accumulate"
         d="M 45.862122,43.774194 C 45.434936,43.500808 44.126179,42.9211 43.123157,42.560981 C 42.750593,42.427219 42.66015,42.419793 42.306629,42.493944 C 42.087972,42.53981 41.894972,42.563234 41.877736,42.546002 C 41.788457,42.456723 41.971443,41.985293 42.227679,41.644449 C 42.876364,40.781559 42.959922,40.255794 42.577007,39.44638 C 42.366386,39.001169 42.362964,38.97606 42.409122,38.216104 C 42.470529,37.205047 42.25525,35.470599 42.046886,35.297674 C 41.971143,35.234818 42.000343,35.171229 42.193672,34.977899 C 42.528972,34.642594 42.512972,34.385201 42.080529,33.158482 C 41.823143,32.428362 41.706857,31.971735 41.655936,31.491209 C 41.617357,31.127235 41.522386,30.53187 41.444872,30.168174 C 41.2738,29.365446 41.316229,29.152009 41.725707,28.755512 C 42.252064,28.245829 42.2406,28.320252 42.136014,26.092934 C 42.01345,23.482877 42.021122,23.236177 42.246314,22.543725 C 42.692064,21.173077 42.665536,20.378454 42.112772,18.543725 C 41.935236,17.954439 41.759922,17.279439 41.723193,17.043725 C 41.686457,16.808011 41.650329,15.618725 41.6429,14.400868 L 41.629393,12.186582 L 41.8469,11.430252 C 42.030372,10.792292 42.072122,10.496048 42.113679,9.5373944 C 42.145,8.8148344 42.212486,8.2014051 42.298964,7.853253 C 42.454257,7.2280594 42.474229,6.5909615 42.349364,6.2456487 C 42.276514,6.0442037 42.286657,5.9368258 42.417314,5.5262915 C 42.501779,5.2608808 42.607579,4.8187251 42.652422,4.5437251 C 42.803857,3.6150301 42.944643,3.191118 43.275143,2.6687251 C 43.455343,2.3839037 43.624829,2.150868 43.651786,2.150868 C 43.718093,2.150868 44.11345,2.9115437 44.208657,3.2222965 C 44.250779,3.3597965 44.301679,3.879303 44.321764,4.3767558 C 44.349522,5.0640715 44.411929,5.4927865 44.5817,6.1624701 C 44.871486,7.3055515 44.853279,7.4769137 44.327879,8.5508465 C 43.932857,9.3582894 43.912079,9.4277022 43.913022,9.9365822 C 43.913564,10.231225 43.981107,10.809797 44.063114,11.222297 C 44.145114,11.634797 44.233622,12.116939 44.259793,12.293725 C 44.369686,13.036022 44.725136,13.539454 45.372557,13.869746 C 45.580164,13.975659 45.653007,14.052378 45.627314,14.138042 C 45.607514,14.204024 45.508214,14.489632 45.406643,14.772724 C 45.305072,15.055817 45.172757,15.602246 45.112622,15.98701 C 45.052486,16.371775 44.935572,16.975868 44.852807,17.329439 C 44.656407,18.168519 44.660422,18.832832 44.865764,19.472297 C 45.145822,20.344454 45.0421,21.578759 44.56955,22.997187 C 44.264236,23.913637 44.289364,24.061352 44.933943,25.139336 C 45.536857,26.147634 45.5324,26.056834 45.035014,27.199129 L 44.702829,27.962021 L 44.73645,28.645728 C 44.76425,29.210945 44.822036,29.477992 45.069893,30.186582 C 45.286643,30.806247 45.381686,31.206992 45.412957,31.633011 L 45.456207,32.222297 L 44.979022,32.222297 C 44.149264,32.222297 43.790872,32.491017 43.893193,33.036439 C 43.931486,33.240561 44.069207,33.404176 44.598593,33.874453 C 45.707629,34.859654 45.723214,34.895432 45.331307,35.556463 C 44.786407,36.475534 44.835429,36.926117 45.716272,39.095179 C 46.1646,40.199187 46.191307,40.467707 45.890179,40.843475 C 45.574786,41.237034 45.506414,41.392328 45.506414,41.715104 C 45.506414,42.076137 45.647379,42.50276 46.0494,43.358449 C 46.223014,43.727975 46.356043,44.039335 46.345022,44.050359 C 46.333993,44.061382 46.116693,43.937109 45.862122,43.774194 z"
         id="path3400"
         transform="matrix(0.6160345,0,0,1.1660539,22.546132,-0.8260578)" />
      <g
         id="g3322"
         transform="matrix(1.1829272,0,0,1.0488685,-42.351498,3.6867602)">
        <path
           transform="matrix(0.6160345,0,0,1.1660539,22.546132,-0.8260578)"
           id="path3204"
           d="M 78.256414,32.558822 C 78.157857,32.351286 78.019429,32.206517 77.809986,32.091945 C 77.593314,31.973413 77.506414,31.880306 77.506414,31.766671 C 77.506414,31.584536 77.15415,31.223341 76.804672,31.04714 C 76.66895,30.978715 76.537286,30.841563 76.497364,30.727032 C 76.451736,30.596154 76.306557,30.460816 76.078822,30.336867 C 75.847843,30.21115 75.722522,30.093477 75.707564,29.988265 C 75.692479,29.882074 75.548872,29.749186 75.274272,29.587277 C 74.95585,29.39953 74.863557,29.306639 74.863557,29.173898 C 74.863557,28.974472 74.297272,28.387093 74.043636,28.323435 C 73.911543,28.290281 73.871907,28.217942 73.835514,27.94357 C 73.784957,27.562469 73.536643,27.266456 73.197072,27.182485 C 72.980086,27.128828 72.969193,27.111244 72.901857,26.705799 C 72.842422,26.347968 72.158243,25.609262 71.781793,25.496475 L 71.514529,25.416402 L 71.697879,25.176023 C 71.921872,24.882361 71.887822,24.579995 71.596529,24.275951 C 71.490343,24.165119 71.402522,24.018653 71.401372,23.950471 C 71.398886,23.803782 70.897386,23.334319 70.666379,23.262437 C 70.544279,23.224442 70.508557,23.164382 70.519857,23.016064 C 70.54485,22.688068 70.267307,22.395547 69.650564,22.099867 C 69.176479,21.872582 69.085257,21.800952 69.078736,21.650868 C 69.063872,21.308598 68.840693,20.979086 68.50285,20.800601 C 68.211936,20.646907 68.168886,20.591105 68.092222,20.268371 C 68.041529,20.054987 67.922157,19.818955 67.799736,19.690067 C 67.631807,19.513265 67.599843,19.427762 67.629857,19.235568 C 67.678964,18.921202 67.481179,18.494672 67.212807,18.336141 L 67.001279,18.211184 L 67.183843,18.067577 C 67.666922,17.687589 67.706722,17.005018 67.269193,16.604049 C 67.130972,16.477384 66.888272,16.338847 66.729843,16.296186 L 66.441786,16.218622 L 66.616957,15.960491 C 67.022679,15.362629 66.733464,14.718446 65.934986,14.441497 C 65.674743,14.351233 65.53475,14.261099 65.520264,14.174481 C 65.436136,13.671286 65.158572,13.407436 64.629993,13.328171 C 64.258279,13.272429 64.257557,13.271349 64.372222,12.942439 C 64.438572,12.752091 64.430093,12.671442 64.322764,12.472148 C 64.185114,12.216557 63.954043,12.090139 63.291443,11.907935 C 62.985907,11.823918 62.868629,11.750168 62.767014,11.578146 C 62.695029,11.456283 62.527964,11.304994 62.395757,11.24195 C 62.263557,11.178907 62.171522,11.101222 62.191243,11.069317 C 62.210957,11.037412 62.1936,10.886914 62.152657,10.734879 C 62.093164,10.513941 62.022893,10.4335 61.802586,10.334154 C 61.623857,10.253562 61.485936,10.123867 61.410314,9.9652937 C 61.343857,9.8259165 61.193514,9.672898 61.060772,9.6095172 C 60.868829,9.5178715 60.824522,9.4528215 60.808979,9.2398115 C 60.798614,9.0976394 60.746672,8.9310758 60.693572,8.8696658 C 60.640472,8.8082558 60.574136,8.6615822 60.546157,8.5437251 C 60.518179,8.425868 60.441536,8.2682822 60.37585,8.1935344 C 60.260714,8.0625201 60.265093,8.0593072 60.497486,8.1042487 C 60.630079,8.129888 60.809093,8.150868 60.895307,8.150868 C 61.003579,8.150868 61.083664,8.2226672 61.154236,8.3830108 C 61.302836,8.720628 61.768957,8.9365822 62.349086,8.9365822 C 62.725093,8.9365822 62.892672,8.980098 63.3118,9.1865822 C 63.783272,9.4188472 63.867714,9.4367022 64.502129,9.438278 C 65.070693,9.4396894 65.256722,9.470328 65.613557,9.6213158 C 66.576493,10.028768 66.576136,10.028692 67.506414,10.021127 C 68.206357,10.015437 68.497357,10.044099 68.853222,10.153795 C 69.430536,10.331752 70.027107,10.330572 70.780372,10.149992 C 71.344229,10.014817 71.399064,10.013332 71.816086,10.121952 C 72.333936,10.256838 72.786679,10.221954 73.4029,9.9996965 C 73.679722,9.8998522 74.101722,9.8286908 74.613557,9.7955401 C 75.266322,9.7532644 75.488164,9.7065015 75.924607,9.5191887 C 76.317107,9.3507351 76.556872,9.2937251 76.872822,9.2937251 C 77.132543,9.2937251 77.453464,9.2341444 77.704629,9.1392951 C 77.98255,9.0343401 78.286593,8.9828515 78.653686,8.9785808 C 79.115364,8.9732115 79.25695,8.9392187 79.628479,8.7445558 C 80.012014,8.5435987 80.109379,8.5215872 80.456322,8.5573951 C 81.046093,8.6182622 81.334843,8.5374201 81.686972,8.2128415 L 81.997557,7.9265508 L 82.110307,8.1445858 C 82.172322,8.2645051 82.317693,8.432588 82.433357,8.5181037 C 82.549029,8.6036187 82.63175,8.6928601 82.617193,8.7164165 C 82.602629,8.7399751 82.616036,8.8976772 82.646972,9.0668687 C 82.690743,9.3062408 82.673472,9.4360751 82.569107,9.6520858 C 82.395936,10.010504 82.398879,10.039353 82.623643,10.186624 L 82.812307,10.310239 L 82.5612,10.453747 C 82.303107,10.601244 82.077843,10.966512 82.077843,11.237506 C 82.077843,11.321775 82.040193,11.494835 81.994186,11.622081 C 81.926864,11.80823 81.850693,11.870189 81.604314,11.939169 C 80.983736,12.112924 80.536922,12.684642 80.59085,13.235942 C 80.609064,13.422116 80.585286,13.472735 80.4707,13.491707 C 79.714779,13.616864 79.546222,13.676675 79.352879,13.888353 C 79.240893,14.010962 79.149272,14.171365 79.149272,14.244806 C 79.149272,14.318248 79.084986,14.460062 79.006414,14.559949 C 78.914543,14.676747 78.863557,14.849719 78.863557,15.044612 C 78.863557,15.215085 78.82045,15.383437 78.765022,15.429438 C 78.629893,15.541585 78.567586,15.900312 78.646972,16.109107 C 78.696164,16.238502 78.686779,16.291458 78.609372,16.321162 C 78.552629,16.342937 78.453179,16.471937 78.388379,16.607831 C 78.287043,16.820341 78.28375,16.886775 78.364886,17.082647 C 78.416764,17.207899 78.586207,17.402372 78.741414,17.514806 C 78.9852,17.691402 79.025579,17.759723 79.038043,18.016704 C 79.058572,18.439895 79.410964,18.753657 80.003114,18.875963 C 80.356336,18.948922 80.428664,18.986903 80.38455,19.076287 C 80.354614,19.136949 80.327136,19.379814 80.323493,19.615987 C 80.317964,19.973969 80.286022,20.078667 80.13145,20.245457 C 79.8846,20.511808 79.821093,20.910976 79.969186,21.265398 C 80.091443,21.558009 80.089529,21.562562 79.752693,21.780759 C 79.60685,21.87523 79.225314,22.573861 79.295779,22.61741 C 79.337379,22.643116 79.307207,22.743664 79.221993,22.863338 C 79.142707,22.974678 79.077843,23.142921 79.077843,23.237207 C 79.077843,23.368159 78.951829,23.500477 78.544129,23.797609 C 78.250586,24.011544 78.009514,24.206742 78.008414,24.231382 C 78.007314,24.256022 78.235036,24.335479 78.514464,24.407954 C 78.980479,24.528823 79.005114,24.544234 78.812229,24.594217 C 78.529414,24.667499 78.38865,24.842593 78.331393,25.192307 C 78.286307,25.467629 78.299972,25.498472 78.578386,25.750002 C 78.835714,25.982482 78.867157,26.043285 78.8263,26.229323 C 78.748864,26.581884 79.065243,26.964244 79.63115,27.202007 C 79.907229,27.318002 79.934472,27.35228 79.934722,27.583933 C 79.935043,27.891368 80.215736,28.196304 80.5622,28.265597 C 80.753436,28.303843 80.803622,28.356855 80.865236,28.585679 C 80.905843,28.736515 81.008086,28.908256 81.092429,28.967329 C 81.224464,29.059814 81.243329,29.134606 81.228179,29.505658 C 81.211279,29.919808 81.217386,29.936582 81.385093,29.936582 C 81.532607,29.936582 81.56645,29.979534 81.604007,30.214396 C 81.629479,30.373674 81.724279,30.564152 81.826193,30.660824 C 81.970086,30.797321 82.004179,30.899203 82.005179,31.195694 C 82.005957,31.426982 82.044529,31.593579 82.109843,31.647786 C 82.166729,31.694997 82.278729,31.844562 82.358729,31.980153 L 82.504186,32.226682 L 82.308872,32.301978 C 81.857457,32.47601 80.857186,32.647882 80.287393,32.649322 C 79.950857,32.650174 79.484786,32.683534 79.251679,32.72346 C 78.340764,32.879477 78.414486,32.891674 78.256414,32.558823 L 78.256414,32.558822 z"
           style="opacity:1;fill:#666666;fill-opacity:1;fill-rule:nonzero;stroke:none;stroke-width:0.40799999;stroke-linecap:round;stroke-linejoin:round;marker:none;marker-start:none;marker-mid:none;marker-end:none;stroke-miterlimit:4;stroke-dasharray:none;stroke-dashoffset:0;stroke-opacity:0.98983047;visibility:visible;display:inline;overflow:visible;enable-background:accumulate" />
        <path
           transform="matrix(0.6160345,0,0,1.1660539,22.546132,-0.8260578)"
           id="path3206"
           d="M 69.006414,9.0009351 C 68.679007,8.8846744 68.458864,8.8647201 67.684986,8.8811515 C 66.800179,8.8999365 66.739586,8.8919865 66.399272,8.7124051 C 65.84425,8.4195244 65.32495,8.2937251 64.670943,8.2937251 C 64.143507,8.2937251 64.03305,8.2696672 63.701557,8.082583 C 63.407379,7.916563 63.200293,7.8608372 62.732493,7.8218244 C 62.209943,7.7782465 62.130329,7.7531944 62.078136,7.6159194 C 61.996622,7.4015501 61.600614,7.0803344 61.41165,7.0753215 C 61.052986,7.0658108 62.312222,6.7818008 62.934986,6.731748 C 63.406564,6.6938472 63.704064,6.6302401 63.910264,6.5232322 C 64.190393,6.3778594 64.219772,6.3756401 64.436079,6.4835458 C 64.738072,6.634203 65.327929,6.575348 65.900086,6.3374722 C 66.260536,6.1876151 66.512836,6.1482215 67.471514,6.0921044 C 68.179407,6.0506672 68.71045,5.9846915 68.868443,5.9185544 C 69.091893,5.8250144 69.147729,5.824638 69.321136,5.9154951 C 69.556957,6.0390544 70.898586,6.0533572 71.498307,5.9387072 C 72.04675,5.833863 72.379329,5.848108 73.142257,6.0091301 C 73.9935,6.1887922 74.299386,6.1872944 74.851772,6.0007487 L 75.296293,5.8506272 L 75.847786,5.9970422 C 76.1511,6.0775672 76.750179,6.210128 77.179057,6.2916194 C 78.0364,6.4545237 78.387186,6.4140051 78.473486,6.1421008 C 78.555214,5.8846065 78.805993,5.8328844 79.141893,6.004248 C 79.306386,6.0881644 79.624443,6.1896622 79.848693,6.2297972 C 80.739043,6.3891522 81.506336,6.595273 81.504757,6.6746765 C 81.50385,6.7205108 81.359522,6.9084872 81.184029,7.0924022 L 80.86495,7.4267951 L 80.239243,7.4138294 C 79.64805,7.4015822 79.593872,7.4133872 79.256414,7.6279808 C 78.92795,7.8368558 78.864414,7.8519222 78.465186,7.8156072 C 78.110643,7.7833587 77.966657,7.8055494 77.679472,7.9366965 C 77.452479,8.0403515 77.099964,8.1168622 76.684986,8.1525372 C 76.212772,8.1931322 75.905707,8.2666058 75.528186,8.4293351 C 75.094836,8.6161287 74.924164,8.650868 74.439757,8.650868 C 73.992993,8.650868 73.710829,8.700338 73.170657,8.8733701 L 72.476057,9.0958708 L 71.926072,8.9702608 C 71.386536,8.8470337 71.363414,8.8475658 70.709107,8.9982522 C 69.902507,9.1840122 69.523693,9.1846101 69.006414,9.000933 L 69.006414,9.0009351 z"
           style="opacity:1;fill:#454545;fill-opacity:1;fill-rule:nonzero;stroke:none;stroke-width:0.40799999;stroke-linecap:round;stroke-linejoin:round;marker:none;marker-start:none;marker-mid:none;marker-end:none;stroke-miterlimit:4;stroke-dasharray:none;stroke-dashoffset:0;stroke-opacity:0.98983047;visibility:visible;display:inline;overflow:visible;enable-background:accumulate" />
        <path
           sodipodi:open="true"
           sodipodi:end="2.8507221"
           sodipodi:start="0.46393045"
           transform="matrix(0.7593243,0,0,1.0905495,6.7920128,21.102619)"
           d="M 86.229906,-7.6642665 A 7.2857146,2.1071429 0 0 1 72.734612,-8.0028427"
           sodipodi:ry="2.1071429"
           sodipodi:rx="7.2857146"
           sodipodi:cy="-8.6071424"
           sodipodi:cx="79.714287"
           id="path3190"
           style="opacity:1;fill:none;fill-opacity:1;fill-rule:evenodd;stroke:#a1a1a1;stroke-width:1.60024869;stroke-linecap:round;stroke-linejoin:round;marker:none;marker-start:none;marker-mid:none;marker-end:none;stroke-miterlimit:4;stroke-dasharray:none;stroke-dashoffset:0;stroke-opacity:1;visibility:visible;display:inline;overflow:visible;filter:url(#filter3236);enable-background:accumulate"
           sodipodi:type="arc" />
        <path
           sodipodi:open="true"
           sodipodi:end="2.8507221"
           sodipodi:start="0.46393045"
           transform="matrix(0.554291,0,0,0.4321138,23.196331,20.506098)"
           d="M 86.229906,-7.6642665 A 7.2857146,2.1071429 0 0 1 72.734612,-8.0028427"
           sodipodi:ry="2.1071429"
           sodipodi:rx="7.2857146"
           sodipodi:cy="-8.6071424"
           sodipodi:cx="79.714287"
           id="path3192"
           style="opacity:1;fill:none;fill-opacity:1;fill-rule:evenodd;stroke:#b3b3b3;stroke-width:1.60024869;stroke-linecap:round;stroke-linejoin:round;marker:none;marker-start:none;marker-mid:none;marker-end:none;stroke-miterlimit:4;stroke-dasharray:none;stroke-dashoffset:0;stroke-opacity:1;visibility:visible;display:inline;overflow:visible;filter:url(#filter3288);enable-background:accumulate"
           sodipodi:type="arc" />
        <path
           sodipodi:open="true"
           sodipodi:end="2.8507221"
           sodipodi:start="0.46393045"
           transform="matrix(0.5435673,0,0,0.6931666,24.664711,26.438613)"
           d="M 86.229906,-7.6642665 A 7.2857146,2.1071429 0 0 1 72.734612,-8.0028427"
           sodipodi:ry="2.1071429"
           sodipodi:rx="7.2857146"
           sodipodi:cy="-8.6071424"
           sodipodi:cx="79.714287"
           id="path3292"
           style="opacity:1;fill:none;fill-opacity:1;fill-rule:evenodd;stroke:#b3b3b3;stroke-width:1.60024869;stroke-linecap:round;stroke-linejoin:round;marker:none;marker-start:none;marker-mid:none;marker-end:none;stroke-miterlimit:4;stroke-dasharray:none;stroke-dashoffset:0;stroke-opacity:1;visibility:visible;display:inline;overflow:visible;filter:url(#filter3288);enable-background:accumulate"
           sodipodi:type="arc" />
        <path
           sodipodi:open="true"
           sodipodi:end="2.8507221"
           sodipodi:start="0.46393045"
           transform="matrix(0.3635401,0,0,0.5151123,40.997791,36.308289)"
           d="M 86.229906,-7.6642665 A 7.2857146,2.1071429 0 0 1 72.734612,-8.0028427"
           sodipodi:ry="2.1071429"
           sodipodi:rx="7.2857146"
           sodipodi:cy="-8.6071424"
           sodipodi:cx="79.714287"
           id="path3294"
           style="opacity:1;fill:none;fill-opacity:1;fill-rule:evenodd;stroke:#b3b3b3;stroke-width:1.60024869;stroke-linecap:round;stroke-linejoin:round;marker:none;marker-start:none;marker-mid:none;marker-end:none;stroke-miterlimit:4;stroke-dasharray:none;stroke-dashoffset:0;stroke-opacity:1;visibility:visible;display:inline;overflow:visible;filter:url(#filter3288);enable-background:accumulate"
           sodipodi:type="arc" />
        <path
           sodipodi:open="true"
           sodipodi:end="2.8507221"
           sodipodi:start="0.46393045"
           transform="matrix(0.4268919,0,0,0.4835062,34.906388,29.749099)"
           d="M 86.229906,-7.6642665 A 7.2857146,2.1071429 0 0 1 72.734612,-8.0028427"
           sodipodi:ry="2.1071429"
           sodipodi:rx="7.2857146"
           sodipodi:cy="-8.6071424"
           sodipodi:cx="79.714287"
           id="path3296"
           style="opacity:1;fill:none;fill-opacity:1;fill-rule:evenodd;stroke:#b3b3b3;stroke-width:1.60024869;stroke-linecap:round;stroke-linejoin:round;marker:none;marker-start:none;marker-mid:none;marker-end:none;stroke-miterlimit:4;stroke-dasharray:none;stroke-dashoffset:0;stroke-opacity:1;visibility:visible;display:inline;overflow:visible;filter:url(#filter3288);enable-background:accumulate"
           sodipodi:type="arc" />
        <path
           sodipodi:open="true"
           sodipodi:end="2.8507221"
           sodipodi:start="0.46393045"
           transform="matrix(0.3351323,0,0,0.5310424,42.441665,33.508669)"
           d="M 86.229906,-7.6642665 A 7.2857146,2.1071429 0 0 1 72.734612,-8.0028427"
           sodipodi:ry="2.1071429"
           sodipodi:rx="7.2857146"
           sodipodi:cy="-8.6071424"
           sodipodi:cx="79.714287"
           id="path3298"
           style="opacity:1;fill:none;fill-opacity:1;fill-rule:evenodd;stroke:#b3b3b3;stroke-width:1.60024869;stroke-linecap:round;stroke-linejoin:round;marker:none;marker-start:none;marker-mid:none;marker-end:none;stroke-miterlimit:4;stroke-dasharray:none;stroke-dashoffset:0;stroke-opacity:1;visibility:visible;display:inline;overflow:visible;filter:url(#filter3288);enable-background:accumulate"
           sodipodi:type="arc" />
        <path
           sodipodi:open="true"
           sodipodi:end="2.8507221"
           sodipodi:start="0.46393045"
           transform="matrix(0.2973732,0,0,0.554289,47.818972,39.590795)"
           d="M 86.229906,-7.6642665 A 7.2857146,2.1071429 0 0 1 72.734612,-8.0028427"
           sodipodi:ry="2.1071429"
           sodipodi:rx="7.2857146"
           sodipodi:cy="-8.6071424"
           sodipodi:cx="79.714287"
           id="path3300"
           style="opacity:1;fill:none;fill-opacity:1;fill-rule:evenodd;stroke:#b3b3b3;stroke-width:1.60024869;stroke-linecap:round;stroke-linejoin:round;marker:none;marker-start:none;marker-mid:none;marker-end:none;stroke-miterlimit:4;stroke-dasharray:none;stroke-dashoffset:0;stroke-opacity:1;visibility:visible;display:inline;overflow:visible;filter:url(#filter3288);enable-background:accumulate"
           sodipodi:type="arc" />
        <path
           sodipodi:open="true"
           sodipodi:end="2.8507221"
           sodipodi:start="0.46393045"
           transform="matrix(0.554291,0,0,0.4321138,23.196332,18.715372)"
           d="M 86.229906,-7.6642665 A 7.2857146,2.1071429 0 0 1 72.734612,-8.0028427"
           sodipodi:ry="2.1071429"
           sodipodi:rx="7.2857146"
           sodipodi:cy="-8.6071424"
           sodipodi:cx="79.714287"
           id="path3302"
           style="opacity:1;fill:#333333;fill-opacity:1;fill-rule:evenodd;stroke:#262626;stroke-width:1.60024869;stroke-linecap:round;stroke-linejoin:round;marker:none;marker-start:none;marker-mid:none;marker-end:none;stroke-miterlimit:4;stroke-dasharray:none;stroke-dashoffset:0;stroke-opacity:1;visibility:visible;display:inline;overflow:visible;filter:url(#filter3288);enable-background:accumulate"
           sodipodi:type="arc" />
        <path
           sodipodi:open="true"
           sodipodi:end="2.8507221"
           sodipodi:start="0.46393045"
           transform="matrix(0.554291,0,0,0.4321138,23.284337,22.96314)"
           d="M 86.229906,-7.6642665 A 7.2857146,2.1071429 0 0 1 72.734612,-8.0028427"
           sodipodi:ry="2.1071429"
           sodipodi:rx="7.2857146"
           sodipodi:cy="-8.6071424"
           sodipodi:cx="79.714287"
           id="path3304"
           style="opacity:1;fill:#333333;fill-opacity:1;fill-rule:evenodd;stroke:#262626;stroke-width:1.60024869;stroke-linecap:round;stroke-linejoin:round;marker:none;marker-start:none;marker-mid:none;marker-end:none;stroke-miterlimit:4;stroke-dasharray:none;stroke-dashoffset:0;stroke-opacity:1;visibility:visible;display:inline;overflow:visible;filter:url(#filter3288);enable-background:accumulate"
           sodipodi:type="arc" />
        <path
           sodipodi:open="true"
           sodipodi:end="2.8507221"
           sodipodi:start="0.46393045"
           transform="matrix(0.554291,0,0,0.4321138,24.428401,26.961039)"
           d="M 86.229906,-7.6642665 A 7.2857146,2.1071429 0 0 1 72.734612,-8.0028427"
           sodipodi:ry="2.1071429"
           sodipodi:rx="7.2857146"
           sodipodi:cy="-8.6071424"
           sodipodi:cx="79.714287"
           id="path3306"
           style="opacity:1;fill:#333333;fill-opacity:1;fill-rule:evenodd;stroke:#262626;stroke-width:1.60024869;stroke-linecap:round;stroke-linejoin:round;marker:none;marker-start:none;marker-mid:none;marker-end:none;stroke-miterlimit:4;stroke-dasharray:none;stroke-dashoffset:0;stroke-opacity:1;visibility:visible;display:inline;overflow:visible;filter:url(#filter3288);enable-background:accumulate"
           sodipodi:type="arc" />
        <path
           sodipodi:open="true"
           sodipodi:end="2.8507221"
           sodipodi:start="0.46393045"
           transform="matrix(0.3730244,0,0,0.5100562,38.857886,32.440306)"
           d="M 86.229906,-7.6642665 A 7.2857146,2.1071429 0 0 1 72.734612,-8.0028427"
           sodipodi:ry="2.1071429"
           sodipodi:rx="7.2857146"
           sodipodi:cy="-8.6071424"
           sodipodi:cx="79.714287"
           id="path3308"
           style="opacity:1;fill:#333333;fill-opacity:1;fill-rule:evenodd;stroke:#262626;stroke-width:1.60024869;stroke-linecap:round;stroke-linejoin:round;marker:none;marker-start:none;marker-mid:none;marker-end:none;stroke-miterlimit:4;stroke-dasharray:none;stroke-dashoffset:0;stroke-opacity:1;visibility:visible;display:inline;overflow:visible;filter:url(#filter3288);enable-background:accumulate"
           sodipodi:type="arc" />
        <path
           sodipodi:open="true"
           sodipodi:end="2.8507221"
           sodipodi:start="0.46393045"
           transform="matrix(0.3603803,0,0,0.5168247,41.050928,35.071363)"
           d="M 86.229906,-7.6642665 A 7.2857146,2.1071429 0 0 1 72.734612,-8.0028427"
           sodipodi:ry="2.1071429"
           sodipodi:rx="7.2857146"
           sodipodi:cy="-8.6071424"
           sodipodi:cx="79.714287"
           id="path3310"
           style="opacity:1;fill:#333333;fill-opacity:1;fill-rule:evenodd;stroke:#262626;stroke-width:1.60024869;stroke-linecap:round;stroke-linejoin:round;marker:none;marker-start:none;marker-mid:none;marker-end:none;stroke-miterlimit:4;stroke-dasharray:none;stroke-dashoffset:0;stroke-opacity:1;visibility:visible;display:inline;overflow:visible;filter:url(#filter3288);enable-background:accumulate"
           sodipodi:type="arc" />
        <path
           sodipodi:open="true"
           sodipodi:end="2.8507221"
           sodipodi:start="0.46393045"
           transform="matrix(0.3351323,0,0,0.5310424,44.333769,38.589333)"
           d="M 86.229906,-7.6642665 A 7.2857146,2.1071429 0 0 1 72.734612,-8.0028427"
           sodipodi:ry="2.1071429"
           sodipodi:rx="7.2857146"
           sodipodi:cy="-8.6071424"
           sodipodi:cx="79.714287"
           id="path3312"
           style="opacity:1;fill:#333333;fill-opacity:1;fill-rule:evenodd;stroke:#262626;stroke-width:1.60024869;stroke-linecap:round;stroke-linejoin:round;marker:none;marker-start:none;marker-mid:none;marker-end:none;stroke-miterlimit:4;stroke-dasharray:none;stroke-dashoffset:0;stroke-opacity:1;visibility:visible;display:inline;overflow:visible;filter:url(#filter3288);enable-background:accumulate"
           sodipodi:type="arc" />
        <path
           sodipodi:open="true"
           sodipodi:end="2.8507221"
           sodipodi:start="0.46393045"
           transform="matrix(0.6547319,-9.5843891e-2,1.6257826e-2,0.3979136,17.48707,21.33776)"
           d="M 86.229906,-7.6642665 A 7.2857146,2.1071429 0 0 1 72.734612,-8.0028427"
           sodipodi:ry="2.1071429"
           sodipodi:rx="7.2857146"
           sodipodi:cy="-8.6071424"
           sodipodi:cx="79.714287"
           id="path3314"
           style="opacity:1;fill:#333333;fill-opacity:1;fill-rule:evenodd;stroke:#262626;stroke-width:1.60024869;stroke-linecap:round;stroke-linejoin:round;marker:none;marker-start:none;marker-mid:none;marker-end:none;stroke-miterlimit:4;stroke-dasharray:none;stroke-dashoffset:0;stroke-opacity:1;visibility:visible;display:inline;overflow:visible;filter:url(#filter3288);enable-background:accumulate"
           sodipodi:type="arc" />
        <path
           inkscape:transform-center-x="0.05122151"
           inkscape:transform-center-y="0.56566962"
           sodipodi:open="true"
           sodipodi:end="2.8507221"
           sodipodi:start="0.46393045"
           transform="matrix(0.551644,0.1024132,-2.2283795e-2,0.4300502,19.944424,6.1419028)"
           d="M 86.229906,-7.6642665 A 7.2857146,2.1071429 0 0 1 72.734612,-8.0028427"
           sodipodi:ry="2.1071429"
           sodipodi:rx="7.2857146"
           sodipodi:cy="-8.6071424"
           sodipodi:cx="79.714287"
           id="path3316"
           style="opacity:1;fill:#333333;fill-opacity:1;fill-rule:evenodd;stroke:#262626;stroke-width:1.60024869;stroke-linecap:round;stroke-linejoin:round;marker:none;marker-start:none;marker-mid:none;marker-end:none;stroke-miterlimit:4;stroke-dasharray:none;stroke-dashoffset:0;stroke-opacity:1;visibility:visible;display:inline;overflow:visible;filter:url(#filter3288);enable-background:accumulate"
           sodipodi:type="arc" />
        <path
           sodipodi:open="true"
           sodipodi:end="2.8507221"
           sodipodi:start="0.46393045"
           transform="matrix(0.6855441,0,0,-0.3908069,11.861987,4.8356204)"
           d="M 86.229906,-7.6642665 A 7.2857146,2.1071429 0 0 1 72.734612,-8.0028427"
           sodipodi:ry="2.1071429"
           sodipodi:rx="7.2857146"
           sodipodi:cy="-8.6071424"
           sodipodi:cx="79.714287"
           id="path3318"
           style="opacity:1;fill:none;fill-opacity:1;fill-rule:evenodd;stroke:#6e6e6e;stroke-width:1.60024869;stroke-linecap:round;stroke-linejoin:round;marker:none;marker-start:none;marker-mid:none;marker-end:none;stroke-miterlimit:4;stroke-dasharray:none;stroke-dashoffset:0;stroke-opacity:1;visibility:visible;display:inline;overflow:visible;filter:url(#filter3288);enable-background:accumulate"
           sodipodi:type="arc" />
        <path
           sodipodi:open="true"
           sodipodi:end="2.8507221"
           sodipodi:start="0.46393045"
           transform="matrix(0.4881277,0,0,-0.2497032,27.729099,6.733346)"
           d="M 86.229906,-7.6642665 A 7.2857146,2.1071429 0 0 1 72.734612,-8.0028427"
           sodipodi:ry="2.1071429"
           sodipodi:rx="7.2857146"
           sodipodi:cy="-8.6071424"
           sodipodi:cx="79.714287"
           id="path3320"
           style="opacity:1;fill:none;fill-opacity:1;fill-rule:evenodd;stroke:#6e6e6e;stroke-width:1.60024869;stroke-linecap:round;stroke-linejoin:round;marker:none;marker-start:none;marker-mid:none;marker-end:none;stroke-miterlimit:4;stroke-dasharray:none;stroke-dashoffset:0;stroke-opacity:1;visibility:visible;display:inline;overflow:visible;filter:url(#filter3288);enable-background:accumulate"
           sodipodi:type="arc" />
        <g
           id="g3198">
          <path
             id="path2404"
             d="M 59.571429,7 C 59.78549,6.8752965 60.198671,6.758753 60.5,6.6428571 C 60.825934,6.5174978 60.915458,6.1952047 61.428571,6.3571429 C 61.752717,6.459443 62.043731,5.5159696 62.285714,6 C 62.564714,6.5580748 62.982032,5.8165886 63.357143,5.7142857 C 63.739181,5.6100935 64.166655,5.6124785 64.577155,5.5714286 C 64.919672,5.5371769 65.061821,5.0416558 65.357143,5.4285714 C 65.556684,5.6899995 66.057584,5.5 66.357143,5.5 C 66.677649,5.5 66.669805,5.1787027 67.428571,5.4285714 C 67.761942,5.5383537 68.172886,5.8464077 68.5,5.5714286 C 69.049996,5.1090898 69.195958,5.5154109 69.571429,5.6428571 C 70.996716,6.1266423 70.382739,6.1056628 70.714286,5.6428571 C 71.251945,4.8923394 71.399346,5.7470774 71.785714,5.7857143 C 72.024119,5.8095548 72.416783,6.0536065 72.714286,6.1428571 C 72.994242,6.2268441 73.082813,6.6599332 73.214286,6.8571429 C 73.447538,7.2070208 72.992183,7.5831537 72.857143,7.7857143 C 72.683886,8.0455997 72.660947,8.816698 71.928571,8.4285714 C 71.586946,8.2475255 71.430088,9.2871355 70.857143,8.9285714 C 70.572292,8.7503042 70.403236,9.4656088 69.785714,9.3571429 C 69.282285,9.2687171 69.010638,10.154025 68.357143,9.9285714 C 67.862816,9.7580298 67.453923,10.770302 66.785714,10.285714 C 66.22412,9.8784435 65.824484,11.010821 64.928571,10.285714 C 64.399501,9.8575119 64.004235,10.68124 63.214286,9.8571429 C 62.938592,9.5695312 62.57836,9.4106809 62.285714,9.5 C 61.763794,9.6592963 61.698925,9.1501962 61.428571,9 C 61.159121,8.8503054 60.551775,9.1751762 60.5,8.5 C 60.443384,7.7616918 59.931213,8.1454989 59.642857,7.8571429 C 59.496753,7.7110389 59.571429,7.1515605 59.571429,7 z"
             style="opacity:1;fill:none;fill-opacity:1;fill-rule:evenodd;stroke:#000000;stroke-width:0.89999998;stroke-linecap:butt;stroke-linejoin:miter;marker:none;marker-start:none;marker-mid:none;marker-end:none;stroke-miterlimit:4;stroke-dasharray:none;stroke-dashoffset:0;stroke-opacity:1;visibility:visible;display:inline;overflow:visible;enable-background:accumulate"
             sodipodi:nodetypes="cssssssssssssssssssssssssssc" />
          <path
             sodipodi:nodetypes="cssssssssssssssssssssc"
             id="path2406"
             d="M 59.571429,7.5714286 C 59.452476,7.4524755 59.007875,8.6780458 59.1717,8.79438 C 59.712666,9.1785249 59.416983,9.6402113 59.613271,9.8239667 C 59.838596,10.034906 59.325854,10.776261 59.701287,10.815301 C 60.382148,10.886101 59.89346,11.70142 60.214286,11.714286 C 60.868656,11.740528 60.18518,12.523743 60.5,12.642857 C 61.095385,12.868125 60.886612,13.349979 61.071429,13.5 C 61.517717,13.862264 62.167342,13.735578 61.714286,14.5 C 61.546086,14.783796 61.450759,15.279012 62.285714,15.357143 C 62.773232,15.402762 62.359938,16.339913 62.785714,16.5 C 63.540024,16.783613 63.419521,17.358388 63.142857,17.642857 C 62.724085,18.073443 62.879256,18.578519 63.357143,18.714286 C 64.012109,18.900361 63.890156,19.679547 63.571429,19.857143 C 63.248999,20.036802 63.273886,20.75855 63.714286,21.071429 C 64.079093,21.330603 63.624438,22.207928 63.928571,22.428571 C 64.336473,22.724497 64.020546,23.58884 64.428571,23.857143 C 65.016941,24.244034 64.53944,24.890895 64.857143,25.142857 C 65.410549,25.581749 65.822675,25.952206 65.571429,26.214286 C 65.071975,26.735277 66.337121,26.858467 66,27.142857 C 65.543048,27.528333 66.624339,27.795216 66.428571,28.142857 C 66.065341,28.787874 66.128839,29.415512 66.638525,29.517332 C 66.774667,29.544529 66.781382,29.755427 66.85281,29.874475"
             style="opacity:1;fill:none;fill-opacity:1;fill-rule:evenodd;stroke:#000000;stroke-width:0.89999998;stroke-linecap:butt;stroke-linejoin:miter;marker:none;marker-start:none;marker-mid:none;marker-end:none;stroke-miterlimit:4;stroke-dasharray:none;stroke-dashoffset:0;stroke-opacity:1;visibility:visible;display:inline;overflow:visible;enable-background:accumulate" />
          <path
             sodipodi:nodetypes="csssssssssssssssssssssssssssc"
             id="path2408"
             d="M 73.071428,6.6428571 C 73.13583,6.8575295 73.320441,8.5043788 73.642857,8.7142857 C 74.123023,9.0268953 73.615665,9.4944524 73.857143,9.6428571 C 74.346387,9.9435307 73.557822,10.607126 73.785714,10.714286 C 74.37543,10.991583 74.067818,11.744227 73.714286,11.857143 C 73.285983,11.99394 73.579782,12.63345 73.428571,12.857143 C 73.228792,13.152684 73.533574,13.438454 72.928571,13.714286 C 72.63668,13.847364 72.39894,14.537562 72.642857,14.642857 C 73.172352,14.871432 72.799731,15.455044 72.142857,15.571429 C 71.205153,15.737571 71.969278,16.309889 71.714286,16.357143 C 71.184434,16.455332 71.741875,17.32609 71.5,17.428571 C 70.964716,17.655368 71.841121,18.57984 71.428571,18.642857 C 70.61266,18.767488 71.850426,19.481106 71.714286,19.714286 C 71.484747,20.107438 71.471355,20.460889 72.142857,20.642857 C 72.609767,20.769383 72.659374,21.385854 72.428571,21.714286 C 72.110097,22.167473 72.773931,22.672263 72.428571,22.928571 C 71.959385,23.276775 72.04695,23.809673 72.357143,24.071429 C 72.751606,24.404296 71.558203,25.191311 71.928571,25.285714 C 72.412375,25.409031 71.454663,26.1583 71.642857,26.357143 C 72.244063,26.992369 71.053374,27.117134 71.428571,27.214286 C 72.312154,27.443076 71.770297,28.349264 71.357143,28.428571 C 70.650036,28.564304 71.953175,29.287601 71.642857,29.5 C 71.242681,29.773904 71.513004,30.17902 72,30.5 C 72.3126,30.706035 71.9252,31.403317 72.285714,31.5 C 72.911879,31.667926 72.533952,32.396912 72.785714,32.5 C 73.436695,32.766556 72.707762,33.554038 73,33.5 C 73.266446,33.450731 73.053791,34.232778 73.214286,34.5 C 73.491437,34.961453 73.979525,35.267687 73.5,35.5 C 73.115238,35.686403 74.012789,36.127487 73.928571,36.571429"
             style="opacity:1;fill:none;fill-opacity:1;fill-rule:evenodd;stroke:#000000;stroke-width:0.89999998;stroke-linecap:butt;stroke-linejoin:miter;marker:none;marker-start:none;marker-mid:none;marker-end:none;stroke-miterlimit:4;stroke-dasharray:none;stroke-dashoffset:0;stroke-opacity:1;visibility:visible;display:inline;overflow:visible;enable-background:accumulate" />
          <path
             sodipodi:nodetypes="csssssssssssssc"
             id="path2412"
             d="M 66.857143,29.676777 C 66.773339,29.856622 67.263026,30.342746 67.071429,30.571429 C 66.86502,30.817791 67.169631,31.334681 67.428571,31.428571 C 68.054776,31.655628 67.273832,32.563987 67.857143,32.714286 C 68.183203,32.7983 68.540706,33.610578 68.214286,33.642857 C 67.824258,33.681426 69.233444,34.346986 68.785714,34.571429 C 68.495126,34.717098 69.427903,35.083758 69.357143,35.357143 C 69.246169,35.785899 70.067207,36.081697 69.928571,36.428571 C 69.751292,36.872132 70.381881,37.081781 70.428571,37.357143 C 70.576802,38.231368 70.707328,38.217255 71.336222,38.021664 C 71.596998,37.940561 71.755055,37.812231 72.142857,37.928571 C 72.316478,37.980658 72.929863,37.685327 73.071429,37.642857 C 73.387337,37.548085 73.58259,37.249162 73.785714,37.071429 C 74.085588,36.809039 74.021303,36.267079 73.785714,36.285714 C 73.434935,36.313461 73.785714,36.170304 73.785714,36.142857"
             style="opacity:1;fill:none;fill-opacity:1;fill-rule:evenodd;stroke:#000000;stroke-width:0.89999998;stroke-linecap:butt;stroke-linejoin:miter;marker:none;marker-start:none;marker-mid:none;marker-end:none;stroke-miterlimit:4;stroke-dasharray:none;stroke-dashoffset:0;stroke-opacity:1;visibility:visible;display:inline;overflow:visible;enable-background:accumulate" />
        </g>
      </g>
    </g>
  </g>
</svg>
